M48
; DRILL file {KiCad 9.0.2} date 2025-08-17T18:49:40+0600
; FORMAT={-:-/ absolute / inch / decimal}
; #@! TF.CreationDate,2025-08-17T18:49:40+06:00
; #@! TF.GenerationSoftware,Kicad,Pcbnew,9.0.2
; #@! TF.FileFunction,Plated,1,4,PTH
FMAT,2
INCH
; #@! TA.AperFunction,Plated,PTH,ViaDrill
T1C0.0079
; #@! TA.AperFunction,Plated,PTH,ComponentDrill
T2C0.0118
; #@! TA.AperFunction,Plated,PTH,ComponentDrill
T3C0.0197
; #@! TA.AperFunction,Plated,PTH,ComponentDrill
T4C0.0315
; #@! TA.AperFunction,Plated,PTH,ComponentDrill
T5C0.0394
%
G90
G05
T1
X1.1433Y-2.9567
X1.1433Y-3.2567
X1.1433Y-3.3567
X1.185Y-3.3819
X1.2205Y-3.311
X1.2598Y-2.9882
X1.3433Y-3.1567
X1.3612Y-2.9872
X1.3701Y-3.3425
X1.4055Y-3.2047
X1.4114Y-3.4213
X1.4433Y-3.1567
X1.4567Y-2.8504
X1.4587Y-2.9626
X1.511Y-3.2865
X1.5256Y-2.8406
X1.5433Y-3.0567
X1.5433Y-3.1567
X1.6211Y-3.0787
X1.6211Y-3.2274
X1.6433Y-3.1567
X1.6457Y-2.9528
X1.6663Y-2.8435
X1.6929Y-2.937
X1.7362Y-2.937
X1.7433Y-3.0567
X1.7598Y-3.2126
X1.7795Y-2.937
X1.8472Y-2.937
X1.8472Y-2.9685
X1.9089Y-2.9364
X1.9272Y-3.0512
X1.9433Y-1.5567
X1.9433Y-1.6567
X1.9433Y-1.7567
X1.9433Y-1.8567
X1.9433Y-1.9567
X1.9433Y-2.0567
X1.9433Y-2.1567
X1.9433Y-3.3567
X1.9528Y-2.937
X1.9961Y-2.937
X2.0394Y-2.937
X2.0433Y-3.1567
X2.0433Y-3.3567
X2.0748Y-2.0551
X2.084Y-2.2953
X2.084Y-2.3228
X2.086Y-3.3425
X2.0886Y-2.9665
X2.0945Y-1.874
X2.0984Y-2.0669
X2.1251Y-2.9086
X2.126Y-2.4567
X2.1285Y-1.6457
X2.1333Y-1.6884
X2.1339Y-1.8268
X2.1339Y-1.9134
X2.1339Y-2.2047
X2.1395Y-2.4203
X2.1433Y-3.1567
X2.1433Y-3.3567
X2.146Y-2.3035
X2.1535Y-1.6457
X2.1576Y-2.5668
X2.1594Y-2.185
X2.16Y-2.2446
X2.1762Y-2.6762
X2.1823Y-1.639
X2.1868Y-1.939
X2.187Y-2.1358
X2.189Y-2.4606
X2.1929Y-2.0354
X2.1931Y-2.5571
X2.2067Y-1.7933
X2.2087Y-1.5866
X2.2116Y-2.01
X2.2244Y-2.5512
X2.2283Y-1.9291
X2.2283Y-1.9921
X2.2303Y-1.7933
X2.2305Y-2.8206
X2.2407Y-1.9685
X2.2433Y-3.1567
X2.2433Y-3.2567
X2.255Y-2.8198
X2.2587Y-1.9331
X2.2656Y-2.3584
X2.2717Y-1.8346
X2.2756Y-2.5748
X2.2783Y-1.9488
X2.2913Y-2.4252
X2.2972Y-1.6929
X2.315Y-2.2717
X2.3189Y-2.4961
X2.3228Y-2.5551
X2.3287Y-2.8917
X2.3307Y-1.7402
X2.3366Y-2.1358
X2.3433Y-1.5567
X2.3433Y-1.6567
X2.3433Y-1.9567
X2.3433Y-3.0567
X2.3433Y-3.1567
X2.3433Y-3.2567
X2.3433Y-3.3567
X2.3548Y-2.0792
X2.3642Y-1.6929
X2.374Y-2.1181
X2.392Y-2.0964
X2.4035Y-2.1557
X2.4272Y-2.0177
X2.4433Y-1.5567
X2.4433Y-1.6567
X2.4433Y-3.0567
X2.4433Y-3.1567
X2.4433Y-3.2567
X2.4449Y-2.2283
X2.4449Y-2.2559
X2.451Y-2.2795
X2.4547Y-1.8425
X2.4626Y-2.4508
X2.4705Y-2.624
X2.4764Y-1.7657
X2.4768Y-1.8114
X2.4812Y-1.8819
X2.4843Y-2.9252
X2.4935Y-2.5709
X2.5Y-1.7402
X2.5068Y-2.6131
X2.5236Y-1.7146
X2.5433Y-1.5567
X2.5433Y-1.6567
X2.5433Y-2.3031
X2.5433Y-3.1567
X2.5453Y-1.9016
X2.5709Y-2.3504
T2
X1.4218Y-2.876
X1.4218Y-2.9154
T3
X2.5888Y-3.0098
X2.5888Y-3.0591
X2.5888Y-3.1083
X2.5888Y-3.1575
T4
X1.1811Y-2.874
X1.1811Y-3.0197
X1.1811Y-3.1654
X2.0079Y-1.6929
X2.0079Y-1.7929
X2.0079Y-1.8929
X2.0079Y-1.9929
X2.0079Y-2.0929
X2.0079Y-2.1929
X2.0079Y-2.2929
X2.0079Y-2.3929
X2.0079Y-2.4929
X2.0079Y-2.5929
X2.0079Y-2.6929
X2.0079Y-2.7929
X2.6079Y-1.6929
X2.6079Y-1.7929
X2.6079Y-1.8929
X2.6079Y-1.9929
X2.6079Y-2.0929
X2.6079Y-2.1929
X2.6079Y-2.2929
X2.6079Y-2.3929
X2.6079Y-2.4929
X2.6079Y-2.5929
X2.6079Y-2.6929
X2.6079Y-2.7929
T5
X2.2402Y-3.0886
X2.2402Y-3.3445
M30
