M48
; DRILL file {KiCad 9.0.2} date 2025-08-14T17:11:00+0600
; FORMAT={-:-/ absolute / inch / decimal}
; #@! TF.CreationDate,2025-08-14T17:11:00+06:00
; #@! TF.GenerationSoftware,Kicad,Pcbnew,9.0.2
; #@! TF.FileFunction,Plated,1,2,PTH
FMAT,2
INCH
; #@! TA.AperFunction,Plated,PTH,ViaDrill
T1C0.0118
; #@! TA.AperFunction,Plated,PTH,ComponentDrill
T2C0.0118
; #@! TA.AperFunction,Plated,PTH,ComponentDrill
T3C0.0315
; #@! TA.AperFunction,Plated,PTH,ComponentDrill
T4C0.0394
%
G90
G05
T1
X1.4598Y-3.1567
X1.6358Y-3.0965
X1.6598Y-3.2567
X1.7441Y-3.0276
X1.7598Y-3.2567
X1.8661Y-3.2559
X1.937Y-3.0906
X1.939Y-3.1398
X1.9409Y-2.9882
X1.9598Y-1.5567
X2.0598Y-1.5567
X2.0598Y-1.7567
X2.0598Y-1.8567
X2.0598Y-2.1567
X2.0598Y-2.8567
X2.0598Y-3.2567
X2.1063Y-2.3819
X2.1496Y-2.189
X2.1535Y-2.5276
X2.1598Y-1.5567
X2.1598Y-1.6567
X2.1598Y-1.7567
X2.1598Y-2.7567
X2.1598Y-2.8567
X2.1598Y-3.3567
X2.185Y-2.3661
X2.2087Y-2.252
X2.248Y-2.3425
X2.2598Y-1.5567
X2.2598Y-1.6567
X2.2598Y-1.7567
X2.2598Y-1.8567
X2.2598Y-2.0567
X2.2598Y-2.5236
X2.2598Y-2.7567
X2.2598Y-2.9567
X2.2598Y-3.3567
X2.3295Y-2.4016
X2.3346Y-2.5236
X2.3598Y-1.5567
X2.3598Y-1.6567
X2.3598Y-1.7567
X2.3598Y-1.8567
X2.3598Y-1.9567
X2.3598Y-2.0567
X2.3598Y-3.1567
X2.4055Y-2.3701
X2.4094Y-2.7677
X2.4134Y-2.4449
X2.4291Y-2.5157
X2.4598Y-1.5567
X2.4598Y-1.6567
X2.4598Y-1.7567
X2.4598Y-1.8567
X2.4598Y-1.9567
X2.4598Y-2.0567
X2.4598Y-2.9567
X2.4606Y-2.6378
X2.5598Y-1.5567
X2.5598Y-2.8567
X2.5598Y-2.9567
T2
X1.6973Y-3.0768
X1.6973Y-3.1161
X2.2921Y-2.2272
X2.2921Y-2.2587
X2.3236Y-2.2272
X2.3236Y-2.2587
T3
X1.4724Y-3.0827
X1.4724Y-3.2283
X1.4724Y-3.374
X2.0079Y-1.6929
X2.0079Y-1.7929
X2.0079Y-1.8929
X2.0079Y-1.9929
X2.0079Y-2.0929
X2.0079Y-2.1929
X2.0079Y-2.2929
X2.0079Y-2.3929
X2.0079Y-2.4929
X2.0079Y-2.5929
X2.0079Y-2.6929
X2.0079Y-2.7929
X2.6079Y-1.6929
X2.6079Y-1.7929
X2.6079Y-1.8929
X2.6079Y-1.9929
X2.6079Y-2.0929
X2.6079Y-2.1929
X2.6079Y-2.2929
X2.6079Y-2.3929
X2.6079Y-2.4929
X2.6079Y-2.5929
X2.6079Y-2.6929
X2.6079Y-2.7929
T4
X1.8079Y-3.3858
X1.9079Y-3.3858
X2.0079Y-3.3858
X2.3622Y-3.061
X2.3622Y-3.3169
M30
