%TF.GenerationSoftware,KiCad,Pcbnew,9.0.2*%
%TF.CreationDate,2025-08-17T18:49:40+06:00*%
%TF.ProjectId,hp3478a-ch32-ext,68703334-3738-4612-9d63-6833322d6578,rev?*%
%TF.SameCoordinates,Original*%
%TF.FileFunction,Copper,L4,Bot*%
%TF.FilePolarity,Positive*%
%FSLAX46Y46*%
G04 Gerber Fmt 4.6, Leading zero omitted, Abs format (unit mm)*
G04 Created by KiCad (PCBNEW 9.0.2) date 2025-08-17 18:49:40*
%MOMM*%
%LPD*%
G01*
G04 APERTURE LIST*
G04 Aperture macros list*
%AMRoundRect*
0 Rectangle with rounded corners*
0 $1 Rounding radius*
0 $2 $3 $4 $5 $6 $7 $8 $9 X,Y pos of 4 corners*
0 Add a 4 corners polygon primitive as box body*
4,1,4,$2,$3,$4,$5,$6,$7,$8,$9,$2,$3,0*
0 Add four circle primitives for the rounded corners*
1,1,$1+$1,$2,$3*
1,1,$1+$1,$4,$5*
1,1,$1+$1,$6,$7*
1,1,$1+$1,$8,$9*
0 Add four rect primitives between the rounded corners*
20,1,$1+$1,$2,$3,$4,$5,0*
20,1,$1+$1,$4,$5,$6,$7,0*
20,1,$1+$1,$6,$7,$8,$9,0*
20,1,$1+$1,$8,$9,$2,$3,0*%
G04 Aperture macros list end*
%TA.AperFunction,ComponentPad*%
%ADD10RoundRect,0.250000X-0.600000X0.600000X-0.600000X-0.600000X0.600000X-0.600000X0.600000X0.600000X0*%
%TD*%
%TA.AperFunction,ComponentPad*%
%ADD11C,1.700000*%
%TD*%
%TA.AperFunction,HeatsinkPad*%
%ADD12C,0.600000*%
%TD*%
%TA.AperFunction,HeatsinkPad*%
%ADD13R,0.500000X1.600000*%
%TD*%
%TA.AperFunction,ComponentPad*%
%ADD14RoundRect,0.200000X0.450000X-0.200000X0.450000X0.200000X-0.450000X0.200000X-0.450000X-0.200000X0*%
%TD*%
%TA.AperFunction,ComponentPad*%
%ADD15O,1.300000X0.800000*%
%TD*%
%TA.AperFunction,ComponentPad*%
%ADD16R,1.600000X1.600000*%
%TD*%
%TA.AperFunction,ComponentPad*%
%ADD17O,1.600000X1.600000*%
%TD*%
%TA.AperFunction,ComponentPad*%
%ADD18R,2.000000X2.000000*%
%TD*%
%TA.AperFunction,ComponentPad*%
%ADD19C,2.000000*%
%TD*%
%TA.AperFunction,SMDPad,CuDef*%
%ADD20R,0.700000X1.600000*%
%TD*%
%TA.AperFunction,SMDPad,CuDef*%
%ADD21R,1.200000X2.200000*%
%TD*%
%TA.AperFunction,SMDPad,CuDef*%
%ADD22R,1.600000X1.400000*%
%TD*%
%TA.AperFunction,SMDPad,CuDef*%
%ADD23R,1.200000X1.400000*%
%TD*%
%TA.AperFunction,ViaPad*%
%ADD24C,0.450000*%
%TD*%
%TA.AperFunction,Conductor*%
%ADD25C,0.300000*%
%TD*%
%TA.AperFunction,Conductor*%
%ADD26C,0.400000*%
%TD*%
%TA.AperFunction,Conductor*%
%ADD27C,0.160000*%
%TD*%
%TA.AperFunction,Conductor*%
%ADD28C,0.500000*%
%TD*%
G04 APERTURE END LIST*
D10*
%TO.P,J2,1,Pin_1*%
%TO.N,VCC*%
X30000000Y-73000000D03*
D11*
%TO.P,J2,2,Pin_2*%
%TO.N,VDD*%
X30000000Y-76700000D03*
%TO.P,J2,3,Pin_3*%
%TO.N,GND*%
X30000000Y-80400000D03*
%TD*%
D12*
%TO.P,U2,7,PAD*%
%TO.N,GND*%
X36112500Y-74050000D03*
D13*
X36112500Y-73550000D03*
D12*
X36112500Y-73050000D03*
%TD*%
D14*
%TO.P,J4,1,Pin_1*%
%TO.N,/VBUS*%
X65755000Y-80200000D03*
D15*
%TO.P,J4,2,Pin_2*%
%TO.N,/USB_IN_D_N*%
X65755000Y-78950000D03*
%TO.P,J4,3,Pin_3*%
%TO.N,/USB_IN_D_P*%
X65755000Y-77700000D03*
%TO.P,J4,4,Pin_4*%
%TO.N,GND*%
X65755000Y-76450000D03*
%TD*%
D16*
%TO.P,J1,1,SHIELD*%
%TO.N,unconnected-(J1-SHIELD-Pad1)*%
X51000000Y-43000000D03*
D17*
%TO.P,J1,2,ATN*%
%TO.N,Net-(J1-ATN)*%
X51000000Y-45540000D03*
%TO.P,J1,3,SRQ*%
%TO.N,Net-(J1-SRQ)*%
X51000000Y-48080000D03*
%TO.P,J1,4,IFC*%
%TO.N,Net-(J1-IFC)*%
X51000000Y-50620000D03*
%TO.P,J1,5,NDAC*%
%TO.N,Net-(J1-NDAC)*%
X51000000Y-53160000D03*
%TO.P,J1,6,NRFD*%
%TO.N,Net-(J1-NRFD)*%
X51000000Y-55700000D03*
%TO.P,J1,7,DAV*%
%TO.N,Net-(J1-DAV)*%
X51000000Y-58240000D03*
%TO.P,J1,8,EOI*%
%TO.N,Net-(J1-EOI)*%
X51000000Y-60780000D03*
%TO.P,J1,9,DIO4*%
%TO.N,Net-(J1-DIO4)*%
X51000000Y-63320000D03*
%TO.P,J1,10,DIO3*%
%TO.N,Net-(J1-DIO3)*%
X51000000Y-65860000D03*
%TO.P,J1,11,DIO2*%
%TO.N,Net-(J1-DIO2)*%
X51000000Y-68400000D03*
%TO.P,J1,12,DIO1*%
%TO.N,Net-(J1-DIO1)*%
X51000000Y-70940000D03*
%TO.P,J1,13,DIO5*%
%TO.N,Net-(J1-DIO5)*%
X66240000Y-70940000D03*
%TO.P,J1,14,DIO6*%
%TO.N,Net-(J1-DIO6)*%
X66240000Y-68400000D03*
%TO.P,J1,15,DIO7*%
%TO.N,Net-(J1-DIO7)*%
X66240000Y-65860000D03*
%TO.P,J1,16,DIO8*%
%TO.N,Net-(J1-DIO8)*%
X66240000Y-63320000D03*
%TO.P,J1,17,REN*%
%TO.N,Net-(J1-REN)*%
X66240000Y-60780000D03*
%TO.P,J1,18,G_DAV*%
%TO.N,GND*%
X66240000Y-58240000D03*
%TO.P,J1,19,G_NRFD*%
X66240000Y-55700000D03*
%TO.P,J1,20,G_NDAC*%
X66240000Y-53160000D03*
%TO.P,J1,21,G_IFC*%
X66240000Y-50620000D03*
%TO.P,J1,22,G_SRQ*%
X66240000Y-48080000D03*
%TO.P,J1,23,G_ATN*%
X66240000Y-45540000D03*
%TO.P,J1,24,G_SIG*%
X66240000Y-43000000D03*
%TD*%
D18*
%TO.P,BZ1,1,+*%
%TO.N,VDD*%
X56900000Y-78450000D03*
D19*
%TO.P,BZ1,2,-*%
%TO.N,Net-(BZ1--)*%
X56900000Y-84950000D03*
%TD*%
D20*
%TO.P,J5,1,DAT2*%
%TO.N,Net-(J5-DAT2)*%
X42984968Y-73378145D03*
%TO.P,J5,2,DAT3/CD*%
%TO.N,/SPI1_NSS*%
X44084968Y-73378145D03*
%TO.P,J5,3,CMD*%
%TO.N,/SPI1_MOSI*%
X45184968Y-73378145D03*
%TO.P,J5,4,VDD*%
%TO.N,VDD*%
X46284968Y-73378145D03*
%TO.P,J5,5,CLK*%
%TO.N,/SPI1_SCK*%
X47384968Y-73378145D03*
%TO.P,J5,6,VSS*%
%TO.N,GND*%
X48484968Y-73378145D03*
%TO.P,J5,7,DAT0*%
%TO.N,/SPI1_MISO*%
X49584968Y-73378145D03*
%TO.P,J5,8,DAT1*%
%TO.N,Net-(J5-DAT1)*%
X50684968Y-73378145D03*
%TO.P,J5,9,DET*%
%TO.N,/CARD_DET*%
X51784968Y-73378145D03*
D21*
%TO.P,J5,10,SHIELD*%
%TO.N,GND*%
X37484968Y-83478145D03*
D22*
X38384968Y-73878145D03*
D23*
X52984968Y-73878145D03*
D21*
X52984968Y-83478145D03*
%TD*%
D24*
%TO.N,GND*%
X39200000Y-80180000D03*
X49360000Y-54780000D03*
X53978145Y-73878145D03*
X34120000Y-80180000D03*
X49360000Y-85260000D03*
X59520000Y-42080000D03*
X41740000Y-80180000D03*
X59520000Y-80180000D03*
X58200000Y-61600000D03*
X49360000Y-42080000D03*
X57800000Y-65400000D03*
X54440000Y-80180000D03*
X37050000Y-75250000D03*
X62060000Y-82720000D03*
X56100000Y-40300000D03*
X59520000Y-85260000D03*
X29040000Y-85260000D03*
X58800000Y-57700000D03*
X63100000Y-74300000D03*
X44280000Y-77640000D03*
X38750000Y-72150000D03*
X59520000Y-82720000D03*
X54863734Y-57013734D03*
X59520000Y-77640000D03*
X56980000Y-82720000D03*
X58350000Y-43000000D03*
X37000000Y-72400000D03*
X49360000Y-49700000D03*
X34575000Y-75875000D03*
X54440000Y-85260000D03*
X65300000Y-59700000D03*
X62060000Y-80180000D03*
X49360000Y-47160000D03*
X44700000Y-81600000D03*
X48484968Y-74584968D03*
X49360000Y-39540000D03*
X29040000Y-82720000D03*
X39200000Y-77640000D03*
X64600000Y-80180000D03*
X49360000Y-44620000D03*
X55430000Y-41630000D03*
X35700000Y-81400000D03*
X58900000Y-63400000D03*
X51900000Y-85260000D03*
X49360000Y-52240000D03*
X64600000Y-39540000D03*
X59000000Y-64900000D03*
X51900000Y-80180000D03*
X52984968Y-84900000D03*
X59200000Y-44200000D03*
X38378145Y-83478145D03*
X62060000Y-39540000D03*
X32000000Y-75900000D03*
X55550000Y-54250000D03*
X59520000Y-49700000D03*
X35850000Y-86900000D03*
X56980000Y-80180000D03*
X64600000Y-42080000D03*
X41175000Y-81975000D03*
X57700000Y-46600000D03*
X59520000Y-39540000D03*
X60050000Y-43000000D03*
X53200000Y-47600000D03*
X30100000Y-85900000D03*
X62060000Y-77640000D03*
X57545001Y-59902389D03*
X62060000Y-42080000D03*
X36660000Y-80180000D03*
X29040000Y-75100000D03*
X42325000Y-72225000D03*
%TO.N,/EOI*%
X56600000Y-50600000D03*
X55705118Y-64950000D03*
%TO.N,/DIO7*%
X63334000Y-65300000D03*
X62900000Y-44850000D03*
%TO.N,/DIO5*%
X63671734Y-66371734D03*
X64100000Y-43550000D03*
%TO.N,/DIO6*%
X62750000Y-66650000D03*
X63500000Y-44200000D03*
%TO.N,/DIO8*%
X62550000Y-62250000D03*
X63023000Y-47800000D03*
%TO.N,/DAV*%
X54000000Y-62400000D03*
X56915000Y-50000000D03*
%TO.N,/DIO3*%
X55700000Y-51700000D03*
X55275000Y-67975000D03*
%TO.N,/BUZZ*%
X54508356Y-58508356D03*
X52934000Y-59000000D03*
X48950000Y-77500000D03*
X53050000Y-75350000D03*
%TO.N,/DIO4*%
X54802062Y-65197938D03*
X56175734Y-51055000D03*
%TO.N,/NDAC*%
X55600000Y-62500000D03*
X57870000Y-49500000D03*
X54200000Y-46400000D03*
%TO.N,/NRFD*%
X57370000Y-49100000D03*
X56500000Y-64800000D03*
X54342158Y-61474626D03*
%TO.N,/USBFS_DP*%
X57277280Y-71622720D03*
X53300000Y-52500000D03*
%TO.N,/USBFS_DN*%
X56655546Y-71644454D03*
X52700000Y-52200000D03*
%TO.N,/SPI1_SCK*%
X60300000Y-53800000D03*
%TO.N,/I2C_SCL*%
X62255000Y-57900000D03*
X34800000Y-84900000D03*
%TO.N,VDD*%
X56050000Y-45550000D03*
X64600000Y-58500000D03*
X46920000Y-74600000D03*
X46920000Y-75400000D03*
X56650000Y-45550000D03*
X54200000Y-56000000D03*
X64650000Y-48300000D03*
X62350000Y-46800000D03*
X54200000Y-48599999D03*
%TO.N,/nRST*%
X41175000Y-78200000D03*
X41800000Y-75000000D03*
X54850000Y-55500000D03*
X52934000Y-58300000D03*
X54063621Y-41800000D03*
%TO.N,/VBUS*%
X62100000Y-56600000D03*
X59150000Y-73450000D03*
%TO.N,/SPI1_MISO*%
X49600000Y-74600000D03*
X60756000Y-53249000D03*
%TO.N,/SWDIO*%
X56600000Y-49000000D03*
X54186379Y-42886379D03*
%TO.N,/SWCLK*%
X54700000Y-41800000D03*
X55543933Y-49250000D03*
%TO.N,/BOOT1*%
X62910000Y-46010000D03*
X61650000Y-51250000D03*
%TO.N,/SPI1_NSS*%
X59350000Y-54250000D03*
X44100000Y-74600000D03*
%TO.N,/SPI1_MOSI*%
X59811000Y-52811000D03*
X45200000Y-74600000D03*
%TO.N,/I2C_SDA*%
X62100000Y-57300000D03*
X31000000Y-84100000D03*
%TO.N,/CARD_DET*%
X51800000Y-74600000D03*
X61050000Y-54755000D03*
%TO.N,Net-(J5-DAT2)*%
X43000000Y-74600000D03*
%TO.N,Net-(J5-DAT1)*%
X50700000Y-74600000D03*
%TD*%
D25*
%TO.N,GND*%
X53978145Y-73878145D02*
X52984968Y-73878145D01*
D26*
X48484968Y-74584968D02*
X48484968Y-73378145D01*
D25*
X52984968Y-84900000D02*
X52984968Y-83478145D01*
D27*
X38384968Y-73896588D02*
X38384968Y-73878145D01*
D25*
X38378145Y-83478145D02*
X37484968Y-83478145D01*
D27*
X37050000Y-75250000D02*
X38371926Y-73928073D01*
X38384968Y-73896588D02*
G75*
G02*
X38371941Y-73928088I-44568J-12D01*
G01*
%TO.N,/EOI*%
X55053263Y-59678817D02*
X54034855Y-60697226D01*
X56674000Y-50674000D02*
X56600000Y-50600000D01*
X55705118Y-64950000D02*
X54034810Y-63279692D01*
X56748000Y-55587357D02*
X56748000Y-50852651D01*
X53500000Y-61988482D02*
G75*
G03*
X54034824Y-63279678I1826000J-18D01*
G01*
X55053263Y-59678817D02*
G75*
G03*
X56747970Y-55587357I-4091463J4091417D01*
G01*
X53500000Y-61988482D02*
G75*
G02*
X54034867Y-60697238I1826100J-18D01*
G01*
X56674000Y-50674000D02*
G75*
G02*
X56747979Y-50852651I-178600J-178600D01*
G01*
%TO.N,/DIO7*%
X62900000Y-44850000D02*
X63189000Y-45139000D01*
X63478000Y-65054176D02*
X63478000Y-45836707D01*
X63406000Y-65228000D02*
X63334000Y-65300000D01*
X63478000Y-65054176D02*
G75*
G02*
X63406007Y-65228007I-245800J-24D01*
G01*
X63189000Y-45139000D02*
G75*
G02*
X63477997Y-45836707I-697700J-697700D01*
G01*
%TO.N,/DIO5*%
X64100000Y-43550000D02*
X64100000Y-65597170D01*
X63687102Y-66312897D02*
X63885867Y-66114133D01*
X63671734Y-66350000D02*
X63671734Y-66371734D01*
X64100000Y-65597170D02*
G75*
G02*
X63885883Y-66114149I-731100J-30D01*
G01*
X63671734Y-66350000D02*
G75*
G02*
X63687103Y-66312898I52466J0D01*
G01*
%TO.N,/DIO6*%
X63789000Y-65213924D02*
X63789000Y-44693353D01*
X63500000Y-44200000D02*
X63644500Y-44344500D01*
X62750000Y-66650000D02*
X63508225Y-65891775D01*
X63644500Y-44344500D02*
G75*
G02*
X63789019Y-44693353I-348900J-348900D01*
G01*
X63789000Y-65213924D02*
G75*
G02*
X63508208Y-65891758I-958600J24D01*
G01*
%TO.N,/DIO8*%
X63167000Y-48045823D02*
X63167000Y-61196715D01*
X62550000Y-62250000D02*
X62858500Y-61941500D01*
X63023000Y-47800000D02*
X63095000Y-47872000D01*
X63167000Y-48045823D02*
G75*
G03*
X63095007Y-47871993I-245800J23D01*
G01*
X63167000Y-61196715D02*
G75*
G02*
X62858496Y-61941496I-1053300J15D01*
G01*
%TO.N,/DAV*%
X56987000Y-50072000D02*
X56915000Y-50000000D01*
X54096146Y-61075755D02*
X55574458Y-59597444D01*
X57059000Y-56013445D02*
X57059000Y-50245823D01*
X54000000Y-61857781D02*
X54000000Y-62400000D01*
X54000000Y-61857781D02*
G75*
G03*
X53943074Y-61720434I-194200J-19D01*
G01*
X54096146Y-61075755D02*
G75*
G03*
X53886165Y-61583009I506954J-506945D01*
G01*
X57059000Y-56013445D02*
G75*
G02*
X55574456Y-59597442I-5068540J5D01*
G01*
X53886158Y-61583009D02*
G75*
G03*
X53943083Y-61720425I194342J9D01*
G01*
X56987000Y-50072000D02*
G75*
G02*
X57058990Y-50245823I-173800J-173800D01*
G01*
%TO.N,/DIO3*%
X55719445Y-51774445D02*
X55894500Y-51949500D01*
X55275000Y-67975000D02*
X54057000Y-66757000D01*
X56089000Y-52419064D02*
X56089000Y-55069422D01*
X52839001Y-63816489D02*
X52839001Y-62178488D01*
X54320024Y-59340157D02*
X53798738Y-59861451D01*
X55700000Y-51727500D02*
X55700000Y-51700000D01*
X52839001Y-63816489D02*
G75*
G03*
X54056997Y-66757003I4158499J-11D01*
G01*
X56089000Y-52419064D02*
G75*
G03*
X55894490Y-51949510I-664100J-36D01*
G01*
X53798738Y-59861451D02*
G75*
G03*
X52838989Y-62178488I2317062J-2317049D01*
G01*
X54320024Y-59340157D02*
G75*
G03*
X56089010Y-55069422I-4270824J4270757D01*
G01*
X55700000Y-51727500D02*
G75*
G03*
X55719443Y-51774447I66400J0D01*
G01*
%TO.N,/BUZZ*%
X48950000Y-77500000D02*
X49925000Y-77500000D01*
X52955656Y-58994343D02*
X53195822Y-58754178D01*
X53050000Y-75350000D02*
X51589429Y-76810570D01*
X53789288Y-58508356D02*
X54508356Y-58508356D01*
X52934000Y-59000000D02*
X52942000Y-59000000D01*
X53195822Y-58754178D02*
G75*
G02*
X53789288Y-58508335I593478J-593422D01*
G01*
X49925000Y-77500000D02*
G75*
G03*
X51589438Y-76810579I0J2353900D01*
G01*
X52955656Y-58994343D02*
G75*
G02*
X52942000Y-59000003I-13656J13643D01*
G01*
%TO.N,/DIO4*%
X56400000Y-51437846D02*
X56400000Y-55446036D01*
X56287867Y-51167133D02*
X56175734Y-51055000D01*
X54806207Y-59293792D02*
X54067780Y-60032218D01*
X54802062Y-65197938D02*
X54067781Y-64463657D01*
X54067781Y-64463657D02*
G75*
G02*
X53149973Y-62247938I2215719J2215757D01*
G01*
X53150000Y-62247938D02*
G75*
G02*
X54067762Y-60032200I3133500J38D01*
G01*
X56287867Y-51167133D02*
G75*
G02*
X56399952Y-51437846I-270767J-270667D01*
G01*
X56400000Y-55446036D02*
G75*
G02*
X54806206Y-59293791I-5441560J6D01*
G01*
%TO.N,/NDAC*%
X57870000Y-49500000D02*
X57870000Y-49227559D01*
X54857441Y-46500000D02*
X54370710Y-46500000D01*
X57870000Y-56219732D02*
X57870000Y-49500000D01*
X55600000Y-62500000D02*
X55600000Y-61700000D01*
X54250000Y-46450000D02*
X54200000Y-46400000D01*
X57677355Y-48762473D02*
X55809052Y-46894170D01*
X55809052Y-46894170D02*
G75*
G03*
X54857441Y-46499976I-951652J-951630D01*
G01*
X56165685Y-60334314D02*
G75*
G03*
X57870022Y-56219732I-4114585J4114614D01*
G01*
X54250000Y-46450000D02*
G75*
G03*
X54370710Y-46499996I120700J120700D01*
G01*
X57677355Y-48762473D02*
G75*
G02*
X57870038Y-49227559I-465055J-465127D01*
G01*
X56165685Y-60334314D02*
G75*
G03*
X55600008Y-61700000I1365715J-1365686D01*
G01*
%TO.N,/NRFD*%
X55853077Y-59963707D02*
X54342158Y-61474626D01*
X54562298Y-62317416D02*
X56307355Y-64062473D01*
X57370000Y-49100000D02*
X57370000Y-56301531D01*
X54342158Y-61785951D02*
X54342158Y-61474626D01*
X56500000Y-64527559D02*
X56500000Y-64800000D01*
X55853077Y-59963707D02*
G75*
G03*
X57370022Y-56301531I-3662177J3662207D01*
G01*
X54342158Y-61785951D02*
G75*
G03*
X54562266Y-62317448I751642J-49D01*
G01*
X56500000Y-64527559D02*
G75*
G03*
X56307328Y-64062500I-657700J-41D01*
G01*
%TO.N,/USBFS_DP*%
X53300000Y-52500000D02*
X52880000Y-52920000D01*
X54053792Y-68399232D02*
X57277280Y-71622720D01*
X52460000Y-53933969D02*
X52460000Y-64551476D01*
X52460000Y-53933969D02*
G75*
G02*
X52880009Y-52920009I1434000J-31D01*
G01*
X52460000Y-64551476D02*
G75*
G03*
X54053770Y-68399254I5441600J-24D01*
G01*
%TO.N,/USBFS_DN*%
X56655546Y-71577280D02*
X56655546Y-71644454D01*
X52700000Y-52200000D02*
X52400000Y-52500000D01*
X53693792Y-68548352D02*
X56608046Y-71462606D01*
X52100000Y-64700596D02*
X52100000Y-53224264D01*
X52100000Y-53224264D02*
G75*
G02*
X52400011Y-52500011I1024300J-36D01*
G01*
X52100000Y-64700596D02*
G75*
G03*
X53693780Y-68548364I5441600J-4D01*
G01*
X56655546Y-71577280D02*
G75*
G03*
X56608031Y-71462621I-162146J-20D01*
G01*
%TO.N,/SPI1_SCK*%
X51002591Y-71971000D02*
X49018916Y-71971000D01*
X47863540Y-72449572D02*
X47544066Y-72769045D01*
X58300208Y-72399791D02*
X58921998Y-71778000D01*
X53304285Y-71100000D02*
X53015890Y-71100000D01*
X51964500Y-71535500D02*
X51901227Y-71598773D01*
X54847996Y-71739426D02*
X55508361Y-72399791D01*
X47384968Y-73153145D02*
X47384968Y-73378145D01*
X60300000Y-53800000D02*
X60211000Y-53889000D01*
X60122000Y-68880942D02*
X60122000Y-54103865D01*
X51964500Y-71535500D02*
G75*
G02*
X53015890Y-71099996I1051400J-1051400D01*
G01*
X54847996Y-71739426D02*
G75*
G03*
X53304285Y-71100000I-1543696J-1543674D01*
G01*
X60122000Y-54103865D02*
G75*
G02*
X60211010Y-53889010I303900J-35D01*
G01*
X47863540Y-72449572D02*
G75*
G02*
X49018916Y-71970997I1155360J-1155328D01*
G01*
X56904285Y-72978002D02*
G75*
G02*
X55508375Y-72399777I15J1974102D01*
G01*
X60122000Y-68880942D02*
G75*
G02*
X58921986Y-71777988I-4097100J42D01*
G01*
X47544066Y-72769045D02*
G75*
G03*
X47385008Y-73153145I384134J-384055D01*
G01*
X51002591Y-71971000D02*
G75*
G03*
X51901239Y-71598785I9J1270900D01*
G01*
X56904285Y-72978002D02*
G75*
G03*
X58300209Y-72399792I15J1974102D01*
G01*
%TO.N,/I2C_SCL*%
X47293792Y-83306206D02*
X48858578Y-81741421D01*
X62000000Y-58335312D02*
X62000000Y-69546036D01*
X59289949Y-74510050D02*
X60406207Y-73393792D01*
X54510050Y-76489949D02*
X49541421Y-81458578D01*
X62255000Y-57900000D02*
X62127500Y-58027500D01*
X34800000Y-84900000D02*
X43446036Y-84900000D01*
X47293792Y-83306206D02*
G75*
G02*
X43446036Y-84900010I-3847792J3847806D01*
G01*
X49200000Y-81600000D02*
G75*
G03*
X49541433Y-81458590I0J482900D01*
G01*
X59289949Y-74510050D02*
G75*
G02*
X56900000Y-75499999I-2389949J2389950D01*
G01*
X49200000Y-81600000D02*
G75*
G03*
X48858587Y-81741430I0J-482800D01*
G01*
X62000000Y-69546036D02*
G75*
G02*
X60406206Y-73393791I-5441560J6D01*
G01*
X54510050Y-76489949D02*
G75*
G02*
X56900000Y-75500000I2389950J-2389951D01*
G01*
X62000000Y-58335312D02*
G75*
G02*
X62127496Y-58027496I435300J12D01*
G01*
D28*
%TO.N,VDD*%
X64650000Y-68446036D02*
X64650000Y-58585355D01*
X61725000Y-46175000D02*
X62350000Y-46800000D01*
D26*
X46920000Y-75400000D02*
X46920000Y-74600000D01*
D28*
X64600000Y-58500000D02*
X64625000Y-58475000D01*
D26*
X46284968Y-73671556D02*
X46284968Y-73378145D01*
D28*
X60216116Y-45550000D02*
X56650000Y-45550000D01*
X63056207Y-72293792D02*
X56900000Y-78450000D01*
X64600000Y-58500000D02*
X64625000Y-58525000D01*
X54200000Y-56000000D02*
X54200000Y-48599999D01*
D26*
X46492441Y-74172441D02*
X46920000Y-74600000D01*
D28*
X64650000Y-48300000D02*
X64650000Y-58414644D01*
D26*
X46492441Y-74172441D02*
G75*
G02*
X46284991Y-73671556I500859J500841D01*
G01*
D28*
X64625000Y-58525000D02*
G75*
G02*
X64650018Y-58585355I-60400J-60400D01*
G01*
X60216116Y-45550000D02*
G75*
G02*
X61724995Y-46175005I-16J-2133900D01*
G01*
X64650000Y-58414644D02*
G75*
G02*
X64624987Y-58474987I-85400J44D01*
G01*
X64650000Y-68446036D02*
G75*
G02*
X63056206Y-72293791I-5441560J6D01*
G01*
D27*
%TO.N,/nRST*%
X54850000Y-55500000D02*
X54850000Y-48775924D01*
X54063621Y-41800000D02*
X54049240Y-41814380D01*
X54537458Y-56696541D02*
X52934000Y-58300000D01*
X54850000Y-55500000D02*
X54850000Y-55942000D01*
X54023517Y-41876482D02*
X53418189Y-42481810D01*
X53825000Y-47525000D02*
X54690248Y-48390248D01*
X41800000Y-77133058D02*
X41800000Y-75000000D01*
X41487500Y-77887500D02*
X41175000Y-78200000D01*
X52800000Y-43974251D02*
X52800000Y-45050431D01*
X52800000Y-43974251D02*
G75*
G02*
X53418220Y-42481841I2110600J-49D01*
G01*
X54036379Y-41845431D02*
G75*
G02*
X54023495Y-41876460I-43879J31D01*
G01*
X41800000Y-77133058D02*
G75*
G02*
X41487533Y-77887533I-1067000J-42D01*
G01*
X54537458Y-56696541D02*
G75*
G03*
X54849994Y-55942000I-754558J754541D01*
G01*
X54036379Y-41845431D02*
G75*
G02*
X54049223Y-41814363I43921J31D01*
G01*
X53825000Y-47525000D02*
G75*
G02*
X52799987Y-45050431I2474600J2474600D01*
G01*
X54690248Y-48390248D02*
G75*
G02*
X54849991Y-48775924I-385648J-385652D01*
G01*
%TO.N,/VBUS*%
X62100000Y-56600000D02*
X61649500Y-57050500D01*
X59709452Y-72890548D02*
X59150000Y-73450000D01*
X61199000Y-58138103D02*
X61199000Y-69294460D01*
X61199000Y-58138103D02*
G75*
G02*
X61649499Y-57050499I1538100J3D01*
G01*
X61199000Y-69294460D02*
G75*
G02*
X59709453Y-72890549I-5085640J0D01*
G01*
%TO.N,/SPI1_MISO*%
X49584968Y-73678839D02*
X49584968Y-73723120D01*
X49600000Y-74600000D02*
X49592484Y-74592484D01*
X53144709Y-71411000D02*
X53304285Y-71411000D01*
X59141909Y-71997910D02*
X58520119Y-72619700D01*
X49584968Y-73862549D02*
X49584968Y-74046260D01*
X49584968Y-73152622D02*
X49584968Y-73182691D01*
X49584968Y-74046260D02*
X49584968Y-74099811D01*
X49584968Y-73242831D02*
X49584968Y-73272901D01*
X49755067Y-72726932D02*
X49892484Y-72589516D01*
X49584968Y-73152622D02*
X49584968Y-73137588D01*
X49584968Y-74396390D02*
X49584968Y-74515022D01*
X51041931Y-72281999D02*
X50634893Y-72281999D01*
X49584968Y-74574338D02*
X49584968Y-74515022D01*
X60433000Y-68880942D02*
X60433000Y-54540277D01*
X49584968Y-73272901D02*
X49584968Y-73318005D01*
X60756000Y-53249000D02*
X60756000Y-53760486D01*
X54628086Y-71959336D02*
X55288450Y-72619700D01*
X49584968Y-73786552D02*
X49584968Y-73862549D01*
X49584968Y-73438283D02*
X49584968Y-73558561D01*
X49584968Y-74099811D02*
X49584968Y-74337074D01*
X49584968Y-73182691D02*
X49584968Y-73212761D01*
X49584968Y-73212761D02*
X49584968Y-73242831D01*
X49584968Y-73754836D02*
X49584968Y-73786552D01*
X49584968Y-74396390D02*
X49584968Y-74337074D01*
X49584968Y-73318005D02*
X49584968Y-73438283D01*
X49584968Y-73558561D02*
X49584968Y-73678839D01*
X49584968Y-73723120D02*
X49584968Y-73754836D01*
X53144709Y-71411000D02*
G75*
G03*
X52093313Y-71846492I-9J-1486900D01*
G01*
X55288450Y-72619700D02*
G75*
G03*
X56904285Y-73289022I1615850J1615800D01*
G01*
X54628086Y-71959336D02*
G75*
G03*
X53304285Y-71410999I-1323786J-1323764D01*
G01*
X60594500Y-54150382D02*
G75*
G03*
X60432985Y-54540277I389900J-389918D01*
G01*
X51041931Y-72281999D02*
G75*
G03*
X52093307Y-71846486I-31J1486899D01*
G01*
X49755067Y-72726932D02*
G75*
G03*
X49584952Y-73137588I410633J-410668D01*
G01*
X49584968Y-74574338D02*
G75*
G03*
X49592509Y-74592459I25632J38D01*
G01*
X50634893Y-72281999D02*
G75*
G03*
X49892492Y-72589524I7J-1049901D01*
G01*
X56904285Y-73289001D02*
G75*
G03*
X58520120Y-72619701I15J2285101D01*
G01*
X60433000Y-68880942D02*
G75*
G02*
X59141909Y-71997910I-4408060J2D01*
G01*
X60594500Y-54150382D02*
G75*
G03*
X60755989Y-53760486I-389900J389882D01*
G01*
%TO.N,/SWDIO*%
X56350000Y-49000000D02*
X56600000Y-49000000D01*
X53400000Y-44220698D02*
X53400000Y-45000000D01*
X54186379Y-42886379D02*
X54146010Y-42926747D01*
X54126747Y-42973252D02*
X53768189Y-43331810D01*
X55923223Y-48823223D02*
X54319238Y-47219238D01*
X56350000Y-49000000D02*
G75*
G02*
X55923213Y-48823233I0J603600D01*
G01*
X54319238Y-47219238D02*
G75*
G02*
X53400007Y-45000000I2219262J2219238D01*
G01*
X54146010Y-42926747D02*
G75*
G03*
X54136389Y-42950000I23290J-23253D01*
G01*
X54126747Y-42973252D02*
G75*
G03*
X54136380Y-42950000I-23247J23252D01*
G01*
X53400000Y-44220698D02*
G75*
G02*
X53768186Y-43331807I1257100J-2D01*
G01*
%TO.N,/SWCLK*%
X55543933Y-49046966D02*
X55543933Y-49250000D01*
X53100000Y-44900000D02*
X53100000Y-44531370D01*
X54700000Y-41800000D02*
X53900000Y-42600000D01*
X54160660Y-47460660D02*
X55400366Y-48700366D01*
X53900000Y-42600000D02*
G75*
G03*
X53099988Y-44531370I1931400J-1931400D01*
G01*
X55543933Y-49046966D02*
G75*
G03*
X55400342Y-48700390I-490133J-34D01*
G01*
X54160660Y-47460660D02*
G75*
G02*
X53099994Y-44900000I2560640J2560660D01*
G01*
%TO.N,/BOOT1*%
X62518162Y-47481837D02*
X62275000Y-47725000D01*
X62910000Y-46010000D02*
X62905000Y-46015000D01*
X62900000Y-46560000D02*
X62900000Y-46027071D01*
X61650000Y-51250000D02*
X61650000Y-49233883D01*
X62275000Y-47725000D02*
G75*
G03*
X61649993Y-49233883I1508900J-1508900D01*
G01*
X62905000Y-46015000D02*
G75*
G03*
X62899988Y-46027071I12100J-12100D01*
G01*
X62900000Y-46560000D02*
G75*
G02*
X62518168Y-47481843I-1303700J0D01*
G01*
%TO.N,/SPI1_NSS*%
X44710927Y-72302180D02*
X44581187Y-72431921D01*
X44907669Y-72105440D02*
X44840670Y-72172438D01*
X44989821Y-72023288D02*
X44957386Y-72055723D01*
X44394812Y-72618296D02*
X44361313Y-72651796D01*
X44760112Y-72252994D02*
X44710927Y-72302180D01*
X44084968Y-74564517D02*
X44084968Y-73153145D01*
X44518445Y-72494663D02*
X44514188Y-72498920D01*
X57860386Y-71959973D02*
X58482178Y-71338182D01*
X44791484Y-72221623D02*
X44760112Y-72252994D01*
X55948183Y-71959973D02*
X54844121Y-70855911D01*
X51544105Y-69489000D02*
X51103702Y-69489000D01*
X59300000Y-54335355D02*
X59300000Y-54400000D01*
X48237825Y-70862174D02*
X48555499Y-70544499D01*
X44509931Y-72503176D02*
X44394812Y-72618296D01*
X59350000Y-54250000D02*
X59325000Y-54275000D01*
X44514188Y-72498920D02*
X44509931Y-72503176D01*
X44989821Y-72023288D02*
X45006571Y-72006539D01*
X44822855Y-72190252D02*
X44791484Y-72221623D01*
X44244067Y-72769045D02*
X44260816Y-72752295D01*
X44096242Y-74596242D02*
X44100000Y-74600000D01*
X45028550Y-71984561D02*
X45039540Y-71973572D01*
X44822855Y-72190252D02*
X44840670Y-72172438D01*
X45028550Y-71984561D02*
X45006571Y-72006539D01*
X59370710Y-54570710D02*
X59400000Y-54600000D01*
X44294315Y-72718794D02*
X44327814Y-72685295D01*
X46456556Y-71600000D02*
X45941424Y-71600000D01*
X44518445Y-72494663D02*
X44581187Y-72431921D01*
X44361313Y-72651796D02*
X44327814Y-72685295D01*
X44957386Y-72055723D02*
X44924951Y-72088158D01*
X59500000Y-68880942D02*
X59500000Y-54841421D01*
X44924951Y-72088158D02*
X44907669Y-72105440D01*
X44090450Y-74587573D02*
X44088726Y-74583411D01*
X44294315Y-72718794D02*
X44260816Y-72752295D01*
X44090450Y-74587573D02*
G75*
G03*
X44096243Y-74596241I24750J10273D01*
G01*
X44084968Y-74564517D02*
G75*
G03*
X44088735Y-74583407I49332J17D01*
G01*
X48555499Y-70544499D02*
G75*
G02*
X51103702Y-69489000I2548201J-2548201D01*
G01*
X45941424Y-71600000D02*
G75*
G03*
X45039519Y-71973551I-24J-1275500D01*
G01*
X51544105Y-69489000D02*
G75*
G02*
X54844113Y-70855919I-5J-4666900D01*
G01*
X59500000Y-68880942D02*
G75*
G02*
X58482165Y-71338169I-3475100J42D01*
G01*
X46456556Y-71600000D02*
G75*
G03*
X48237848Y-70862197I44J2519100D01*
G01*
X56904285Y-72356004D02*
G75*
G02*
X55948196Y-71959960I15J1352104D01*
G01*
X59500000Y-54841421D02*
G75*
G03*
X59400006Y-54599994I-341400J21D01*
G01*
X59300000Y-54400000D02*
G75*
G03*
X59370714Y-54570706I241400J0D01*
G01*
X59300000Y-54335355D02*
G75*
G02*
X59325013Y-54275013I85400J-45D01*
G01*
X44084968Y-73153145D02*
G75*
G02*
X44244038Y-72769016I543232J45D01*
G01*
X56904285Y-72356004D02*
G75*
G03*
X57860388Y-71959975I15J1352104D01*
G01*
%TO.N,/SPI1_MOSI*%
X45184968Y-74393499D02*
X45184968Y-74433920D01*
X45184968Y-74514234D02*
X45184968Y-74554303D01*
X45184968Y-73689301D02*
X45184968Y-73850984D01*
X45184968Y-72633879D02*
X45184968Y-72605503D01*
X45184968Y-72869124D02*
X45184968Y-72860890D01*
X45184968Y-72633879D02*
X45184968Y-72709550D01*
X45184968Y-73209634D02*
X45184968Y-73377439D01*
X45184968Y-72869124D02*
X45184968Y-72928326D01*
X45184968Y-72785220D02*
X45184968Y-72860890D01*
X58702088Y-71558091D02*
X58080297Y-72179882D01*
X45184968Y-73041829D02*
X45184968Y-73209634D01*
X45192484Y-74592484D02*
X45200000Y-74600000D01*
X48684320Y-70855499D02*
X48366646Y-71173172D01*
X45184968Y-72548752D02*
X45184968Y-72567669D01*
X45184968Y-72709550D02*
X45184968Y-72785220D01*
X45184968Y-74094036D02*
X45184968Y-74095091D01*
X51232521Y-69800000D02*
X51544104Y-69800000D01*
X45184968Y-74433920D02*
X45184968Y-74474341D01*
X45184968Y-72928326D02*
X45184968Y-72987528D01*
X45184968Y-74174350D02*
X45184968Y-74333923D01*
X45184968Y-73850984D02*
X45184968Y-74012667D01*
X45184968Y-72567669D02*
X45184968Y-72586586D01*
X45184968Y-74574338D02*
X45184968Y-74554303D01*
X45184968Y-74474341D02*
X45184968Y-74514234D01*
X45184968Y-74393499D02*
X45184968Y-74333923D01*
X46585377Y-71910999D02*
X45794345Y-71910999D01*
X45184968Y-74092981D02*
X45184968Y-74012667D01*
X45184968Y-72529835D02*
X45184968Y-72548752D01*
X45184968Y-72987528D02*
X45184968Y-73041829D01*
X45184968Y-73689301D02*
X45184968Y-73545244D01*
X45184968Y-74092981D02*
X45184968Y-74094036D01*
X45184968Y-72529835D02*
X45184968Y-72520377D01*
X45184968Y-72586586D02*
X45184968Y-72605503D01*
X59811000Y-68880942D02*
X59811000Y-52811000D01*
X45184968Y-74095091D02*
X45184968Y-74174350D01*
X45184968Y-73377439D02*
X45184968Y-73545244D01*
X54624209Y-71075821D02*
X55728270Y-72179882D01*
X45363450Y-72089482D02*
G75*
G03*
X45184938Y-72520377I430850J-430918D01*
G01*
X45192484Y-74592484D02*
G75*
G02*
X45184932Y-74574338I18116J18184D01*
G01*
X45363450Y-72089482D02*
G75*
G02*
X45794345Y-71911038I430850J-430918D01*
G01*
X48366646Y-71173172D02*
G75*
G02*
X46585377Y-71910981I-1781246J1781272D01*
G01*
X55728270Y-72179882D02*
G75*
G03*
X56904284Y-72667024I1176030J1175982D01*
G01*
X54624209Y-71075821D02*
G75*
G03*
X51544104Y-69799989I-3080109J-3080079D01*
G01*
X59811000Y-68880942D02*
G75*
G02*
X58702075Y-71558078I-3786100J42D01*
G01*
X58080297Y-72179882D02*
G75*
G02*
X56904284Y-72667000I-1175997J1175982D01*
G01*
X51232521Y-69800000D02*
G75*
G03*
X48684310Y-70855489I-21J-3603700D01*
G01*
%TO.N,/I2C_SDA*%
X54310050Y-76089949D02*
X50893792Y-79506207D01*
X34789949Y-83110050D02*
X35300000Y-82600000D01*
X61850000Y-57550000D02*
X62100000Y-57300000D01*
X32400000Y-84100000D02*
X31000000Y-84100000D01*
X61600000Y-58153553D02*
X61600000Y-69346036D01*
X38921320Y-81100000D02*
X47046036Y-81100000D01*
X60006207Y-73193792D02*
X59089949Y-74110050D01*
X50893792Y-79506207D02*
G75*
G02*
X47046036Y-81100010I-3847792J3847807D01*
G01*
X54310050Y-76089949D02*
G75*
G02*
X56700000Y-75100000I2389950J-2389951D01*
G01*
X56700000Y-75100000D02*
G75*
G03*
X59089950Y-74110051I0J3379900D01*
G01*
X38921320Y-81100000D02*
G75*
G03*
X35299994Y-82599994I-20J-5121300D01*
G01*
X60006207Y-73193792D02*
G75*
G03*
X61600010Y-69346036I-3847807J3847792D01*
G01*
X61850000Y-57550000D02*
G75*
G03*
X61600022Y-58153553I603500J-603500D01*
G01*
X32400000Y-84100000D02*
G75*
G03*
X34789950Y-83110051I0J3379900D01*
G01*
%TO.N,/CARD_DET*%
X51784968Y-73504496D02*
X51784968Y-73643528D01*
X52061967Y-72317672D02*
X52221304Y-72158336D01*
X51784968Y-74496951D02*
X51784968Y-74548542D01*
X61050000Y-54755000D02*
X61047500Y-54755000D01*
X51784968Y-74276599D02*
X51784968Y-74371910D01*
X51784968Y-74276599D02*
X51784968Y-74264796D01*
X51784968Y-74371910D02*
X51784968Y-74467221D01*
X51784968Y-73085653D02*
X51784968Y-73180964D01*
X51784968Y-74467221D02*
X51784968Y-74496951D01*
X51784968Y-73180964D02*
X51784968Y-73276275D01*
X60744000Y-55268839D02*
X60744000Y-68880942D01*
X51784968Y-73276275D02*
X51784968Y-73280210D01*
X55029380Y-72829380D02*
X54369018Y-72169018D01*
X51784968Y-73383390D02*
X51784968Y-73486570D01*
X51784968Y-73280210D02*
X51784968Y-73383390D01*
X51784968Y-74020837D02*
X51784968Y-74026960D01*
X51784968Y-73085653D02*
X51784968Y-73059858D01*
X58750259Y-72829380D02*
X59361820Y-72217820D01*
X51784968Y-73889674D02*
X51784968Y-73643528D01*
X51784968Y-74026960D02*
X51784968Y-74145878D01*
X61043232Y-54756767D02*
X60894499Y-54905499D01*
X51784968Y-72986408D02*
X51784968Y-73010891D01*
X51784968Y-73504496D02*
X51784968Y-73486570D01*
X51784968Y-73010891D02*
X51784968Y-73059858D01*
X51784968Y-73889674D02*
X51784968Y-74020837D01*
X51800000Y-74600000D02*
X51792484Y-74592484D01*
X51784968Y-74145878D02*
X51784968Y-74264796D01*
X51784968Y-74548542D02*
X51784968Y-74574338D01*
X53289820Y-71722000D02*
X53274712Y-71722000D01*
X53274712Y-71722000D02*
G75*
G03*
X52221307Y-72158339I-12J-1489700D01*
G01*
X51792484Y-74592484D02*
G75*
G02*
X51784932Y-74574338I18116J18184D01*
G01*
X61043232Y-54756767D02*
G75*
G02*
X61047500Y-54754989I4268J-4233D01*
G01*
X55029380Y-72829380D02*
G75*
G03*
X56889820Y-73599974I1860420J1860480D01*
G01*
X60744000Y-55268839D02*
G75*
G02*
X60894489Y-54905489I513800J39D01*
G01*
X58750259Y-72829380D02*
G75*
G02*
X56889820Y-73600001I-1860459J1860480D01*
G01*
X53289820Y-71722000D02*
G75*
G02*
X54369004Y-72169032I-20J-1526200D01*
G01*
X60744000Y-68880942D02*
G75*
G02*
X59361819Y-72217819I-4719060J2D01*
G01*
X52061967Y-72317672D02*
G75*
G03*
X51784972Y-72986408I668733J-668728D01*
G01*
%TO.N,Net-(J5-DAT2)*%
X42984968Y-74574338D02*
X42984968Y-73378145D01*
X42992484Y-74592484D02*
X43000000Y-74600000D01*
X42992484Y-74592484D02*
G75*
G02*
X42984932Y-74574338I18116J18184D01*
G01*
%TO.N,Net-(J5-DAT1)*%
X50684968Y-74574338D02*
X50684968Y-73378145D01*
X50692484Y-74592484D02*
X50700000Y-74600000D01*
X50692484Y-74592484D02*
G75*
G02*
X50684932Y-74574338I18116J18184D01*
G01*
%TD*%
%TA.AperFunction,Conductor*%
%TO.N,/nRST*%
G36*
X53823238Y-42189898D02*
G01*
X53883462Y-42136232D01*
X53934409Y-42102911D01*
X54016522Y-42069746D01*
X54091377Y-42041621D01*
X54188624Y-41987081D01*
X54064328Y-41799293D01*
X53876540Y-41674997D01*
X53843323Y-41732909D01*
X53823682Y-41783695D01*
X53807324Y-41872335D01*
X53786935Y-41967445D01*
X53759170Y-42018861D01*
X53710101Y-42076761D01*
X53823238Y-42189898D01*
G37*
%TD.AperFunction*%
%TD*%
%TA.AperFunction,Conductor*%
%TO.N,/nRST*%
G36*
X41880000Y-75445677D02*
G01*
X41884658Y-75373617D01*
X41897267Y-75318992D01*
X41943687Y-75229214D01*
X41985580Y-75155564D01*
X42020677Y-75043895D01*
X41800000Y-74999000D01*
X41579323Y-75043895D01*
X41597834Y-75113973D01*
X41620054Y-75167301D01*
X41656313Y-75229214D01*
X41700838Y-75313476D01*
X41714804Y-75370009D01*
X41720000Y-75445677D01*
X41880000Y-75445677D01*
G37*
%TD.AperFunction*%
%TD*%
%TA.AperFunction,Conductor*%
%TO.N,/SWDIO*%
G36*
X53941427Y-43271709D02*
G01*
X53999881Y-43219820D01*
X54049834Y-43187539D01*
X54135699Y-43154788D01*
X54212358Y-43128002D01*
X54311382Y-43073460D01*
X54187086Y-42885672D01*
X53999298Y-42761376D01*
X53965374Y-42820318D01*
X53945214Y-42871690D01*
X53928146Y-42955825D01*
X53905840Y-43049892D01*
X53877508Y-43100895D01*
X53828290Y-43158572D01*
X53941427Y-43271709D01*
G37*
%TD.AperFunction*%
%TD*%
%TA.AperFunction,Conductor*%
%TO.N,/nRST*%
G36*
X54929979Y-55943816D02*
G01*
X54936284Y-55870727D01*
X54950043Y-55815638D01*
X54994707Y-55729421D01*
X55035900Y-55655781D01*
X55070677Y-55543895D01*
X54850022Y-55499001D01*
X54629323Y-55543895D01*
X54669347Y-55663379D01*
X54707339Y-55726153D01*
X54752715Y-55809373D01*
X54766230Y-55865251D01*
X54770021Y-55940184D01*
X54929979Y-55943816D01*
G37*
%TD.AperFunction*%
%TD*%
%TA.AperFunction,Conductor*%
%TO.N,/BUZZ*%
G36*
X49395677Y-77420000D02*
G01*
X49323617Y-77415342D01*
X49268993Y-77402733D01*
X49179214Y-77356313D01*
X49105565Y-77314419D01*
X48993895Y-77279323D01*
X48949000Y-77500000D01*
X48993895Y-77720677D01*
X49063973Y-77702166D01*
X49117301Y-77679945D01*
X49179214Y-77643687D01*
X49263475Y-77599162D01*
X49320008Y-77585196D01*
X49395677Y-77580000D01*
X49395677Y-77420000D01*
G37*
%TD.AperFunction*%
%TD*%
%TA.AperFunction,Conductor*%
%TO.N,/CARD_DET*%
G36*
X51864968Y-74276599D02*
G01*
X51869933Y-74250388D01*
X51884689Y-74228679D01*
X51943630Y-74197460D01*
X52070756Y-74179537D01*
X52134968Y-74178145D01*
X51784968Y-73377145D01*
X51434968Y-74178145D01*
X51551096Y-74183437D01*
X51635746Y-74200482D01*
X51673357Y-74218790D01*
X51696554Y-74243343D01*
X51704968Y-74276599D01*
X51864968Y-74276599D01*
G37*
%TD.AperFunction*%
%TD*%
%TA.AperFunction,Conductor*%
%TO.N,/DIO7*%
G36*
X63246730Y-45083619D02*
G01*
X63204063Y-45032437D01*
X63178322Y-44987555D01*
X63154642Y-44899912D01*
X63136530Y-44822614D01*
X63087081Y-44724997D01*
X62899308Y-44849279D01*
X62774997Y-45037081D01*
X62830679Y-45068864D01*
X62878991Y-45087240D01*
X62949168Y-45101439D01*
X63034238Y-45122439D01*
X63079911Y-45148768D01*
X63131270Y-45194381D01*
X63246730Y-45083619D01*
G37*
%TD.AperFunction*%
%TD*%
%TA.AperFunction,Conductor*%
%TO.N,GND*%
G36*
X53532468Y-74028145D02*
G01*
X53646357Y-74032870D01*
X53724200Y-74045941D01*
X53780373Y-74061070D01*
X53934250Y-74098822D01*
X53979145Y-73878145D01*
X53934250Y-73657468D01*
X53780371Y-73695220D01*
X53679680Y-73719166D01*
X53532468Y-73728145D01*
X53532468Y-74028145D01*
G37*
%TD.AperFunction*%
%TD*%
%TA.AperFunction,Conductor*%
%TO.N,/NDAC*%
G36*
X55520000Y-62054323D02*
G01*
X55515342Y-62126382D01*
X55502733Y-62181007D01*
X55456313Y-62270785D01*
X55414420Y-62344435D01*
X55379323Y-62456105D01*
X55600000Y-62501000D01*
X55820677Y-62456105D01*
X55802166Y-62386027D01*
X55779946Y-62332699D01*
X55743687Y-62270785D01*
X55699162Y-62186524D01*
X55685196Y-62129991D01*
X55680000Y-62054323D01*
X55520000Y-62054323D01*
G37*
%TD.AperFunction*%
%TD*%
%TA.AperFunction,Conductor*%
%TO.N,Net-(J5-DAT2)*%
G36*
X42904968Y-74154323D02*
G01*
X42900322Y-74230862D01*
X42887803Y-74288147D01*
X42848308Y-74373452D01*
X42811587Y-74446766D01*
X42779323Y-74556105D01*
X43000000Y-74601000D01*
X43220677Y-74556105D01*
X43202825Y-74489574D01*
X43180723Y-74438445D01*
X43135728Y-74368776D01*
X43086355Y-74286073D01*
X43070777Y-74229895D01*
X43064968Y-74154323D01*
X42904968Y-74154323D01*
G37*
%TD.AperFunction*%
%TD*%
%TA.AperFunction,Conductor*%
%TO.N,GND*%
G36*
X48284968Y-74139291D02*
G01*
X48287715Y-74271897D01*
X48287712Y-74385832D01*
X48264291Y-74541073D01*
X48484968Y-74585968D01*
X48705645Y-74541073D01*
X48683967Y-74406254D01*
X48680902Y-74312524D01*
X48682221Y-74271899D01*
X48684968Y-74139291D01*
X48284968Y-74139291D01*
G37*
%TD.AperFunction*%
%TD*%
%TA.AperFunction,Conductor*%
%TO.N,/NRFD*%
G36*
X54422233Y-61844219D02*
G01*
X54415974Y-61787653D01*
X54422265Y-61746230D01*
X54458286Y-61688481D01*
X54470785Y-61674045D01*
X54529239Y-61599629D01*
X54341963Y-61473646D01*
X54121481Y-61518521D01*
X54140642Y-61591833D01*
X54162840Y-61644810D01*
X54193395Y-61696966D01*
X54232281Y-61766581D01*
X54265307Y-61875423D01*
X54422233Y-61844219D01*
G37*
%TD.AperFunction*%
%TD*%
%TA.AperFunction,Conductor*%
%TO.N,/DIO5*%
G36*
X63869162Y-66017870D02*
G01*
X63832431Y-66064351D01*
X63797239Y-66093563D01*
X63727070Y-66119970D01*
X63704452Y-66124342D01*
X63633312Y-66141432D01*
X63546731Y-66184653D01*
X63671179Y-66372565D01*
X63892411Y-66415629D01*
X63906550Y-66339470D01*
X63932791Y-66229689D01*
X64002198Y-66106756D01*
X63869162Y-66017870D01*
G37*
%TD.AperFunction*%
%TD*%
%TA.AperFunction,Conductor*%
%TO.N,/NDAC*%
G36*
X57950000Y-49945677D02*
G01*
X57954658Y-49873617D01*
X57967267Y-49818992D01*
X58013687Y-49729214D01*
X58055580Y-49655564D01*
X58090677Y-49543895D01*
X57870000Y-49499000D01*
X57649323Y-49543895D01*
X57667834Y-49613973D01*
X57690054Y-49667301D01*
X57726313Y-49729214D01*
X57770838Y-49813476D01*
X57784804Y-49870009D01*
X57790000Y-49945677D01*
X57950000Y-49945677D01*
G37*
%TD.AperFunction*%
%TD*%
%TA.AperFunction,Conductor*%
%TO.N,/CARD_DET*%
G36*
X60850503Y-55119061D02*
G01*
X60868367Y-55070897D01*
X60891062Y-55038536D01*
X60944520Y-55008222D01*
X61004560Y-54997778D01*
X61084769Y-54983355D01*
X61175003Y-54942081D01*
X61050258Y-54754035D01*
X60829323Y-54711105D01*
X60807002Y-54800482D01*
X60783267Y-54862450D01*
X60762790Y-54904370D01*
X60730333Y-54973580D01*
X60695954Y-55077658D01*
X60850503Y-55119061D01*
G37*
%TD.AperFunction*%
%TD*%
%TA.AperFunction,Conductor*%
%TO.N,/NRFD*%
G36*
X57450000Y-49545677D02*
G01*
X57454658Y-49473617D01*
X57467267Y-49418992D01*
X57513687Y-49329214D01*
X57555580Y-49255564D01*
X57590677Y-49143895D01*
X57370000Y-49099000D01*
X57149323Y-49143895D01*
X57167834Y-49213973D01*
X57190054Y-49267301D01*
X57226313Y-49329214D01*
X57270838Y-49413476D01*
X57284804Y-49470009D01*
X57290000Y-49545677D01*
X57450000Y-49545677D01*
G37*
%TD.AperFunction*%
%TD*%
%TA.AperFunction,Conductor*%
%TO.N,/USBFS_DN*%
G36*
X52457839Y-52555268D02*
G01*
X52507061Y-52510513D01*
X52550958Y-52482922D01*
X52646200Y-52455760D01*
X52725533Y-52437233D01*
X52825003Y-52387081D01*
X52700690Y-52199278D01*
X52512919Y-52074997D01*
X52477820Y-52135606D01*
X52457081Y-52187211D01*
X52440613Y-52254640D01*
X52415623Y-52341514D01*
X52388091Y-52389509D01*
X52342161Y-52444732D01*
X52457839Y-52555268D01*
G37*
%TD.AperFunction*%
%TD*%
%TA.AperFunction,Conductor*%
%TO.N,/DAV*%
G36*
X53920000Y-61954323D02*
G01*
X53915342Y-62026382D01*
X53902733Y-62081007D01*
X53856313Y-62170785D01*
X53814420Y-62244435D01*
X53779323Y-62356105D01*
X54000000Y-62401000D01*
X54220677Y-62356105D01*
X54202166Y-62286027D01*
X54179946Y-62232699D01*
X54143687Y-62170785D01*
X54099162Y-62086524D01*
X54085196Y-62029991D01*
X54080000Y-61954323D01*
X53920000Y-61954323D01*
G37*
%TD.AperFunction*%
%TD*%
%TA.AperFunction,Conductor*%
%TO.N,/BOOT1*%
G36*
X62980000Y-46455677D02*
G01*
X62984667Y-46386050D01*
X62997335Y-46332911D01*
X63040495Y-46251997D01*
X63048389Y-46240608D01*
X63093724Y-46166907D01*
X63130677Y-46053895D01*
X62910000Y-46009000D01*
X62689323Y-46053895D01*
X62730662Y-46181896D01*
X62760995Y-46237532D01*
X62802317Y-46322939D01*
X62815213Y-46379785D01*
X62820000Y-46455677D01*
X62980000Y-46455677D01*
G37*
%TD.AperFunction*%
%TD*%
%TA.AperFunction,Conductor*%
%TO.N,/DIO8*%
G36*
X62800663Y-61886230D02*
G01*
X62749923Y-61932567D01*
X62704823Y-61961396D01*
X62607360Y-61990820D01*
X62526612Y-62011010D01*
X62424997Y-62062919D01*
X62549310Y-62250722D01*
X62737081Y-62375003D01*
X62773522Y-62312396D01*
X62795326Y-62259286D01*
X62812891Y-62191785D01*
X62839998Y-62102867D01*
X62868808Y-62053625D01*
X62916337Y-61996770D01*
X62800663Y-61886230D01*
G37*
%TD.AperFunction*%
%TD*%
%TA.AperFunction,Conductor*%
%TO.N,GND*%
G36*
X37283449Y-75129688D02*
G01*
X37438790Y-75001586D01*
X37674158Y-74859767D01*
X37973862Y-74726136D01*
X38132372Y-74671852D01*
X38292395Y-74628259D01*
X38438300Y-74599141D01*
X38579985Y-74582113D01*
X38681384Y-74578145D01*
X38385675Y-73877438D01*
X37584968Y-73697804D01*
X37596429Y-73894544D01*
X37571488Y-74132194D01*
X37504896Y-74400134D01*
X37398822Y-74669803D01*
X37336044Y-74790243D01*
X37269049Y-74896535D01*
X37170312Y-75016551D01*
X37283449Y-75129688D01*
G37*
%TD.AperFunction*%
%TD*%
%TA.AperFunction,Conductor*%
%TO.N,/nRST*%
G36*
X53192572Y-57928291D02*
G01*
X53138324Y-57975951D01*
X53090783Y-58005661D01*
X52994476Y-58036319D01*
X52912776Y-58058774D01*
X52808997Y-58112919D01*
X52933293Y-58300707D01*
X53121081Y-58425003D01*
X53157544Y-58362361D01*
X53179540Y-58308940D01*
X53197680Y-58239524D01*
X53225778Y-58148458D01*
X53255877Y-58098607D01*
X53305709Y-58041428D01*
X53192572Y-57928291D01*
G37*
%TD.AperFunction*%
%TD*%
%TA.AperFunction,Conductor*%
%TO.N,VDD*%
G36*
X46887053Y-74284211D02*
G01*
X46782788Y-74151128D01*
X46735640Y-74065926D01*
X46694672Y-73970543D01*
X46661487Y-73867092D01*
X46636768Y-73755278D01*
X46622111Y-73640665D01*
X46617461Y-73519748D01*
X46634968Y-73305425D01*
X46284261Y-73377438D01*
X46254294Y-74178145D01*
X46309874Y-74196457D01*
X46381022Y-74261138D01*
X46498815Y-74424116D01*
X46604211Y-74567053D01*
X46887053Y-74284211D01*
G37*
%TD.AperFunction*%
%TD*%
%TA.AperFunction,Conductor*%
%TO.N,/DIO6*%
G36*
X63008572Y-66278291D02*
G01*
X62954324Y-66325951D01*
X62906783Y-66355661D01*
X62810476Y-66386319D01*
X62728776Y-66408774D01*
X62624997Y-66462919D01*
X62749293Y-66650707D01*
X62937081Y-66775003D01*
X62973544Y-66712361D01*
X62995540Y-66658940D01*
X63013680Y-66589524D01*
X63041778Y-66498458D01*
X63071877Y-66448607D01*
X63121709Y-66391428D01*
X63008572Y-66278291D01*
G37*
%TD.AperFunction*%
%TD*%
%TA.AperFunction,Conductor*%
%TO.N,/SWDIO*%
G36*
X56165935Y-49052476D02*
G01*
X56198177Y-49061073D01*
X56337279Y-49104614D01*
X56474997Y-49187081D01*
X56600965Y-49000258D01*
X56556105Y-48779323D01*
X56458211Y-48815138D01*
X56399251Y-48855917D01*
X56362598Y-48882461D01*
X56322827Y-48901503D01*
X56273291Y-48908254D01*
X56207343Y-48897928D01*
X56165935Y-49052476D01*
G37*
%TD.AperFunction*%
%TD*%
%TA.AperFunction,Conductor*%
%TO.N,/CARD_DET*%
G36*
X52027494Y-72239009D02*
G01*
X51925145Y-72367490D01*
X51788712Y-72504559D01*
X51724873Y-72550406D01*
X51665477Y-72575503D01*
X51642704Y-72578145D01*
X51784261Y-73378852D01*
X52134968Y-73423835D01*
X52091196Y-73262378D01*
X52058547Y-73102789D01*
X52038726Y-72955732D01*
X52030569Y-72815234D01*
X52033871Y-72696316D01*
X52047875Y-72586372D01*
X52069370Y-72498899D01*
X52099906Y-72420782D01*
X52140630Y-72352145D01*
X52027494Y-72239009D01*
G37*
%TD.AperFunction*%
%TD*%
%TA.AperFunction,Conductor*%
%TO.N,/NRFD*%
G36*
X56411433Y-64428014D02*
G01*
X56420102Y-64478657D01*
X56417159Y-64518502D01*
X56387526Y-64576790D01*
X56362577Y-64605357D01*
X56314665Y-64665256D01*
X56294238Y-64705315D01*
X56279323Y-64756105D01*
X56500258Y-64800965D01*
X56687081Y-64674997D01*
X56616136Y-64555468D01*
X56581689Y-64446447D01*
X56580008Y-64439974D01*
X56565977Y-64386592D01*
X56411433Y-64428014D01*
G37*
%TD.AperFunction*%
%TD*%
%TA.AperFunction,Conductor*%
%TO.N,/SWCLK*%
G36*
X54441428Y-42171709D02*
G01*
X54495676Y-42124049D01*
X54543216Y-42094339D01*
X54639524Y-42063680D01*
X54721224Y-42041225D01*
X54825003Y-41987081D01*
X54700707Y-41799293D01*
X54512919Y-41674997D01*
X54476456Y-41737639D01*
X54454459Y-41791059D01*
X54436319Y-41860476D01*
X54408221Y-41951542D01*
X54378122Y-42001393D01*
X54328291Y-42058572D01*
X54441428Y-42171709D01*
G37*
%TD.AperFunction*%
%TD*%
%TA.AperFunction,Conductor*%
%TO.N,/USBFS_DN*%
G36*
X56365979Y-71333676D02*
G01*
X56404865Y-71379328D01*
X56426362Y-71419897D01*
X56435171Y-71491467D01*
X56431592Y-71529031D01*
X56426387Y-71598966D01*
X56434869Y-71688349D01*
X56656253Y-71645161D01*
X56780549Y-71457373D01*
X56711530Y-71411764D01*
X56601477Y-71334716D01*
X56479116Y-71220539D01*
X56365979Y-71333676D01*
G37*
%TD.AperFunction*%
%TD*%
%TA.AperFunction,Conductor*%
%TO.N,VDD*%
G36*
X58430330Y-76566117D02*
G01*
X58209533Y-76758630D01*
X58063418Y-76865753D01*
X57902139Y-76971407D01*
X57729139Y-77072507D01*
X57546342Y-77166919D01*
X57369340Y-77246639D01*
X57188204Y-77316156D01*
X57023069Y-77368339D01*
X56857846Y-77408951D01*
X56711551Y-77434164D01*
X56567527Y-77447815D01*
X56485786Y-77450000D01*
X56899293Y-78450707D01*
X57900000Y-78864214D01*
X57919041Y-78615717D01*
X57979429Y-78334894D01*
X58085472Y-78024320D01*
X58238410Y-77693656D01*
X58431950Y-77364150D01*
X58539113Y-77209662D01*
X58646390Y-77071826D01*
X58783883Y-76919670D01*
X58430330Y-76566117D01*
G37*
%TD.AperFunction*%
%TD*%
%TA.AperFunction,Conductor*%
%TO.N,/nRST*%
G36*
X41429686Y-77832206D02*
G01*
X41378186Y-77879296D01*
X41332491Y-77908709D01*
X41234028Y-77939191D01*
X41152623Y-77960174D01*
X41049997Y-78012919D01*
X41174309Y-78200722D01*
X41362081Y-78325003D01*
X41399143Y-78261472D01*
X41421439Y-78207664D01*
X41439494Y-78140126D01*
X41467589Y-78050231D01*
X41497009Y-78000406D01*
X41545314Y-77942794D01*
X41429686Y-77832206D01*
G37*
%TD.AperFunction*%
%TD*%
%TA.AperFunction,Conductor*%
%TO.N,/DIO4*%
G36*
X54430353Y-64939366D02*
G01*
X54478013Y-64993614D01*
X54507723Y-65041154D01*
X54538381Y-65137461D01*
X54560836Y-65219162D01*
X54614981Y-65322941D01*
X54802769Y-65198645D01*
X54927065Y-65010857D01*
X54864423Y-64974394D01*
X54811002Y-64952397D01*
X54741585Y-64934257D01*
X54650520Y-64906159D01*
X54600669Y-64876060D01*
X54543490Y-64826229D01*
X54430353Y-64939366D01*
G37*
%TD.AperFunction*%
%TD*%
%TA.AperFunction,Conductor*%
%TO.N,/nRST*%
G36*
X54770000Y-55054323D02*
G01*
X54765342Y-55126382D01*
X54752733Y-55181007D01*
X54706313Y-55270785D01*
X54664420Y-55344435D01*
X54629323Y-55456105D01*
X54850000Y-55501000D01*
X55070677Y-55456105D01*
X55052166Y-55386027D01*
X55029946Y-55332699D01*
X54993687Y-55270785D01*
X54949162Y-55186524D01*
X54935196Y-55129991D01*
X54930000Y-55054323D01*
X54770000Y-55054323D01*
G37*
%TD.AperFunction*%
%TD*%
%TA.AperFunction,Conductor*%
%TO.N,/DAV*%
G36*
X57139000Y-50401784D02*
G01*
X57149345Y-50221098D01*
X57155720Y-50111770D01*
X57135677Y-49956105D01*
X56915000Y-49999000D01*
X56727919Y-50125003D01*
X56795560Y-50196761D01*
X56869712Y-50240026D01*
X56912470Y-50263073D01*
X56947184Y-50292143D01*
X56970484Y-50335593D01*
X56979000Y-50401784D01*
X57139000Y-50401784D01*
G37*
%TD.AperFunction*%
%TD*%
%TA.AperFunction,Conductor*%
%TO.N,GND*%
G36*
X37308572Y-74878291D02*
G01*
X37254324Y-74925951D01*
X37206783Y-74955661D01*
X37110476Y-74986319D01*
X37028776Y-75008774D01*
X36924997Y-75062919D01*
X37049293Y-75250707D01*
X37237081Y-75375003D01*
X37273544Y-75312361D01*
X37295540Y-75258940D01*
X37313680Y-75189524D01*
X37341778Y-75098458D01*
X37371877Y-75048607D01*
X37421709Y-74991428D01*
X37308572Y-74878291D01*
G37*
%TD.AperFunction*%
%TD*%
%TA.AperFunction,Conductor*%
%TO.N,GND*%
G36*
X38378145Y-83328145D02*
G01*
X38291660Y-83308145D01*
X38248026Y-83282309D01*
X38206781Y-83245910D01*
X38169366Y-83199006D01*
X38137127Y-83141562D01*
X38111896Y-83075021D01*
X38094295Y-82998352D01*
X38084968Y-82878145D01*
X37483968Y-83478145D01*
X38084968Y-84078145D01*
X38089771Y-83990694D01*
X38103391Y-83912682D01*
X38125115Y-83842898D01*
X38153515Y-83782915D01*
X38188162Y-83731706D01*
X38227143Y-83690750D01*
X38269836Y-83659622D01*
X38314218Y-83639092D01*
X38378145Y-83628145D01*
X38378145Y-83328145D01*
G37*
%TD.AperFunction*%
%TD*%
%TA.AperFunction,Conductor*%
%TO.N,/SWCLK*%
G36*
X55414494Y-48854545D02*
G01*
X55436446Y-48902146D01*
X55443686Y-48941795D01*
X55428033Y-49002538D01*
X55397025Y-49050428D01*
X55355161Y-49116067D01*
X55323256Y-49206105D01*
X55544433Y-49250865D01*
X55731014Y-49124997D01*
X55675934Y-49034641D01*
X55644336Y-48967902D01*
X55632766Y-48939428D01*
X55553050Y-48774533D01*
X55414494Y-48854545D01*
G37*
%TD.AperFunction*%
%TD*%
%TA.AperFunction,Conductor*%
%TO.N,VDD*%
G36*
X46463438Y-74426281D02*
G01*
X46559148Y-74518106D01*
X46639709Y-74598671D01*
X46732919Y-74725003D01*
X46920707Y-74600707D01*
X47045003Y-74412919D01*
X46934344Y-74332917D01*
X46865901Y-74268808D01*
X46838106Y-74239148D01*
X46746281Y-74143438D01*
X46463438Y-74426281D01*
G37*
%TD.AperFunction*%
%TD*%
%TA.AperFunction,Conductor*%
%TO.N,/NRFD*%
G36*
X54600730Y-61102917D02*
G01*
X54546482Y-61150577D01*
X54498941Y-61180287D01*
X54402634Y-61210945D01*
X54320934Y-61233400D01*
X54217155Y-61287545D01*
X54341451Y-61475333D01*
X54529239Y-61599629D01*
X54565702Y-61536987D01*
X54587698Y-61483566D01*
X54605838Y-61414150D01*
X54633936Y-61323084D01*
X54664035Y-61273233D01*
X54713867Y-61216054D01*
X54600730Y-61102917D01*
G37*
%TD.AperFunction*%
%TD*%
%TA.AperFunction,Conductor*%
%TO.N,/NDAC*%
G36*
X54622438Y-46420000D02*
G01*
X54563749Y-46415220D01*
X54520613Y-46401759D01*
X54465031Y-46357465D01*
X54440514Y-46326568D01*
X54394945Y-46271578D01*
X54325003Y-46212919D01*
X54199000Y-46400000D01*
X54243895Y-46620677D01*
X54284546Y-46612553D01*
X54442990Y-46585196D01*
X54622438Y-46580000D01*
X54622438Y-46420000D01*
G37*
%TD.AperFunction*%
%TD*%
%TA.AperFunction,Conductor*%
%TO.N,GND*%
G36*
X52834968Y-84454323D02*
G01*
X52830243Y-84568210D01*
X52817172Y-84646053D01*
X52802043Y-84702226D01*
X52764291Y-84856105D01*
X52984968Y-84901000D01*
X53205645Y-84856105D01*
X53167893Y-84702228D01*
X53143947Y-84601536D01*
X53134968Y-84454323D01*
X52834968Y-84454323D01*
G37*
%TD.AperFunction*%
%TD*%
%TA.AperFunction,Conductor*%
%TO.N,VDD*%
G36*
X46720000Y-74954323D02*
G01*
X46722747Y-75086929D01*
X46722744Y-75200864D01*
X46699323Y-75356105D01*
X46920000Y-75401000D01*
X47140677Y-75356105D01*
X47118999Y-75221286D01*
X47115934Y-75127556D01*
X47117253Y-75086931D01*
X47120000Y-74954323D01*
X46720000Y-74954323D01*
G37*
%TD.AperFunction*%
%TD*%
%TA.AperFunction,Conductor*%
%TO.N,/USBFS_DP*%
G36*
X53041428Y-52871709D02*
G01*
X53095676Y-52824049D01*
X53143216Y-52794339D01*
X53239524Y-52763680D01*
X53321224Y-52741225D01*
X53425003Y-52687081D01*
X53300707Y-52499293D01*
X53112919Y-52374997D01*
X53076456Y-52437639D01*
X53054459Y-52491059D01*
X53036319Y-52560476D01*
X53008221Y-52651542D01*
X52978122Y-52701393D01*
X52928291Y-52758572D01*
X53041428Y-52871709D01*
G37*
%TD.AperFunction*%
%TD*%
%TA.AperFunction,Conductor*%
%TO.N,/DIO3*%
G36*
X54903291Y-67716428D02*
G01*
X54950951Y-67770676D01*
X54980661Y-67818216D01*
X55011319Y-67914523D01*
X55033774Y-67996224D01*
X55087919Y-68100003D01*
X55275707Y-67975707D01*
X55400003Y-67787919D01*
X55337361Y-67751456D01*
X55283940Y-67729459D01*
X55214523Y-67711319D01*
X55123458Y-67683221D01*
X55073607Y-67653122D01*
X55016428Y-67603291D01*
X54903291Y-67716428D01*
G37*
%TD.AperFunction*%
%TD*%
%TA.AperFunction,Conductor*%
%TO.N,GND*%
G36*
X37932468Y-83628145D02*
G01*
X38046357Y-83632870D01*
X38124200Y-83645941D01*
X38180373Y-83661070D01*
X38334250Y-83698822D01*
X38379145Y-83478145D01*
X38334250Y-83257468D01*
X38180371Y-83295220D01*
X38079680Y-83319166D01*
X37932468Y-83328145D01*
X37932468Y-83628145D01*
G37*
%TD.AperFunction*%
%TD*%
%TA.AperFunction,Conductor*%
%TO.N,/DIO6*%
G36*
X63843464Y-44529370D02*
G01*
X63784780Y-44360982D01*
X63782750Y-44356293D01*
X63751431Y-44276857D01*
X63720677Y-44156105D01*
X63499742Y-44199035D01*
X63374997Y-44387081D01*
X63468079Y-44430176D01*
X63537801Y-44444895D01*
X63587072Y-44454786D01*
X63629124Y-44472868D01*
X63663294Y-44508437D01*
X63688920Y-44570792D01*
X63843464Y-44529370D01*
G37*
%TD.AperFunction*%
%TD*%
%TA.AperFunction,Conductor*%
%TO.N,/SPI1_NSS*%
G36*
X44004968Y-74154323D02*
G01*
X44000322Y-74230862D01*
X43987803Y-74288147D01*
X43948308Y-74373452D01*
X43911587Y-74446766D01*
X43879323Y-74556105D01*
X44100000Y-74601000D01*
X44320677Y-74556105D01*
X44302825Y-74489574D01*
X44280723Y-74438445D01*
X44235728Y-74368776D01*
X44186355Y-74286073D01*
X44170777Y-74229895D01*
X44164968Y-74154323D01*
X44004968Y-74154323D01*
G37*
%TD.AperFunction*%
%TD*%
%TA.AperFunction,Conductor*%
%TO.N,/I2C_SDA*%
G36*
X61858406Y-57654982D02*
G01*
X61895041Y-57608676D01*
X61930688Y-57578990D01*
X62001036Y-57553052D01*
X62042489Y-57547739D01*
X62125488Y-57533727D01*
X62225003Y-57487081D01*
X62100555Y-57299169D01*
X61912919Y-57174997D01*
X61865954Y-57253295D01*
X61837996Y-57315215D01*
X61819143Y-57370547D01*
X61788560Y-57454270D01*
X61725370Y-57566094D01*
X61858406Y-57654982D01*
G37*
%TD.AperFunction*%
%TD*%
%TA.AperFunction,Conductor*%
%TO.N,/SPI1_SCK*%
G36*
X47908917Y-72295642D02*
G01*
X47815080Y-72379994D01*
X47692643Y-72471828D01*
X47599168Y-72527558D01*
X47507214Y-72565840D01*
X47432268Y-72578145D01*
X47384159Y-73378732D01*
X47734968Y-73468827D01*
X47740096Y-73274100D01*
X47755995Y-73087688D01*
X47779560Y-72933088D01*
X47812623Y-72790186D01*
X47849149Y-72678275D01*
X47893463Y-72578449D01*
X47938100Y-72503403D01*
X47988973Y-72439477D01*
X48002963Y-72425082D01*
X47908917Y-72295642D01*
G37*
%TD.AperFunction*%
%TD*%
%TA.AperFunction,Conductor*%
%TO.N,/SPI1_MOSI*%
G36*
X45104968Y-74174350D02*
G01*
X45100326Y-74246646D01*
X45087831Y-74300729D01*
X45048212Y-74381350D01*
X45011166Y-74451191D01*
X44979323Y-74556105D01*
X45200000Y-74601000D01*
X45420677Y-74556105D01*
X45403507Y-74493044D01*
X45381892Y-74444673D01*
X45335862Y-74377259D01*
X45286436Y-74299432D01*
X45270803Y-74246195D01*
X45264968Y-74174350D01*
X45104968Y-74174350D01*
G37*
%TD.AperFunction*%
%TD*%
%TA.AperFunction,Conductor*%
%TO.N,/DIO8*%
G36*
X63247000Y-48201778D02*
G01*
X63257345Y-48021094D01*
X63263720Y-47911768D01*
X63243677Y-47756105D01*
X63023000Y-47799000D01*
X62835919Y-47925003D01*
X62903559Y-47996760D01*
X62977712Y-48040024D01*
X63020470Y-48063070D01*
X63055184Y-48092139D01*
X63078484Y-48135589D01*
X63087000Y-48201778D01*
X63247000Y-48201778D01*
G37*
%TD.AperFunction*%
%TD*%
%TA.AperFunction,Conductor*%
%TO.N,GND*%
G36*
X53978145Y-73728145D02*
G01*
X53874244Y-73708145D01*
X53815385Y-73681279D01*
X53757634Y-73643144D01*
X53706903Y-73597028D01*
X53662023Y-73540957D01*
X53628617Y-73482052D01*
X53603562Y-73415101D01*
X53589810Y-73349721D01*
X53584968Y-73278145D01*
X52983968Y-73878145D01*
X53584968Y-74478145D01*
X53603439Y-74341620D01*
X53655744Y-74224912D01*
X53738231Y-74129135D01*
X53844622Y-74060275D01*
X53902616Y-74039098D01*
X53957521Y-74029049D01*
X53978145Y-74028145D01*
X53978145Y-73728145D01*
G37*
%TD.AperFunction*%
%TD*%
%TA.AperFunction,Conductor*%
%TO.N,/SPI1_SCK*%
G36*
X60202000Y-54188658D02*
G01*
X60206842Y-54138513D01*
X60220739Y-54103020D01*
X60265202Y-54063584D01*
X60315163Y-54041652D01*
X60425003Y-53987081D01*
X60300000Y-53799000D01*
X60079323Y-53756105D01*
X60046230Y-53953689D01*
X60041895Y-54127039D01*
X60042000Y-54188658D01*
X60202000Y-54188658D01*
G37*
%TD.AperFunction*%
%TD*%
%TA.AperFunction,Conductor*%
%TO.N,/SPI1_MISO*%
G36*
X50161337Y-72307395D02*
G01*
X50121315Y-72335045D01*
X49884140Y-72490127D01*
X49761582Y-72552735D01*
X49707735Y-72571367D01*
X49662053Y-72578145D01*
X49584045Y-73378527D01*
X49934968Y-73475282D01*
X49934121Y-73302219D01*
X49943832Y-73135102D01*
X49962482Y-72989412D01*
X49990810Y-72854011D01*
X50024033Y-72745360D01*
X50065273Y-72648347D01*
X50107603Y-72575138D01*
X50156272Y-72513035D01*
X50222568Y-72455214D01*
X50161337Y-72307395D01*
G37*
%TD.AperFunction*%
%TD*%
%TA.AperFunction,Conductor*%
%TO.N,/VBUS*%
G36*
X61841428Y-56971709D02*
G01*
X61895676Y-56924049D01*
X61943216Y-56894339D01*
X62039524Y-56863680D01*
X62121224Y-56841225D01*
X62225003Y-56787081D01*
X62100707Y-56599293D01*
X61912919Y-56474997D01*
X61876456Y-56537639D01*
X61854459Y-56591059D01*
X61836319Y-56660476D01*
X61808221Y-56751542D01*
X61778122Y-56801393D01*
X61728291Y-56858572D01*
X61841428Y-56971709D01*
G37*
%TD.AperFunction*%
%TD*%
%TA.AperFunction,Conductor*%
%TO.N,/I2C_SCL*%
G36*
X35245677Y-84820000D02*
G01*
X35173617Y-84815342D01*
X35118993Y-84802733D01*
X35029214Y-84756313D01*
X34955565Y-84714419D01*
X34843895Y-84679323D01*
X34799000Y-84900000D01*
X34843895Y-85120677D01*
X34913973Y-85102166D01*
X34967301Y-85079945D01*
X35029214Y-85043687D01*
X35113475Y-84999162D01*
X35170008Y-84985196D01*
X35245677Y-84980000D01*
X35245677Y-84820000D01*
G37*
%TD.AperFunction*%
%TD*%
%TA.AperFunction,Conductor*%
%TO.N,/BUZZ*%
G36*
X52791428Y-75721709D02*
G01*
X52845676Y-75674049D01*
X52893216Y-75644339D01*
X52989524Y-75613680D01*
X53071224Y-75591225D01*
X53175003Y-75537081D01*
X53050707Y-75349293D01*
X52862919Y-75224997D01*
X52826456Y-75287639D01*
X52804459Y-75341059D01*
X52786319Y-75410476D01*
X52758221Y-75501542D01*
X52728122Y-75551393D01*
X52678291Y-75608572D01*
X52791428Y-75721709D01*
G37*
%TD.AperFunction*%
%TD*%
%TA.AperFunction,Conductor*%
%TO.N,/BUZZ*%
G36*
X53210896Y-58630515D02*
G01*
X53136245Y-58674996D01*
X53076007Y-58701489D01*
X53009944Y-58721720D01*
X52923397Y-58749938D01*
X52808997Y-58812919D01*
X52933169Y-59000555D01*
X53121081Y-59125003D01*
X53170075Y-59022751D01*
X53185774Y-58946905D01*
X53194469Y-58899546D01*
X53210817Y-58854538D01*
X53243148Y-58809874D01*
X53299792Y-58763545D01*
X53210896Y-58630515D01*
G37*
%TD.AperFunction*%
%TD*%
%TA.AperFunction,Conductor*%
%TO.N,/I2C_SCL*%
G36*
X62083747Y-58279652D02*
G01*
X62102316Y-58228886D01*
X62125573Y-58194576D01*
X62180404Y-58160484D01*
X62229902Y-58147062D01*
X62299788Y-58127489D01*
X62380003Y-58087081D01*
X62255258Y-57899035D01*
X62034323Y-57856105D01*
X62004276Y-57988122D01*
X61977258Y-58076909D01*
X61929199Y-58238243D01*
X62083747Y-58279652D01*
G37*
%TD.AperFunction*%
%TD*%
%TA.AperFunction,Conductor*%
%TO.N,/SPI1_NSS*%
G36*
X44461877Y-72438095D02*
G01*
X44413262Y-72479235D01*
X44351518Y-72516944D01*
X44282783Y-72546237D01*
X44203848Y-72567285D01*
X44087529Y-72578145D01*
X44084261Y-73378852D01*
X44434968Y-73458710D01*
X44434423Y-73316485D01*
X44435211Y-73063515D01*
X44449837Y-72851336D01*
X44466590Y-72760690D01*
X44491904Y-72680418D01*
X44527478Y-72610579D01*
X44575013Y-72551231D01*
X44461877Y-72438095D01*
G37*
%TD.AperFunction*%
%TD*%
%TA.AperFunction,Conductor*%
%TO.N,/I2C_SDA*%
G36*
X31445677Y-84020000D02*
G01*
X31373617Y-84015342D01*
X31318993Y-84002733D01*
X31229214Y-83956313D01*
X31155565Y-83914419D01*
X31043895Y-83879323D01*
X30999000Y-84100000D01*
X31043895Y-84320677D01*
X31113973Y-84302166D01*
X31167301Y-84279945D01*
X31229214Y-84243687D01*
X31313475Y-84199162D01*
X31370008Y-84185196D01*
X31445677Y-84180000D01*
X31445677Y-84020000D01*
G37*
%TD.AperFunction*%
%TD*%
%TA.AperFunction,Conductor*%
%TO.N,/DIO3*%
G36*
X56023590Y-51972861D02*
G01*
X55967946Y-51864965D01*
X55944136Y-51783065D01*
X55935877Y-51738011D01*
X55920677Y-51656105D01*
X55699500Y-51699134D01*
X55574997Y-51887081D01*
X55670579Y-51932158D01*
X55727788Y-51944859D01*
X55809429Y-51969775D01*
X55847229Y-52000203D01*
X55885028Y-52052863D01*
X56023590Y-51972861D01*
G37*
%TD.AperFunction*%
%TD*%
%TA.AperFunction,Conductor*%
%TO.N,VDD*%
G36*
X47120000Y-75045677D02*
G01*
X47117253Y-74913069D01*
X47117256Y-74799135D01*
X47140677Y-74643895D01*
X46920000Y-74599000D01*
X46699323Y-74643895D01*
X46721001Y-74778716D01*
X46724066Y-74872448D01*
X46722747Y-74913071D01*
X46720000Y-75045677D01*
X47120000Y-75045677D01*
G37*
%TD.AperFunction*%
%TD*%
%TA.AperFunction,Conductor*%
%TO.N,/DIO4*%
G36*
X56479645Y-51423453D02*
G01*
X56472100Y-51314141D01*
X56457650Y-51238588D01*
X56440362Y-51180162D01*
X56396411Y-51011105D01*
X56175708Y-51054001D01*
X56050731Y-51242081D01*
X56141082Y-51283947D01*
X56195061Y-51297794D01*
X56244078Y-51310688D01*
X56282964Y-51330726D01*
X56309058Y-51366778D01*
X56319702Y-51427711D01*
X56479645Y-51423453D01*
G37*
%TD.AperFunction*%
%TD*%
%TA.AperFunction,Conductor*%
%TO.N,/EOI*%
G36*
X55333409Y-64691428D02*
G01*
X55381069Y-64745676D01*
X55410779Y-64793216D01*
X55441437Y-64889523D01*
X55463892Y-64971224D01*
X55518037Y-65075003D01*
X55705825Y-64950707D01*
X55830121Y-64762919D01*
X55767479Y-64726456D01*
X55714058Y-64704459D01*
X55644641Y-64686319D01*
X55553576Y-64658221D01*
X55503725Y-64628122D01*
X55446546Y-64578291D01*
X55333409Y-64691428D01*
G37*
%TD.AperFunction*%
%TD*%
%TA.AperFunction,Conductor*%
%TO.N,Net-(J5-DAT1)*%
G36*
X50604968Y-74154323D02*
G01*
X50600322Y-74230862D01*
X50587803Y-74288147D01*
X50548308Y-74373452D01*
X50511587Y-74446766D01*
X50479323Y-74556105D01*
X50700000Y-74601000D01*
X50920677Y-74556105D01*
X50902825Y-74489574D01*
X50880723Y-74438445D01*
X50835728Y-74368776D01*
X50786355Y-74286073D01*
X50770777Y-74229895D01*
X50764968Y-74154323D01*
X50604968Y-74154323D01*
G37*
%TD.AperFunction*%
%TD*%
%TA.AperFunction,Conductor*%
%TO.N,/USBFS_DP*%
G36*
X56905571Y-71364148D02*
G01*
X56953231Y-71418396D01*
X56982941Y-71465936D01*
X57013599Y-71562243D01*
X57036054Y-71643944D01*
X57090199Y-71747723D01*
X57277987Y-71623427D01*
X57402283Y-71435639D01*
X57339641Y-71399176D01*
X57286220Y-71377179D01*
X57216803Y-71359039D01*
X57125738Y-71330941D01*
X57075887Y-71300842D01*
X57018708Y-71251011D01*
X56905571Y-71364148D01*
G37*
%TD.AperFunction*%
%TD*%
%TA.AperFunction,Conductor*%
%TO.N,/NDAC*%
G36*
X57781472Y-49128014D02*
G01*
X57790140Y-49178653D01*
X57787197Y-49218495D01*
X57757561Y-49276776D01*
X57732598Y-49305352D01*
X57684672Y-49365251D01*
X57664240Y-49405311D01*
X57649323Y-49456105D01*
X57870258Y-49500965D01*
X58057081Y-49374997D01*
X57986236Y-49255653D01*
X57951874Y-49147012D01*
X57950092Y-49140152D01*
X57936017Y-49086592D01*
X57781472Y-49128014D01*
G37*
%TD.AperFunction*%
%TD*%
%TA.AperFunction,Conductor*%
%TO.N,/SPI1_MISO*%
G36*
X49504968Y-74154323D02*
G01*
X49500322Y-74230862D01*
X49487803Y-74288147D01*
X49448308Y-74373452D01*
X49411587Y-74446766D01*
X49379323Y-74556105D01*
X49600000Y-74601000D01*
X49820677Y-74556105D01*
X49802825Y-74489574D01*
X49780723Y-74438445D01*
X49735728Y-74368776D01*
X49686355Y-74286073D01*
X49670777Y-74229895D01*
X49664968Y-74154323D01*
X49504968Y-74154323D01*
G37*
%TD.AperFunction*%
%TD*%
%TA.AperFunction,Conductor*%
%TO.N,/CARD_DET*%
G36*
X51704968Y-74276599D02*
G01*
X51699991Y-74337043D01*
X51685149Y-74376989D01*
X51655919Y-74417294D01*
X51612919Y-74474997D01*
X51800000Y-74601000D01*
X51987081Y-74474997D01*
X51921645Y-74401857D01*
X51880743Y-74355626D01*
X51869113Y-74323137D01*
X51864968Y-74276599D01*
X51704968Y-74276599D01*
G37*
%TD.AperFunction*%
%TD*%
%TA.AperFunction,Conductor*%
%TO.N,/SPI1_MISO*%
G36*
X49664968Y-74396390D02*
G01*
X49684689Y-74321285D01*
X49711227Y-74280020D01*
X49748574Y-74242045D01*
X49792679Y-74212410D01*
X49845661Y-74190671D01*
X49934968Y-74178145D01*
X49584968Y-73377145D01*
X49234968Y-74178145D01*
X49340856Y-74196134D01*
X49426047Y-74246016D01*
X49484807Y-74320414D01*
X49504968Y-74396390D01*
X49664968Y-74396390D01*
G37*
%TD.AperFunction*%
%TD*%
%TA.AperFunction,Conductor*%
%TO.N,GND*%
G36*
X48684968Y-74528145D02*
G01*
X48684448Y-74495456D01*
X48684759Y-74399209D01*
X48699675Y-74295319D01*
X48717426Y-74249377D01*
X48744607Y-74212169D01*
X48783146Y-74187242D01*
X48834968Y-74178145D01*
X48484968Y-73377145D01*
X48134968Y-74178145D01*
X48173623Y-74182926D01*
X48205142Y-74196391D01*
X48250246Y-74245202D01*
X48277794Y-74328970D01*
X48286162Y-74456042D01*
X48285488Y-74495456D01*
X48284968Y-74528145D01*
X48684968Y-74528145D01*
G37*
%TD.AperFunction*%
%TD*%
%TA.AperFunction,Conductor*%
%TO.N,/DIO7*%
G36*
X63398000Y-64898222D02*
G01*
X63393230Y-64949857D01*
X63379837Y-64987779D01*
X63335973Y-65034026D01*
X63288712Y-65059975D01*
X63217436Y-65101121D01*
X63181388Y-65132245D01*
X63146919Y-65174997D01*
X63334000Y-65301000D01*
X63554677Y-65343895D01*
X63571875Y-65233401D01*
X63574544Y-65154282D01*
X63568345Y-65078905D01*
X63558000Y-64898222D01*
X63398000Y-64898222D01*
G37*
%TD.AperFunction*%
%TD*%
%TA.AperFunction,Conductor*%
%TO.N,GND*%
G36*
X53134968Y-84900000D02*
G01*
X53154968Y-84808636D01*
X53181140Y-84760684D01*
X53218102Y-84714751D01*
X53264724Y-84673483D01*
X53321682Y-84637564D01*
X53385490Y-84609889D01*
X53458660Y-84590044D01*
X53584968Y-84578145D01*
X52984968Y-83477145D01*
X52384968Y-84578145D01*
X52466645Y-84582947D01*
X52540149Y-84596561D01*
X52665952Y-84647399D01*
X52760309Y-84723936D01*
X52794548Y-84769613D01*
X52818365Y-84816912D01*
X52834968Y-84900000D01*
X53134968Y-84900000D01*
G37*
%TD.AperFunction*%
%TD*%
%TA.AperFunction,Conductor*%
%TO.N,/BUZZ*%
G36*
X54062679Y-58588356D02*
G01*
X54134739Y-58593014D01*
X54189363Y-58605623D01*
X54279141Y-58652043D01*
X54352791Y-58693936D01*
X54464461Y-58729033D01*
X54509356Y-58508356D01*
X54464461Y-58287679D01*
X54394383Y-58306190D01*
X54341055Y-58328410D01*
X54279141Y-58364669D01*
X54194880Y-58409194D01*
X54138347Y-58423160D01*
X54062679Y-58428356D01*
X54062679Y-58588356D01*
G37*
%TD.AperFunction*%
%TD*%
%TA.AperFunction,Conductor*%
%TO.N,/EOI*%
G36*
X56828000Y-51000278D02*
G01*
X56836651Y-50824626D01*
X56841676Y-50713566D01*
X56820677Y-50556105D01*
X56600000Y-50599000D01*
X56412919Y-50725003D01*
X56480164Y-50796037D01*
X56557202Y-50839823D01*
X56600507Y-50862329D01*
X56635705Y-50890981D01*
X56659352Y-50934168D01*
X56668000Y-51000278D01*
X56828000Y-51000278D01*
G37*
%TD.AperFunction*%
%TD*%
%TA.AperFunction,Conductor*%
%TO.N,/SPI1_NSS*%
G36*
X44164968Y-74528145D02*
G01*
X44184689Y-74420017D01*
X44212297Y-74351640D01*
X44251437Y-74286228D01*
X44291780Y-74239884D01*
X44339475Y-74204057D01*
X44382233Y-74185720D01*
X44429401Y-74178226D01*
X44434968Y-74178145D01*
X44084968Y-73377145D01*
X43734968Y-74178145D01*
X43815811Y-74196434D01*
X43889089Y-74250793D01*
X43953755Y-74343904D01*
X43997766Y-74466858D01*
X44004968Y-74528145D01*
X44164968Y-74528145D01*
G37*
%TD.AperFunction*%
%TD*%
%TA.AperFunction,Conductor*%
%TO.N,/SPI1_NSS*%
G36*
X59456568Y-54543432D02*
G01*
X59437701Y-54517797D01*
X59434469Y-54495476D01*
X59457211Y-54458699D01*
X59479371Y-54437692D01*
X59537081Y-54375003D01*
X59349293Y-54249293D01*
X59162919Y-54375003D01*
X59232518Y-54500079D01*
X59269837Y-54569858D01*
X59343432Y-54656568D01*
X59456568Y-54543432D01*
G37*
%TD.AperFunction*%
%TD*%
%TA.AperFunction,Conductor*%
%TO.N,Net-(J5-DAT1)*%
G36*
X50764968Y-74528145D02*
G01*
X50784689Y-74420017D01*
X50812297Y-74351640D01*
X50851437Y-74286228D01*
X50891780Y-74239884D01*
X50939475Y-74204057D01*
X50982233Y-74185720D01*
X51029401Y-74178226D01*
X51034968Y-74178145D01*
X50684968Y-73377145D01*
X50334968Y-74178145D01*
X50415811Y-74196434D01*
X50489089Y-74250793D01*
X50553755Y-74343904D01*
X50597766Y-74466858D01*
X50604968Y-74528145D01*
X50764968Y-74528145D01*
G37*
%TD.AperFunction*%
%TD*%
%TA.AperFunction,Conductor*%
%TO.N,/BOOT1*%
G36*
X61570000Y-50804323D02*
G01*
X61565342Y-50876382D01*
X61552733Y-50931007D01*
X61506313Y-51020785D01*
X61464420Y-51094435D01*
X61429323Y-51206105D01*
X61650000Y-51251000D01*
X61870677Y-51206105D01*
X61852166Y-51136027D01*
X61829946Y-51082699D01*
X61793687Y-51020785D01*
X61749162Y-50936524D01*
X61735196Y-50879991D01*
X61730000Y-50804323D01*
X61570000Y-50804323D01*
G37*
%TD.AperFunction*%
%TD*%
%TA.AperFunction,Conductor*%
%TO.N,/DIO5*%
G36*
X64180000Y-43995677D02*
G01*
X64184658Y-43923617D01*
X64197267Y-43868992D01*
X64243687Y-43779214D01*
X64285580Y-43705564D01*
X64320677Y-43593895D01*
X64100000Y-43549000D01*
X63879323Y-43593895D01*
X63897834Y-43663973D01*
X63920054Y-43717301D01*
X63956313Y-43779214D01*
X64000838Y-43863476D01*
X64014804Y-43920009D01*
X64020000Y-43995677D01*
X64180000Y-43995677D01*
G37*
%TD.AperFunction*%
%TD*%
%TA.AperFunction,Conductor*%
%TO.N,Net-(J5-DAT2)*%
G36*
X43064968Y-74528145D02*
G01*
X43084689Y-74420017D01*
X43112297Y-74351640D01*
X43151437Y-74286228D01*
X43191780Y-74239884D01*
X43239475Y-74204057D01*
X43282233Y-74185720D01*
X43329401Y-74178226D01*
X43334968Y-74178145D01*
X42984968Y-73377145D01*
X42634968Y-74178145D01*
X42715811Y-74196434D01*
X42789089Y-74250793D01*
X42853755Y-74343904D01*
X42897766Y-74466858D01*
X42904968Y-74528145D01*
X43064968Y-74528145D01*
G37*
%TD.AperFunction*%
%TD*%
%TA.AperFunction,Conductor*%
%TO.N,/SPI1_MOSI*%
G36*
X45264968Y-74393499D02*
G01*
X45284689Y-74319090D01*
X45311193Y-74278413D01*
X45348484Y-74241039D01*
X45392729Y-74211785D01*
X45445911Y-74190374D01*
X45534968Y-74178145D01*
X45184968Y-73377145D01*
X44834968Y-74178145D01*
X44941733Y-74196128D01*
X45027217Y-74245879D01*
X45085577Y-74319742D01*
X45104968Y-74393499D01*
X45264968Y-74393499D01*
G37*
%TD.AperFunction*%
%TD*%
%TA.AperFunction,Conductor*%
%TO.N,/VBUS*%
G36*
X59408572Y-73078291D02*
G01*
X59354324Y-73125951D01*
X59306783Y-73155661D01*
X59210476Y-73186319D01*
X59128776Y-73208774D01*
X59024997Y-73262919D01*
X59149293Y-73450707D01*
X59337081Y-73575003D01*
X59373544Y-73512361D01*
X59395540Y-73458940D01*
X59413680Y-73389524D01*
X59441778Y-73298458D01*
X59471877Y-73248607D01*
X59521709Y-73191428D01*
X59408572Y-73078291D01*
G37*
%TD.AperFunction*%
%TD*%
%TA.AperFunction,Conductor*%
%TO.N,/SPI1_MOSI*%
G36*
X59891000Y-53256677D02*
G01*
X59895658Y-53184617D01*
X59908267Y-53129992D01*
X59954687Y-53040214D01*
X59996580Y-52966564D01*
X60031677Y-52854895D01*
X59811000Y-52810000D01*
X59590323Y-52854895D01*
X59608834Y-52924973D01*
X59631054Y-52978301D01*
X59667313Y-53040214D01*
X59711838Y-53124476D01*
X59725804Y-53181009D01*
X59731000Y-53256677D01*
X59891000Y-53256677D01*
G37*
%TD.AperFunction*%
%TD*%
%TA.AperFunction,Conductor*%
%TO.N,/SPI1_MOSI*%
G36*
X45104968Y-72548752D02*
G01*
X45100003Y-72570469D01*
X45085247Y-72583005D01*
X45028728Y-72588684D01*
X44975182Y-72585007D01*
X44834968Y-72578145D01*
X45184968Y-73379145D01*
X45534968Y-72578145D01*
X45394754Y-72585007D01*
X45298024Y-72586937D01*
X45273308Y-72575065D01*
X45264968Y-72548752D01*
X45104968Y-72548752D01*
G37*
%TD.AperFunction*%
%TD*%
%TA.AperFunction,Conductor*%
%TO.N,/SPI1_MISO*%
G36*
X60836000Y-53694677D02*
G01*
X60840658Y-53622617D01*
X60853267Y-53567992D01*
X60899687Y-53478214D01*
X60941580Y-53404564D01*
X60976677Y-53292895D01*
X60756000Y-53248000D01*
X60535323Y-53292895D01*
X60553834Y-53362973D01*
X60576054Y-53416301D01*
X60612313Y-53478214D01*
X60656838Y-53562476D01*
X60670804Y-53619009D01*
X60676000Y-53694677D01*
X60836000Y-53694677D01*
G37*
%TD.AperFunction*%
%TD*%
M02*
