%TF.GenerationSoftware,KiCad,Pcbnew,9.0.2*%
%TF.CreationDate,2025-08-17T18:49:40+06:00*%
%TF.ProjectId,hp3478a-ch32-ext,68703334-3738-4612-9d63-6833322d6578,rev?*%
%TF.SameCoordinates,Original*%
%TF.FileFunction,Copper,L2,Inr*%
%TF.FilePolarity,Positive*%
%FSLAX46Y46*%
G04 Gerber Fmt 4.6, Leading zero omitted, Abs format (unit mm)*
G04 Created by KiCad (PCBNEW 9.0.2) date 2025-08-17 18:49:40*
%MOMM*%
%LPD*%
G01*
G04 APERTURE LIST*
G04 Aperture macros list*
%AMRoundRect*
0 Rectangle with rounded corners*
0 $1 Rounding radius*
0 $2 $3 $4 $5 $6 $7 $8 $9 X,Y pos of 4 corners*
0 Add a 4 corners polygon primitive as box body*
4,1,4,$2,$3,$4,$5,$6,$7,$8,$9,$2,$3,0*
0 Add four circle primitives for the rounded corners*
1,1,$1+$1,$2,$3*
1,1,$1+$1,$4,$5*
1,1,$1+$1,$6,$7*
1,1,$1+$1,$8,$9*
0 Add four rect primitives between the rounded corners*
20,1,$1+$1,$2,$3,$4,$5,0*
20,1,$1+$1,$4,$5,$6,$7,0*
20,1,$1+$1,$6,$7,$8,$9,0*
20,1,$1+$1,$8,$9,$2,$3,0*%
G04 Aperture macros list end*
%TA.AperFunction,ComponentPad*%
%ADD10RoundRect,0.250000X-0.600000X0.600000X-0.600000X-0.600000X0.600000X-0.600000X0.600000X0.600000X0*%
%TD*%
%TA.AperFunction,ComponentPad*%
%ADD11C,1.700000*%
%TD*%
%TA.AperFunction,HeatsinkPad*%
%ADD12C,0.600000*%
%TD*%
%TA.AperFunction,ComponentPad*%
%ADD13RoundRect,0.200000X0.450000X-0.200000X0.450000X0.200000X-0.450000X0.200000X-0.450000X-0.200000X0*%
%TD*%
%TA.AperFunction,ComponentPad*%
%ADD14O,1.300000X0.800000*%
%TD*%
%TA.AperFunction,ComponentPad*%
%ADD15R,1.600000X1.600000*%
%TD*%
%TA.AperFunction,ComponentPad*%
%ADD16O,1.600000X1.600000*%
%TD*%
%TA.AperFunction,ComponentPad*%
%ADD17R,2.000000X2.000000*%
%TD*%
%TA.AperFunction,ComponentPad*%
%ADD18C,2.000000*%
%TD*%
%TA.AperFunction,ViaPad*%
%ADD19C,0.450000*%
%TD*%
G04 APERTURE END LIST*
D10*
%TO.N,VCC*%
%TO.C,J2*%
X30000000Y-73000000D03*
D11*
%TO.N,VDD*%
X30000000Y-76700000D03*
%TO.N,GND*%
X30000000Y-80400000D03*
%TD*%
D12*
%TO.N,GND*%
%TO.C,U2*%
X36112500Y-74050000D03*
X36112500Y-73050000D03*
%TD*%
D13*
%TO.N,/VBUS*%
%TO.C,J4*%
X65755000Y-80200000D03*
D14*
%TO.N,/USB_IN_D_N*%
X65755000Y-78950000D03*
%TO.N,/USB_IN_D_P*%
X65755000Y-77700000D03*
%TO.N,GND*%
X65755000Y-76450000D03*
%TD*%
D15*
%TO.N,unconnected-(J1-SHIELD-Pad1)*%
%TO.C,J1*%
X51000000Y-43000000D03*
D16*
%TO.N,Net-(J1-ATN)*%
X51000000Y-45540000D03*
%TO.N,Net-(J1-SRQ)*%
X51000000Y-48080000D03*
%TO.N,Net-(J1-IFC)*%
X51000000Y-50620000D03*
%TO.N,Net-(J1-NDAC)*%
X51000000Y-53160000D03*
%TO.N,Net-(J1-NRFD)*%
X51000000Y-55700000D03*
%TO.N,Net-(J1-DAV)*%
X51000000Y-58240000D03*
%TO.N,Net-(J1-EOI)*%
X51000000Y-60780000D03*
%TO.N,Net-(J1-DIO4)*%
X51000000Y-63320000D03*
%TO.N,Net-(J1-DIO3)*%
X51000000Y-65860000D03*
%TO.N,Net-(J1-DIO2)*%
X51000000Y-68400000D03*
%TO.N,Net-(J1-DIO1)*%
X51000000Y-70940000D03*
%TO.N,Net-(J1-DIO5)*%
X66240000Y-70940000D03*
%TO.N,Net-(J1-DIO6)*%
X66240000Y-68400000D03*
%TO.N,Net-(J1-DIO7)*%
X66240000Y-65860000D03*
%TO.N,Net-(J1-DIO8)*%
X66240000Y-63320000D03*
%TO.N,Net-(J1-REN)*%
X66240000Y-60780000D03*
%TO.N,GND*%
X66240000Y-58240000D03*
X66240000Y-55700000D03*
X66240000Y-53160000D03*
X66240000Y-50620000D03*
X66240000Y-48080000D03*
X66240000Y-45540000D03*
X66240000Y-43000000D03*
%TD*%
D17*
%TO.N,VDD*%
%TO.C,BZ1*%
X56900000Y-78450000D03*
D18*
%TO.N,Net-(BZ1--)*%
X56900000Y-84950000D03*
%TD*%
D19*
%TO.N,GND*%
X39200000Y-80180000D03*
X49360000Y-54780000D03*
X53978145Y-73878145D03*
X34120000Y-80180000D03*
X49360000Y-85260000D03*
X59520000Y-42080000D03*
X41740000Y-80180000D03*
X59520000Y-80180000D03*
X58200000Y-61600000D03*
X49360000Y-42080000D03*
X57800000Y-65400000D03*
X54440000Y-80180000D03*
X37050000Y-75250000D03*
X62060000Y-82720000D03*
X56100000Y-40300000D03*
X59520000Y-85260000D03*
X29040000Y-85260000D03*
X58800000Y-57700000D03*
X63100000Y-74300000D03*
X44280000Y-77640000D03*
X38750000Y-72150000D03*
X59520000Y-82720000D03*
X54863734Y-57013734D03*
X59520000Y-77640000D03*
X56980000Y-82720000D03*
X58350000Y-43000000D03*
X37000000Y-72400000D03*
X49360000Y-49700000D03*
X34575000Y-75875000D03*
X54440000Y-85260000D03*
X65300000Y-59700000D03*
X62060000Y-80180000D03*
X49360000Y-47160000D03*
X44700000Y-81600000D03*
X48484968Y-74584968D03*
X49360000Y-39540000D03*
X29040000Y-82720000D03*
X39200000Y-77640000D03*
X64600000Y-80180000D03*
X49360000Y-44620000D03*
X55430000Y-41630000D03*
X35700000Y-81400000D03*
X58900000Y-63400000D03*
X51900000Y-85260000D03*
X49360000Y-52240000D03*
X64600000Y-39540000D03*
X59000000Y-64900000D03*
X51900000Y-80180000D03*
X52984968Y-84900000D03*
X59200000Y-44200000D03*
X38378145Y-83478145D03*
X62060000Y-39540000D03*
X32000000Y-75900000D03*
X55550000Y-54250000D03*
X59520000Y-49700000D03*
X35850000Y-86900000D03*
X56980000Y-80180000D03*
X64600000Y-42080000D03*
X41175000Y-81975000D03*
X57700000Y-46600000D03*
X59520000Y-39540000D03*
X60050000Y-43000000D03*
X53200000Y-47600000D03*
X30100000Y-85900000D03*
X62060000Y-77640000D03*
X57545001Y-59902389D03*
X62060000Y-42080000D03*
X36660000Y-80180000D03*
X29040000Y-75100000D03*
X42325000Y-72225000D03*
%TO.N,/EOI*%
X56600000Y-50600000D03*
X55705118Y-64950000D03*
%TO.N,/DIO7*%
X63334000Y-65300000D03*
X62900000Y-44850000D03*
%TO.N,/DIO5*%
X63671734Y-66371734D03*
X64100000Y-43550000D03*
%TO.N,/DIO6*%
X62750000Y-66650000D03*
X63500000Y-44200000D03*
%TO.N,/DIO8*%
X62550000Y-62250000D03*
X63023000Y-47800000D03*
%TO.N,/DAV*%
X54000000Y-62400000D03*
X56915000Y-50000000D03*
%TO.N,/DIO3*%
X55700000Y-51700000D03*
X55275000Y-67975000D03*
%TO.N,/BUZZ*%
X54508356Y-58508356D03*
X52934000Y-59000000D03*
X48950000Y-77500000D03*
X53050000Y-75350000D03*
%TO.N,/DIO4*%
X54802062Y-65197938D03*
X56175734Y-51055000D03*
%TO.N,/NDAC*%
X55600000Y-62500000D03*
X57870000Y-49500000D03*
X54200000Y-46400000D03*
%TO.N,/NRFD*%
X57370000Y-49100000D03*
X56500000Y-64800000D03*
X54342158Y-61474626D03*
%TO.N,/USBFS_DP*%
X57277280Y-71622720D03*
X53300000Y-52500000D03*
%TO.N,/USBFS_DN*%
X56655546Y-71644454D03*
X52700000Y-52200000D03*
%TO.N,/SPI1_SCK*%
X60300000Y-53800000D03*
%TO.N,/I2C_SCL*%
X62255000Y-57900000D03*
X34800000Y-84900000D03*
%TO.N,VDD*%
X56050000Y-45550000D03*
X64600000Y-58500000D03*
X46920000Y-74600000D03*
X46920000Y-75400000D03*
X56650000Y-45550000D03*
X54200000Y-56000000D03*
X64650000Y-48300000D03*
X62350000Y-46800000D03*
X54200000Y-48599999D03*
%TO.N,/nRST*%
X41175000Y-78200000D03*
X41800000Y-75000000D03*
X54850000Y-55500000D03*
X52934000Y-58300000D03*
X54063621Y-41800000D03*
%TO.N,/VBUS*%
X62100000Y-56600000D03*
X59150000Y-73450000D03*
%TO.N,/SPI1_MISO*%
X49600000Y-74600000D03*
X60756000Y-53249000D03*
%TO.N,/SWDIO*%
X56600000Y-49000000D03*
X54186379Y-42886379D03*
%TO.N,/SWCLK*%
X54700000Y-41800000D03*
X55543933Y-49250000D03*
%TO.N,/BOOT1*%
X62910000Y-46010000D03*
X61650000Y-51250000D03*
%TO.N,/SPI1_NSS*%
X59350000Y-54250000D03*
X44100000Y-74600000D03*
%TO.N,/SPI1_MOSI*%
X59811000Y-52811000D03*
X45200000Y-74600000D03*
%TO.N,/I2C_SDA*%
X62100000Y-57300000D03*
X31000000Y-84100000D03*
%TO.N,/CARD_DET*%
X51800000Y-74600000D03*
X61050000Y-54755000D03*
%TO.N,Net-(J5-DAT2)*%
X43000000Y-74600000D03*
%TO.N,Net-(J5-DAT1)*%
X50700000Y-74600000D03*
%TD*%
%TA.AperFunction,Conductor*%
%TO.N,GND*%
G36*
X66504842Y-38300976D02*
G01*
X66626764Y-38312985D01*
X66645794Y-38316770D01*
X66651133Y-38318390D01*
X66758354Y-38350915D01*
X66776285Y-38358342D01*
X66880022Y-38413791D01*
X66896158Y-38424573D01*
X66987083Y-38499193D01*
X67000806Y-38512916D01*
X67075426Y-38603841D01*
X67086208Y-38619977D01*
X67141657Y-38723714D01*
X67149084Y-38741645D01*
X67183228Y-38854203D01*
X67187014Y-38873237D01*
X67199023Y-38995157D01*
X67199500Y-39004861D01*
X67199500Y-42164858D01*
X67180593Y-42223049D01*
X67131093Y-42259013D01*
X67069907Y-42259013D01*
X67030496Y-42234862D01*
X66956596Y-42160962D01*
X66816528Y-42059197D01*
X66816524Y-42059195D01*
X66662256Y-41980592D01*
X66662244Y-41980587D01*
X66540000Y-41940867D01*
X66540000Y-42734314D01*
X66485606Y-42679920D01*
X66394394Y-42627259D01*
X66292661Y-42600000D01*
X66187339Y-42600000D01*
X66085606Y-42627259D01*
X65994394Y-42679920D01*
X65919920Y-42754394D01*
X65867259Y-42845606D01*
X65840000Y-42947339D01*
X65840000Y-43052661D01*
X65867259Y-43154394D01*
X65919920Y-43245606D01*
X65994394Y-43320080D01*
X66085606Y-43372741D01*
X66187339Y-43400000D01*
X66292661Y-43400000D01*
X66394394Y-43372741D01*
X66485606Y-43320080D01*
X66540000Y-43265686D01*
X66540000Y-44059131D01*
X66662246Y-44019412D01*
X66816524Y-43940804D01*
X66816528Y-43940802D01*
X66956596Y-43839037D01*
X67030496Y-43765138D01*
X67085013Y-43737361D01*
X67145445Y-43746932D01*
X67188710Y-43790197D01*
X67199500Y-43835142D01*
X67199500Y-44704858D01*
X67180593Y-44763049D01*
X67131093Y-44799013D01*
X67069907Y-44799013D01*
X67030496Y-44774862D01*
X66956596Y-44700962D01*
X66816528Y-44599197D01*
X66816524Y-44599195D01*
X66662256Y-44520592D01*
X66662244Y-44520587D01*
X66540000Y-44480867D01*
X66540000Y-45274314D01*
X66485606Y-45219920D01*
X66394394Y-45167259D01*
X66292661Y-45140000D01*
X66187339Y-45140000D01*
X66085606Y-45167259D01*
X65994394Y-45219920D01*
X65919920Y-45294394D01*
X65867259Y-45385606D01*
X65840000Y-45487339D01*
X65840000Y-45592661D01*
X65867259Y-45694394D01*
X65919920Y-45785606D01*
X65994394Y-45860080D01*
X66085606Y-45912741D01*
X66187339Y-45940000D01*
X66292661Y-45940000D01*
X66394394Y-45912741D01*
X66485606Y-45860080D01*
X66540000Y-45805686D01*
X66540000Y-46599131D01*
X66662246Y-46559412D01*
X66816524Y-46480804D01*
X66816528Y-46480802D01*
X66956596Y-46379037D01*
X67030496Y-46305138D01*
X67085013Y-46277361D01*
X67145445Y-46286932D01*
X67188710Y-46330197D01*
X67199500Y-46375142D01*
X67199500Y-47244858D01*
X67180593Y-47303049D01*
X67131093Y-47339013D01*
X67069907Y-47339013D01*
X67030496Y-47314862D01*
X66956596Y-47240962D01*
X66816528Y-47139197D01*
X66816524Y-47139195D01*
X66662256Y-47060592D01*
X66662244Y-47060587D01*
X66540000Y-47020867D01*
X66540000Y-47814314D01*
X66485606Y-47759920D01*
X66394394Y-47707259D01*
X66292661Y-47680000D01*
X66187339Y-47680000D01*
X66085606Y-47707259D01*
X65994394Y-47759920D01*
X65940000Y-47814314D01*
X65940000Y-47020867D01*
X65939999Y-47020867D01*
X65817755Y-47060587D01*
X65817743Y-47060592D01*
X65663475Y-47139195D01*
X65663471Y-47139197D01*
X65523403Y-47240962D01*
X65400962Y-47363403D01*
X65299197Y-47503471D01*
X65299195Y-47503475D01*
X65220588Y-47657751D01*
X65167085Y-47822419D01*
X65143756Y-47969708D01*
X65115978Y-48024224D01*
X65061461Y-48052001D01*
X65001029Y-48042429D01*
X64975974Y-48024226D01*
X64911263Y-47959515D01*
X64911260Y-47959513D01*
X64814240Y-47903498D01*
X64814242Y-47903498D01*
X64772251Y-47892247D01*
X64706018Y-47874500D01*
X64593982Y-47874500D01*
X64527748Y-47892247D01*
X64485758Y-47903498D01*
X64388739Y-47959513D01*
X64309513Y-48038739D01*
X64253498Y-48135758D01*
X64252231Y-48140486D01*
X64224500Y-48243982D01*
X64224500Y-48356018D01*
X64250072Y-48451455D01*
X64253498Y-48464241D01*
X64305271Y-48553912D01*
X64309515Y-48561263D01*
X64388737Y-48640485D01*
X64388739Y-48640486D01*
X64485759Y-48696501D01*
X64485757Y-48696501D01*
X64485761Y-48696502D01*
X64485763Y-48696503D01*
X64593982Y-48725500D01*
X64593984Y-48725500D01*
X64706016Y-48725500D01*
X64706018Y-48725500D01*
X64814237Y-48696503D01*
X64814239Y-48696501D01*
X64814241Y-48696501D01*
X64852347Y-48674500D01*
X64911263Y-48640485D01*
X64990485Y-48561263D01*
X65038817Y-48477548D01*
X65084285Y-48436610D01*
X65145135Y-48430214D01*
X65198123Y-48460807D01*
X65218706Y-48496456D01*
X65220587Y-48502245D01*
X65299195Y-48656524D01*
X65299197Y-48656528D01*
X65400962Y-48796596D01*
X65523403Y-48919037D01*
X65663471Y-49020802D01*
X65663475Y-49020804D01*
X65817753Y-49099412D01*
X65939999Y-49139131D01*
X65940000Y-49139131D01*
X65940000Y-48345686D01*
X65994394Y-48400080D01*
X66085606Y-48452741D01*
X66187339Y-48480000D01*
X66292661Y-48480000D01*
X66394394Y-48452741D01*
X66485606Y-48400080D01*
X66540000Y-48345686D01*
X66540000Y-49139131D01*
X66662246Y-49099412D01*
X66816524Y-49020804D01*
X66816528Y-49020802D01*
X66956596Y-48919037D01*
X67030496Y-48845138D01*
X67085013Y-48817361D01*
X67145445Y-48826932D01*
X67188710Y-48870197D01*
X67199500Y-48915142D01*
X67199500Y-49784858D01*
X67180593Y-49843049D01*
X67131093Y-49879013D01*
X67069907Y-49879013D01*
X67030496Y-49854862D01*
X66956596Y-49780962D01*
X66816528Y-49679197D01*
X66816524Y-49679195D01*
X66662256Y-49600592D01*
X66662244Y-49600587D01*
X66540000Y-49560867D01*
X66540000Y-50354314D01*
X66485606Y-50299920D01*
X66394394Y-50247259D01*
X66292661Y-50220000D01*
X66187339Y-50220000D01*
X66085606Y-50247259D01*
X65994394Y-50299920D01*
X65919920Y-50374394D01*
X65867259Y-50465606D01*
X65840000Y-50567339D01*
X65840000Y-50672661D01*
X65867259Y-50774394D01*
X65919920Y-50865606D01*
X65994394Y-50940080D01*
X66085606Y-50992741D01*
X66187339Y-51020000D01*
X66292661Y-51020000D01*
X66394394Y-50992741D01*
X66485606Y-50940080D01*
X66540000Y-50885686D01*
X66540000Y-51679131D01*
X66662246Y-51639412D01*
X66816524Y-51560804D01*
X66816528Y-51560802D01*
X66956596Y-51459037D01*
X67030496Y-51385138D01*
X67085013Y-51357361D01*
X67145445Y-51366932D01*
X67188710Y-51410197D01*
X67199500Y-51455142D01*
X67199500Y-52324858D01*
X67180593Y-52383049D01*
X67131093Y-52419013D01*
X67069907Y-52419013D01*
X67030496Y-52394862D01*
X66956596Y-52320962D01*
X66816528Y-52219197D01*
X66816524Y-52219195D01*
X66662256Y-52140592D01*
X66662244Y-52140587D01*
X66540000Y-52100867D01*
X66540000Y-52894314D01*
X66485606Y-52839920D01*
X66394394Y-52787259D01*
X66292661Y-52760000D01*
X66187339Y-52760000D01*
X66085606Y-52787259D01*
X65994394Y-52839920D01*
X65919920Y-52914394D01*
X65867259Y-53005606D01*
X65840000Y-53107339D01*
X65840000Y-53212661D01*
X65867259Y-53314394D01*
X65919920Y-53405606D01*
X65994394Y-53480080D01*
X66085606Y-53532741D01*
X66187339Y-53560000D01*
X66292661Y-53560000D01*
X66394394Y-53532741D01*
X66485606Y-53480080D01*
X66540000Y-53425686D01*
X66540000Y-54219131D01*
X66662246Y-54179412D01*
X66816524Y-54100804D01*
X66816528Y-54100802D01*
X66956596Y-53999037D01*
X67030496Y-53925138D01*
X67085013Y-53897361D01*
X67145445Y-53906932D01*
X67188710Y-53950197D01*
X67199500Y-53995142D01*
X67199500Y-54864858D01*
X67180593Y-54923049D01*
X67131093Y-54959013D01*
X67069907Y-54959013D01*
X67030496Y-54934862D01*
X66956596Y-54860962D01*
X66816528Y-54759197D01*
X66816524Y-54759195D01*
X66662256Y-54680592D01*
X66662244Y-54680587D01*
X66540000Y-54640867D01*
X66540000Y-55434314D01*
X66485606Y-55379920D01*
X66394394Y-55327259D01*
X66292661Y-55300000D01*
X66187339Y-55300000D01*
X66085606Y-55327259D01*
X65994394Y-55379920D01*
X65919920Y-55454394D01*
X65867259Y-55545606D01*
X65840000Y-55647339D01*
X65840000Y-55752661D01*
X65867259Y-55854394D01*
X65919920Y-55945606D01*
X65994394Y-56020080D01*
X66085606Y-56072741D01*
X66187339Y-56100000D01*
X66292661Y-56100000D01*
X66394394Y-56072741D01*
X66485606Y-56020080D01*
X66540000Y-55965686D01*
X66540000Y-56759131D01*
X66662246Y-56719412D01*
X66816524Y-56640804D01*
X66816528Y-56640802D01*
X66956596Y-56539037D01*
X67030496Y-56465138D01*
X67085013Y-56437361D01*
X67145445Y-56446932D01*
X67188710Y-56490197D01*
X67199500Y-56535142D01*
X67199500Y-57404858D01*
X67180593Y-57463049D01*
X67131093Y-57499013D01*
X67069907Y-57499013D01*
X67030496Y-57474862D01*
X66956596Y-57400962D01*
X66816528Y-57299197D01*
X66816524Y-57299195D01*
X66662256Y-57220592D01*
X66662244Y-57220587D01*
X66540000Y-57180867D01*
X66540000Y-57974314D01*
X66485606Y-57919920D01*
X66394394Y-57867259D01*
X66292661Y-57840000D01*
X66187339Y-57840000D01*
X66085606Y-57867259D01*
X65994394Y-57919920D01*
X65919920Y-57994394D01*
X65867259Y-58085606D01*
X65840000Y-58187339D01*
X65840000Y-58292661D01*
X65867259Y-58394394D01*
X65919920Y-58485606D01*
X65994394Y-58560080D01*
X66085606Y-58612741D01*
X66187339Y-58640000D01*
X66292661Y-58640000D01*
X66394394Y-58612741D01*
X66485606Y-58560080D01*
X66540000Y-58505686D01*
X66540000Y-59299131D01*
X66662246Y-59259412D01*
X66816524Y-59180804D01*
X66816528Y-59180802D01*
X66956596Y-59079037D01*
X67030496Y-59005138D01*
X67085013Y-58977361D01*
X67145445Y-58986932D01*
X67188710Y-59030197D01*
X67199500Y-59075142D01*
X67199500Y-60088782D01*
X67180593Y-60146973D01*
X67131093Y-60182937D01*
X67069907Y-60182937D01*
X67020407Y-60146973D01*
X67018186Y-60143785D01*
X67017141Y-60142221D01*
X67017139Y-60142218D01*
X66877782Y-60002861D01*
X66713914Y-59893368D01*
X66713915Y-59893368D01*
X66713913Y-59893367D01*
X66531835Y-59817949D01*
X66338543Y-59779500D01*
X66338541Y-59779500D01*
X66141459Y-59779500D01*
X66141456Y-59779500D01*
X65948165Y-59817949D01*
X65948163Y-59817949D01*
X65766086Y-59893367D01*
X65602218Y-60002861D01*
X65602214Y-60002864D01*
X65462864Y-60142214D01*
X65462861Y-60142218D01*
X65353367Y-60306086D01*
X65277949Y-60488163D01*
X65277949Y-60488165D01*
X65239500Y-60681456D01*
X65239500Y-60878543D01*
X65277949Y-61071834D01*
X65277949Y-61071836D01*
X65353367Y-61253913D01*
X65353368Y-61253914D01*
X65462861Y-61417782D01*
X65602218Y-61557139D01*
X65766086Y-61666632D01*
X65948165Y-61742051D01*
X66141459Y-61780500D01*
X66141460Y-61780500D01*
X66338540Y-61780500D01*
X66338541Y-61780500D01*
X66531835Y-61742051D01*
X66713914Y-61666632D01*
X66877782Y-61557139D01*
X67017139Y-61417782D01*
X67018184Y-61416217D01*
X67018857Y-61415686D01*
X67020216Y-61414031D01*
X67020579Y-61414329D01*
X67066229Y-61378338D01*
X67127367Y-61375932D01*
X67178243Y-61409922D01*
X67199423Y-61467324D01*
X67199500Y-61471217D01*
X67199500Y-62628782D01*
X67180593Y-62686973D01*
X67131093Y-62722937D01*
X67069907Y-62722937D01*
X67020407Y-62686973D01*
X67018186Y-62683785D01*
X67017141Y-62682221D01*
X67017139Y-62682218D01*
X66877782Y-62542861D01*
X66747809Y-62456016D01*
X66713913Y-62433367D01*
X66531835Y-62357949D01*
X66338543Y-62319500D01*
X66338541Y-62319500D01*
X66141459Y-62319500D01*
X66141456Y-62319500D01*
X65948165Y-62357949D01*
X65948163Y-62357949D01*
X65766086Y-62433367D01*
X65602218Y-62542861D01*
X65602214Y-62542864D01*
X65462864Y-62682214D01*
X65462861Y-62682218D01*
X65353367Y-62846086D01*
X65277949Y-63028163D01*
X65277949Y-63028165D01*
X65239500Y-63221456D01*
X65239500Y-63418543D01*
X65277949Y-63611834D01*
X65277949Y-63611836D01*
X65353367Y-63793913D01*
X65353368Y-63793914D01*
X65462861Y-63957782D01*
X65602218Y-64097139D01*
X65766086Y-64206632D01*
X65948165Y-64282051D01*
X66141459Y-64320500D01*
X66141460Y-64320500D01*
X66338540Y-64320500D01*
X66338541Y-64320500D01*
X66531835Y-64282051D01*
X66713914Y-64206632D01*
X66877782Y-64097139D01*
X67017139Y-63957782D01*
X67018184Y-63956217D01*
X67018857Y-63955686D01*
X67020216Y-63954031D01*
X67020579Y-63954329D01*
X67066229Y-63918338D01*
X67127367Y-63915932D01*
X67178243Y-63949922D01*
X67199423Y-64007324D01*
X67199500Y-64011217D01*
X67199500Y-65168782D01*
X67180593Y-65226973D01*
X67131093Y-65262937D01*
X67069907Y-65262937D01*
X67020407Y-65226973D01*
X67018186Y-65223785D01*
X67017141Y-65222221D01*
X67017139Y-65222218D01*
X66877782Y-65082861D01*
X66713914Y-64973368D01*
X66713915Y-64973368D01*
X66713913Y-64973367D01*
X66531835Y-64897949D01*
X66338543Y-64859500D01*
X66338541Y-64859500D01*
X66141459Y-64859500D01*
X66141456Y-64859500D01*
X65948165Y-64897949D01*
X65948163Y-64897949D01*
X65766086Y-64973367D01*
X65602218Y-65082861D01*
X65602214Y-65082864D01*
X65462864Y-65222214D01*
X65462861Y-65222218D01*
X65353367Y-65386086D01*
X65277949Y-65568163D01*
X65277949Y-65568165D01*
X65239500Y-65761456D01*
X65239500Y-65761459D01*
X65239500Y-65958541D01*
X65269721Y-66110473D01*
X65277949Y-66151834D01*
X65277949Y-66151836D01*
X65353367Y-66333913D01*
X65353368Y-66333914D01*
X65462861Y-66497782D01*
X65602218Y-66637139D01*
X65766086Y-66746632D01*
X65948165Y-66822051D01*
X66141459Y-66860500D01*
X66141460Y-66860500D01*
X66338540Y-66860500D01*
X66338541Y-66860500D01*
X66531835Y-66822051D01*
X66713914Y-66746632D01*
X66877782Y-66637139D01*
X67017139Y-66497782D01*
X67018184Y-66496217D01*
X67018857Y-66495686D01*
X67020216Y-66494031D01*
X67020579Y-66494329D01*
X67066229Y-66458338D01*
X67127367Y-66455932D01*
X67178243Y-66489922D01*
X67199423Y-66547324D01*
X67199500Y-66551217D01*
X67199500Y-67708782D01*
X67180593Y-67766973D01*
X67131093Y-67802937D01*
X67069907Y-67802937D01*
X67020407Y-67766973D01*
X67018186Y-67763785D01*
X67017141Y-67762221D01*
X67017139Y-67762218D01*
X66877782Y-67622861D01*
X66713914Y-67513368D01*
X66713915Y-67513368D01*
X66713913Y-67513367D01*
X66531835Y-67437949D01*
X66338543Y-67399500D01*
X66338541Y-67399500D01*
X66141459Y-67399500D01*
X66141456Y-67399500D01*
X65948165Y-67437949D01*
X65948163Y-67437949D01*
X65766086Y-67513367D01*
X65602218Y-67622861D01*
X65602214Y-67622864D01*
X65462864Y-67762214D01*
X65462861Y-67762218D01*
X65353367Y-67926086D01*
X65277949Y-68108163D01*
X65277949Y-68108165D01*
X65239500Y-68301456D01*
X65239500Y-68498543D01*
X65277949Y-68691834D01*
X65277949Y-68691836D01*
X65353367Y-68873913D01*
X65353368Y-68873914D01*
X65462861Y-69037782D01*
X65602218Y-69177139D01*
X65766086Y-69286632D01*
X65948165Y-69362051D01*
X66141459Y-69400500D01*
X66141460Y-69400500D01*
X66338540Y-69400500D01*
X66338541Y-69400500D01*
X66531835Y-69362051D01*
X66713914Y-69286632D01*
X66877782Y-69177139D01*
X67017139Y-69037782D01*
X67018184Y-69036217D01*
X67018857Y-69035686D01*
X67020216Y-69034031D01*
X67020579Y-69034329D01*
X67066229Y-68998338D01*
X67127367Y-68995932D01*
X67178243Y-69029922D01*
X67199423Y-69087324D01*
X67199500Y-69091217D01*
X67199500Y-70248782D01*
X67180593Y-70306973D01*
X67131093Y-70342937D01*
X67069907Y-70342937D01*
X67020407Y-70306973D01*
X67018186Y-70303785D01*
X67017141Y-70302221D01*
X67017139Y-70302218D01*
X66877782Y-70162861D01*
X66713914Y-70053368D01*
X66713915Y-70053368D01*
X66713913Y-70053367D01*
X66531835Y-69977949D01*
X66338543Y-69939500D01*
X66338541Y-69939500D01*
X66141459Y-69939500D01*
X66141456Y-69939500D01*
X65948165Y-69977949D01*
X65948163Y-69977949D01*
X65766086Y-70053367D01*
X65602218Y-70162861D01*
X65602214Y-70162864D01*
X65462864Y-70302214D01*
X65462861Y-70302218D01*
X65353367Y-70466086D01*
X65277949Y-70648163D01*
X65277949Y-70648165D01*
X65239500Y-70841456D01*
X65239500Y-70841459D01*
X65239500Y-71038541D01*
X65276831Y-71226217D01*
X65277949Y-71231834D01*
X65277949Y-71231836D01*
X65353367Y-71413913D01*
X65360490Y-71424573D01*
X65462861Y-71577782D01*
X65602218Y-71717139D01*
X65766086Y-71826632D01*
X65948165Y-71902051D01*
X66141459Y-71940500D01*
X66141460Y-71940500D01*
X66338540Y-71940500D01*
X66338541Y-71940500D01*
X66531835Y-71902051D01*
X66713914Y-71826632D01*
X66877782Y-71717139D01*
X67017139Y-71577782D01*
X67018184Y-71576217D01*
X67018857Y-71575686D01*
X67020216Y-71574031D01*
X67020579Y-71574329D01*
X67066229Y-71538338D01*
X67127367Y-71535932D01*
X67178243Y-71569922D01*
X67199423Y-71627324D01*
X67199500Y-71631217D01*
X67199500Y-81992209D01*
X67198281Y-82007697D01*
X67192188Y-82046163D01*
X67182617Y-82075619D01*
X67168519Y-82103289D01*
X67150311Y-82128350D01*
X67128348Y-82150312D01*
X67103292Y-82168516D01*
X67075622Y-82182615D01*
X67046164Y-82192187D01*
X67021617Y-82196075D01*
X67015097Y-82196887D01*
X66997435Y-82198493D01*
X66990841Y-82199093D01*
X66981877Y-82199500D01*
X66952408Y-82199500D01*
X66949808Y-82200344D01*
X66928169Y-82204782D01*
X66748848Y-82221049D01*
X66550097Y-82254727D01*
X66305430Y-82296186D01*
X66087524Y-82350677D01*
X65869129Y-82405292D01*
X65869121Y-82405294D01*
X65442549Y-82547717D01*
X65028205Y-82722621D01*
X64628597Y-82928950D01*
X64246088Y-83165483D01*
X64003999Y-83342369D01*
X63962254Y-83372872D01*
X63882955Y-83430813D01*
X63541371Y-83723348D01*
X63223352Y-84041367D01*
X63200636Y-84067892D01*
X62930815Y-84382951D01*
X62930810Y-84382958D01*
X62665486Y-84746084D01*
X62428953Y-85128592D01*
X62222623Y-85528200D01*
X62047720Y-85942541D01*
X61905294Y-86369124D01*
X61905289Y-86369142D01*
X61796190Y-86805411D01*
X61796188Y-86805417D01*
X61796187Y-86805425D01*
X61764040Y-86995138D01*
X61721050Y-87248841D01*
X61704783Y-87428159D01*
X61704782Y-87428166D01*
X61703777Y-87439233D01*
X61699499Y-87452403D01*
X61699499Y-87486350D01*
X61699093Y-87490822D01*
X61699092Y-87490835D01*
X61696885Y-87515108D01*
X61696073Y-87521628D01*
X61692188Y-87546160D01*
X61682617Y-87575619D01*
X61668520Y-87603287D01*
X61650314Y-87628347D01*
X61628349Y-87650312D01*
X61603290Y-87668518D01*
X61575619Y-87682617D01*
X61546163Y-87692188D01*
X61521282Y-87696129D01*
X61507694Y-87698281D01*
X61492210Y-87699500D01*
X28504861Y-87699500D01*
X28495157Y-87699023D01*
X28373237Y-87687014D01*
X28354203Y-87683228D01*
X28241645Y-87649084D01*
X28223714Y-87641657D01*
X28119977Y-87586208D01*
X28103841Y-87575426D01*
X28012916Y-87500806D01*
X27999193Y-87487083D01*
X27924573Y-87396158D01*
X27913791Y-87380022D01*
X27858342Y-87276285D01*
X27850915Y-87258354D01*
X27816771Y-87145796D01*
X27812985Y-87126762D01*
X27800977Y-87004842D01*
X27800500Y-86995138D01*
X27800500Y-84843982D01*
X34374500Y-84843982D01*
X34374500Y-84956018D01*
X34398203Y-85044481D01*
X34403498Y-85064241D01*
X34459513Y-85161260D01*
X34459515Y-85161263D01*
X34538737Y-85240485D01*
X34538739Y-85240486D01*
X34635759Y-85296501D01*
X34635757Y-85296501D01*
X34635761Y-85296502D01*
X34635763Y-85296503D01*
X34743982Y-85325500D01*
X34743984Y-85325500D01*
X34856016Y-85325500D01*
X34856018Y-85325500D01*
X34964237Y-85296503D01*
X34964239Y-85296501D01*
X34964241Y-85296501D01*
X34993064Y-85279859D01*
X35061263Y-85240485D01*
X35140485Y-85161263D01*
X35196503Y-85064237D01*
X35225500Y-84956018D01*
X35225500Y-84855515D01*
X55699500Y-84855515D01*
X55699500Y-85044484D01*
X55729058Y-85231113D01*
X55787453Y-85410832D01*
X55847254Y-85528200D01*
X55873240Y-85579199D01*
X55984310Y-85732073D01*
X56117927Y-85865690D01*
X56270801Y-85976760D01*
X56439168Y-86062547D01*
X56618882Y-86120940D01*
X56618883Y-86120940D01*
X56618886Y-86120941D01*
X56805516Y-86150500D01*
X56805519Y-86150500D01*
X56994484Y-86150500D01*
X57181113Y-86120941D01*
X57181114Y-86120940D01*
X57181118Y-86120940D01*
X57360832Y-86062547D01*
X57529199Y-85976760D01*
X57682073Y-85865690D01*
X57815690Y-85732073D01*
X57926760Y-85579199D01*
X58012547Y-85410832D01*
X58070940Y-85231118D01*
X58082004Y-85161263D01*
X58100500Y-85044484D01*
X58100500Y-84855515D01*
X58070941Y-84668886D01*
X58035404Y-84559515D01*
X58012547Y-84489168D01*
X57926760Y-84320801D01*
X57815690Y-84167927D01*
X57682073Y-84034310D01*
X57529199Y-83923240D01*
X57529198Y-83923239D01*
X57529196Y-83923238D01*
X57360832Y-83837453D01*
X57181113Y-83779058D01*
X56994484Y-83749500D01*
X56994481Y-83749500D01*
X56805519Y-83749500D01*
X56805516Y-83749500D01*
X56618886Y-83779058D01*
X56439167Y-83837453D01*
X56270803Y-83923238D01*
X56117928Y-84034309D01*
X55984309Y-84167928D01*
X55873238Y-84320803D01*
X55787453Y-84489167D01*
X55729058Y-84668886D01*
X55699500Y-84855515D01*
X35225500Y-84855515D01*
X35225500Y-84843982D01*
X35196503Y-84735763D01*
X35196501Y-84735760D01*
X35196501Y-84735758D01*
X35140486Y-84638739D01*
X35140485Y-84638737D01*
X35061263Y-84559515D01*
X35061260Y-84559513D01*
X34964240Y-84503498D01*
X34964242Y-84503498D01*
X34910756Y-84489167D01*
X34856018Y-84474500D01*
X34743982Y-84474500D01*
X34689244Y-84489167D01*
X34635758Y-84503498D01*
X34538739Y-84559513D01*
X34459513Y-84638739D01*
X34403498Y-84735758D01*
X34389858Y-84786664D01*
X34374500Y-84843982D01*
X27800500Y-84843982D01*
X27800500Y-84043982D01*
X30574500Y-84043982D01*
X30574500Y-84156018D01*
X30582608Y-84186278D01*
X30603498Y-84264241D01*
X30636154Y-84320801D01*
X30659515Y-84361263D01*
X30738737Y-84440485D01*
X30738739Y-84440486D01*
X30835759Y-84496501D01*
X30835757Y-84496501D01*
X30835761Y-84496502D01*
X30835763Y-84496503D01*
X30943982Y-84525500D01*
X30943984Y-84525500D01*
X31056016Y-84525500D01*
X31056018Y-84525500D01*
X31164237Y-84496503D01*
X31164239Y-84496501D01*
X31164241Y-84496501D01*
X31225198Y-84461307D01*
X31261263Y-84440485D01*
X31340485Y-84361263D01*
X31396503Y-84264237D01*
X31425500Y-84156018D01*
X31425500Y-84043982D01*
X31396503Y-83935763D01*
X31396501Y-83935760D01*
X31396501Y-83935758D01*
X31352019Y-83858714D01*
X31352018Y-83858713D01*
X31340486Y-83838739D01*
X31340485Y-83838737D01*
X31315824Y-83814076D01*
X41534468Y-83814076D01*
X41534468Y-83942214D01*
X41554711Y-84043982D01*
X41559467Y-84067887D01*
X41559468Y-84067892D01*
X41608502Y-84186270D01*
X41608506Y-84186278D01*
X41651333Y-84250371D01*
X41679692Y-84292814D01*
X41770299Y-84383421D01*
X41833816Y-84425862D01*
X41876834Y-84454606D01*
X41876838Y-84454608D01*
X41876841Y-84454610D01*
X41995224Y-84503646D01*
X42120899Y-84528645D01*
X42120900Y-84528645D01*
X42249036Y-84528645D01*
X42249037Y-84528645D01*
X42374712Y-84503646D01*
X42493095Y-84454610D01*
X42599637Y-84383421D01*
X42690244Y-84292814D01*
X42761433Y-84186272D01*
X42810469Y-84067889D01*
X42835468Y-83942214D01*
X42835468Y-83814076D01*
X49534468Y-83814076D01*
X49534468Y-83942214D01*
X49554711Y-84043982D01*
X49559467Y-84067887D01*
X49559468Y-84067892D01*
X49608502Y-84186270D01*
X49608506Y-84186278D01*
X49651333Y-84250371D01*
X49679692Y-84292814D01*
X49770299Y-84383421D01*
X49833816Y-84425862D01*
X49876834Y-84454606D01*
X49876838Y-84454608D01*
X49876841Y-84454610D01*
X49995224Y-84503646D01*
X50120899Y-84528645D01*
X50120900Y-84528645D01*
X50249036Y-84528645D01*
X50249037Y-84528645D01*
X50374712Y-84503646D01*
X50493095Y-84454610D01*
X50599637Y-84383421D01*
X50690244Y-84292814D01*
X50761433Y-84186272D01*
X50810469Y-84067889D01*
X50835468Y-83942214D01*
X50835468Y-83814076D01*
X50810469Y-83688401D01*
X50761433Y-83570018D01*
X50761431Y-83570015D01*
X50761429Y-83570011D01*
X50732685Y-83526993D01*
X50690244Y-83463476D01*
X50599637Y-83372869D01*
X50557194Y-83344510D01*
X50493101Y-83301683D01*
X50493093Y-83301679D01*
X50374715Y-83252645D01*
X50374713Y-83252644D01*
X50374712Y-83252644D01*
X50249037Y-83227645D01*
X50120899Y-83227645D01*
X50120898Y-83227645D01*
X50058061Y-83240144D01*
X49995224Y-83252644D01*
X49995223Y-83252644D01*
X49995220Y-83252645D01*
X49876842Y-83301679D01*
X49876834Y-83301683D01*
X49770299Y-83372869D01*
X49770295Y-83372872D01*
X49679695Y-83463472D01*
X49679692Y-83463476D01*
X49608506Y-83570011D01*
X49608502Y-83570019D01*
X49559468Y-83688397D01*
X49559467Y-83688400D01*
X49559467Y-83688401D01*
X49534468Y-83814076D01*
X42835468Y-83814076D01*
X42810469Y-83688401D01*
X42761433Y-83570018D01*
X42761431Y-83570015D01*
X42761429Y-83570011D01*
X42732685Y-83526993D01*
X42690244Y-83463476D01*
X42599637Y-83372869D01*
X42557194Y-83344510D01*
X42493101Y-83301683D01*
X42493093Y-83301679D01*
X42374715Y-83252645D01*
X42374713Y-83252644D01*
X42374712Y-83252644D01*
X42249037Y-83227645D01*
X42120899Y-83227645D01*
X42120898Y-83227645D01*
X42058061Y-83240144D01*
X41995224Y-83252644D01*
X41995223Y-83252644D01*
X41995220Y-83252645D01*
X41876842Y-83301679D01*
X41876834Y-83301683D01*
X41770299Y-83372869D01*
X41770295Y-83372872D01*
X41679695Y-83463472D01*
X41679692Y-83463476D01*
X41608506Y-83570011D01*
X41608502Y-83570019D01*
X41559468Y-83688397D01*
X41559467Y-83688400D01*
X41559467Y-83688401D01*
X41534468Y-83814076D01*
X31315824Y-83814076D01*
X31261263Y-83759515D01*
X31243917Y-83749500D01*
X31164240Y-83703498D01*
X31164242Y-83703498D01*
X31107901Y-83688402D01*
X31056018Y-83674500D01*
X30943982Y-83674500D01*
X30892099Y-83688402D01*
X30835758Y-83703498D01*
X30738739Y-83759513D01*
X30659513Y-83838739D01*
X30603498Y-83935758D01*
X30603497Y-83935763D01*
X30574500Y-84043982D01*
X27800500Y-84043982D01*
X27800500Y-81398226D01*
X29426037Y-81398226D01*
X29558556Y-81465748D01*
X29730710Y-81521683D01*
X29909490Y-81550000D01*
X30090510Y-81550000D01*
X30269289Y-81521683D01*
X30441445Y-81465747D01*
X30573961Y-81398226D01*
X29999999Y-80824264D01*
X29426037Y-81398226D01*
X27800500Y-81398226D01*
X27800500Y-80309489D01*
X28850000Y-80309489D01*
X28850000Y-80490510D01*
X28878316Y-80669289D01*
X28934252Y-80841445D01*
X29001772Y-80973961D01*
X29575734Y-80399999D01*
X29523074Y-80347339D01*
X29600000Y-80347339D01*
X29600000Y-80452661D01*
X29627259Y-80554394D01*
X29679920Y-80645606D01*
X29754394Y-80720080D01*
X29845606Y-80772741D01*
X29947339Y-80800000D01*
X30052661Y-80800000D01*
X30154394Y-80772741D01*
X30245606Y-80720080D01*
X30320080Y-80645606D01*
X30372741Y-80554394D01*
X30400000Y-80452661D01*
X30400000Y-80399999D01*
X30424264Y-80399999D01*
X30998226Y-80973961D01*
X31065747Y-80841445D01*
X31121683Y-80669289D01*
X31150000Y-80490510D01*
X31150000Y-80309489D01*
X31121683Y-80130710D01*
X31065748Y-79958556D01*
X30998226Y-79826037D01*
X30424264Y-80399999D01*
X30400000Y-80399999D01*
X30400000Y-80347339D01*
X30372741Y-80245606D01*
X30320080Y-80154394D01*
X30245606Y-80079920D01*
X30154394Y-80027259D01*
X30052661Y-80000000D01*
X29947339Y-80000000D01*
X29845606Y-80027259D01*
X29754394Y-80079920D01*
X29679920Y-80154394D01*
X29627259Y-80245606D01*
X29600000Y-80347339D01*
X29523074Y-80347339D01*
X29001772Y-79826037D01*
X28934252Y-79958554D01*
X28878316Y-80130710D01*
X28850000Y-80309489D01*
X27800500Y-80309489D01*
X27800500Y-79401772D01*
X29426037Y-79401772D01*
X29999999Y-79975734D01*
X30573961Y-79401772D01*
X30441445Y-79334252D01*
X30269289Y-79278316D01*
X30090510Y-79250000D01*
X29909490Y-79250000D01*
X29730710Y-79278316D01*
X29558554Y-79334252D01*
X29426037Y-79401772D01*
X27800500Y-79401772D01*
X27800500Y-78143982D01*
X40749500Y-78143982D01*
X40749500Y-78256018D01*
X40773499Y-78345583D01*
X40778498Y-78364241D01*
X40834513Y-78461260D01*
X40834515Y-78461263D01*
X40913737Y-78540485D01*
X40913739Y-78540486D01*
X41010759Y-78596501D01*
X41010757Y-78596501D01*
X41010761Y-78596502D01*
X41010763Y-78596503D01*
X41118982Y-78625500D01*
X41118984Y-78625500D01*
X41231016Y-78625500D01*
X41231018Y-78625500D01*
X41339237Y-78596503D01*
X41339239Y-78596501D01*
X41339241Y-78596501D01*
X41368064Y-78579859D01*
X41436263Y-78540485D01*
X41515485Y-78461263D01*
X41571503Y-78364237D01*
X41600500Y-78256018D01*
X41600500Y-78143982D01*
X41571503Y-78035763D01*
X41571501Y-78035760D01*
X41571501Y-78035758D01*
X41515486Y-77938739D01*
X41515485Y-77938737D01*
X41436263Y-77859515D01*
X41436260Y-77859513D01*
X41339240Y-77803498D01*
X41339242Y-77803498D01*
X41297251Y-77792247D01*
X41231018Y-77774500D01*
X41118982Y-77774500D01*
X41052748Y-77792247D01*
X41010758Y-77803498D01*
X40913739Y-77859513D01*
X40834513Y-77938739D01*
X40778498Y-78035758D01*
X40769667Y-78068716D01*
X40749500Y-78143982D01*
X27800500Y-78143982D01*
X27800500Y-76596532D01*
X28949500Y-76596532D01*
X28949500Y-76803467D01*
X28989869Y-77006418D01*
X29069058Y-77197597D01*
X29158384Y-77331284D01*
X29184023Y-77369655D01*
X29330345Y-77515977D01*
X29502402Y-77630941D01*
X29693580Y-77710130D01*
X29896535Y-77750500D01*
X29896536Y-77750500D01*
X30103464Y-77750500D01*
X30103465Y-77750500D01*
X30306420Y-77710130D01*
X30497598Y-77630941D01*
X30669655Y-77515977D01*
X30741650Y-77443982D01*
X48524500Y-77443982D01*
X48524500Y-77556018D01*
X48550072Y-77651455D01*
X48553498Y-77664241D01*
X48579993Y-77710130D01*
X48609515Y-77761263D01*
X48688737Y-77840485D01*
X48688739Y-77840486D01*
X48785759Y-77896501D01*
X48785757Y-77896501D01*
X48785761Y-77896502D01*
X48785763Y-77896503D01*
X48893982Y-77925500D01*
X48893984Y-77925500D01*
X49006016Y-77925500D01*
X49006018Y-77925500D01*
X49114237Y-77896503D01*
X49114239Y-77896501D01*
X49114241Y-77896501D01*
X49143064Y-77879859D01*
X49211263Y-77840485D01*
X49290485Y-77761263D01*
X49346503Y-77664237D01*
X49375500Y-77556018D01*
X49375500Y-77443982D01*
X49371821Y-77430253D01*
X55699500Y-77430253D01*
X55699500Y-79469746D01*
X55699501Y-79469758D01*
X55707422Y-79509577D01*
X55711133Y-79528231D01*
X55755448Y-79594552D01*
X55821769Y-79638867D01*
X55866231Y-79647711D01*
X55880241Y-79650498D01*
X55880246Y-79650498D01*
X55880252Y-79650500D01*
X55880253Y-79650500D01*
X57919747Y-79650500D01*
X57919748Y-79650500D01*
X57978231Y-79638867D01*
X58044552Y-79594552D01*
X58088867Y-79528231D01*
X58100500Y-79469748D01*
X58100500Y-77430252D01*
X58088867Y-77371769D01*
X58044552Y-77305448D01*
X58044548Y-77305445D01*
X57978233Y-77261134D01*
X57978231Y-77261133D01*
X57978228Y-77261132D01*
X57978227Y-77261132D01*
X57919758Y-77249501D01*
X57919748Y-77249500D01*
X55880252Y-77249500D01*
X55880251Y-77249500D01*
X55880241Y-77249501D01*
X55821772Y-77261132D01*
X55821766Y-77261134D01*
X55755451Y-77305445D01*
X55755445Y-77305451D01*
X55711134Y-77371766D01*
X55711132Y-77371772D01*
X55699501Y-77430241D01*
X55699500Y-77430253D01*
X49371821Y-77430253D01*
X49346503Y-77335763D01*
X49346501Y-77335760D01*
X49346501Y-77335758D01*
X49290486Y-77238739D01*
X49290485Y-77238737D01*
X49211263Y-77159515D01*
X49178195Y-77140423D01*
X49114240Y-77103498D01*
X49114242Y-77103498D01*
X49072251Y-77092247D01*
X49006018Y-77074500D01*
X48893982Y-77074500D01*
X48827748Y-77092247D01*
X48785758Y-77103498D01*
X48688739Y-77159513D01*
X48609513Y-77238739D01*
X48553498Y-77335758D01*
X48553497Y-77335763D01*
X48524500Y-77443982D01*
X30741650Y-77443982D01*
X30815977Y-77369655D01*
X30930941Y-77197598D01*
X31010130Y-77006420D01*
X31050500Y-76803465D01*
X31050500Y-76750000D01*
X64871590Y-76750000D01*
X64884665Y-76781568D01*
X64884670Y-76781578D01*
X64961271Y-76896220D01*
X65058779Y-76993728D01*
X65143581Y-77050390D01*
X65181461Y-77098440D01*
X65183863Y-77159578D01*
X65149871Y-77210452D01*
X65138088Y-77218438D01*
X65136286Y-77219478D01*
X65136284Y-77219480D01*
X65024480Y-77331284D01*
X64945423Y-77468216D01*
X64904500Y-77620943D01*
X64904500Y-77779057D01*
X64945423Y-77931784D01*
X65024480Y-78068716D01*
X65136284Y-78180520D01*
X65238033Y-78239264D01*
X65278973Y-78284733D01*
X65285369Y-78345583D01*
X65254776Y-78398571D01*
X65238036Y-78410733D01*
X65136284Y-78469480D01*
X65024480Y-78581284D01*
X64945423Y-78718216D01*
X64904500Y-78870943D01*
X64904500Y-79029057D01*
X64945423Y-79181784D01*
X65024480Y-79318716D01*
X65136284Y-79430520D01*
X65167869Y-79448755D01*
X65208809Y-79494224D01*
X65215205Y-79555074D01*
X65184612Y-79608062D01*
X65163314Y-79622700D01*
X65066659Y-79671949D01*
X64976949Y-79761659D01*
X64919354Y-79874695D01*
X64904500Y-79968477D01*
X64904500Y-80431520D01*
X64904501Y-80431523D01*
X64919352Y-80525299D01*
X64919354Y-80525304D01*
X64976950Y-80638342D01*
X65066658Y-80728050D01*
X65179696Y-80785646D01*
X65273481Y-80800500D01*
X66236518Y-80800499D01*
X66236521Y-80800499D01*
X66236522Y-80800498D01*
X66283411Y-80793072D01*
X66330299Y-80785647D01*
X66330299Y-80785646D01*
X66330304Y-80785646D01*
X66443342Y-80728050D01*
X66533050Y-80638342D01*
X66590646Y-80525304D01*
X66605500Y-80431519D01*
X66605499Y-79968482D01*
X66590646Y-79874696D01*
X66533050Y-79761658D01*
X66443342Y-79671950D01*
X66440236Y-79670367D01*
X66346685Y-79622700D01*
X66303421Y-79579435D01*
X66293850Y-79519003D01*
X66321628Y-79464487D01*
X66342127Y-79448757D01*
X66373716Y-79430520D01*
X66485520Y-79318716D01*
X66564577Y-79181784D01*
X66605500Y-79029057D01*
X66605500Y-78870943D01*
X66564577Y-78718216D01*
X66485520Y-78581284D01*
X66373716Y-78469480D01*
X66271966Y-78410735D01*
X66231026Y-78365268D01*
X66224630Y-78304417D01*
X66255223Y-78251429D01*
X66271963Y-78239266D01*
X66373716Y-78180520D01*
X66485520Y-78068716D01*
X66564577Y-77931784D01*
X66605500Y-77779057D01*
X66605500Y-77620943D01*
X66564577Y-77468216D01*
X66485520Y-77331284D01*
X66373716Y-77219480D01*
X66371915Y-77218440D01*
X66370918Y-77217332D01*
X66368570Y-77215531D01*
X66368904Y-77215095D01*
X66330976Y-77172970D01*
X66324583Y-77112119D01*
X66355178Y-77059132D01*
X66366419Y-77050390D01*
X66451218Y-76993730D01*
X66548728Y-76896220D01*
X66625329Y-76781578D01*
X66625334Y-76781568D01*
X66638410Y-76750000D01*
X64871590Y-76750000D01*
X31050500Y-76750000D01*
X31050500Y-76596535D01*
X31011461Y-76400272D01*
X65505000Y-76400272D01*
X65505000Y-76499728D01*
X65543060Y-76591614D01*
X65613386Y-76661940D01*
X65705272Y-76700000D01*
X65804728Y-76700000D01*
X65896614Y-76661940D01*
X65966940Y-76591614D01*
X66005000Y-76499728D01*
X66005000Y-76400272D01*
X65966940Y-76308386D01*
X65896614Y-76238060D01*
X65804728Y-76200000D01*
X65705272Y-76200000D01*
X65613386Y-76238060D01*
X65543060Y-76308386D01*
X65505000Y-76400272D01*
X31011461Y-76400272D01*
X31010130Y-76393580D01*
X30930941Y-76202402D01*
X30895927Y-76149999D01*
X64871589Y-76149999D01*
X64871590Y-76150000D01*
X65454999Y-76150000D01*
X65455000Y-76149999D01*
X65455000Y-75750001D01*
X66055000Y-75750001D01*
X66055000Y-76149999D01*
X66055001Y-76150000D01*
X66638410Y-76150000D01*
X66638410Y-76149999D01*
X66625334Y-76118431D01*
X66625329Y-76118421D01*
X66548728Y-76003779D01*
X66451220Y-75906271D01*
X66336571Y-75829666D01*
X66209183Y-75776901D01*
X66073944Y-75750000D01*
X66055001Y-75750000D01*
X66055000Y-75750001D01*
X65455000Y-75750001D01*
X65454999Y-75750000D01*
X65436055Y-75750000D01*
X65300816Y-75776901D01*
X65173428Y-75829666D01*
X65058779Y-75906271D01*
X64961271Y-76003779D01*
X64884670Y-76118421D01*
X64884665Y-76118431D01*
X64871589Y-76149999D01*
X30895927Y-76149999D01*
X30815977Y-76030345D01*
X30669655Y-75884023D01*
X30669651Y-75884020D01*
X30497597Y-75769058D01*
X30306418Y-75689869D01*
X30103467Y-75649500D01*
X30103465Y-75649500D01*
X29896535Y-75649500D01*
X29896532Y-75649500D01*
X29693581Y-75689869D01*
X29502402Y-75769058D01*
X29330348Y-75884020D01*
X29184020Y-76030348D01*
X29069058Y-76202402D01*
X28989869Y-76393581D01*
X28949500Y-76596532D01*
X27800500Y-76596532D01*
X27800500Y-74943982D01*
X41374500Y-74943982D01*
X41374500Y-75056018D01*
X41378248Y-75070004D01*
X41403498Y-75164241D01*
X41459513Y-75261260D01*
X41459515Y-75261263D01*
X41538737Y-75340485D01*
X41538739Y-75340486D01*
X41635759Y-75396501D01*
X41635757Y-75396501D01*
X41635761Y-75396502D01*
X41635763Y-75396503D01*
X41743982Y-75425500D01*
X41743984Y-75425500D01*
X41856016Y-75425500D01*
X41856018Y-75425500D01*
X41964237Y-75396503D01*
X41964239Y-75396501D01*
X41964241Y-75396501D01*
X41993064Y-75379859D01*
X42061263Y-75340485D01*
X42140485Y-75261263D01*
X42196503Y-75164237D01*
X42225500Y-75056018D01*
X42225500Y-74943982D01*
X42196503Y-74835763D01*
X42196501Y-74835760D01*
X42196501Y-74835758D01*
X42140486Y-74738739D01*
X42140485Y-74738737D01*
X42061263Y-74659515D01*
X41998414Y-74623229D01*
X41998412Y-74623227D01*
X41964240Y-74603498D01*
X41964242Y-74603498D01*
X41922251Y-74592247D01*
X41856018Y-74574500D01*
X41743982Y-74574500D01*
X41677748Y-74592247D01*
X41635758Y-74603498D01*
X41538739Y-74659513D01*
X41459513Y-74738739D01*
X41403498Y-74835758D01*
X41403497Y-74835763D01*
X41374500Y-74943982D01*
X27800500Y-74943982D01*
X27800500Y-74629554D01*
X35957208Y-74629554D01*
X36033510Y-74650000D01*
X36191489Y-74650000D01*
X36267789Y-74629554D01*
X36182217Y-74543982D01*
X42574500Y-74543982D01*
X42574500Y-74656018D01*
X42596664Y-74738737D01*
X42603498Y-74764241D01*
X42659513Y-74861260D01*
X42659515Y-74861263D01*
X42738737Y-74940485D01*
X42761276Y-74953498D01*
X42835759Y-74996501D01*
X42835757Y-74996501D01*
X42835761Y-74996502D01*
X42835763Y-74996503D01*
X42943982Y-75025500D01*
X42943984Y-75025500D01*
X43056016Y-75025500D01*
X43056018Y-75025500D01*
X43164237Y-74996503D01*
X43164239Y-74996501D01*
X43164241Y-74996501D01*
X43193064Y-74979859D01*
X43261263Y-74940485D01*
X43340485Y-74861263D01*
X43396503Y-74764237D01*
X43425500Y-74656018D01*
X43425500Y-74543982D01*
X43674500Y-74543982D01*
X43674500Y-74656018D01*
X43696664Y-74738737D01*
X43703498Y-74764241D01*
X43759513Y-74861260D01*
X43759515Y-74861263D01*
X43838737Y-74940485D01*
X43861276Y-74953498D01*
X43935759Y-74996501D01*
X43935757Y-74996501D01*
X43935761Y-74996502D01*
X43935763Y-74996503D01*
X44043982Y-75025500D01*
X44043984Y-75025500D01*
X44156016Y-75025500D01*
X44156018Y-75025500D01*
X44264237Y-74996503D01*
X44264239Y-74996501D01*
X44264241Y-74996501D01*
X44293064Y-74979859D01*
X44361263Y-74940485D01*
X44440485Y-74861263D01*
X44496503Y-74764237D01*
X44525500Y-74656018D01*
X44525500Y-74543982D01*
X44774500Y-74543982D01*
X44774500Y-74656018D01*
X44796664Y-74738737D01*
X44803498Y-74764241D01*
X44859513Y-74861260D01*
X44859515Y-74861263D01*
X44938737Y-74940485D01*
X44961276Y-74953498D01*
X45035759Y-74996501D01*
X45035757Y-74996501D01*
X45035761Y-74996502D01*
X45035763Y-74996503D01*
X45143982Y-75025500D01*
X45143984Y-75025500D01*
X45256016Y-75025500D01*
X45256018Y-75025500D01*
X45364237Y-74996503D01*
X45364239Y-74996501D01*
X45364241Y-74996501D01*
X45393064Y-74979859D01*
X45461263Y-74940485D01*
X45540485Y-74861263D01*
X45596503Y-74764237D01*
X45625500Y-74656018D01*
X45625500Y-74543982D01*
X46494500Y-74543982D01*
X46494500Y-74656018D01*
X46516664Y-74738737D01*
X46523498Y-74764241D01*
X46579513Y-74861260D01*
X46579515Y-74861263D01*
X46648250Y-74929998D01*
X46676026Y-74984513D01*
X46666455Y-75044945D01*
X46648251Y-75070000D01*
X46579515Y-75138737D01*
X46579513Y-75138739D01*
X46523498Y-75235758D01*
X46523497Y-75235763D01*
X46494500Y-75343982D01*
X46494500Y-75456018D01*
X46510100Y-75514237D01*
X46523498Y-75564241D01*
X46579513Y-75661260D01*
X46579515Y-75661263D01*
X46658737Y-75740485D01*
X46675219Y-75750001D01*
X46755759Y-75796501D01*
X46755757Y-75796501D01*
X46755761Y-75796502D01*
X46755763Y-75796503D01*
X46863982Y-75825500D01*
X46863984Y-75825500D01*
X46976016Y-75825500D01*
X46976018Y-75825500D01*
X47084237Y-75796503D01*
X47084239Y-75796501D01*
X47084241Y-75796501D01*
X47131773Y-75769058D01*
X47181263Y-75740485D01*
X47260485Y-75661263D01*
X47316503Y-75564237D01*
X47345500Y-75456018D01*
X47345500Y-75343982D01*
X47332103Y-75293982D01*
X52624500Y-75293982D01*
X52624500Y-75406018D01*
X52650072Y-75501455D01*
X52653498Y-75514241D01*
X52709513Y-75611260D01*
X52709515Y-75611263D01*
X52788737Y-75690485D01*
X52788739Y-75690486D01*
X52885759Y-75746501D01*
X52885757Y-75746501D01*
X52885761Y-75746502D01*
X52885763Y-75746503D01*
X52993982Y-75775500D01*
X52993984Y-75775500D01*
X53106016Y-75775500D01*
X53106018Y-75775500D01*
X53214237Y-75746503D01*
X53214239Y-75746501D01*
X53214241Y-75746501D01*
X53243064Y-75729859D01*
X53311263Y-75690485D01*
X53390485Y-75611263D01*
X53446503Y-75514237D01*
X53475500Y-75406018D01*
X53475500Y-75293982D01*
X53446503Y-75185763D01*
X53446501Y-75185760D01*
X53446501Y-75185758D01*
X53390486Y-75088739D01*
X53390485Y-75088737D01*
X53311263Y-75009515D01*
X53288726Y-74996503D01*
X53214240Y-74953498D01*
X53214242Y-74953498D01*
X53165675Y-74940485D01*
X53106018Y-74924500D01*
X52993982Y-74924500D01*
X52934325Y-74940485D01*
X52885758Y-74953498D01*
X52788739Y-75009513D01*
X52709513Y-75088739D01*
X52653498Y-75185758D01*
X52653497Y-75185763D01*
X52624500Y-75293982D01*
X47332103Y-75293982D01*
X47316503Y-75235763D01*
X47316501Y-75235760D01*
X47316501Y-75235758D01*
X47260486Y-75138739D01*
X47260485Y-75138737D01*
X47191749Y-75070001D01*
X47163974Y-75015487D01*
X47173545Y-74955055D01*
X47191748Y-74929999D01*
X47260485Y-74861263D01*
X47316503Y-74764237D01*
X47345500Y-74656018D01*
X47345500Y-74543982D01*
X49174500Y-74543982D01*
X49174500Y-74656018D01*
X49196664Y-74738737D01*
X49203498Y-74764241D01*
X49259513Y-74861260D01*
X49259515Y-74861263D01*
X49338737Y-74940485D01*
X49361276Y-74953498D01*
X49435759Y-74996501D01*
X49435757Y-74996501D01*
X49435761Y-74996502D01*
X49435763Y-74996503D01*
X49543982Y-75025500D01*
X49543984Y-75025500D01*
X49656016Y-75025500D01*
X49656018Y-75025500D01*
X49764237Y-74996503D01*
X49764239Y-74996501D01*
X49764241Y-74996501D01*
X49793064Y-74979859D01*
X49861263Y-74940485D01*
X49940485Y-74861263D01*
X49996503Y-74764237D01*
X50025500Y-74656018D01*
X50025500Y-74543982D01*
X50274500Y-74543982D01*
X50274500Y-74656018D01*
X50296664Y-74738737D01*
X50303498Y-74764241D01*
X50359513Y-74861260D01*
X50359515Y-74861263D01*
X50438737Y-74940485D01*
X50461276Y-74953498D01*
X50535759Y-74996501D01*
X50535757Y-74996501D01*
X50535761Y-74996502D01*
X50535763Y-74996503D01*
X50643982Y-75025500D01*
X50643984Y-75025500D01*
X50756016Y-75025500D01*
X50756018Y-75025500D01*
X50864237Y-74996503D01*
X50864239Y-74996501D01*
X50864241Y-74996501D01*
X50893064Y-74979859D01*
X50961263Y-74940485D01*
X51040485Y-74861263D01*
X51096503Y-74764237D01*
X51125500Y-74656018D01*
X51125500Y-74543982D01*
X51374500Y-74543982D01*
X51374500Y-74656018D01*
X51396664Y-74738737D01*
X51403498Y-74764241D01*
X51459513Y-74861260D01*
X51459515Y-74861263D01*
X51538737Y-74940485D01*
X51561276Y-74953498D01*
X51635759Y-74996501D01*
X51635757Y-74996501D01*
X51635761Y-74996502D01*
X51635763Y-74996503D01*
X51743982Y-75025500D01*
X51743984Y-75025500D01*
X51856016Y-75025500D01*
X51856018Y-75025500D01*
X51964237Y-74996503D01*
X51964239Y-74996501D01*
X51964241Y-74996501D01*
X51993064Y-74979859D01*
X52061263Y-74940485D01*
X52140485Y-74861263D01*
X52196503Y-74764237D01*
X52225500Y-74656018D01*
X52225500Y-74543982D01*
X52196503Y-74435763D01*
X52196501Y-74435760D01*
X52196501Y-74435758D01*
X52140486Y-74338739D01*
X52140485Y-74338737D01*
X52061263Y-74259515D01*
X52061260Y-74259513D01*
X51964240Y-74203498D01*
X51964242Y-74203498D01*
X51922251Y-74192247D01*
X51856018Y-74174500D01*
X51743982Y-74174500D01*
X51677748Y-74192247D01*
X51635758Y-74203498D01*
X51538739Y-74259513D01*
X51459513Y-74338739D01*
X51403498Y-74435758D01*
X51403497Y-74435763D01*
X51374500Y-74543982D01*
X51125500Y-74543982D01*
X51096503Y-74435763D01*
X51096501Y-74435760D01*
X51096501Y-74435758D01*
X51040486Y-74338739D01*
X51040485Y-74338737D01*
X50961263Y-74259515D01*
X50961260Y-74259513D01*
X50864240Y-74203498D01*
X50864242Y-74203498D01*
X50822251Y-74192247D01*
X50756018Y-74174500D01*
X50643982Y-74174500D01*
X50577748Y-74192247D01*
X50535758Y-74203498D01*
X50438739Y-74259513D01*
X50359513Y-74338739D01*
X50303498Y-74435758D01*
X50303497Y-74435763D01*
X50274500Y-74543982D01*
X50025500Y-74543982D01*
X49996503Y-74435763D01*
X49996501Y-74435760D01*
X49996501Y-74435758D01*
X49940486Y-74338739D01*
X49940485Y-74338737D01*
X49861263Y-74259515D01*
X49861260Y-74259513D01*
X49764240Y-74203498D01*
X49764242Y-74203498D01*
X49722251Y-74192247D01*
X49656018Y-74174500D01*
X49543982Y-74174500D01*
X49477748Y-74192247D01*
X49435758Y-74203498D01*
X49338739Y-74259513D01*
X49259513Y-74338739D01*
X49203498Y-74435758D01*
X49203497Y-74435763D01*
X49174500Y-74543982D01*
X47345500Y-74543982D01*
X47316503Y-74435763D01*
X47316501Y-74435760D01*
X47316501Y-74435758D01*
X47260486Y-74338739D01*
X47260485Y-74338737D01*
X47181263Y-74259515D01*
X47181260Y-74259513D01*
X47084240Y-74203498D01*
X47084242Y-74203498D01*
X47042251Y-74192247D01*
X46976018Y-74174500D01*
X46863982Y-74174500D01*
X46797748Y-74192247D01*
X46755758Y-74203498D01*
X46658739Y-74259513D01*
X46579513Y-74338739D01*
X46523498Y-74435758D01*
X46523497Y-74435763D01*
X46494500Y-74543982D01*
X45625500Y-74543982D01*
X45596503Y-74435763D01*
X45596501Y-74435760D01*
X45596501Y-74435758D01*
X45540486Y-74338739D01*
X45540485Y-74338737D01*
X45461263Y-74259515D01*
X45461260Y-74259513D01*
X45364240Y-74203498D01*
X45364242Y-74203498D01*
X45322251Y-74192247D01*
X45256018Y-74174500D01*
X45143982Y-74174500D01*
X45077748Y-74192247D01*
X45035758Y-74203498D01*
X44938739Y-74259513D01*
X44859513Y-74338739D01*
X44803498Y-74435758D01*
X44803497Y-74435763D01*
X44774500Y-74543982D01*
X44525500Y-74543982D01*
X44496503Y-74435763D01*
X44496501Y-74435760D01*
X44496501Y-74435758D01*
X44440486Y-74338739D01*
X44440485Y-74338737D01*
X44361263Y-74259515D01*
X44361260Y-74259513D01*
X44264240Y-74203498D01*
X44264242Y-74203498D01*
X44222251Y-74192247D01*
X44156018Y-74174500D01*
X44043982Y-74174500D01*
X43977748Y-74192247D01*
X43935758Y-74203498D01*
X43838739Y-74259513D01*
X43759513Y-74338739D01*
X43703498Y-74435758D01*
X43703497Y-74435763D01*
X43674500Y-74543982D01*
X43425500Y-74543982D01*
X43396503Y-74435763D01*
X43396501Y-74435760D01*
X43396501Y-74435758D01*
X43340486Y-74338739D01*
X43340485Y-74338737D01*
X43261263Y-74259515D01*
X43261260Y-74259513D01*
X43164240Y-74203498D01*
X43164242Y-74203498D01*
X43122251Y-74192247D01*
X43056018Y-74174500D01*
X42943982Y-74174500D01*
X42877748Y-74192247D01*
X42835758Y-74203498D01*
X42738739Y-74259513D01*
X42659513Y-74338739D01*
X42603498Y-74435758D01*
X42603497Y-74435763D01*
X42574500Y-74543982D01*
X36182217Y-74543982D01*
X36112499Y-74474264D01*
X35957208Y-74629554D01*
X27800500Y-74629554D01*
X27800500Y-72345725D01*
X28949500Y-72345725D01*
X28949500Y-73654274D01*
X28952353Y-73684694D01*
X28952355Y-73684703D01*
X28997207Y-73812883D01*
X29077845Y-73922144D01*
X29077847Y-73922146D01*
X29077850Y-73922150D01*
X29077853Y-73922152D01*
X29077855Y-73922154D01*
X29187116Y-74002792D01*
X29187117Y-74002792D01*
X29187118Y-74002793D01*
X29315301Y-74047646D01*
X29345725Y-74050499D01*
X29345727Y-74050500D01*
X29345734Y-74050500D01*
X30654273Y-74050500D01*
X30654273Y-74050499D01*
X30684699Y-74047646D01*
X30812882Y-74002793D01*
X30855948Y-73971009D01*
X35512500Y-73971009D01*
X35512500Y-74128990D01*
X35532943Y-74205290D01*
X35532944Y-74205290D01*
X35688235Y-74050000D01*
X35658398Y-74020163D01*
X35962500Y-74020163D01*
X35962500Y-74079837D01*
X35985336Y-74134968D01*
X36027532Y-74177164D01*
X36082663Y-74200000D01*
X36142337Y-74200000D01*
X36197468Y-74177164D01*
X36239664Y-74134968D01*
X36262500Y-74079837D01*
X36262500Y-74049999D01*
X36536764Y-74049999D01*
X36692054Y-74205289D01*
X36712500Y-74128988D01*
X36712500Y-73971009D01*
X36692054Y-73894708D01*
X36536764Y-74049999D01*
X36262500Y-74049999D01*
X36262500Y-74020163D01*
X36239664Y-73965032D01*
X36197468Y-73922836D01*
X36142337Y-73900000D01*
X36082663Y-73900000D01*
X36027532Y-73922836D01*
X35985336Y-73965032D01*
X35962500Y-74020163D01*
X35658398Y-74020163D01*
X35532943Y-73894708D01*
X35512500Y-73971009D01*
X30855948Y-73971009D01*
X30922150Y-73922150D01*
X31002793Y-73812882D01*
X31047646Y-73684699D01*
X31050499Y-73654273D01*
X31050500Y-73654273D01*
X31050500Y-73550000D01*
X36036765Y-73550000D01*
X36112500Y-73625735D01*
X36188235Y-73550000D01*
X36112500Y-73474265D01*
X36036765Y-73550000D01*
X31050500Y-73550000D01*
X31050500Y-73393982D01*
X58724500Y-73393982D01*
X58724500Y-73506018D01*
X58736285Y-73550000D01*
X58753498Y-73614241D01*
X58809513Y-73711260D01*
X58809515Y-73711263D01*
X58888737Y-73790485D01*
X58888739Y-73790486D01*
X58985759Y-73846501D01*
X58985757Y-73846501D01*
X58985761Y-73846502D01*
X58985763Y-73846503D01*
X59093982Y-73875500D01*
X59093984Y-73875500D01*
X59206016Y-73875500D01*
X59206018Y-73875500D01*
X59314237Y-73846503D01*
X59314239Y-73846501D01*
X59314241Y-73846501D01*
X59343064Y-73829859D01*
X59411263Y-73790485D01*
X59490485Y-73711263D01*
X59546503Y-73614237D01*
X59575500Y-73506018D01*
X59575500Y-73393982D01*
X59546503Y-73285763D01*
X59546501Y-73285760D01*
X59546501Y-73285758D01*
X59490486Y-73188739D01*
X59490485Y-73188737D01*
X59411263Y-73109515D01*
X59411260Y-73109513D01*
X59314240Y-73053498D01*
X59314242Y-73053498D01*
X59272251Y-73042247D01*
X59206018Y-73024500D01*
X59093982Y-73024500D01*
X59027748Y-73042247D01*
X58985758Y-73053498D01*
X58888739Y-73109513D01*
X58809513Y-73188739D01*
X58753498Y-73285758D01*
X58753497Y-73285763D01*
X58724500Y-73393982D01*
X31050500Y-73393982D01*
X31050500Y-72971009D01*
X35512500Y-72971009D01*
X35512500Y-73128990D01*
X35532943Y-73205290D01*
X35532944Y-73205290D01*
X35688235Y-73050000D01*
X35658398Y-73020163D01*
X35962500Y-73020163D01*
X35962500Y-73079837D01*
X35985336Y-73134968D01*
X36027532Y-73177164D01*
X36082663Y-73200000D01*
X36142337Y-73200000D01*
X36197468Y-73177164D01*
X36239664Y-73134968D01*
X36262500Y-73079837D01*
X36262500Y-73049999D01*
X36536764Y-73049999D01*
X36692054Y-73205289D01*
X36712500Y-73128988D01*
X36712500Y-72971009D01*
X36692054Y-72894708D01*
X36536764Y-73049999D01*
X36262500Y-73049999D01*
X36262500Y-73020163D01*
X36239664Y-72965032D01*
X36197468Y-72922836D01*
X36142337Y-72900000D01*
X36082663Y-72900000D01*
X36027532Y-72922836D01*
X35985336Y-72965032D01*
X35962500Y-73020163D01*
X35658398Y-73020163D01*
X35532943Y-72894708D01*
X35512500Y-72971009D01*
X31050500Y-72971009D01*
X31050500Y-72470443D01*
X35957208Y-72470443D01*
X36112500Y-72625735D01*
X36267790Y-72470444D01*
X36267790Y-72470443D01*
X36191490Y-72450000D01*
X36033510Y-72450000D01*
X35957208Y-72470443D01*
X31050500Y-72470443D01*
X31050500Y-72345727D01*
X31050499Y-72345725D01*
X31047646Y-72315305D01*
X31047646Y-72315301D01*
X31002793Y-72187118D01*
X30922150Y-72077850D01*
X30922146Y-72077847D01*
X30922144Y-72077845D01*
X30812883Y-71997207D01*
X30684703Y-71952355D01*
X30684694Y-71952353D01*
X30654274Y-71949500D01*
X30654266Y-71949500D01*
X29345734Y-71949500D01*
X29345725Y-71949500D01*
X29315305Y-71952353D01*
X29315296Y-71952355D01*
X29187116Y-71997207D01*
X29077855Y-72077845D01*
X29077845Y-72077855D01*
X28997207Y-72187116D01*
X28952355Y-72315296D01*
X28952353Y-72315305D01*
X28949500Y-72345725D01*
X27800500Y-72345725D01*
X27800500Y-72004861D01*
X27800977Y-71995157D01*
X27801983Y-71984939D01*
X27812985Y-71873233D01*
X27816771Y-71854203D01*
X27850915Y-71741645D01*
X27858342Y-71723714D01*
X27861857Y-71717139D01*
X27913792Y-71619975D01*
X27924573Y-71603841D01*
X27947241Y-71576220D01*
X27999196Y-71512912D01*
X28012912Y-71499196D01*
X28103842Y-71424571D01*
X28119977Y-71413791D01*
X28223716Y-71358340D01*
X28241643Y-71350915D01*
X28354207Y-71316770D01*
X28373233Y-71312985D01*
X28495157Y-71300976D01*
X28504861Y-71300500D01*
X47102355Y-71300500D01*
X47304529Y-71268478D01*
X47304530Y-71268477D01*
X47304534Y-71268477D01*
X47499219Y-71205220D01*
X47681610Y-71112287D01*
X47847219Y-70991966D01*
X47991966Y-70847219D01*
X47996153Y-70841456D01*
X49999500Y-70841456D01*
X49999500Y-70841459D01*
X49999500Y-71038541D01*
X50036831Y-71226217D01*
X50037949Y-71231834D01*
X50037949Y-71231836D01*
X50113367Y-71413913D01*
X50120490Y-71424573D01*
X50222861Y-71577782D01*
X50362218Y-71717139D01*
X50526086Y-71826632D01*
X50708165Y-71902051D01*
X50901459Y-71940500D01*
X50901460Y-71940500D01*
X51098540Y-71940500D01*
X51098541Y-71940500D01*
X51291835Y-71902051D01*
X51473914Y-71826632D01*
X51637782Y-71717139D01*
X51766485Y-71588436D01*
X56230046Y-71588436D01*
X56230046Y-71700472D01*
X56253219Y-71786957D01*
X56259044Y-71808695D01*
X56310402Y-71897648D01*
X56315061Y-71905717D01*
X56394283Y-71984939D01*
X56394285Y-71984940D01*
X56491305Y-72040955D01*
X56491303Y-72040955D01*
X56491307Y-72040956D01*
X56491309Y-72040957D01*
X56599528Y-72069954D01*
X56599530Y-72069954D01*
X56711562Y-72069954D01*
X56711564Y-72069954D01*
X56819783Y-72040957D01*
X56819785Y-72040955D01*
X56819787Y-72040955D01*
X56882303Y-72004861D01*
X56916809Y-71984939D01*
X56916810Y-71984938D01*
X56921959Y-71980988D01*
X56923677Y-71983227D01*
X56967650Y-71960793D01*
X57028087Y-71970333D01*
X57032672Y-71972820D01*
X57113043Y-72019223D01*
X57221262Y-72048220D01*
X57221264Y-72048220D01*
X57333296Y-72048220D01*
X57333298Y-72048220D01*
X57441517Y-72019223D01*
X57441519Y-72019221D01*
X57441521Y-72019221D01*
X57479650Y-71997207D01*
X57538543Y-71963205D01*
X57617765Y-71883983D01*
X57673783Y-71786957D01*
X57702780Y-71678738D01*
X57702780Y-71566702D01*
X57673783Y-71458483D01*
X57673781Y-71458480D01*
X57673781Y-71458478D01*
X57617766Y-71361459D01*
X57617765Y-71361457D01*
X57538543Y-71282235D01*
X57538540Y-71282233D01*
X57441520Y-71226218D01*
X57441522Y-71226218D01*
X57399531Y-71214967D01*
X57333298Y-71197220D01*
X57221262Y-71197220D01*
X57155028Y-71214967D01*
X57113038Y-71226218D01*
X57016015Y-71282235D01*
X57010867Y-71286186D01*
X57009160Y-71283961D01*
X56965073Y-71306396D01*
X56904646Y-71296793D01*
X56900137Y-71294343D01*
X56819786Y-71247952D01*
X56819788Y-71247952D01*
X56777797Y-71236701D01*
X56711564Y-71218954D01*
X56599528Y-71218954D01*
X56533294Y-71236701D01*
X56491304Y-71247952D01*
X56394285Y-71303967D01*
X56315059Y-71383193D01*
X56259044Y-71480212D01*
X56259043Y-71480217D01*
X56230046Y-71588436D01*
X51766485Y-71588436D01*
X51777139Y-71577782D01*
X51886632Y-71413914D01*
X51962051Y-71231835D01*
X52000500Y-71038541D01*
X52000500Y-70841459D01*
X51962051Y-70648165D01*
X51886632Y-70466086D01*
X51777139Y-70302218D01*
X51637782Y-70162861D01*
X51473914Y-70053368D01*
X51473915Y-70053368D01*
X51473913Y-70053367D01*
X51291835Y-69977949D01*
X51098543Y-69939500D01*
X51098541Y-69939500D01*
X50901459Y-69939500D01*
X50901456Y-69939500D01*
X50708165Y-69977949D01*
X50708163Y-69977949D01*
X50526086Y-70053367D01*
X50362218Y-70162861D01*
X50362214Y-70162864D01*
X50222864Y-70302214D01*
X50222861Y-70302218D01*
X50113367Y-70466086D01*
X50037949Y-70648163D01*
X50037949Y-70648165D01*
X49999500Y-70841456D01*
X47996153Y-70841456D01*
X48112287Y-70681610D01*
X48205220Y-70499219D01*
X48268477Y-70304534D01*
X48268596Y-70303785D01*
X48300500Y-70102355D01*
X48300500Y-68301456D01*
X49999500Y-68301456D01*
X49999500Y-68498543D01*
X50037949Y-68691834D01*
X50037949Y-68691836D01*
X50113367Y-68873913D01*
X50113368Y-68873914D01*
X50222861Y-69037782D01*
X50362218Y-69177139D01*
X50526086Y-69286632D01*
X50708165Y-69362051D01*
X50901459Y-69400500D01*
X50901460Y-69400500D01*
X51098540Y-69400500D01*
X51098541Y-69400500D01*
X51291835Y-69362051D01*
X51473914Y-69286632D01*
X51637782Y-69177139D01*
X51777139Y-69037782D01*
X51886632Y-68873914D01*
X51962051Y-68691835D01*
X52000500Y-68498541D01*
X52000500Y-68301459D01*
X51962051Y-68108165D01*
X51886632Y-67926086D01*
X51881885Y-67918982D01*
X54849500Y-67918982D01*
X54849500Y-68031018D01*
X54868521Y-68102006D01*
X54878498Y-68139241D01*
X54934513Y-68236260D01*
X54934515Y-68236263D01*
X55013737Y-68315485D01*
X55013739Y-68315486D01*
X55110759Y-68371501D01*
X55110757Y-68371501D01*
X55110761Y-68371502D01*
X55110763Y-68371503D01*
X55218982Y-68400500D01*
X55218984Y-68400500D01*
X55331016Y-68400500D01*
X55331018Y-68400500D01*
X55439237Y-68371503D01*
X55439239Y-68371501D01*
X55439241Y-68371501D01*
X55468064Y-68354859D01*
X55536263Y-68315485D01*
X55615485Y-68236263D01*
X55671503Y-68139237D01*
X55700500Y-68031018D01*
X55700500Y-67918982D01*
X55671503Y-67810763D01*
X55671501Y-67810760D01*
X55671501Y-67810758D01*
X55615486Y-67713739D01*
X55615485Y-67713737D01*
X55536263Y-67634515D01*
X55536260Y-67634513D01*
X55439240Y-67578498D01*
X55439242Y-67578498D01*
X55397251Y-67567247D01*
X55331018Y-67549500D01*
X55218982Y-67549500D01*
X55152748Y-67567247D01*
X55110758Y-67578498D01*
X55013739Y-67634513D01*
X54934513Y-67713739D01*
X54878498Y-67810758D01*
X54878497Y-67810763D01*
X54849500Y-67918982D01*
X51881885Y-67918982D01*
X51859072Y-67884839D01*
X51777139Y-67762218D01*
X51637782Y-67622861D01*
X51473914Y-67513368D01*
X51473915Y-67513368D01*
X51473913Y-67513367D01*
X51291835Y-67437949D01*
X51098543Y-67399500D01*
X51098541Y-67399500D01*
X50901459Y-67399500D01*
X50901456Y-67399500D01*
X50708165Y-67437949D01*
X50708163Y-67437949D01*
X50526086Y-67513367D01*
X50362218Y-67622861D01*
X50362214Y-67622864D01*
X50222864Y-67762214D01*
X50222861Y-67762218D01*
X50113367Y-67926086D01*
X50037949Y-68108163D01*
X50037949Y-68108165D01*
X49999500Y-68301456D01*
X48300500Y-68301456D01*
X48300500Y-65761456D01*
X49999500Y-65761456D01*
X49999500Y-65761459D01*
X49999500Y-65958541D01*
X50029721Y-66110473D01*
X50037949Y-66151834D01*
X50037949Y-66151836D01*
X50113367Y-66333913D01*
X50113368Y-66333914D01*
X50222861Y-66497782D01*
X50362218Y-66637139D01*
X50526086Y-66746632D01*
X50708165Y-66822051D01*
X50901459Y-66860500D01*
X50901460Y-66860500D01*
X51098540Y-66860500D01*
X51098541Y-66860500D01*
X51291835Y-66822051D01*
X51473914Y-66746632D01*
X51637782Y-66637139D01*
X51680939Y-66593982D01*
X62324500Y-66593982D01*
X62324500Y-66706018D01*
X62348941Y-66797234D01*
X62353498Y-66814241D01*
X62409513Y-66911260D01*
X62409515Y-66911263D01*
X62488737Y-66990485D01*
X62488739Y-66990486D01*
X62585759Y-67046501D01*
X62585757Y-67046501D01*
X62585761Y-67046502D01*
X62585763Y-67046503D01*
X62693982Y-67075500D01*
X62693984Y-67075500D01*
X62806016Y-67075500D01*
X62806018Y-67075500D01*
X62914237Y-67046503D01*
X62914239Y-67046501D01*
X62914241Y-67046501D01*
X62943064Y-67029859D01*
X63011263Y-66990485D01*
X63090485Y-66911263D01*
X63146503Y-66814237D01*
X63175500Y-66706018D01*
X63175500Y-66706010D01*
X63175909Y-66702905D01*
X63176878Y-66700872D01*
X63177179Y-66699750D01*
X63177386Y-66699805D01*
X63202244Y-66647678D01*
X63256012Y-66618478D01*
X63316675Y-66626458D01*
X63344063Y-66645811D01*
X63410471Y-66712219D01*
X63410473Y-66712220D01*
X63507493Y-66768235D01*
X63507491Y-66768235D01*
X63507495Y-66768236D01*
X63507497Y-66768237D01*
X63615716Y-66797234D01*
X63615718Y-66797234D01*
X63727750Y-66797234D01*
X63727752Y-66797234D01*
X63835971Y-66768237D01*
X63835973Y-66768235D01*
X63835975Y-66768235D01*
X63873392Y-66746632D01*
X63932997Y-66712219D01*
X64012219Y-66632997D01*
X64059435Y-66551217D01*
X64068235Y-66535975D01*
X64068235Y-66535973D01*
X64068237Y-66535971D01*
X64097234Y-66427752D01*
X64097234Y-66315716D01*
X64068237Y-66207497D01*
X64068235Y-66207494D01*
X64068235Y-66207492D01*
X64012220Y-66110473D01*
X64012219Y-66110471D01*
X63932997Y-66031249D01*
X63932994Y-66031247D01*
X63835974Y-65975232D01*
X63835976Y-65975232D01*
X63773690Y-65958543D01*
X63727752Y-65946234D01*
X63615716Y-65946234D01*
X63569778Y-65958543D01*
X63507492Y-65975232D01*
X63410473Y-66031247D01*
X63331247Y-66110473D01*
X63275232Y-66207492D01*
X63246233Y-66315718D01*
X63245823Y-66318839D01*
X63244852Y-66320873D01*
X63244555Y-66321984D01*
X63244349Y-66321928D01*
X63219481Y-66374064D01*
X63165709Y-66403258D01*
X63105048Y-66395270D01*
X63077669Y-66375921D01*
X63011263Y-66309515D01*
X63011260Y-66309513D01*
X62914240Y-66253498D01*
X62914242Y-66253498D01*
X62872251Y-66242247D01*
X62806018Y-66224500D01*
X62693982Y-66224500D01*
X62627748Y-66242247D01*
X62585758Y-66253498D01*
X62488739Y-66309513D01*
X62409513Y-66388739D01*
X62353498Y-66485758D01*
X62350275Y-66497786D01*
X62324500Y-66593982D01*
X51680939Y-66593982D01*
X51777139Y-66497782D01*
X51886632Y-66333914D01*
X51962051Y-66151835D01*
X52000500Y-65958541D01*
X52000500Y-65761459D01*
X51962051Y-65568165D01*
X51886632Y-65386086D01*
X51777139Y-65222218D01*
X51696841Y-65141920D01*
X54376562Y-65141920D01*
X54376562Y-65253956D01*
X54382954Y-65277811D01*
X54405560Y-65362179D01*
X54461575Y-65459198D01*
X54461577Y-65459201D01*
X54540799Y-65538423D01*
X54540801Y-65538424D01*
X54637821Y-65594439D01*
X54637819Y-65594439D01*
X54637823Y-65594440D01*
X54637825Y-65594441D01*
X54746044Y-65623438D01*
X54746046Y-65623438D01*
X54858078Y-65623438D01*
X54858080Y-65623438D01*
X54966299Y-65594441D01*
X54966301Y-65594439D01*
X54966303Y-65594439D01*
X55022478Y-65562006D01*
X55063325Y-65538423D01*
X55142547Y-65459201D01*
X55198565Y-65362175D01*
X55221170Y-65277808D01*
X55254492Y-65226496D01*
X55311614Y-65204569D01*
X55370714Y-65220404D01*
X55386794Y-65233424D01*
X55443855Y-65290485D01*
X55443857Y-65290486D01*
X55540877Y-65346501D01*
X55540875Y-65346501D01*
X55540879Y-65346502D01*
X55540881Y-65346503D01*
X55649100Y-65375500D01*
X55649102Y-65375500D01*
X55761134Y-65375500D01*
X55761136Y-65375500D01*
X55869355Y-65346503D01*
X55869357Y-65346501D01*
X55869359Y-65346501D01*
X55898182Y-65329859D01*
X55966381Y-65290485D01*
X56012884Y-65243982D01*
X62908500Y-65243982D01*
X62908500Y-65356018D01*
X62916557Y-65386086D01*
X62937498Y-65464241D01*
X62993513Y-65561260D01*
X62993515Y-65561263D01*
X63072737Y-65640485D01*
X63072739Y-65640486D01*
X63169759Y-65696501D01*
X63169757Y-65696501D01*
X63169761Y-65696502D01*
X63169763Y-65696503D01*
X63277982Y-65725500D01*
X63277984Y-65725500D01*
X63390016Y-65725500D01*
X63390018Y-65725500D01*
X63498237Y-65696503D01*
X63498239Y-65696501D01*
X63498241Y-65696501D01*
X63527064Y-65679859D01*
X63595263Y-65640485D01*
X63674485Y-65561263D01*
X63730503Y-65464237D01*
X63759500Y-65356018D01*
X63759500Y-65243982D01*
X63730503Y-65135763D01*
X63730501Y-65135760D01*
X63730501Y-65135758D01*
X63674486Y-65038739D01*
X63674485Y-65038737D01*
X63595263Y-64959515D01*
X63567296Y-64943368D01*
X63498240Y-64903498D01*
X63498242Y-64903498D01*
X63456251Y-64892247D01*
X63390018Y-64874500D01*
X63277982Y-64874500D01*
X63211748Y-64892247D01*
X63169758Y-64903498D01*
X63072739Y-64959513D01*
X62993513Y-65038739D01*
X62937498Y-65135758D01*
X62921286Y-65196263D01*
X62908500Y-65243982D01*
X56012884Y-65243982D01*
X56045603Y-65211263D01*
X56077693Y-65155680D01*
X56123161Y-65114742D01*
X56184011Y-65108346D01*
X56233429Y-65135177D01*
X56238737Y-65140485D01*
X56241224Y-65141921D01*
X56335759Y-65196501D01*
X56335757Y-65196501D01*
X56335761Y-65196502D01*
X56335763Y-65196503D01*
X56443982Y-65225500D01*
X56443984Y-65225500D01*
X56556016Y-65225500D01*
X56556018Y-65225500D01*
X56664237Y-65196503D01*
X56664239Y-65196501D01*
X56664241Y-65196501D01*
X56734939Y-65155683D01*
X56761263Y-65140485D01*
X56840485Y-65061263D01*
X56896503Y-64964237D01*
X56925500Y-64856018D01*
X56925500Y-64743982D01*
X56896503Y-64635763D01*
X56896501Y-64635760D01*
X56896501Y-64635758D01*
X56840486Y-64538739D01*
X56840485Y-64538737D01*
X56761263Y-64459515D01*
X56761260Y-64459513D01*
X56664240Y-64403498D01*
X56664242Y-64403498D01*
X56622251Y-64392247D01*
X56556018Y-64374500D01*
X56443982Y-64374500D01*
X56377748Y-64392247D01*
X56335758Y-64403498D01*
X56238739Y-64459513D01*
X56159514Y-64538738D01*
X56127425Y-64594317D01*
X56081954Y-64635258D01*
X56021104Y-64641652D01*
X55971687Y-64614821D01*
X55966381Y-64609515D01*
X55966378Y-64609513D01*
X55869358Y-64553498D01*
X55869360Y-64553498D01*
X55814273Y-64538738D01*
X55761136Y-64524500D01*
X55649100Y-64524500D01*
X55595963Y-64538738D01*
X55540876Y-64553498D01*
X55443857Y-64609513D01*
X55364631Y-64688739D01*
X55308616Y-64785758D01*
X55286010Y-64870127D01*
X55252686Y-64921442D01*
X55195564Y-64943368D01*
X55136464Y-64927532D01*
X55120384Y-64914512D01*
X55063325Y-64857453D01*
X55060840Y-64856018D01*
X54966302Y-64801436D01*
X54966304Y-64801436D01*
X54924313Y-64790185D01*
X54858080Y-64772438D01*
X54746044Y-64772438D01*
X54679810Y-64790185D01*
X54637820Y-64801436D01*
X54540801Y-64857451D01*
X54461575Y-64936677D01*
X54405560Y-65033696D01*
X54398174Y-65061263D01*
X54376562Y-65141920D01*
X51696841Y-65141920D01*
X51637782Y-65082861D01*
X51473914Y-64973368D01*
X51473915Y-64973368D01*
X51473913Y-64973367D01*
X51291835Y-64897949D01*
X51098543Y-64859500D01*
X51098541Y-64859500D01*
X50901459Y-64859500D01*
X50901456Y-64859500D01*
X50708165Y-64897949D01*
X50708163Y-64897949D01*
X50526086Y-64973367D01*
X50362218Y-65082861D01*
X50362214Y-65082864D01*
X50222864Y-65222214D01*
X50222861Y-65222218D01*
X50113367Y-65386086D01*
X50037949Y-65568163D01*
X50037949Y-65568165D01*
X49999500Y-65761456D01*
X48300500Y-65761456D01*
X48300500Y-63221456D01*
X49999500Y-63221456D01*
X49999500Y-63418543D01*
X50037949Y-63611834D01*
X50037949Y-63611836D01*
X50113367Y-63793913D01*
X50113368Y-63793914D01*
X50222861Y-63957782D01*
X50362218Y-64097139D01*
X50526086Y-64206632D01*
X50708165Y-64282051D01*
X50901459Y-64320500D01*
X50901460Y-64320500D01*
X51098540Y-64320500D01*
X51098541Y-64320500D01*
X51291835Y-64282051D01*
X51473914Y-64206632D01*
X51637782Y-64097139D01*
X51777139Y-63957782D01*
X51886632Y-63793914D01*
X51962051Y-63611835D01*
X52000500Y-63418541D01*
X52000500Y-63221459D01*
X51962051Y-63028165D01*
X51886632Y-62846086D01*
X51777139Y-62682218D01*
X51637782Y-62542861D01*
X51473914Y-62433368D01*
X51463265Y-62428957D01*
X51463264Y-62428956D01*
X51291835Y-62357949D01*
X51221620Y-62343982D01*
X53574500Y-62343982D01*
X53574500Y-62456018D01*
X53589302Y-62511260D01*
X53603498Y-62564241D01*
X53650992Y-62646501D01*
X53659515Y-62661263D01*
X53738737Y-62740485D01*
X53738739Y-62740486D01*
X53835759Y-62796501D01*
X53835757Y-62796501D01*
X53835761Y-62796502D01*
X53835763Y-62796503D01*
X53943982Y-62825500D01*
X53943984Y-62825500D01*
X54056016Y-62825500D01*
X54056018Y-62825500D01*
X54164237Y-62796503D01*
X54164239Y-62796501D01*
X54164241Y-62796501D01*
X54225274Y-62761263D01*
X54261263Y-62740485D01*
X54340485Y-62661263D01*
X54396503Y-62564237D01*
X54425500Y-62456018D01*
X54425500Y-62443982D01*
X55174500Y-62443982D01*
X55174500Y-62556018D01*
X55183736Y-62590486D01*
X55203498Y-62664241D01*
X55247519Y-62740486D01*
X55259515Y-62761263D01*
X55338737Y-62840485D01*
X55338739Y-62840486D01*
X55435759Y-62896501D01*
X55435757Y-62896501D01*
X55435761Y-62896502D01*
X55435763Y-62896503D01*
X55543982Y-62925500D01*
X55543984Y-62925500D01*
X55656016Y-62925500D01*
X55656018Y-62925500D01*
X55764237Y-62896503D01*
X55764239Y-62896501D01*
X55764241Y-62896501D01*
X55793064Y-62879859D01*
X55861263Y-62840485D01*
X55940485Y-62761263D01*
X55996503Y-62664237D01*
X56025500Y-62556018D01*
X56025500Y-62443982D01*
X55996503Y-62335763D01*
X55940485Y-62238737D01*
X55895730Y-62193982D01*
X62124500Y-62193982D01*
X62124500Y-62306018D01*
X62134673Y-62343983D01*
X62153498Y-62414241D01*
X62209513Y-62511260D01*
X62209515Y-62511263D01*
X62288737Y-62590485D01*
X62288739Y-62590486D01*
X62385759Y-62646501D01*
X62385757Y-62646501D01*
X62385761Y-62646502D01*
X62385763Y-62646503D01*
X62493982Y-62675500D01*
X62493984Y-62675500D01*
X62606016Y-62675500D01*
X62606018Y-62675500D01*
X62714237Y-62646503D01*
X62714239Y-62646501D01*
X62714241Y-62646501D01*
X62744931Y-62628782D01*
X62811263Y-62590485D01*
X62890485Y-62511263D01*
X62935458Y-62433367D01*
X62946501Y-62414241D01*
X62946501Y-62414239D01*
X62946503Y-62414237D01*
X62975500Y-62306018D01*
X62975500Y-62193982D01*
X62946503Y-62085763D01*
X62946501Y-62085760D01*
X62946501Y-62085758D01*
X62890486Y-61988739D01*
X62890485Y-61988737D01*
X62811263Y-61909515D01*
X62795001Y-61900126D01*
X62714240Y-61853498D01*
X62714242Y-61853498D01*
X62672251Y-61842247D01*
X62606018Y-61824500D01*
X62493982Y-61824500D01*
X62427748Y-61842247D01*
X62385758Y-61853498D01*
X62288739Y-61909513D01*
X62209513Y-61988739D01*
X62153498Y-62085758D01*
X62153497Y-62085763D01*
X62124500Y-62193982D01*
X55895730Y-62193982D01*
X55861263Y-62159515D01*
X55861260Y-62159513D01*
X55764240Y-62103498D01*
X55764242Y-62103498D01*
X55698052Y-62085763D01*
X55656018Y-62074500D01*
X55543982Y-62074500D01*
X55501948Y-62085763D01*
X55435758Y-62103498D01*
X55338739Y-62159513D01*
X55259513Y-62238739D01*
X55203498Y-62335758D01*
X55201294Y-62343983D01*
X55174500Y-62443982D01*
X54425500Y-62443982D01*
X54425500Y-62343982D01*
X54396503Y-62235763D01*
X54396501Y-62235760D01*
X54396501Y-62235758D01*
X54340486Y-62138739D01*
X54340485Y-62138737D01*
X54270875Y-62069127D01*
X54243100Y-62014613D01*
X54252671Y-61954181D01*
X54295936Y-61910916D01*
X54340881Y-61900126D01*
X54398174Y-61900126D01*
X54398176Y-61900126D01*
X54506395Y-61871129D01*
X54506397Y-61871127D01*
X54506399Y-61871127D01*
X54536933Y-61853498D01*
X54603421Y-61815111D01*
X54682643Y-61735889D01*
X54738661Y-61638863D01*
X54767658Y-61530644D01*
X54767658Y-61418608D01*
X54738661Y-61310389D01*
X54738659Y-61310386D01*
X54738659Y-61310384D01*
X54682644Y-61213365D01*
X54682643Y-61213363D01*
X54603421Y-61134141D01*
X54603418Y-61134139D01*
X54506398Y-61078124D01*
X54506400Y-61078124D01*
X54464409Y-61066873D01*
X54398176Y-61049126D01*
X54286140Y-61049126D01*
X54219906Y-61066873D01*
X54177916Y-61078124D01*
X54080897Y-61134139D01*
X54001671Y-61213365D01*
X53945656Y-61310384D01*
X53945655Y-61310389D01*
X53916658Y-61418608D01*
X53916658Y-61530644D01*
X53942230Y-61626081D01*
X53945656Y-61638867D01*
X54001671Y-61735886D01*
X54001673Y-61735889D01*
X54071282Y-61805498D01*
X54099058Y-61860013D01*
X54089487Y-61920445D01*
X54046222Y-61963710D01*
X54001277Y-61974500D01*
X53943982Y-61974500D01*
X53890841Y-61988739D01*
X53835758Y-62003498D01*
X53738739Y-62059513D01*
X53659513Y-62138739D01*
X53603498Y-62235758D01*
X53587286Y-62296263D01*
X53574500Y-62343982D01*
X51221620Y-62343982D01*
X51098543Y-62319500D01*
X51098541Y-62319500D01*
X50901459Y-62319500D01*
X50901456Y-62319500D01*
X50708165Y-62357949D01*
X50708163Y-62357949D01*
X50526086Y-62433367D01*
X50362218Y-62542861D01*
X50362214Y-62542864D01*
X50222864Y-62682214D01*
X50222861Y-62682218D01*
X50113367Y-62846086D01*
X50037949Y-63028163D01*
X50037949Y-63028165D01*
X49999500Y-63221456D01*
X48300500Y-63221456D01*
X48300500Y-60681456D01*
X49999500Y-60681456D01*
X49999500Y-60878543D01*
X50037949Y-61071834D01*
X50037949Y-61071836D01*
X50113367Y-61253913D01*
X50113368Y-61253914D01*
X50222861Y-61417782D01*
X50362218Y-61557139D01*
X50526086Y-61666632D01*
X50708165Y-61742051D01*
X50901459Y-61780500D01*
X50901460Y-61780500D01*
X51098540Y-61780500D01*
X51098541Y-61780500D01*
X51291835Y-61742051D01*
X51473914Y-61666632D01*
X51637782Y-61557139D01*
X51777139Y-61417782D01*
X51886632Y-61253914D01*
X51962051Y-61071835D01*
X52000500Y-60878541D01*
X52000500Y-60681459D01*
X51962051Y-60488165D01*
X51886632Y-60306086D01*
X51777139Y-60142218D01*
X51637782Y-60002861D01*
X51473914Y-59893368D01*
X51473915Y-59893368D01*
X51473913Y-59893367D01*
X51291835Y-59817949D01*
X51098543Y-59779500D01*
X51098541Y-59779500D01*
X50901459Y-59779500D01*
X50901456Y-59779500D01*
X50708165Y-59817949D01*
X50708163Y-59817949D01*
X50526086Y-59893367D01*
X50362218Y-60002861D01*
X50362214Y-60002864D01*
X50222864Y-60142214D01*
X50222861Y-60142218D01*
X50113367Y-60306086D01*
X50037949Y-60488163D01*
X50037949Y-60488165D01*
X49999500Y-60681456D01*
X48300500Y-60681456D01*
X48300500Y-58141456D01*
X49999500Y-58141456D01*
X49999500Y-58338543D01*
X50037949Y-58531834D01*
X50037949Y-58531836D01*
X50113367Y-58713913D01*
X50145004Y-58761260D01*
X50222861Y-58877782D01*
X50362218Y-59017139D01*
X50526086Y-59126632D01*
X50708165Y-59202051D01*
X50901459Y-59240500D01*
X50901460Y-59240500D01*
X51098540Y-59240500D01*
X51098541Y-59240500D01*
X51291835Y-59202051D01*
X51473914Y-59126632D01*
X51637782Y-59017139D01*
X51777139Y-58877782D01*
X51886632Y-58713914D01*
X51962051Y-58531835D01*
X52000500Y-58338541D01*
X52000500Y-58243982D01*
X52508500Y-58243982D01*
X52508500Y-58356018D01*
X52532070Y-58443982D01*
X52537498Y-58464241D01*
X52593514Y-58561263D01*
X52612249Y-58579998D01*
X52640025Y-58634515D01*
X52630453Y-58694947D01*
X52612249Y-58720002D01*
X52593514Y-58738736D01*
X52537498Y-58835758D01*
X52526238Y-58877781D01*
X52508500Y-58943982D01*
X52508500Y-59056018D01*
X52514668Y-59079037D01*
X52537498Y-59164241D01*
X52581527Y-59240500D01*
X52593515Y-59261263D01*
X52672737Y-59340485D01*
X52672739Y-59340486D01*
X52769759Y-59396501D01*
X52769757Y-59396501D01*
X52769761Y-59396502D01*
X52769763Y-59396503D01*
X52877982Y-59425500D01*
X52877984Y-59425500D01*
X52990016Y-59425500D01*
X52990018Y-59425500D01*
X53098237Y-59396503D01*
X53098239Y-59396501D01*
X53098241Y-59396501D01*
X53127064Y-59379859D01*
X53195263Y-59340485D01*
X53274485Y-59261263D01*
X53330503Y-59164237D01*
X53359500Y-59056018D01*
X53359500Y-58943982D01*
X53330503Y-58835763D01*
X53330501Y-58835760D01*
X53330501Y-58835758D01*
X53274486Y-58738739D01*
X53274485Y-58738737D01*
X53255749Y-58720001D01*
X53227974Y-58665487D01*
X53237545Y-58605055D01*
X53255750Y-58579998D01*
X53274485Y-58561263D01*
X53330503Y-58464237D01*
X53333691Y-58452338D01*
X54082856Y-58452338D01*
X54082856Y-58564374D01*
X54101650Y-58634515D01*
X54111854Y-58672597D01*
X54167869Y-58769616D01*
X54167871Y-58769619D01*
X54247093Y-58848841D01*
X54247095Y-58848842D01*
X54344115Y-58904857D01*
X54344113Y-58904857D01*
X54344117Y-58904858D01*
X54344119Y-58904859D01*
X54452338Y-58933856D01*
X54452340Y-58933856D01*
X54564372Y-58933856D01*
X54564374Y-58933856D01*
X54672593Y-58904859D01*
X54672595Y-58904857D01*
X54672597Y-58904857D01*
X54701420Y-58888215D01*
X54769619Y-58848841D01*
X54848841Y-58769619D01*
X54904859Y-58672593D01*
X54933856Y-58564374D01*
X54933856Y-58452338D01*
X54931617Y-58443982D01*
X64174500Y-58443982D01*
X64174500Y-58556018D01*
X64195533Y-58634515D01*
X64203498Y-58664241D01*
X64259513Y-58761260D01*
X64259515Y-58761263D01*
X64338737Y-58840485D01*
X64338739Y-58840486D01*
X64435759Y-58896501D01*
X64435757Y-58896501D01*
X64435761Y-58896502D01*
X64435763Y-58896503D01*
X64543982Y-58925500D01*
X64543984Y-58925500D01*
X64656016Y-58925500D01*
X64656018Y-58925500D01*
X64764237Y-58896503D01*
X64764239Y-58896501D01*
X64764241Y-58896501D01*
X64793064Y-58879859D01*
X64861263Y-58840485D01*
X64940485Y-58761263D01*
X64996503Y-58664237D01*
X65007687Y-58622499D01*
X65207673Y-58622499D01*
X65220588Y-58662248D01*
X65299195Y-58816524D01*
X65299197Y-58816528D01*
X65400962Y-58956596D01*
X65523403Y-59079037D01*
X65663471Y-59180802D01*
X65663475Y-59180804D01*
X65817753Y-59259412D01*
X65939999Y-59299131D01*
X65940000Y-59299131D01*
X65940000Y-58540001D01*
X65939999Y-58540000D01*
X65215413Y-58540000D01*
X65207673Y-58622499D01*
X65007687Y-58622499D01*
X65025500Y-58556018D01*
X65025500Y-58443982D01*
X64996503Y-58335763D01*
X64996501Y-58335760D01*
X64996501Y-58335758D01*
X64940486Y-58238739D01*
X64940485Y-58238737D01*
X64861263Y-58159515D01*
X64861260Y-58159513D01*
X64764240Y-58103498D01*
X64764242Y-58103498D01*
X64697466Y-58085606D01*
X64656018Y-58074500D01*
X64543982Y-58074500D01*
X64502534Y-58085606D01*
X64435758Y-58103498D01*
X64338739Y-58159513D01*
X64259513Y-58238739D01*
X64203498Y-58335758D01*
X64187787Y-58394394D01*
X64174500Y-58443982D01*
X54931617Y-58443982D01*
X54904859Y-58344119D01*
X54904857Y-58344116D01*
X54904857Y-58344114D01*
X54848842Y-58247095D01*
X54848841Y-58247093D01*
X54769619Y-58167871D01*
X54758174Y-58161263D01*
X54672596Y-58111854D01*
X54672598Y-58111854D01*
X54630607Y-58100603D01*
X54564374Y-58082856D01*
X54452338Y-58082856D01*
X54386104Y-58100603D01*
X54344114Y-58111854D01*
X54247095Y-58167869D01*
X54167869Y-58247095D01*
X54111854Y-58344114D01*
X54098382Y-58394394D01*
X54082856Y-58452338D01*
X53333691Y-58452338D01*
X53359500Y-58356018D01*
X53359500Y-58243982D01*
X53330503Y-58135763D01*
X53330501Y-58135760D01*
X53330501Y-58135758D01*
X53274486Y-58038739D01*
X53274485Y-58038737D01*
X53195263Y-57959515D01*
X53195260Y-57959513D01*
X53098240Y-57903498D01*
X53098242Y-57903498D01*
X53056251Y-57892247D01*
X52990018Y-57874500D01*
X52877982Y-57874500D01*
X52811748Y-57892247D01*
X52769758Y-57903498D01*
X52672739Y-57959513D01*
X52593513Y-58038739D01*
X52537498Y-58135758D01*
X52531133Y-58159513D01*
X52508500Y-58243982D01*
X52000500Y-58243982D01*
X52000500Y-58141459D01*
X51962051Y-57948165D01*
X51886632Y-57766086D01*
X51777139Y-57602218D01*
X51637782Y-57462861D01*
X51473914Y-57353368D01*
X51473915Y-57353368D01*
X51473913Y-57353367D01*
X51291835Y-57277949D01*
X51098543Y-57239500D01*
X51098541Y-57239500D01*
X50901459Y-57239500D01*
X50901456Y-57239500D01*
X50708165Y-57277949D01*
X50708163Y-57277949D01*
X50526086Y-57353367D01*
X50362218Y-57462861D01*
X50362214Y-57462864D01*
X50222864Y-57602214D01*
X50222861Y-57602218D01*
X50113367Y-57766086D01*
X50037949Y-57948163D01*
X50037949Y-57948165D01*
X49999500Y-58141456D01*
X48300500Y-58141456D01*
X48300500Y-55601456D01*
X49999500Y-55601456D01*
X49999500Y-55798543D01*
X50037949Y-55991834D01*
X50037949Y-55991836D01*
X50113367Y-56173913D01*
X50133135Y-56203497D01*
X50222861Y-56337782D01*
X50362218Y-56477139D01*
X50526086Y-56586632D01*
X50708165Y-56662051D01*
X50901459Y-56700500D01*
X50901460Y-56700500D01*
X51098540Y-56700500D01*
X51098541Y-56700500D01*
X51291835Y-56662051D01*
X51473914Y-56586632D01*
X51537744Y-56543982D01*
X61674500Y-56543982D01*
X61674500Y-56656018D01*
X61676117Y-56662051D01*
X61703498Y-56764241D01*
X61759514Y-56861263D01*
X61778249Y-56879998D01*
X61806025Y-56934515D01*
X61796453Y-56994947D01*
X61778249Y-57020002D01*
X61759514Y-57038736D01*
X61703498Y-57135758D01*
X61687286Y-57196263D01*
X61674500Y-57243982D01*
X61674500Y-57356018D01*
X61686543Y-57400962D01*
X61703498Y-57464241D01*
X61739813Y-57527139D01*
X61759515Y-57561263D01*
X61834041Y-57635789D01*
X61861817Y-57690304D01*
X61859663Y-57731414D01*
X61858498Y-57735760D01*
X61858497Y-57735763D01*
X61829500Y-57843982D01*
X61829500Y-57956018D01*
X61839783Y-57994394D01*
X61858498Y-58064241D01*
X61913506Y-58159515D01*
X61914515Y-58161263D01*
X61993737Y-58240485D01*
X62005186Y-58247095D01*
X62090759Y-58296501D01*
X62090757Y-58296501D01*
X62090761Y-58296502D01*
X62090763Y-58296503D01*
X62198982Y-58325500D01*
X62198984Y-58325500D01*
X62311016Y-58325500D01*
X62311018Y-58325500D01*
X62419237Y-58296503D01*
X62419239Y-58296501D01*
X62419241Y-58296501D01*
X62448064Y-58279859D01*
X62516263Y-58240485D01*
X62595485Y-58161263D01*
X62651503Y-58064237D01*
X62680500Y-57956018D01*
X62680500Y-57939999D01*
X65180868Y-57939999D01*
X65180868Y-57940000D01*
X65939999Y-57940000D01*
X65940000Y-57939999D01*
X65940000Y-57180867D01*
X65939999Y-57180867D01*
X65817755Y-57220587D01*
X65817743Y-57220592D01*
X65663475Y-57299195D01*
X65663471Y-57299197D01*
X65523403Y-57400962D01*
X65400962Y-57523403D01*
X65299197Y-57663471D01*
X65299195Y-57663475D01*
X65220587Y-57817753D01*
X65180868Y-57939999D01*
X62680500Y-57939999D01*
X62680500Y-57843982D01*
X62651503Y-57735763D01*
X62651501Y-57735760D01*
X62651501Y-57735758D01*
X62595486Y-57638739D01*
X62595485Y-57638737D01*
X62520958Y-57564210D01*
X62493183Y-57509696D01*
X62495337Y-57468586D01*
X62496501Y-57464239D01*
X62496503Y-57464237D01*
X62525500Y-57356018D01*
X62525500Y-57243982D01*
X62496503Y-57135763D01*
X62496501Y-57135760D01*
X62496501Y-57135758D01*
X62440486Y-57038739D01*
X62440485Y-57038737D01*
X62421749Y-57020001D01*
X62393974Y-56965487D01*
X62403545Y-56905055D01*
X62421750Y-56879998D01*
X62440485Y-56861263D01*
X62496503Y-56764237D01*
X62525500Y-56656018D01*
X62525500Y-56543982D01*
X62496503Y-56435763D01*
X62496501Y-56435760D01*
X62496501Y-56435758D01*
X62440486Y-56338739D01*
X62440485Y-56338737D01*
X62361263Y-56259515D01*
X62361260Y-56259513D01*
X62264240Y-56203498D01*
X62264242Y-56203498D01*
X62222251Y-56192247D01*
X62156018Y-56174500D01*
X62043982Y-56174500D01*
X61977748Y-56192247D01*
X61935758Y-56203498D01*
X61838739Y-56259513D01*
X61759513Y-56338739D01*
X61703498Y-56435758D01*
X61700504Y-56446932D01*
X61674500Y-56543982D01*
X51537744Y-56543982D01*
X51637782Y-56477139D01*
X51777139Y-56337782D01*
X51886632Y-56173914D01*
X51962051Y-55991835D01*
X51971570Y-55943982D01*
X53774500Y-55943982D01*
X53774500Y-56056018D01*
X53778981Y-56072741D01*
X53803498Y-56164241D01*
X53858506Y-56259515D01*
X53859515Y-56261263D01*
X53938737Y-56340485D01*
X53938739Y-56340486D01*
X54035759Y-56396501D01*
X54035757Y-56396501D01*
X54035761Y-56396502D01*
X54035763Y-56396503D01*
X54143982Y-56425500D01*
X54143984Y-56425500D01*
X54256016Y-56425500D01*
X54256018Y-56425500D01*
X54364237Y-56396503D01*
X54364239Y-56396501D01*
X54364241Y-56396501D01*
X54393064Y-56379859D01*
X54461263Y-56340485D01*
X54540485Y-56261263D01*
X54596503Y-56164237D01*
X54625500Y-56056018D01*
X54625500Y-56009374D01*
X54628546Y-56000000D01*
X65180868Y-56000000D01*
X65220587Y-56122246D01*
X65299195Y-56276524D01*
X65299197Y-56276528D01*
X65400962Y-56416596D01*
X65523403Y-56539037D01*
X65663471Y-56640802D01*
X65663475Y-56640804D01*
X65817753Y-56719412D01*
X65939999Y-56759131D01*
X65940000Y-56759131D01*
X65940000Y-56000001D01*
X65939999Y-56000000D01*
X65180868Y-56000000D01*
X54628546Y-56000000D01*
X54644407Y-55951183D01*
X54693907Y-55915219D01*
X54750122Y-55913748D01*
X54793982Y-55925500D01*
X54793983Y-55925500D01*
X54906016Y-55925500D01*
X54906018Y-55925500D01*
X55014237Y-55896503D01*
X55014239Y-55896501D01*
X55014241Y-55896501D01*
X55043064Y-55879859D01*
X55111263Y-55840485D01*
X55190485Y-55761263D01*
X55246503Y-55664237D01*
X55275500Y-55556018D01*
X55275500Y-55443982D01*
X55263715Y-55399999D01*
X65180868Y-55399999D01*
X65180868Y-55400000D01*
X65939999Y-55400000D01*
X65940000Y-55399999D01*
X65940000Y-54640867D01*
X65939999Y-54640867D01*
X65817755Y-54680587D01*
X65817743Y-54680592D01*
X65663475Y-54759195D01*
X65663471Y-54759197D01*
X65523403Y-54860962D01*
X65400962Y-54983403D01*
X65299197Y-55123471D01*
X65299195Y-55123475D01*
X65220587Y-55277753D01*
X65180868Y-55399999D01*
X55263715Y-55399999D01*
X55246503Y-55335763D01*
X55246501Y-55335760D01*
X55246501Y-55335758D01*
X55190486Y-55238739D01*
X55190485Y-55238737D01*
X55111263Y-55159515D01*
X55097386Y-55151503D01*
X55014240Y-55103498D01*
X55014242Y-55103498D01*
X54972251Y-55092247D01*
X54906018Y-55074500D01*
X54793982Y-55074500D01*
X54727748Y-55092247D01*
X54685758Y-55103498D01*
X54588739Y-55159513D01*
X54509513Y-55238739D01*
X54453498Y-55335758D01*
X54424500Y-55443983D01*
X54424500Y-55490625D01*
X54405593Y-55548816D01*
X54356093Y-55584780D01*
X54299878Y-55586252D01*
X54282664Y-55581639D01*
X54256018Y-55574500D01*
X54143982Y-55574500D01*
X54100123Y-55586252D01*
X54035758Y-55603498D01*
X53938739Y-55659513D01*
X53859513Y-55738739D01*
X53803498Y-55835758D01*
X53802231Y-55840486D01*
X53774500Y-55943982D01*
X51971570Y-55943982D01*
X52000500Y-55798541D01*
X52000500Y-55601459D01*
X51962051Y-55408165D01*
X51886632Y-55226086D01*
X51777139Y-55062218D01*
X51637782Y-54922861D01*
X51473914Y-54813368D01*
X51473915Y-54813368D01*
X51473913Y-54813367D01*
X51291835Y-54737949D01*
X51098543Y-54699500D01*
X51098541Y-54699500D01*
X50901459Y-54699500D01*
X50901456Y-54699500D01*
X50708165Y-54737949D01*
X50708163Y-54737949D01*
X50526086Y-54813367D01*
X50362218Y-54922861D01*
X50362214Y-54922864D01*
X50222864Y-55062214D01*
X50222861Y-55062218D01*
X50113367Y-55226086D01*
X50037949Y-55408163D01*
X50037949Y-55408165D01*
X49999500Y-55601456D01*
X48300500Y-55601456D01*
X48300500Y-54698982D01*
X60624500Y-54698982D01*
X60624500Y-54811018D01*
X60650072Y-54906455D01*
X60653498Y-54919241D01*
X60690543Y-54983403D01*
X60709515Y-55016263D01*
X60788737Y-55095485D01*
X60788739Y-55095486D01*
X60885759Y-55151501D01*
X60885757Y-55151501D01*
X60885761Y-55151502D01*
X60885763Y-55151503D01*
X60993982Y-55180500D01*
X60993984Y-55180500D01*
X61106016Y-55180500D01*
X61106018Y-55180500D01*
X61214237Y-55151503D01*
X61214239Y-55151501D01*
X61214241Y-55151501D01*
X61262783Y-55123475D01*
X61311263Y-55095485D01*
X61390485Y-55016263D01*
X61446503Y-54919237D01*
X61475500Y-54811018D01*
X61475500Y-54698982D01*
X61446503Y-54590763D01*
X61446501Y-54590760D01*
X61446501Y-54590758D01*
X61390486Y-54493739D01*
X61390485Y-54493737D01*
X61311263Y-54414515D01*
X61311260Y-54414513D01*
X61214240Y-54358498D01*
X61214242Y-54358498D01*
X61172251Y-54347247D01*
X61106018Y-54329500D01*
X60993982Y-54329500D01*
X60927748Y-54347247D01*
X60885758Y-54358498D01*
X60788739Y-54414513D01*
X60709513Y-54493739D01*
X60653498Y-54590758D01*
X60653497Y-54590763D01*
X60624500Y-54698982D01*
X48300500Y-54698982D01*
X48300500Y-54193982D01*
X58924500Y-54193982D01*
X58924500Y-54306018D01*
X58930792Y-54329500D01*
X58953498Y-54414241D01*
X59009513Y-54511260D01*
X59009515Y-54511263D01*
X59088737Y-54590485D01*
X59088739Y-54590486D01*
X59185759Y-54646501D01*
X59185757Y-54646501D01*
X59185761Y-54646502D01*
X59185763Y-54646503D01*
X59293982Y-54675500D01*
X59293984Y-54675500D01*
X59406016Y-54675500D01*
X59406018Y-54675500D01*
X59514237Y-54646503D01*
X59514239Y-54646501D01*
X59514241Y-54646501D01*
X59583070Y-54606762D01*
X59583079Y-54606757D01*
X59611263Y-54590485D01*
X59690485Y-54511263D01*
X59729859Y-54443064D01*
X59746501Y-54414241D01*
X59746501Y-54414239D01*
X59746503Y-54414237D01*
X59775500Y-54306018D01*
X59775500Y-54193982D01*
X59746503Y-54085763D01*
X59690485Y-53988737D01*
X59611263Y-53909515D01*
X59611260Y-53909513D01*
X59514240Y-53853498D01*
X59514242Y-53853498D01*
X59472251Y-53842247D01*
X59406018Y-53824500D01*
X59293982Y-53824500D01*
X59227748Y-53842247D01*
X59185758Y-53853498D01*
X59088739Y-53909513D01*
X59009513Y-53988739D01*
X58953498Y-54085758D01*
X58953497Y-54085763D01*
X58924500Y-54193982D01*
X48300500Y-54193982D01*
X48300500Y-53061456D01*
X49999500Y-53061456D01*
X49999500Y-53258543D01*
X50037949Y-53451834D01*
X50037949Y-53451836D01*
X50113367Y-53633913D01*
X50140485Y-53674497D01*
X50222861Y-53797782D01*
X50362218Y-53937139D01*
X50526086Y-54046632D01*
X50708165Y-54122051D01*
X50901459Y-54160500D01*
X50901460Y-54160500D01*
X51098540Y-54160500D01*
X51098541Y-54160500D01*
X51291835Y-54122051D01*
X51473914Y-54046632D01*
X51637782Y-53937139D01*
X51777139Y-53797782D01*
X51813087Y-53743982D01*
X59874500Y-53743982D01*
X59874500Y-53856018D01*
X59880014Y-53876596D01*
X59893020Y-53925138D01*
X59903497Y-53964237D01*
X59959515Y-54061263D01*
X60038737Y-54140485D01*
X60038739Y-54140486D01*
X60135759Y-54196501D01*
X60135757Y-54196501D01*
X60135761Y-54196502D01*
X60135763Y-54196503D01*
X60243982Y-54225500D01*
X60243984Y-54225500D01*
X60356016Y-54225500D01*
X60356018Y-54225500D01*
X60464237Y-54196503D01*
X60464239Y-54196501D01*
X60464241Y-54196501D01*
X60493839Y-54179412D01*
X60561263Y-54140485D01*
X60640485Y-54061263D01*
X60696503Y-53964237D01*
X60725500Y-53856018D01*
X60725500Y-53772710D01*
X60744407Y-53714519D01*
X60793907Y-53678555D01*
X60811590Y-53674555D01*
X60812001Y-53674500D01*
X60812018Y-53674500D01*
X60920237Y-53645503D01*
X60920240Y-53645501D01*
X60920241Y-53645501D01*
X60949064Y-53628859D01*
X61017263Y-53589485D01*
X61096485Y-53510263D01*
X61125504Y-53460000D01*
X65180868Y-53460000D01*
X65220587Y-53582246D01*
X65299195Y-53736524D01*
X65299197Y-53736528D01*
X65400962Y-53876596D01*
X65523403Y-53999037D01*
X65663471Y-54100802D01*
X65663475Y-54100804D01*
X65817753Y-54179412D01*
X65939999Y-54219131D01*
X65940000Y-54219131D01*
X65940000Y-53460001D01*
X65939999Y-53460000D01*
X65180868Y-53460000D01*
X61125504Y-53460000D01*
X61152503Y-53413237D01*
X61181500Y-53305018D01*
X61181500Y-53192982D01*
X61152503Y-53084763D01*
X61152501Y-53084760D01*
X61152501Y-53084758D01*
X61096486Y-52987739D01*
X61096485Y-52987737D01*
X61017263Y-52908515D01*
X60996458Y-52896503D01*
X60933232Y-52859999D01*
X65180868Y-52859999D01*
X65180868Y-52860000D01*
X65939999Y-52860000D01*
X65940000Y-52859999D01*
X65940000Y-52100867D01*
X65939999Y-52100867D01*
X65817755Y-52140587D01*
X65817743Y-52140592D01*
X65663475Y-52219195D01*
X65663471Y-52219197D01*
X65523403Y-52320962D01*
X65400962Y-52443403D01*
X65299197Y-52583471D01*
X65299195Y-52583475D01*
X65220587Y-52737753D01*
X65180868Y-52859999D01*
X60933232Y-52859999D01*
X60920240Y-52852498D01*
X60920242Y-52852498D01*
X60873299Y-52839920D01*
X60812018Y-52823500D01*
X60699982Y-52823500D01*
X60638701Y-52839920D01*
X60591758Y-52852498D01*
X60494739Y-52908513D01*
X60415514Y-52987738D01*
X60399277Y-53015860D01*
X60399272Y-53015870D01*
X60359497Y-53084763D01*
X60349034Y-53123811D01*
X60349031Y-53123818D01*
X60330500Y-53192982D01*
X60330500Y-53276289D01*
X60311593Y-53334480D01*
X60262093Y-53370444D01*
X60244424Y-53374442D01*
X60243984Y-53374499D01*
X60135758Y-53403498D01*
X60038739Y-53459513D01*
X59959513Y-53538739D01*
X59903498Y-53635758D01*
X59893103Y-53674555D01*
X59874500Y-53743982D01*
X51813087Y-53743982D01*
X51886632Y-53633914D01*
X51962051Y-53451835D01*
X52000500Y-53258541D01*
X52000500Y-53061459D01*
X51962051Y-52868165D01*
X51886632Y-52686086D01*
X51777139Y-52522218D01*
X51637782Y-52382861D01*
X51473914Y-52273368D01*
X51473915Y-52273368D01*
X51473913Y-52273367D01*
X51366696Y-52228957D01*
X51291835Y-52197949D01*
X51098543Y-52159500D01*
X51098541Y-52159500D01*
X50901459Y-52159500D01*
X50901456Y-52159500D01*
X50708165Y-52197949D01*
X50708163Y-52197949D01*
X50526086Y-52273367D01*
X50362218Y-52382861D01*
X50362214Y-52382864D01*
X50222864Y-52522214D01*
X50222861Y-52522218D01*
X50113367Y-52686086D01*
X50037949Y-52868163D01*
X50037949Y-52868165D01*
X49999500Y-53061456D01*
X48300500Y-53061456D01*
X48300500Y-52143982D01*
X52274500Y-52143982D01*
X52274500Y-52256018D01*
X52300072Y-52351455D01*
X52303498Y-52364241D01*
X52349538Y-52443983D01*
X52359515Y-52461263D01*
X52438737Y-52540485D01*
X52465641Y-52556018D01*
X52535759Y-52596501D01*
X52535757Y-52596501D01*
X52535761Y-52596502D01*
X52535763Y-52596503D01*
X52643982Y-52625500D01*
X52643984Y-52625500D01*
X52756015Y-52625500D01*
X52756018Y-52625500D01*
X52790994Y-52616128D01*
X52852093Y-52619330D01*
X52899643Y-52657835D01*
X52902351Y-52662254D01*
X52945941Y-52737753D01*
X52959515Y-52761263D01*
X53038737Y-52840485D01*
X53038739Y-52840486D01*
X53135759Y-52896501D01*
X53135757Y-52896501D01*
X53135761Y-52896502D01*
X53135763Y-52896503D01*
X53243982Y-52925500D01*
X53243984Y-52925500D01*
X53356016Y-52925500D01*
X53356018Y-52925500D01*
X53464237Y-52896503D01*
X53464239Y-52896501D01*
X53464241Y-52896501D01*
X53493064Y-52879859D01*
X53561263Y-52840485D01*
X53640485Y-52761263D01*
X53644111Y-52754982D01*
X59385500Y-52754982D01*
X59385500Y-52867018D01*
X59401170Y-52925500D01*
X59414498Y-52975241D01*
X59470513Y-53072260D01*
X59470515Y-53072263D01*
X59549737Y-53151485D01*
X59549739Y-53151486D01*
X59646759Y-53207501D01*
X59646757Y-53207501D01*
X59646761Y-53207502D01*
X59646763Y-53207503D01*
X59754982Y-53236500D01*
X59754984Y-53236500D01*
X59867016Y-53236500D01*
X59867018Y-53236500D01*
X59975237Y-53207503D01*
X59975239Y-53207501D01*
X59975241Y-53207501D01*
X60004064Y-53190859D01*
X60072263Y-53151485D01*
X60151485Y-53072263D01*
X60207503Y-52975237D01*
X60236500Y-52867018D01*
X60236500Y-52754982D01*
X60207503Y-52646763D01*
X60207501Y-52646760D01*
X60207501Y-52646758D01*
X60151486Y-52549739D01*
X60151485Y-52549737D01*
X60072263Y-52470515D01*
X60072260Y-52470513D01*
X59975240Y-52414498D01*
X59975242Y-52414498D01*
X59933251Y-52403247D01*
X59867018Y-52385500D01*
X59754982Y-52385500D01*
X59688748Y-52403247D01*
X59646758Y-52414498D01*
X59549739Y-52470513D01*
X59470513Y-52549739D01*
X59414498Y-52646758D01*
X59398286Y-52707263D01*
X59385500Y-52754982D01*
X53644111Y-52754982D01*
X53679859Y-52693064D01*
X53696501Y-52664241D01*
X53696501Y-52664239D01*
X53696503Y-52664237D01*
X53725500Y-52556018D01*
X53725500Y-52443982D01*
X53696503Y-52335763D01*
X53696501Y-52335760D01*
X53696501Y-52335758D01*
X53640486Y-52238739D01*
X53640485Y-52238737D01*
X53561263Y-52159515D01*
X53534361Y-52143983D01*
X53464240Y-52103498D01*
X53464242Y-52103498D01*
X53422251Y-52092247D01*
X53356018Y-52074500D01*
X53243982Y-52074500D01*
X53209005Y-52083872D01*
X53147904Y-52080669D01*
X53100354Y-52042164D01*
X53097646Y-52037745D01*
X53096504Y-52035767D01*
X53096503Y-52035763D01*
X53040485Y-51938737D01*
X52961263Y-51859515D01*
X52961260Y-51859513D01*
X52864240Y-51803498D01*
X52864242Y-51803498D01*
X52822251Y-51792247D01*
X52756018Y-51774500D01*
X52643982Y-51774500D01*
X52577748Y-51792247D01*
X52535758Y-51803498D01*
X52438739Y-51859513D01*
X52359513Y-51938739D01*
X52303498Y-52035758D01*
X52290606Y-52083872D01*
X52274500Y-52143982D01*
X48300500Y-52143982D01*
X48300500Y-51643982D01*
X55274500Y-51643982D01*
X55274500Y-51756018D01*
X55287222Y-51803497D01*
X55303498Y-51864241D01*
X55359513Y-51961260D01*
X55359515Y-51961263D01*
X55438737Y-52040485D01*
X55438739Y-52040486D01*
X55535759Y-52096501D01*
X55535757Y-52096501D01*
X55535761Y-52096502D01*
X55535763Y-52096503D01*
X55643982Y-52125500D01*
X55643984Y-52125500D01*
X55756016Y-52125500D01*
X55756018Y-52125500D01*
X55864237Y-52096503D01*
X55864239Y-52096501D01*
X55864241Y-52096501D01*
X55902347Y-52074500D01*
X55961263Y-52040485D01*
X56040485Y-51961263D01*
X56096503Y-51864237D01*
X56125500Y-51756018D01*
X56125500Y-51643982D01*
X56115087Y-51605120D01*
X56118289Y-51544022D01*
X56156794Y-51496472D01*
X56210714Y-51480500D01*
X56231750Y-51480500D01*
X56231752Y-51480500D01*
X56339971Y-51451503D01*
X56339973Y-51451501D01*
X56339975Y-51451501D01*
X56368798Y-51434859D01*
X56436997Y-51395485D01*
X56516219Y-51316263D01*
X56572237Y-51219237D01*
X56579004Y-51193982D01*
X61224500Y-51193982D01*
X61224500Y-51306018D01*
X61240822Y-51366932D01*
X61253498Y-51414241D01*
X61300975Y-51496472D01*
X61309515Y-51511263D01*
X61388737Y-51590485D01*
X61421079Y-51609157D01*
X61485759Y-51646501D01*
X61485757Y-51646501D01*
X61485761Y-51646502D01*
X61485763Y-51646503D01*
X61593982Y-51675500D01*
X61593984Y-51675500D01*
X61706016Y-51675500D01*
X61706018Y-51675500D01*
X61814237Y-51646503D01*
X61814239Y-51646501D01*
X61814241Y-51646501D01*
X61843064Y-51629859D01*
X61911263Y-51590485D01*
X61990485Y-51511263D01*
X62046503Y-51414237D01*
X62075500Y-51306018D01*
X62075500Y-51193982D01*
X62046503Y-51085763D01*
X62046501Y-51085760D01*
X62046501Y-51085758D01*
X61998806Y-51003150D01*
X61990485Y-50988737D01*
X61921748Y-50920000D01*
X65180868Y-50920000D01*
X65220587Y-51042246D01*
X65299195Y-51196524D01*
X65299197Y-51196528D01*
X65400962Y-51336596D01*
X65523403Y-51459037D01*
X65663471Y-51560802D01*
X65663475Y-51560804D01*
X65817753Y-51639412D01*
X65939999Y-51679131D01*
X65940000Y-51679131D01*
X65940000Y-50920001D01*
X65939999Y-50920000D01*
X65180868Y-50920000D01*
X61921748Y-50920000D01*
X61911263Y-50909515D01*
X61878784Y-50890763D01*
X61814240Y-50853498D01*
X61814242Y-50853498D01*
X61772251Y-50842247D01*
X61706018Y-50824500D01*
X61593982Y-50824500D01*
X61527748Y-50842247D01*
X61485758Y-50853498D01*
X61388739Y-50909513D01*
X61309513Y-50988739D01*
X61253498Y-51085758D01*
X61251313Y-51093913D01*
X61224500Y-51193982D01*
X56579004Y-51193982D01*
X56601234Y-51111018D01*
X56601234Y-51104514D01*
X56603930Y-51093199D01*
X56614104Y-51076530D01*
X56620141Y-51057953D01*
X56629672Y-51051028D01*
X56635809Y-51040975D01*
X56653837Y-51033470D01*
X56669641Y-51021989D01*
X56674584Y-51020525D01*
X56764237Y-50996503D01*
X56861263Y-50940485D01*
X56940485Y-50861263D01*
X56996503Y-50764237D01*
X57025500Y-50656018D01*
X57025500Y-50543982D01*
X57017770Y-50515133D01*
X57020971Y-50454033D01*
X57059476Y-50406482D01*
X57075515Y-50398044D01*
X57079227Y-50396505D01*
X57079237Y-50396503D01*
X57176263Y-50340485D01*
X57196749Y-50319999D01*
X65180868Y-50319999D01*
X65180868Y-50320000D01*
X65939999Y-50320000D01*
X65940000Y-50319999D01*
X65940000Y-49560867D01*
X65939999Y-49560867D01*
X65817755Y-49600587D01*
X65817743Y-49600592D01*
X65663475Y-49679195D01*
X65663471Y-49679197D01*
X65523403Y-49780962D01*
X65400962Y-49903403D01*
X65299197Y-50043471D01*
X65299195Y-50043475D01*
X65220587Y-50197753D01*
X65180868Y-50319999D01*
X57196749Y-50319999D01*
X57255485Y-50261263D01*
X57311503Y-50164237D01*
X57340500Y-50056018D01*
X57340500Y-49943982D01*
X57311503Y-49835763D01*
X57311501Y-49835760D01*
X57311501Y-49835758D01*
X57255486Y-49738739D01*
X57255485Y-49738737D01*
X57204040Y-49687292D01*
X57176265Y-49632778D01*
X57185836Y-49572346D01*
X57229101Y-49529081D01*
X57282286Y-49518635D01*
X57291112Y-49519372D01*
X57313982Y-49525500D01*
X57364478Y-49525500D01*
X57368597Y-49525844D01*
X57393177Y-49536163D01*
X57418548Y-49544407D01*
X57421065Y-49547872D01*
X57425012Y-49549529D01*
X57438832Y-49572325D01*
X57454512Y-49593907D01*
X57455980Y-49598865D01*
X57473497Y-49664237D01*
X57473498Y-49664239D01*
X57473499Y-49664242D01*
X57529513Y-49761260D01*
X57529515Y-49761263D01*
X57608737Y-49840485D01*
X57612858Y-49842864D01*
X57705759Y-49896501D01*
X57705757Y-49896501D01*
X57705761Y-49896502D01*
X57705763Y-49896503D01*
X57813982Y-49925500D01*
X57813984Y-49925500D01*
X57926016Y-49925500D01*
X57926018Y-49925500D01*
X58034237Y-49896503D01*
X58034239Y-49896501D01*
X58034241Y-49896501D01*
X58106361Y-49854862D01*
X58131263Y-49840485D01*
X58210485Y-49761263D01*
X58249859Y-49693064D01*
X58266501Y-49664241D01*
X58266501Y-49664239D01*
X58266503Y-49664237D01*
X58295500Y-49556018D01*
X58295500Y-49443982D01*
X58266503Y-49335763D01*
X58266501Y-49335760D01*
X58266501Y-49335758D01*
X58210486Y-49238739D01*
X58210485Y-49238737D01*
X58131263Y-49159515D01*
X58131260Y-49159513D01*
X58034240Y-49103498D01*
X58034242Y-49103498D01*
X57968052Y-49085763D01*
X57926018Y-49074500D01*
X57879643Y-49074500D01*
X57821452Y-49055593D01*
X57785488Y-49006093D01*
X57784016Y-49001124D01*
X57766503Y-48935763D01*
X57756846Y-48919037D01*
X57710486Y-48838739D01*
X57710485Y-48838737D01*
X57631263Y-48759515D01*
X57609313Y-48746842D01*
X57534240Y-48703498D01*
X57534242Y-48703498D01*
X57492251Y-48692247D01*
X57426018Y-48674500D01*
X57313982Y-48674500D01*
X57247748Y-48692247D01*
X57205758Y-48703498D01*
X57108736Y-48759515D01*
X57100902Y-48767349D01*
X57046384Y-48795125D01*
X56985952Y-48785551D01*
X56945164Y-48746842D01*
X56940486Y-48738739D01*
X56940485Y-48738737D01*
X56861263Y-48659515D01*
X56861260Y-48659513D01*
X56764240Y-48603498D01*
X56764242Y-48603498D01*
X56722251Y-48592247D01*
X56656018Y-48574500D01*
X56543982Y-48574500D01*
X56477748Y-48592247D01*
X56435758Y-48603498D01*
X56338739Y-48659513D01*
X56259513Y-48738739D01*
X56203498Y-48835758D01*
X56194270Y-48870197D01*
X56174500Y-48943982D01*
X56174500Y-49056018D01*
X56187222Y-49103497D01*
X56203498Y-49164241D01*
X56259513Y-49261260D01*
X56259515Y-49261263D01*
X56338737Y-49340485D01*
X56338739Y-49340486D01*
X56435759Y-49396501D01*
X56435757Y-49396501D01*
X56435761Y-49396502D01*
X56435763Y-49396503D01*
X56543982Y-49425500D01*
X56543984Y-49425500D01*
X56656017Y-49425500D01*
X56656018Y-49425500D01*
X56764237Y-49396503D01*
X56861263Y-49340485D01*
X56869094Y-49332653D01*
X56885372Y-49324358D01*
X56898971Y-49312153D01*
X56911965Y-49310807D01*
X56923607Y-49304875D01*
X56941655Y-49307733D01*
X56959831Y-49305851D01*
X56971136Y-49312401D01*
X56984040Y-49314445D01*
X56998744Y-49328398D01*
X57012772Y-49336526D01*
X57019669Y-49344210D01*
X57029515Y-49361263D01*
X57082847Y-49414595D01*
X57084627Y-49416578D01*
X57095998Y-49442226D01*
X57108734Y-49467221D01*
X57108298Y-49469967D01*
X57109427Y-49472512D01*
X57103550Y-49499948D01*
X57099163Y-49527653D01*
X57097195Y-49529620D01*
X57096613Y-49532341D01*
X57075735Y-49551080D01*
X57055898Y-49570918D01*
X57053149Y-49571353D01*
X57051080Y-49573211D01*
X57023175Y-49576100D01*
X56995466Y-49580489D01*
X56993119Y-49579212D01*
X56990220Y-49579513D01*
X56985332Y-49578335D01*
X56971020Y-49574500D01*
X56971018Y-49574500D01*
X56858982Y-49574500D01*
X56858979Y-49574500D01*
X56833460Y-49581337D01*
X56833363Y-49581364D01*
X56750763Y-49603497D01*
X56746216Y-49606121D01*
X56746209Y-49606124D01*
X56653739Y-49659513D01*
X56574513Y-49738739D01*
X56518498Y-49835758D01*
X56489500Y-49943983D01*
X56489500Y-50056017D01*
X56497230Y-50084867D01*
X56494027Y-50145968D01*
X56455522Y-50193518D01*
X56439492Y-50201952D01*
X56435759Y-50203498D01*
X56338739Y-50259513D01*
X56259513Y-50338739D01*
X56203498Y-50435758D01*
X56174499Y-50543984D01*
X56173653Y-50550416D01*
X56170863Y-50550048D01*
X56155593Y-50597046D01*
X56106093Y-50633010D01*
X56101123Y-50634482D01*
X56011492Y-50658498D01*
X55914473Y-50714513D01*
X55835247Y-50793739D01*
X55779232Y-50890758D01*
X55771397Y-50920000D01*
X55750234Y-50998982D01*
X55750234Y-51111018D01*
X55760646Y-51149879D01*
X55757445Y-51210978D01*
X55718940Y-51258528D01*
X55665020Y-51274500D01*
X55643982Y-51274500D01*
X55578779Y-51291971D01*
X55535758Y-51303498D01*
X55438739Y-51359513D01*
X55359513Y-51438739D01*
X55303498Y-51535758D01*
X55291094Y-51582051D01*
X55274500Y-51643982D01*
X48300500Y-51643982D01*
X48300500Y-50521456D01*
X49999500Y-50521456D01*
X49999500Y-50718543D01*
X50014458Y-50793739D01*
X50033757Y-50890763D01*
X50037949Y-50911834D01*
X50037949Y-50911836D01*
X50113367Y-51093913D01*
X50149699Y-51148288D01*
X50222861Y-51257782D01*
X50362218Y-51397139D01*
X50526086Y-51506632D01*
X50708165Y-51582051D01*
X50901459Y-51620500D01*
X50901460Y-51620500D01*
X51098540Y-51620500D01*
X51098541Y-51620500D01*
X51291835Y-51582051D01*
X51355509Y-51555676D01*
X51378801Y-51546029D01*
X51411228Y-51532596D01*
X51473914Y-51506632D01*
X51637782Y-51397139D01*
X51777139Y-51257782D01*
X51886632Y-51093914D01*
X51962051Y-50911835D01*
X52000500Y-50718541D01*
X52000500Y-50521459D01*
X51962051Y-50328165D01*
X51886632Y-50146086D01*
X51777139Y-49982218D01*
X51637782Y-49842861D01*
X51515657Y-49761260D01*
X51473913Y-49733367D01*
X51291835Y-49657949D01*
X51098543Y-49619500D01*
X51098541Y-49619500D01*
X50901459Y-49619500D01*
X50901456Y-49619500D01*
X50708165Y-49657949D01*
X50708163Y-49657949D01*
X50526086Y-49733367D01*
X50362218Y-49842861D01*
X50362214Y-49842864D01*
X50222864Y-49982214D01*
X50222861Y-49982218D01*
X50113367Y-50146086D01*
X50037949Y-50328163D01*
X50037949Y-50328165D01*
X49999500Y-50521456D01*
X48300500Y-50521456D01*
X48300500Y-49193982D01*
X55118433Y-49193982D01*
X55118433Y-49306018D01*
X55127669Y-49340486D01*
X55147431Y-49414241D01*
X55194926Y-49496503D01*
X55203448Y-49511263D01*
X55282670Y-49590485D01*
X55309758Y-49606124D01*
X55379692Y-49646501D01*
X55379690Y-49646501D01*
X55379694Y-49646502D01*
X55379696Y-49646503D01*
X55487915Y-49675500D01*
X55487917Y-49675500D01*
X55599949Y-49675500D01*
X55599951Y-49675500D01*
X55708170Y-49646503D01*
X55708172Y-49646501D01*
X55708174Y-49646501D01*
X55736997Y-49629859D01*
X55805196Y-49590485D01*
X55884418Y-49511263D01*
X55933934Y-49425499D01*
X55940434Y-49414241D01*
X55940434Y-49414239D01*
X55940436Y-49414237D01*
X55969433Y-49306018D01*
X55969433Y-49193982D01*
X55940436Y-49085763D01*
X55940434Y-49085760D01*
X55940434Y-49085758D01*
X55884419Y-48988739D01*
X55884418Y-48988737D01*
X55805196Y-48909515D01*
X55805193Y-48909513D01*
X55708173Y-48853498D01*
X55708175Y-48853498D01*
X55653092Y-48838739D01*
X55599951Y-48824500D01*
X55487915Y-48824500D01*
X55434774Y-48838739D01*
X55379691Y-48853498D01*
X55282672Y-48909513D01*
X55203446Y-48988739D01*
X55147431Y-49085758D01*
X55147430Y-49085763D01*
X55118433Y-49193982D01*
X48300500Y-49193982D01*
X48300500Y-47981456D01*
X49999500Y-47981456D01*
X49999500Y-48178543D01*
X50003073Y-48196503D01*
X50034802Y-48356016D01*
X50037949Y-48371834D01*
X50037949Y-48371836D01*
X50113367Y-48553913D01*
X50118278Y-48561263D01*
X50222861Y-48717782D01*
X50362218Y-48857139D01*
X50526086Y-48966632D01*
X50708165Y-49042051D01*
X50901459Y-49080500D01*
X50901460Y-49080500D01*
X51098540Y-49080500D01*
X51098541Y-49080500D01*
X51291835Y-49042051D01*
X51473914Y-48966632D01*
X51637782Y-48857139D01*
X51777139Y-48717782D01*
X51886632Y-48553914D01*
X51890746Y-48543981D01*
X53774500Y-48543981D01*
X53774500Y-48656017D01*
X53791050Y-48717781D01*
X53803498Y-48764240D01*
X53859513Y-48861259D01*
X53859515Y-48861262D01*
X53938737Y-48940484D01*
X53971079Y-48959156D01*
X54035759Y-48996500D01*
X54035757Y-48996500D01*
X54035761Y-48996501D01*
X54035763Y-48996502D01*
X54143982Y-49025499D01*
X54143984Y-49025499D01*
X54256016Y-49025499D01*
X54256018Y-49025499D01*
X54364237Y-48996502D01*
X54364239Y-48996500D01*
X54364241Y-48996500D01*
X54415973Y-48966632D01*
X54461263Y-48940484D01*
X54540485Y-48861262D01*
X54596503Y-48764236D01*
X54625500Y-48656017D01*
X54625500Y-48543981D01*
X54596503Y-48435762D01*
X54596501Y-48435759D01*
X54596501Y-48435757D01*
X54540486Y-48338738D01*
X54540485Y-48338736D01*
X54461263Y-48259514D01*
X54434361Y-48243982D01*
X54364240Y-48203497D01*
X54364242Y-48203497D01*
X54322251Y-48192246D01*
X54256018Y-48174499D01*
X54143982Y-48174499D01*
X54077748Y-48192246D01*
X54035758Y-48203497D01*
X53938739Y-48259512D01*
X53859513Y-48338738D01*
X53803498Y-48435757D01*
X53787286Y-48496262D01*
X53774500Y-48543981D01*
X51890746Y-48543981D01*
X51918263Y-48477551D01*
X51932973Y-48442035D01*
X51962051Y-48371835D01*
X52000500Y-48178541D01*
X52000500Y-47981459D01*
X51962051Y-47788165D01*
X51943750Y-47743982D01*
X62597500Y-47743982D01*
X62597500Y-47856018D01*
X62610222Y-47903497D01*
X62626498Y-47964241D01*
X62682513Y-48061260D01*
X62682515Y-48061263D01*
X62761737Y-48140485D01*
X62761739Y-48140486D01*
X62858759Y-48196501D01*
X62858757Y-48196501D01*
X62858761Y-48196502D01*
X62858763Y-48196503D01*
X62966982Y-48225500D01*
X62966984Y-48225500D01*
X63079016Y-48225500D01*
X63079018Y-48225500D01*
X63187237Y-48196503D01*
X63187239Y-48196501D01*
X63187241Y-48196501D01*
X63225349Y-48174499D01*
X63284263Y-48140485D01*
X63363485Y-48061263D01*
X63409562Y-47981456D01*
X63419501Y-47964241D01*
X63419501Y-47964239D01*
X63419503Y-47964237D01*
X63448500Y-47856018D01*
X63448500Y-47743982D01*
X63419503Y-47635763D01*
X63419501Y-47635760D01*
X63419501Y-47635758D01*
X63363486Y-47538739D01*
X63363485Y-47538737D01*
X63284263Y-47459515D01*
X63254304Y-47442218D01*
X63187240Y-47403498D01*
X63187242Y-47403498D01*
X63145251Y-47392247D01*
X63079018Y-47374500D01*
X62966982Y-47374500D01*
X62900748Y-47392247D01*
X62858758Y-47403498D01*
X62761739Y-47459513D01*
X62682513Y-47538739D01*
X62626498Y-47635758D01*
X62626497Y-47635763D01*
X62597500Y-47743982D01*
X51943750Y-47743982D01*
X51886632Y-47606086D01*
X51777139Y-47442218D01*
X51637782Y-47302861D01*
X51473914Y-47193368D01*
X51473915Y-47193368D01*
X51473913Y-47193367D01*
X51291835Y-47117949D01*
X51098543Y-47079500D01*
X51098541Y-47079500D01*
X50901459Y-47079500D01*
X50901456Y-47079500D01*
X50708165Y-47117949D01*
X50708163Y-47117949D01*
X50526086Y-47193367D01*
X50362218Y-47302861D01*
X50362214Y-47302864D01*
X50222864Y-47442214D01*
X50222861Y-47442218D01*
X50113367Y-47606086D01*
X50037949Y-47788163D01*
X50037949Y-47788165D01*
X49999500Y-47981456D01*
X48300500Y-47981456D01*
X48300500Y-45441456D01*
X49999500Y-45441456D01*
X49999500Y-45638543D01*
X50037949Y-45831834D01*
X50037949Y-45831836D01*
X50113367Y-46013913D01*
X50113368Y-46013914D01*
X50222861Y-46177782D01*
X50362218Y-46317139D01*
X50526086Y-46426632D01*
X50708165Y-46502051D01*
X50901459Y-46540500D01*
X50901460Y-46540500D01*
X51098540Y-46540500D01*
X51098541Y-46540500D01*
X51291835Y-46502051D01*
X51473914Y-46426632D01*
X51597609Y-46343982D01*
X53774500Y-46343982D01*
X53774500Y-46456018D01*
X53797137Y-46540500D01*
X53803498Y-46564241D01*
X53859513Y-46661260D01*
X53859515Y-46661263D01*
X53938737Y-46740485D01*
X53938739Y-46740486D01*
X54035759Y-46796501D01*
X54035757Y-46796501D01*
X54035761Y-46796502D01*
X54035763Y-46796503D01*
X54143982Y-46825500D01*
X54143984Y-46825500D01*
X54256016Y-46825500D01*
X54256018Y-46825500D01*
X54364237Y-46796503D01*
X54364239Y-46796501D01*
X54364241Y-46796501D01*
X54393064Y-46779859D01*
X54455206Y-46743982D01*
X61924500Y-46743982D01*
X61924500Y-46856018D01*
X61950072Y-46951455D01*
X61953498Y-46964241D01*
X62009513Y-47061260D01*
X62009515Y-47061263D01*
X62088737Y-47140485D01*
X62088739Y-47140486D01*
X62185759Y-47196501D01*
X62185757Y-47196501D01*
X62185761Y-47196502D01*
X62185763Y-47196503D01*
X62293982Y-47225500D01*
X62293984Y-47225500D01*
X62406016Y-47225500D01*
X62406018Y-47225500D01*
X62514237Y-47196503D01*
X62514239Y-47196501D01*
X62514241Y-47196501D01*
X62543064Y-47179859D01*
X62611263Y-47140485D01*
X62690485Y-47061263D01*
X62746503Y-46964237D01*
X62775500Y-46856018D01*
X62775500Y-46743982D01*
X62746503Y-46635763D01*
X62709553Y-46571765D01*
X62696832Y-46511917D01*
X62721718Y-46456022D01*
X62774706Y-46425429D01*
X62820911Y-46426638D01*
X62853982Y-46435500D01*
X62853983Y-46435500D01*
X62966016Y-46435500D01*
X62966018Y-46435500D01*
X63074237Y-46406503D01*
X63074239Y-46406501D01*
X63074241Y-46406501D01*
X63121809Y-46379037D01*
X63171263Y-46350485D01*
X63250485Y-46271263D01*
X63304455Y-46177785D01*
X63306501Y-46174241D01*
X63306501Y-46174239D01*
X63306503Y-46174237D01*
X63335500Y-46066018D01*
X63335500Y-45953982D01*
X63306503Y-45845763D01*
X63306501Y-45845760D01*
X63306501Y-45845758D01*
X63303177Y-45840000D01*
X65180868Y-45840000D01*
X65220587Y-45962246D01*
X65299195Y-46116524D01*
X65299197Y-46116528D01*
X65400962Y-46256596D01*
X65523403Y-46379037D01*
X65663471Y-46480802D01*
X65663475Y-46480804D01*
X65817753Y-46559412D01*
X65939999Y-46599131D01*
X65940000Y-46599131D01*
X65940000Y-45840001D01*
X65939999Y-45840000D01*
X65180868Y-45840000D01*
X63303177Y-45840000D01*
X63250486Y-45748739D01*
X63250485Y-45748737D01*
X63171263Y-45669515D01*
X63171260Y-45669513D01*
X63074240Y-45613498D01*
X63074242Y-45613498D01*
X63032251Y-45602247D01*
X62966018Y-45584500D01*
X62853982Y-45584500D01*
X62787748Y-45602247D01*
X62745758Y-45613498D01*
X62648739Y-45669513D01*
X62569513Y-45748739D01*
X62513498Y-45845758D01*
X62499849Y-45896699D01*
X62484500Y-45953982D01*
X62484500Y-46066018D01*
X62510072Y-46161455D01*
X62513498Y-46174241D01*
X62550445Y-46238234D01*
X62563167Y-46298082D01*
X62538280Y-46353978D01*
X62485292Y-46384571D01*
X62439088Y-46383361D01*
X62406018Y-46374500D01*
X62293982Y-46374500D01*
X62227748Y-46392247D01*
X62185758Y-46403498D01*
X62088739Y-46459513D01*
X62009513Y-46538739D01*
X61953498Y-46635758D01*
X61953497Y-46635763D01*
X61924500Y-46743982D01*
X54455206Y-46743982D01*
X54461263Y-46740485D01*
X54540485Y-46661263D01*
X54596503Y-46564237D01*
X54625500Y-46456018D01*
X54625500Y-46343982D01*
X54596503Y-46235763D01*
X54596501Y-46235760D01*
X54596501Y-46235758D01*
X54540486Y-46138739D01*
X54540485Y-46138737D01*
X54461263Y-46059515D01*
X54461260Y-46059513D01*
X54364240Y-46003498D01*
X54364242Y-46003498D01*
X54322251Y-45992247D01*
X54256018Y-45974500D01*
X54143982Y-45974500D01*
X54077748Y-45992247D01*
X54035758Y-46003498D01*
X53938739Y-46059513D01*
X53859513Y-46138739D01*
X53803498Y-46235758D01*
X53803497Y-46235763D01*
X53774500Y-46343982D01*
X51597609Y-46343982D01*
X51637782Y-46317139D01*
X51777139Y-46177782D01*
X51886632Y-46013914D01*
X51962051Y-45831835D01*
X52000500Y-45638541D01*
X52000500Y-45493982D01*
X55624500Y-45493982D01*
X55624500Y-45606018D01*
X55633215Y-45638543D01*
X55653498Y-45714241D01*
X55709513Y-45811260D01*
X55709515Y-45811263D01*
X55788737Y-45890485D01*
X55788739Y-45890486D01*
X55885759Y-45946501D01*
X55885757Y-45946501D01*
X55885761Y-45946502D01*
X55885763Y-45946503D01*
X55993982Y-45975500D01*
X55993984Y-45975500D01*
X56106016Y-45975500D01*
X56106018Y-45975500D01*
X56214237Y-45946503D01*
X56300500Y-45896698D01*
X56360348Y-45883977D01*
X56399498Y-45896698D01*
X56485763Y-45946503D01*
X56593982Y-45975500D01*
X56593984Y-45975500D01*
X56706016Y-45975500D01*
X56706018Y-45975500D01*
X56814237Y-45946503D01*
X56814239Y-45946501D01*
X56814241Y-45946501D01*
X56872714Y-45912741D01*
X56911263Y-45890485D01*
X56990485Y-45811263D01*
X57046503Y-45714237D01*
X57075500Y-45606018D01*
X57075500Y-45493982D01*
X57046503Y-45385763D01*
X57046501Y-45385760D01*
X57046501Y-45385758D01*
X56990486Y-45288739D01*
X56990485Y-45288737D01*
X56911263Y-45209515D01*
X56911260Y-45209513D01*
X56814240Y-45153498D01*
X56814242Y-45153498D01*
X56763865Y-45140000D01*
X56706018Y-45124500D01*
X56593982Y-45124500D01*
X56539872Y-45138998D01*
X56485761Y-45153497D01*
X56399500Y-45203301D01*
X56339652Y-45216022D01*
X56300500Y-45203301D01*
X56214238Y-45153497D01*
X56163865Y-45140000D01*
X56106018Y-45124500D01*
X55993982Y-45124500D01*
X55936135Y-45140000D01*
X55885758Y-45153498D01*
X55788739Y-45209513D01*
X55709513Y-45288739D01*
X55653498Y-45385758D01*
X55653497Y-45385763D01*
X55624500Y-45493982D01*
X52000500Y-45493982D01*
X52000500Y-45441459D01*
X51962051Y-45248165D01*
X51886632Y-45066086D01*
X51777139Y-44902218D01*
X51668903Y-44793982D01*
X62474500Y-44793982D01*
X62474500Y-44906018D01*
X62500072Y-45001455D01*
X62503498Y-45014241D01*
X62559513Y-45111260D01*
X62559515Y-45111263D01*
X62638737Y-45190485D01*
X62638739Y-45190486D01*
X62735759Y-45246501D01*
X62735757Y-45246501D01*
X62735761Y-45246502D01*
X62735763Y-45246503D01*
X62843982Y-45275500D01*
X62843984Y-45275500D01*
X62956016Y-45275500D01*
X62956018Y-45275500D01*
X63064237Y-45246503D01*
X63064239Y-45246501D01*
X63064241Y-45246501D01*
X63075503Y-45239999D01*
X65180868Y-45239999D01*
X65180868Y-45240000D01*
X65939999Y-45240000D01*
X65940000Y-45239999D01*
X65940000Y-44480867D01*
X65939999Y-44480867D01*
X65817755Y-44520587D01*
X65817743Y-44520592D01*
X65663475Y-44599195D01*
X65663471Y-44599197D01*
X65523403Y-44700962D01*
X65400962Y-44823403D01*
X65299197Y-44963471D01*
X65299195Y-44963475D01*
X65220587Y-45117753D01*
X65180868Y-45239999D01*
X63075503Y-45239999D01*
X63110280Y-45219920D01*
X63161263Y-45190485D01*
X63240485Y-45111263D01*
X63296503Y-45014237D01*
X63325500Y-44906018D01*
X63325500Y-44793982D01*
X63312079Y-44743894D01*
X63315280Y-44682795D01*
X63353785Y-44635244D01*
X63412885Y-44619408D01*
X63433326Y-44622644D01*
X63443982Y-44625500D01*
X63443983Y-44625500D01*
X63556016Y-44625500D01*
X63556018Y-44625500D01*
X63664237Y-44596503D01*
X63664239Y-44596501D01*
X63664241Y-44596501D01*
X63696373Y-44577949D01*
X63761263Y-44540485D01*
X63840485Y-44461263D01*
X63879859Y-44393064D01*
X63896501Y-44364241D01*
X63896501Y-44364239D01*
X63896503Y-44364237D01*
X63925500Y-44256018D01*
X63925500Y-44143982D01*
X63912079Y-44093894D01*
X63915280Y-44032795D01*
X63953785Y-43985244D01*
X64012885Y-43969408D01*
X64033326Y-43972644D01*
X64043982Y-43975500D01*
X64043983Y-43975500D01*
X64156016Y-43975500D01*
X64156018Y-43975500D01*
X64264237Y-43946503D01*
X64264239Y-43946501D01*
X64264241Y-43946501D01*
X64293064Y-43929859D01*
X64361263Y-43890485D01*
X64440485Y-43811263D01*
X64483152Y-43737361D01*
X64496501Y-43714241D01*
X64496501Y-43714239D01*
X64496503Y-43714237D01*
X64525500Y-43606018D01*
X64525500Y-43493982D01*
X64496503Y-43385763D01*
X64446988Y-43300000D01*
X65180868Y-43300000D01*
X65220587Y-43422246D01*
X65299195Y-43576524D01*
X65299197Y-43576528D01*
X65400962Y-43716596D01*
X65523403Y-43839037D01*
X65663471Y-43940802D01*
X65663475Y-43940804D01*
X65817753Y-44019412D01*
X65939999Y-44059131D01*
X65940000Y-44059131D01*
X65940000Y-43300001D01*
X65939999Y-43300000D01*
X65180868Y-43300000D01*
X64446988Y-43300000D01*
X64440485Y-43288737D01*
X64361263Y-43209515D01*
X64361260Y-43209513D01*
X64264240Y-43153498D01*
X64264242Y-43153498D01*
X64222251Y-43142247D01*
X64156018Y-43124500D01*
X64043982Y-43124500D01*
X63977748Y-43142247D01*
X63935758Y-43153498D01*
X63838739Y-43209513D01*
X63759513Y-43288739D01*
X63703498Y-43385758D01*
X63703497Y-43385763D01*
X63674500Y-43493982D01*
X63674500Y-43606018D01*
X63687920Y-43656105D01*
X63684718Y-43717205D01*
X63646213Y-43764755D01*
X63587113Y-43780591D01*
X63566676Y-43777355D01*
X63556020Y-43774500D01*
X63556018Y-43774500D01*
X63443982Y-43774500D01*
X63385400Y-43790197D01*
X63335758Y-43803498D01*
X63238739Y-43859513D01*
X63159513Y-43938739D01*
X63103498Y-44035758D01*
X63087920Y-44093896D01*
X63074500Y-44143982D01*
X63074500Y-44256018D01*
X63087920Y-44306105D01*
X63084718Y-44367205D01*
X63046213Y-44414755D01*
X62987113Y-44430591D01*
X62966676Y-44427355D01*
X62956020Y-44424500D01*
X62956018Y-44424500D01*
X62843982Y-44424500D01*
X62777748Y-44442247D01*
X62735758Y-44453498D01*
X62638739Y-44509513D01*
X62559513Y-44588739D01*
X62503498Y-44685758D01*
X62487920Y-44743896D01*
X62474500Y-44793982D01*
X51668903Y-44793982D01*
X51637782Y-44762861D01*
X51473914Y-44653368D01*
X51473915Y-44653368D01*
X51473913Y-44653367D01*
X51291835Y-44577949D01*
X51098543Y-44539500D01*
X51098541Y-44539500D01*
X50901459Y-44539500D01*
X50901456Y-44539500D01*
X50708165Y-44577949D01*
X50708163Y-44577949D01*
X50526086Y-44653367D01*
X50362218Y-44762861D01*
X50362214Y-44762864D01*
X50222864Y-44902214D01*
X50222861Y-44902218D01*
X50113367Y-45066086D01*
X50037949Y-45248163D01*
X50037949Y-45248165D01*
X49999500Y-45441456D01*
X48300500Y-45441456D01*
X48300500Y-42180253D01*
X49999500Y-42180253D01*
X49999500Y-43819746D01*
X49999501Y-43819758D01*
X50011132Y-43878227D01*
X50011134Y-43878233D01*
X50055445Y-43944548D01*
X50055448Y-43944552D01*
X50121769Y-43988867D01*
X50166231Y-43997711D01*
X50180241Y-44000498D01*
X50180246Y-44000498D01*
X50180252Y-44000500D01*
X50180253Y-44000500D01*
X51819747Y-44000500D01*
X51819748Y-44000500D01*
X51878231Y-43988867D01*
X51944552Y-43944552D01*
X51988867Y-43878231D01*
X52000500Y-43819748D01*
X52000500Y-42830361D01*
X53760879Y-42830361D01*
X53760879Y-42942397D01*
X53786451Y-43037834D01*
X53789877Y-43050620D01*
X53845892Y-43147639D01*
X53845894Y-43147642D01*
X53925116Y-43226864D01*
X53925118Y-43226865D01*
X54022138Y-43282880D01*
X54022136Y-43282880D01*
X54022140Y-43282881D01*
X54022142Y-43282882D01*
X54130361Y-43311879D01*
X54130363Y-43311879D01*
X54242395Y-43311879D01*
X54242397Y-43311879D01*
X54350616Y-43282882D01*
X54350618Y-43282880D01*
X54350620Y-43282880D01*
X54379443Y-43266238D01*
X54447642Y-43226864D01*
X54526864Y-43147642D01*
X54566238Y-43079443D01*
X54582880Y-43050620D01*
X54582880Y-43050618D01*
X54582882Y-43050616D01*
X54611879Y-42942397D01*
X54611879Y-42830361D01*
X54588472Y-42743004D01*
X54588472Y-42743002D01*
X54582882Y-42722142D01*
X54582880Y-42722138D01*
X54570098Y-42699999D01*
X65180868Y-42699999D01*
X65180868Y-42700000D01*
X65939999Y-42700000D01*
X65940000Y-42699999D01*
X65940000Y-41940867D01*
X65939999Y-41940867D01*
X65817755Y-41980587D01*
X65817743Y-41980592D01*
X65663475Y-42059195D01*
X65663471Y-42059197D01*
X65523403Y-42160962D01*
X65400962Y-42283403D01*
X65299197Y-42423471D01*
X65299195Y-42423475D01*
X65220587Y-42577753D01*
X65180868Y-42699999D01*
X54570098Y-42699999D01*
X54526865Y-42625118D01*
X54526864Y-42625116D01*
X54447642Y-42545894D01*
X54447639Y-42545892D01*
X54350619Y-42489877D01*
X54350621Y-42489877D01*
X54308630Y-42478626D01*
X54242397Y-42460879D01*
X54130361Y-42460879D01*
X54064127Y-42478626D01*
X54022137Y-42489877D01*
X53925118Y-42545892D01*
X53845892Y-42625118D01*
X53789877Y-42722137D01*
X53784286Y-42743005D01*
X53760879Y-42830361D01*
X52000500Y-42830361D01*
X52000500Y-42180252D01*
X51988867Y-42121769D01*
X51944552Y-42055448D01*
X51944548Y-42055445D01*
X51878233Y-42011134D01*
X51878231Y-42011133D01*
X51878228Y-42011132D01*
X51878227Y-42011132D01*
X51819758Y-41999501D01*
X51819748Y-41999500D01*
X50180252Y-41999500D01*
X50180251Y-41999500D01*
X50180241Y-41999501D01*
X50121772Y-42011132D01*
X50121766Y-42011134D01*
X50055451Y-42055445D01*
X50055445Y-42055451D01*
X50011134Y-42121766D01*
X50011132Y-42121772D01*
X49999501Y-42180241D01*
X49999500Y-42180253D01*
X48300500Y-42180253D01*
X48300500Y-41743982D01*
X53638121Y-41743982D01*
X53638121Y-41856018D01*
X53654357Y-41916612D01*
X53667119Y-41964241D01*
X53719780Y-42055451D01*
X53723136Y-42061263D01*
X53802358Y-42140485D01*
X53802360Y-42140486D01*
X53899380Y-42196501D01*
X53899378Y-42196501D01*
X53899382Y-42196502D01*
X53899384Y-42196503D01*
X54007603Y-42225500D01*
X54007605Y-42225500D01*
X54119637Y-42225500D01*
X54119639Y-42225500D01*
X54227858Y-42196503D01*
X54227860Y-42196501D01*
X54227862Y-42196501D01*
X54330504Y-42137241D01*
X54331770Y-42139434D01*
X54379177Y-42122625D01*
X54432458Y-42138383D01*
X54433118Y-42137241D01*
X54535759Y-42196501D01*
X54535757Y-42196501D01*
X54535761Y-42196502D01*
X54535763Y-42196503D01*
X54643982Y-42225500D01*
X54643984Y-42225500D01*
X54756016Y-42225500D01*
X54756018Y-42225500D01*
X54864237Y-42196503D01*
X54864239Y-42196501D01*
X54864241Y-42196501D01*
X54893064Y-42179859D01*
X54961263Y-42140485D01*
X55040485Y-42061263D01*
X55079859Y-41993064D01*
X55096501Y-41964241D01*
X55096501Y-41964239D01*
X55096503Y-41964237D01*
X55125500Y-41856018D01*
X55125500Y-41743982D01*
X55096503Y-41635763D01*
X55096501Y-41635760D01*
X55096501Y-41635758D01*
X55040486Y-41538739D01*
X55040485Y-41538737D01*
X54961263Y-41459515D01*
X54961260Y-41459513D01*
X54864240Y-41403498D01*
X54864242Y-41403498D01*
X54822251Y-41392247D01*
X54756018Y-41374500D01*
X54643982Y-41374500D01*
X54577748Y-41392247D01*
X54535758Y-41403498D01*
X54433118Y-41462759D01*
X54431859Y-41460579D01*
X54384356Y-41477376D01*
X54331174Y-41461596D01*
X54330503Y-41462759D01*
X54227861Y-41403498D01*
X54227863Y-41403498D01*
X54185872Y-41392247D01*
X54119639Y-41374500D01*
X54007603Y-41374500D01*
X53941369Y-41392247D01*
X53899379Y-41403498D01*
X53802360Y-41459513D01*
X53723134Y-41538739D01*
X53667119Y-41635758D01*
X53667118Y-41635763D01*
X53638121Y-41743982D01*
X48300500Y-41743982D01*
X48300500Y-41231467D01*
X56004200Y-41231467D01*
X56004200Y-41368532D01*
X56030939Y-41502956D01*
X56030939Y-41502958D01*
X56083387Y-41629580D01*
X56083393Y-41629591D01*
X56129202Y-41698148D01*
X56159537Y-41743547D01*
X56256453Y-41840463D01*
X56324394Y-41885860D01*
X56370408Y-41916606D01*
X56370419Y-41916612D01*
X56417193Y-41935986D01*
X56497043Y-41969061D01*
X56631470Y-41995800D01*
X56631471Y-41995800D01*
X56768529Y-41995800D01*
X56768530Y-41995800D01*
X56902957Y-41969061D01*
X57029585Y-41916610D01*
X57143547Y-41840463D01*
X57240463Y-41743547D01*
X57316610Y-41629585D01*
X57369061Y-41502957D01*
X57395800Y-41368530D01*
X57395800Y-41231470D01*
X57369061Y-41097043D01*
X57351577Y-41054833D01*
X57316612Y-40970419D01*
X57316606Y-40970408D01*
X57269969Y-40900612D01*
X57240463Y-40856453D01*
X57143547Y-40759537D01*
X57095669Y-40727546D01*
X57029591Y-40683393D01*
X57029580Y-40683387D01*
X56902957Y-40630939D01*
X56768532Y-40604200D01*
X56768530Y-40604200D01*
X56631470Y-40604200D01*
X56631467Y-40604200D01*
X56497043Y-40630939D01*
X56497041Y-40630939D01*
X56370419Y-40683387D01*
X56370408Y-40683393D01*
X56256453Y-40759537D01*
X56256449Y-40759540D01*
X56159540Y-40856449D01*
X56159537Y-40856453D01*
X56083393Y-40970408D01*
X56083387Y-40970419D01*
X56030939Y-41097041D01*
X56030939Y-41097043D01*
X56004200Y-41231467D01*
X48300500Y-41231467D01*
X48300500Y-40215467D01*
X50924200Y-40215467D01*
X50924200Y-40352532D01*
X50950939Y-40486956D01*
X50950939Y-40486958D01*
X51003387Y-40613580D01*
X51003393Y-40613591D01*
X51049202Y-40682148D01*
X51079537Y-40727547D01*
X51176453Y-40824463D01*
X51244394Y-40869860D01*
X51290408Y-40900606D01*
X51290419Y-40900612D01*
X51337193Y-40919986D01*
X51417043Y-40953061D01*
X51551470Y-40979800D01*
X51551471Y-40979800D01*
X51688529Y-40979800D01*
X51688530Y-40979800D01*
X51822957Y-40953061D01*
X51949585Y-40900610D01*
X52063547Y-40824463D01*
X52160463Y-40727547D01*
X52236610Y-40613585D01*
X52289061Y-40486957D01*
X52315800Y-40352530D01*
X52315800Y-40215470D01*
X52289061Y-40081043D01*
X52271577Y-40038833D01*
X52236612Y-39954419D01*
X52236606Y-39954408D01*
X52189969Y-39884612D01*
X52160463Y-39840453D01*
X52063547Y-39743537D01*
X52015669Y-39711546D01*
X51949591Y-39667393D01*
X51949580Y-39667387D01*
X51822957Y-39614939D01*
X51688532Y-39588200D01*
X51688530Y-39588200D01*
X51551470Y-39588200D01*
X51551467Y-39588200D01*
X51417043Y-39614939D01*
X51417041Y-39614939D01*
X51290419Y-39667387D01*
X51290408Y-39667393D01*
X51176453Y-39743537D01*
X51176449Y-39743540D01*
X51079540Y-39840449D01*
X51079537Y-39840453D01*
X51003393Y-39954408D01*
X51003387Y-39954419D01*
X50950939Y-40081041D01*
X50950939Y-40081043D01*
X50924200Y-40215467D01*
X48300500Y-40215467D01*
X48300500Y-39199467D01*
X56004200Y-39199467D01*
X56004200Y-39336532D01*
X56030939Y-39470956D01*
X56030939Y-39470958D01*
X56083387Y-39597580D01*
X56083393Y-39597591D01*
X56129202Y-39666148D01*
X56159537Y-39711547D01*
X56256453Y-39808463D01*
X56324394Y-39853860D01*
X56370408Y-39884606D01*
X56370419Y-39884612D01*
X56417193Y-39903986D01*
X56497043Y-39937061D01*
X56631470Y-39963800D01*
X56631471Y-39963800D01*
X56768529Y-39963800D01*
X56768530Y-39963800D01*
X56902957Y-39937061D01*
X57029585Y-39884610D01*
X57143547Y-39808463D01*
X57240463Y-39711547D01*
X57316610Y-39597585D01*
X57369061Y-39470957D01*
X57395800Y-39336530D01*
X57395800Y-39199470D01*
X57369061Y-39065043D01*
X57316610Y-38938415D01*
X57316609Y-38938413D01*
X57316606Y-38938408D01*
X57260341Y-38854203D01*
X57240463Y-38824453D01*
X57143547Y-38727537D01*
X57095549Y-38695466D01*
X57029591Y-38651393D01*
X57029580Y-38651387D01*
X56902957Y-38598939D01*
X56768532Y-38572200D01*
X56768530Y-38572200D01*
X56631470Y-38572200D01*
X56631467Y-38572200D01*
X56497043Y-38598939D01*
X56497041Y-38598939D01*
X56370419Y-38651387D01*
X56370408Y-38651393D01*
X56256453Y-38727537D01*
X56256449Y-38727540D01*
X56159540Y-38824449D01*
X56159537Y-38824453D01*
X56083393Y-38938408D01*
X56083387Y-38938419D01*
X56030939Y-39065041D01*
X56030939Y-39065043D01*
X56004200Y-39199467D01*
X48300500Y-39199467D01*
X48300500Y-39004861D01*
X48300977Y-38995157D01*
X48312985Y-38873237D01*
X48316771Y-38854203D01*
X48350915Y-38741645D01*
X48358342Y-38723714D01*
X48397001Y-38651390D01*
X48413792Y-38619975D01*
X48424573Y-38603841D01*
X48450540Y-38572200D01*
X48499196Y-38512912D01*
X48512912Y-38499196D01*
X48603842Y-38424571D01*
X48619977Y-38413791D01*
X48723716Y-38358340D01*
X48741643Y-38350915D01*
X48854207Y-38316770D01*
X48873233Y-38312985D01*
X48995157Y-38300976D01*
X49004861Y-38300500D01*
X49047595Y-38300500D01*
X66452405Y-38300500D01*
X66495139Y-38300500D01*
X66504842Y-38300976D01*
G37*
%TD.AperFunction*%
%TD*%
M02*
