%TF.GenerationSoftware,KiCad,Pcbnew,9.0.2*%
%TF.CreationDate,2025-08-14T17:11:00+06:00*%
%TF.ProjectId,hp3478a-ch32-ext,68703334-3738-4612-9d63-6833322d6578,rev?*%
%TF.SameCoordinates,Original*%
%TF.FileFunction,Copper,L2,Bot*%
%TF.FilePolarity,Positive*%
%FSLAX46Y46*%
G04 Gerber Fmt 4.6, Leading zero omitted, Abs format (unit mm)*
G04 Created by KiCad (PCBNEW 9.0.2) date 2025-08-14 17:11:00*
%MOMM*%
%LPD*%
G01*
G04 APERTURE LIST*
G04 Aperture macros list*
%AMRoundRect*
0 Rectangle with rounded corners*
0 $1 Rounding radius*
0 $2 $3 $4 $5 $6 $7 $8 $9 X,Y pos of 4 corners*
0 Add a 4 corners polygon primitive as box body*
4,1,4,$2,$3,$4,$5,$6,$7,$8,$9,$2,$3,0*
0 Add four circle primitives for the rounded corners*
1,1,$1+$1,$2,$3*
1,1,$1+$1,$4,$5*
1,1,$1+$1,$6,$7*
1,1,$1+$1,$8,$9*
0 Add four rect primitives between the rounded corners*
20,1,$1+$1,$2,$3,$4,$5,0*
20,1,$1+$1,$4,$5,$6,$7,0*
20,1,$1+$1,$6,$7,$8,$9,0*
20,1,$1+$1,$8,$9,$2,$3,0*%
G04 Aperture macros list end*
%TA.AperFunction,HeatsinkPad*%
%ADD10C,0.500000*%
%TD*%
%TA.AperFunction,HeatsinkPad*%
%ADD11R,1.650000X1.650000*%
%TD*%
%TA.AperFunction,HeatsinkPad*%
%ADD12C,0.600000*%
%TD*%
%TA.AperFunction,HeatsinkPad*%
%ADD13R,0.500000X1.600000*%
%TD*%
%TA.AperFunction,ComponentPad*%
%ADD14RoundRect,0.250000X-0.600000X0.600000X-0.600000X-0.600000X0.600000X-0.600000X0.600000X0.600000X0*%
%TD*%
%TA.AperFunction,ComponentPad*%
%ADD15C,1.700000*%
%TD*%
%TA.AperFunction,ComponentPad*%
%ADD16R,1.700000X1.700000*%
%TD*%
%TA.AperFunction,ComponentPad*%
%ADD17R,1.600000X1.600000*%
%TD*%
%TA.AperFunction,ComponentPad*%
%ADD18O,1.600000X1.600000*%
%TD*%
%TA.AperFunction,ComponentPad*%
%ADD19R,2.000000X2.000000*%
%TD*%
%TA.AperFunction,ComponentPad*%
%ADD20C,2.000000*%
%TD*%
%TA.AperFunction,ViaPad*%
%ADD21C,0.700000*%
%TD*%
%TA.AperFunction,ViaPad*%
%ADD22C,0.500000*%
%TD*%
%TA.AperFunction,ViaPad*%
%ADD23C,0.600000*%
%TD*%
%TA.AperFunction,ViaPad*%
%ADD24C,0.450000*%
%TD*%
%TA.AperFunction,Conductor*%
%ADD25C,0.200000*%
%TD*%
G04 APERTURE END LIST*
D10*
%TO.P,U1,21,VSS*%
%TO.N,GND*%
X59020000Y-56570000D03*
X58220000Y-56570000D03*
D11*
X58620000Y-56970000D03*
D10*
X59020000Y-57370000D03*
X58220000Y-57370000D03*
%TD*%
D12*
%TO.P,U2,7,PAD*%
%TO.N,GND*%
X43112500Y-78150000D03*
D13*
X43112500Y-78650000D03*
D12*
X43112500Y-79150000D03*
%TD*%
D14*
%TO.P,J2,1,Pin_1*%
%TO.N,VCC*%
X37400000Y-78300000D03*
D15*
%TO.P,J2,2,Pin_2*%
%TO.N,+5V*%
X37400000Y-82000000D03*
%TO.P,J2,3,Pin_3*%
%TO.N,GND*%
X37400000Y-85700000D03*
%TD*%
D16*
%TO.P,J3,1,Pin_1*%
%TO.N,+5V*%
X45920000Y-86000000D03*
D15*
%TO.P,J3,2,Pin_2*%
%TO.N,/SWIO*%
X48460000Y-86000000D03*
%TO.P,J3,3,Pin_3*%
%TO.N,GND*%
X51000000Y-86000000D03*
%TD*%
D17*
%TO.P,J1,1,SHIELD*%
%TO.N,unconnected-(J1-SHIELD-Pad1)*%
X51000000Y-43000000D03*
D18*
%TO.P,J1,2,ATN*%
%TO.N,Net-(J1-ATN)*%
X51000000Y-45540000D03*
%TO.P,J1,3,SRQ*%
%TO.N,Net-(J1-SRQ)*%
X51000000Y-48080000D03*
%TO.P,J1,4,IFC*%
%TO.N,Net-(J1-IFC)*%
X51000000Y-50620000D03*
%TO.P,J1,5,NDAC*%
%TO.N,Net-(J1-NDAC)*%
X51000000Y-53160000D03*
%TO.P,J1,6,NRFD*%
%TO.N,Net-(J1-NRFD)*%
X51000000Y-55700000D03*
%TO.P,J1,7,DAV*%
%TO.N,Net-(J1-DAV)*%
X51000000Y-58240000D03*
%TO.P,J1,8,EOI*%
%TO.N,Net-(J1-EOI)*%
X51000000Y-60780000D03*
%TO.P,J1,9,DIO4*%
%TO.N,Net-(J1-DIO4)*%
X51000000Y-63320000D03*
%TO.P,J1,10,DIO3*%
%TO.N,Net-(J1-DIO3)*%
X51000000Y-65860000D03*
%TO.P,J1,11,DIO2*%
%TO.N,Net-(J1-DIO2)*%
X51000000Y-68400000D03*
%TO.P,J1,12,DIO1*%
%TO.N,Net-(J1-DIO1)*%
X51000000Y-70940000D03*
%TO.P,J1,13,DIO5*%
%TO.N,Net-(J1-DIO5)*%
X66240000Y-70940000D03*
%TO.P,J1,14,DIO6*%
%TO.N,Net-(J1-DIO6)*%
X66240000Y-68400000D03*
%TO.P,J1,15,DIO7*%
%TO.N,Net-(J1-DIO7)*%
X66240000Y-65860000D03*
%TO.P,J1,16,DIO8*%
%TO.N,Net-(J1-DIO8)*%
X66240000Y-63320000D03*
%TO.P,J1,17,REN*%
%TO.N,Net-(J1-REN)*%
X66240000Y-60780000D03*
%TO.P,J1,18,G_DAV*%
%TO.N,GND*%
X66240000Y-58240000D03*
%TO.P,J1,19,G_NRFD*%
X66240000Y-55700000D03*
%TO.P,J1,20,G_NDAC*%
X66240000Y-53160000D03*
%TO.P,J1,21,G_IFC*%
X66240000Y-50620000D03*
%TO.P,J1,22,G_SRQ*%
X66240000Y-48080000D03*
%TO.P,J1,23,G_ATN*%
X66240000Y-45540000D03*
%TO.P,J1,24,G_SIG*%
X66240000Y-43000000D03*
%TD*%
D19*
%TO.P,BZ1,1,+*%
%TO.N,+5V*%
X60000000Y-77750000D03*
D20*
%TO.P,BZ1,2,-*%
%TO.N,Net-(BZ1--)*%
X60000000Y-84250000D03*
%TD*%
D21*
%TO.N,GND*%
X54600000Y-55600000D03*
X61200000Y-70300000D03*
X54700000Y-64200000D03*
X53500000Y-60500000D03*
X55500000Y-60100000D03*
X59169000Y-61000000D03*
D22*
X44700000Y-82720000D03*
X52320000Y-39540000D03*
X59940000Y-47160000D03*
X52320000Y-54780000D03*
X62480000Y-52240000D03*
X62480000Y-42080000D03*
X65020000Y-75100000D03*
D21*
X49300000Y-75900000D03*
D23*
X62500000Y-67000000D03*
D22*
X49780000Y-39540000D03*
D23*
X61100000Y-60200000D03*
D22*
X62480000Y-47160000D03*
D21*
X47400000Y-82700000D03*
D22*
X54860000Y-39540000D03*
D21*
X44300000Y-76900000D03*
D22*
X62480000Y-44620000D03*
X62480000Y-75100000D03*
X57400000Y-47160000D03*
X65020000Y-39540000D03*
X54860000Y-72560000D03*
X59940000Y-49700000D03*
D23*
X49200000Y-78500000D03*
D22*
X52320000Y-47160000D03*
X54860000Y-44620000D03*
X57400000Y-70020000D03*
X52320000Y-72560000D03*
X37080000Y-80180000D03*
X52320000Y-44620000D03*
X59940000Y-39540000D03*
X42160000Y-82720000D03*
X57400000Y-39540000D03*
D24*
X41550000Y-78650000D03*
D22*
X57400000Y-44620000D03*
X59940000Y-44620000D03*
D23*
X61700000Y-63900000D03*
D22*
X57400000Y-85260000D03*
X62480000Y-49700000D03*
X59940000Y-80180000D03*
X57400000Y-75100000D03*
X54860000Y-85260000D03*
X57400000Y-42080000D03*
X59940000Y-52240000D03*
X54860000Y-70020000D03*
X57400000Y-52240000D03*
X54860000Y-42080000D03*
X59940000Y-42080000D03*
X62480000Y-39540000D03*
X52320000Y-82720000D03*
D23*
X57400000Y-64100000D03*
D22*
X65020000Y-72560000D03*
D23*
%TO.N,/SWIO*%
X49250000Y-79750000D03*
D22*
%TO.N,/DAV*%
X56100000Y-57200000D03*
X57100000Y-59500000D03*
D23*
%TO.N,/BUZZ*%
X61300000Y-62100000D03*
X59300000Y-64100000D03*
%TD*%
D25*
%TO.N,/SWIO*%
X48460000Y-81098614D02*
X48460000Y-86000000D01*
X48855000Y-80145000D02*
X49250000Y-79750000D01*
X48855000Y-80145000D02*
G75*
G03*
X48460006Y-81098614I953600J-953600D01*
G01*
%TO.N,/DAV*%
X57100000Y-59500000D02*
X57050000Y-59500000D01*
X56550000Y-59050000D02*
X56964644Y-59464644D01*
X56100000Y-57200000D02*
X56100000Y-57963603D01*
X56964644Y-59464644D02*
G75*
G03*
X57050000Y-59500003I85356J85344D01*
G01*
X56550000Y-59050000D02*
G75*
G02*
X56099998Y-57963603I1086400J1086400D01*
G01*
%TO.N,/BUZZ*%
X59300000Y-64100000D02*
X61300000Y-62100000D01*
%TD*%
%TA.AperFunction,Conductor*%
%TO.N,GND*%
G36*
X66504842Y-38300976D02*
G01*
X66626764Y-38312985D01*
X66645794Y-38316770D01*
X66651133Y-38318390D01*
X66758354Y-38350915D01*
X66776285Y-38358342D01*
X66880022Y-38413791D01*
X66896158Y-38424573D01*
X66987083Y-38499193D01*
X67000806Y-38512916D01*
X67075426Y-38603841D01*
X67086208Y-38619977D01*
X67141657Y-38723714D01*
X67149084Y-38741645D01*
X67183228Y-38854203D01*
X67187014Y-38873237D01*
X67199023Y-38995157D01*
X67199500Y-39004861D01*
X67199500Y-41895930D01*
X67180593Y-41954121D01*
X67131093Y-41990085D01*
X67069907Y-41990085D01*
X67042309Y-41976023D01*
X66921347Y-41888138D01*
X66739027Y-41795243D01*
X66544414Y-41732009D01*
X66490000Y-41723390D01*
X66490000Y-42684314D01*
X66485606Y-42679920D01*
X66394394Y-42627259D01*
X66292661Y-42600000D01*
X66187339Y-42600000D01*
X66085606Y-42627259D01*
X65994394Y-42679920D01*
X65990000Y-42684314D01*
X65990000Y-41723391D01*
X65989999Y-41723390D01*
X65935585Y-41732009D01*
X65740972Y-41795243D01*
X65558653Y-41888138D01*
X65393108Y-42008414D01*
X65248414Y-42153108D01*
X65128138Y-42318653D01*
X65035243Y-42500972D01*
X64972009Y-42695585D01*
X64963390Y-42749999D01*
X64963391Y-42750000D01*
X65924314Y-42750000D01*
X65919920Y-42754394D01*
X65867259Y-42845606D01*
X65840000Y-42947339D01*
X65840000Y-43052661D01*
X65867259Y-43154394D01*
X65919920Y-43245606D01*
X65924314Y-43250000D01*
X64963390Y-43250000D01*
X64972009Y-43304414D01*
X65035243Y-43499027D01*
X65128138Y-43681346D01*
X65248414Y-43846891D01*
X65393108Y-43991585D01*
X65558653Y-44111861D01*
X65695897Y-44181790D01*
X65739162Y-44225055D01*
X65748733Y-44285487D01*
X65720956Y-44340003D01*
X65695897Y-44358210D01*
X65558653Y-44428138D01*
X65393108Y-44548414D01*
X65248414Y-44693108D01*
X65128138Y-44858653D01*
X65035243Y-45040972D01*
X64972009Y-45235585D01*
X64963390Y-45289999D01*
X64963391Y-45290000D01*
X65924314Y-45290000D01*
X65919920Y-45294394D01*
X65867259Y-45385606D01*
X65840000Y-45487339D01*
X65840000Y-45592661D01*
X65867259Y-45694394D01*
X65919920Y-45785606D01*
X65924314Y-45790000D01*
X64963390Y-45790000D01*
X64972009Y-45844414D01*
X65035243Y-46039027D01*
X65128138Y-46221346D01*
X65248414Y-46386891D01*
X65393108Y-46531585D01*
X65558653Y-46651861D01*
X65695897Y-46721790D01*
X65739162Y-46765055D01*
X65748733Y-46825487D01*
X65720956Y-46880003D01*
X65695897Y-46898210D01*
X65558653Y-46968138D01*
X65393108Y-47088414D01*
X65248414Y-47233108D01*
X65128138Y-47398653D01*
X65035243Y-47580972D01*
X64972009Y-47775585D01*
X64963390Y-47829999D01*
X64963391Y-47830000D01*
X65924314Y-47830000D01*
X65919920Y-47834394D01*
X65867259Y-47925606D01*
X65840000Y-48027339D01*
X65840000Y-48132661D01*
X65867259Y-48234394D01*
X65919920Y-48325606D01*
X65924314Y-48330000D01*
X64963390Y-48330000D01*
X64972009Y-48384414D01*
X65035243Y-48579027D01*
X65128138Y-48761346D01*
X65248414Y-48926891D01*
X65393108Y-49071585D01*
X65558653Y-49191861D01*
X65695897Y-49261790D01*
X65739162Y-49305055D01*
X65748733Y-49365487D01*
X65720956Y-49420003D01*
X65695897Y-49438210D01*
X65558653Y-49508138D01*
X65393108Y-49628414D01*
X65248414Y-49773108D01*
X65128138Y-49938653D01*
X65035243Y-50120972D01*
X64972009Y-50315585D01*
X64963390Y-50369999D01*
X64963391Y-50370000D01*
X65924314Y-50370000D01*
X65919920Y-50374394D01*
X65867259Y-50465606D01*
X65840000Y-50567339D01*
X65840000Y-50672661D01*
X65867259Y-50774394D01*
X65919920Y-50865606D01*
X65924314Y-50870000D01*
X64963390Y-50870000D01*
X64972009Y-50924414D01*
X65035243Y-51119027D01*
X65128138Y-51301346D01*
X65248414Y-51466891D01*
X65393108Y-51611585D01*
X65558653Y-51731861D01*
X65695897Y-51801790D01*
X65739162Y-51845055D01*
X65748733Y-51905487D01*
X65720956Y-51960003D01*
X65695897Y-51978210D01*
X65558653Y-52048138D01*
X65393108Y-52168414D01*
X65248414Y-52313108D01*
X65128138Y-52478653D01*
X65035243Y-52660972D01*
X64972009Y-52855585D01*
X64963390Y-52909999D01*
X64963391Y-52910000D01*
X65924314Y-52910000D01*
X65919920Y-52914394D01*
X65867259Y-53005606D01*
X65840000Y-53107339D01*
X65840000Y-53212661D01*
X65867259Y-53314394D01*
X65919920Y-53405606D01*
X65924314Y-53410000D01*
X64963390Y-53410000D01*
X64972009Y-53464414D01*
X65035243Y-53659027D01*
X65128138Y-53841346D01*
X65248414Y-54006891D01*
X65393108Y-54151585D01*
X65558653Y-54271861D01*
X65695897Y-54341790D01*
X65739162Y-54385055D01*
X65748733Y-54445487D01*
X65720956Y-54500003D01*
X65695897Y-54518210D01*
X65558653Y-54588138D01*
X65393108Y-54708414D01*
X65248414Y-54853108D01*
X65128138Y-55018653D01*
X65035243Y-55200972D01*
X64972009Y-55395585D01*
X64963390Y-55449999D01*
X64963391Y-55450000D01*
X65924314Y-55450000D01*
X65919920Y-55454394D01*
X65867259Y-55545606D01*
X65840000Y-55647339D01*
X65840000Y-55752661D01*
X65867259Y-55854394D01*
X65919920Y-55945606D01*
X65924314Y-55950000D01*
X64963390Y-55950000D01*
X64972009Y-56004414D01*
X65035243Y-56199027D01*
X65128138Y-56381346D01*
X65248414Y-56546891D01*
X65393108Y-56691585D01*
X65558653Y-56811861D01*
X65695897Y-56881790D01*
X65739162Y-56925055D01*
X65748733Y-56985487D01*
X65720956Y-57040003D01*
X65695897Y-57058210D01*
X65558653Y-57128138D01*
X65393108Y-57248414D01*
X65248414Y-57393108D01*
X65128138Y-57558653D01*
X65035243Y-57740972D01*
X64972009Y-57935585D01*
X64963390Y-57989999D01*
X64963391Y-57990000D01*
X65924314Y-57990000D01*
X65919920Y-57994394D01*
X65867259Y-58085606D01*
X65840000Y-58187339D01*
X65840000Y-58292661D01*
X65867259Y-58394394D01*
X65919920Y-58485606D01*
X65924314Y-58490000D01*
X64963390Y-58490000D01*
X64972009Y-58544414D01*
X65035243Y-58739027D01*
X65128138Y-58921346D01*
X65248414Y-59086891D01*
X65393108Y-59231585D01*
X65558653Y-59351861D01*
X65740972Y-59444756D01*
X65935587Y-59507991D01*
X65970636Y-59513542D01*
X66025153Y-59541319D01*
X66052931Y-59595835D01*
X66043360Y-59656267D01*
X66000096Y-59699532D01*
X65985743Y-59705477D01*
X65817561Y-59760123D01*
X65817558Y-59760125D01*
X65663214Y-59838766D01*
X65523073Y-59940585D01*
X65400585Y-60063073D01*
X65298766Y-60203214D01*
X65220125Y-60357558D01*
X65220123Y-60357561D01*
X65166598Y-60522293D01*
X65166597Y-60522297D01*
X65139500Y-60693385D01*
X65139500Y-60866614D01*
X65166597Y-61037702D01*
X65166598Y-61037706D01*
X65220123Y-61202438D01*
X65220125Y-61202441D01*
X65280499Y-61320934D01*
X65298768Y-61356788D01*
X65400586Y-61496928D01*
X65523072Y-61619414D01*
X65663212Y-61721232D01*
X65817555Y-61799873D01*
X65817557Y-61799873D01*
X65817558Y-61799874D01*
X65817561Y-61799876D01*
X65982293Y-61853401D01*
X65982297Y-61853402D01*
X66153386Y-61880500D01*
X66153389Y-61880500D01*
X66326614Y-61880500D01*
X66497702Y-61853402D01*
X66497706Y-61853401D01*
X66662438Y-61799876D01*
X66662440Y-61799874D01*
X66662445Y-61799873D01*
X66816788Y-61721232D01*
X66956928Y-61619414D01*
X67030498Y-61545843D01*
X67085013Y-61518068D01*
X67145445Y-61527639D01*
X67188710Y-61570904D01*
X67199500Y-61615849D01*
X67199500Y-62484151D01*
X67180593Y-62542342D01*
X67131093Y-62578306D01*
X67069907Y-62578306D01*
X67030498Y-62554156D01*
X66956928Y-62480586D01*
X66816788Y-62378768D01*
X66816787Y-62378767D01*
X66816785Y-62378766D01*
X66662441Y-62300125D01*
X66662438Y-62300123D01*
X66497706Y-62246598D01*
X66497702Y-62246597D01*
X66326614Y-62219500D01*
X66326611Y-62219500D01*
X66153389Y-62219500D01*
X66153386Y-62219500D01*
X65982297Y-62246597D01*
X65982293Y-62246598D01*
X65817561Y-62300123D01*
X65817558Y-62300125D01*
X65663214Y-62378766D01*
X65523073Y-62480585D01*
X65400585Y-62603073D01*
X65298766Y-62743214D01*
X65220125Y-62897558D01*
X65220123Y-62897561D01*
X65166598Y-63062293D01*
X65166597Y-63062297D01*
X65139500Y-63233385D01*
X65139500Y-63406614D01*
X65166597Y-63577702D01*
X65166598Y-63577706D01*
X65220123Y-63742438D01*
X65220125Y-63742441D01*
X65280499Y-63860934D01*
X65298768Y-63896788D01*
X65400586Y-64036928D01*
X65523072Y-64159414D01*
X65663212Y-64261232D01*
X65817555Y-64339873D01*
X65817557Y-64339873D01*
X65817558Y-64339874D01*
X65817561Y-64339876D01*
X65982293Y-64393401D01*
X65982297Y-64393402D01*
X66153386Y-64420500D01*
X66153389Y-64420500D01*
X66326614Y-64420500D01*
X66497702Y-64393402D01*
X66497706Y-64393401D01*
X66662438Y-64339876D01*
X66662440Y-64339874D01*
X66662445Y-64339873D01*
X66816788Y-64261232D01*
X66956928Y-64159414D01*
X67030498Y-64085843D01*
X67085013Y-64058068D01*
X67145445Y-64067639D01*
X67188710Y-64110904D01*
X67199500Y-64155849D01*
X67199500Y-65024151D01*
X67180593Y-65082342D01*
X67131093Y-65118306D01*
X67069907Y-65118306D01*
X67030498Y-65094156D01*
X66956928Y-65020586D01*
X66816788Y-64918768D01*
X66816787Y-64918767D01*
X66816785Y-64918766D01*
X66662441Y-64840125D01*
X66662438Y-64840123D01*
X66497706Y-64786598D01*
X66497702Y-64786597D01*
X66326614Y-64759500D01*
X66326611Y-64759500D01*
X66153389Y-64759500D01*
X66153386Y-64759500D01*
X65982297Y-64786597D01*
X65982293Y-64786598D01*
X65817561Y-64840123D01*
X65817558Y-64840125D01*
X65663214Y-64918766D01*
X65523073Y-65020585D01*
X65400585Y-65143073D01*
X65298766Y-65283214D01*
X65220125Y-65437558D01*
X65220123Y-65437561D01*
X65166598Y-65602293D01*
X65166597Y-65602297D01*
X65139500Y-65773385D01*
X65139500Y-65946614D01*
X65166597Y-66117702D01*
X65166598Y-66117706D01*
X65220123Y-66282438D01*
X65220125Y-66282441D01*
X65280499Y-66400934D01*
X65298768Y-66436788D01*
X65400586Y-66576928D01*
X65523072Y-66699414D01*
X65663212Y-66801232D01*
X65817555Y-66879873D01*
X65817557Y-66879873D01*
X65817558Y-66879874D01*
X65817561Y-66879876D01*
X65982293Y-66933401D01*
X65982297Y-66933402D01*
X66153386Y-66960500D01*
X66153389Y-66960500D01*
X66326614Y-66960500D01*
X66497702Y-66933402D01*
X66497706Y-66933401D01*
X66662438Y-66879876D01*
X66662440Y-66879874D01*
X66662445Y-66879873D01*
X66816788Y-66801232D01*
X66956928Y-66699414D01*
X67030498Y-66625843D01*
X67085013Y-66598068D01*
X67145445Y-66607639D01*
X67188710Y-66650904D01*
X67199500Y-66695849D01*
X67199500Y-67564151D01*
X67180593Y-67622342D01*
X67131093Y-67658306D01*
X67069907Y-67658306D01*
X67030498Y-67634156D01*
X66956928Y-67560586D01*
X66816788Y-67458768D01*
X66816787Y-67458767D01*
X66816785Y-67458766D01*
X66662441Y-67380125D01*
X66662438Y-67380123D01*
X66497706Y-67326598D01*
X66497702Y-67326597D01*
X66326614Y-67299500D01*
X66326611Y-67299500D01*
X66153389Y-67299500D01*
X66153386Y-67299500D01*
X65982297Y-67326597D01*
X65982293Y-67326598D01*
X65817561Y-67380123D01*
X65817558Y-67380125D01*
X65663214Y-67458766D01*
X65523073Y-67560585D01*
X65400585Y-67683073D01*
X65298766Y-67823214D01*
X65220125Y-67977558D01*
X65220123Y-67977561D01*
X65166598Y-68142293D01*
X65166597Y-68142297D01*
X65139500Y-68313385D01*
X65139500Y-68486614D01*
X65166597Y-68657702D01*
X65166598Y-68657706D01*
X65220123Y-68822438D01*
X65220125Y-68822441D01*
X65280499Y-68940934D01*
X65298768Y-68976788D01*
X65400586Y-69116928D01*
X65523072Y-69239414D01*
X65663212Y-69341232D01*
X65817555Y-69419873D01*
X65817557Y-69419873D01*
X65817558Y-69419874D01*
X65817561Y-69419876D01*
X65982293Y-69473401D01*
X65982297Y-69473402D01*
X66153386Y-69500500D01*
X66153389Y-69500500D01*
X66326614Y-69500500D01*
X66497702Y-69473402D01*
X66497706Y-69473401D01*
X66662438Y-69419876D01*
X66662440Y-69419874D01*
X66662445Y-69419873D01*
X66816788Y-69341232D01*
X66956928Y-69239414D01*
X67030498Y-69165843D01*
X67085013Y-69138068D01*
X67145445Y-69147639D01*
X67188710Y-69190904D01*
X67199500Y-69235849D01*
X67199500Y-70104151D01*
X67180593Y-70162342D01*
X67131093Y-70198306D01*
X67069907Y-70198306D01*
X67030498Y-70174156D01*
X66956928Y-70100586D01*
X66816788Y-69998768D01*
X66816787Y-69998767D01*
X66816785Y-69998766D01*
X66662441Y-69920125D01*
X66662438Y-69920123D01*
X66497706Y-69866598D01*
X66497702Y-69866597D01*
X66326614Y-69839500D01*
X66326611Y-69839500D01*
X66153389Y-69839500D01*
X66153386Y-69839500D01*
X65982297Y-69866597D01*
X65982293Y-69866598D01*
X65817561Y-69920123D01*
X65817558Y-69920125D01*
X65663214Y-69998766D01*
X65523073Y-70100585D01*
X65400585Y-70223073D01*
X65298766Y-70363214D01*
X65220125Y-70517558D01*
X65220123Y-70517561D01*
X65166598Y-70682293D01*
X65166597Y-70682297D01*
X65139500Y-70853385D01*
X65139500Y-71026614D01*
X65166597Y-71197702D01*
X65166598Y-71197706D01*
X65220123Y-71362438D01*
X65220125Y-71362441D01*
X65280499Y-71480934D01*
X65298768Y-71516788D01*
X65400586Y-71656928D01*
X65523072Y-71779414D01*
X65663212Y-71881232D01*
X65817555Y-71959873D01*
X65817557Y-71959873D01*
X65817558Y-71959874D01*
X65817561Y-71959876D01*
X65982293Y-72013401D01*
X65982297Y-72013402D01*
X66153386Y-72040500D01*
X66153389Y-72040500D01*
X66326614Y-72040500D01*
X66497702Y-72013402D01*
X66497706Y-72013401D01*
X66662438Y-71959876D01*
X66662440Y-71959874D01*
X66662445Y-71959873D01*
X66816788Y-71881232D01*
X66956928Y-71779414D01*
X67030498Y-71705843D01*
X67085013Y-71678068D01*
X67145445Y-71687639D01*
X67188710Y-71730904D01*
X67199500Y-71775849D01*
X67199500Y-81992209D01*
X67198281Y-82007697D01*
X67192188Y-82046163D01*
X67182617Y-82075619D01*
X67168519Y-82103289D01*
X67150311Y-82128350D01*
X67128348Y-82150312D01*
X67103292Y-82168516D01*
X67075622Y-82182615D01*
X67046164Y-82192187D01*
X67021617Y-82196075D01*
X67015097Y-82196887D01*
X66997435Y-82198493D01*
X66990841Y-82199093D01*
X66981877Y-82199500D01*
X66952408Y-82199500D01*
X66949808Y-82200344D01*
X66928169Y-82204782D01*
X66748848Y-82221049D01*
X66550097Y-82254727D01*
X66305430Y-82296186D01*
X66087524Y-82350677D01*
X65869129Y-82405292D01*
X65869121Y-82405294D01*
X65442549Y-82547717D01*
X65028205Y-82722621D01*
X64628597Y-82928950D01*
X64246088Y-83165483D01*
X63882955Y-83430813D01*
X63541371Y-83723348D01*
X63223352Y-84041367D01*
X63132335Y-84147644D01*
X62930815Y-84382951D01*
X62930810Y-84382958D01*
X62665486Y-84746084D01*
X62428953Y-85128592D01*
X62222623Y-85528200D01*
X62047720Y-85942541D01*
X61905294Y-86369124D01*
X61905289Y-86369142D01*
X61796190Y-86805411D01*
X61796188Y-86805417D01*
X61796187Y-86805425D01*
X61765928Y-86983996D01*
X61721050Y-87248841D01*
X61704783Y-87428159D01*
X61704782Y-87428166D01*
X61703777Y-87439233D01*
X61699499Y-87452403D01*
X61699499Y-87486350D01*
X61699093Y-87490822D01*
X61699092Y-87490835D01*
X61696885Y-87515108D01*
X61696073Y-87521628D01*
X61692188Y-87546160D01*
X61682617Y-87575619D01*
X61668520Y-87603287D01*
X61650314Y-87628347D01*
X61628349Y-87650312D01*
X61603290Y-87668518D01*
X61575619Y-87682617D01*
X61546163Y-87692188D01*
X61521282Y-87696129D01*
X61507694Y-87698281D01*
X61492210Y-87699500D01*
X36004861Y-87699500D01*
X35995157Y-87699023D01*
X35873237Y-87687014D01*
X35854203Y-87683228D01*
X35741645Y-87649084D01*
X35723714Y-87641657D01*
X35619977Y-87586208D01*
X35603841Y-87575426D01*
X35512916Y-87500806D01*
X35499193Y-87487083D01*
X35424573Y-87396158D01*
X35413791Y-87380022D01*
X35358342Y-87276285D01*
X35350915Y-87258354D01*
X35319448Y-87154620D01*
X35316770Y-87145794D01*
X35312985Y-87126762D01*
X35310566Y-87102206D01*
X35300977Y-87004842D01*
X35300500Y-86995138D01*
X35300500Y-86815269D01*
X36638282Y-86815269D01*
X36638282Y-86815270D01*
X36692440Y-86854619D01*
X36692446Y-86854623D01*
X36881784Y-86951095D01*
X37083878Y-87016759D01*
X37293750Y-87050000D01*
X37506250Y-87050000D01*
X37716121Y-87016759D01*
X37918215Y-86951095D01*
X38107556Y-86854620D01*
X38161716Y-86815270D01*
X37399999Y-86053553D01*
X36638282Y-86815269D01*
X35300500Y-86815269D01*
X35300500Y-85593749D01*
X36050000Y-85593749D01*
X36050000Y-85806250D01*
X36083240Y-86016121D01*
X36148904Y-86218215D01*
X36245376Y-86407553D01*
X36245380Y-86407559D01*
X36284728Y-86461716D01*
X36284729Y-86461716D01*
X37046445Y-85700000D01*
X37000367Y-85653922D01*
X37050000Y-85653922D01*
X37050000Y-85746078D01*
X37073852Y-85835095D01*
X37119930Y-85914905D01*
X37185095Y-85980070D01*
X37264905Y-86026148D01*
X37353922Y-86050000D01*
X37446078Y-86050000D01*
X37535095Y-86026148D01*
X37614905Y-85980070D01*
X37680070Y-85914905D01*
X37726148Y-85835095D01*
X37750000Y-85746078D01*
X37750000Y-85699999D01*
X37753553Y-85699999D01*
X38515270Y-86461716D01*
X38554620Y-86407556D01*
X38651095Y-86218215D01*
X38716759Y-86016121D01*
X38750000Y-85806250D01*
X38750000Y-85593749D01*
X38716759Y-85383878D01*
X38651094Y-85181782D01*
X38633485Y-85147222D01*
X38633484Y-85147221D01*
X38612038Y-85105130D01*
X44769500Y-85105130D01*
X44769500Y-86894860D01*
X44769501Y-86894863D01*
X44772414Y-86919990D01*
X44786727Y-86952405D01*
X44817794Y-87022765D01*
X44897235Y-87102206D01*
X45000009Y-87147585D01*
X45025135Y-87150500D01*
X46814864Y-87150499D01*
X46839991Y-87147585D01*
X46942765Y-87102206D01*
X47022206Y-87022765D01*
X47067585Y-86919991D01*
X47070500Y-86894865D01*
X47070499Y-85909450D01*
X47309500Y-85909450D01*
X47309500Y-86090549D01*
X47337828Y-86269406D01*
X47393788Y-86441637D01*
X47432806Y-86518215D01*
X47476004Y-86602994D01*
X47582447Y-86749501D01*
X47710499Y-86877553D01*
X47857006Y-86983996D01*
X48018361Y-87066211D01*
X48190591Y-87122171D01*
X48262136Y-87133502D01*
X48369451Y-87150500D01*
X48369454Y-87150500D01*
X48550549Y-87150500D01*
X48639977Y-87136335D01*
X48729409Y-87122171D01*
X48901639Y-87066211D01*
X48901642Y-87066209D01*
X48901646Y-87066208D01*
X49022082Y-87004842D01*
X49052527Y-86989329D01*
X49052530Y-86989328D01*
X49056166Y-86987474D01*
X49062994Y-86983996D01*
X49209501Y-86877553D01*
X49337553Y-86749501D01*
X49443996Y-86602994D01*
X49526211Y-86441639D01*
X49530962Y-86427018D01*
X49566924Y-86377517D01*
X49625115Y-86358608D01*
X49683306Y-86377514D01*
X49719271Y-86427013D01*
X49719272Y-86427015D01*
X49748904Y-86518215D01*
X49845376Y-86707553D01*
X49845380Y-86707559D01*
X49884728Y-86761716D01*
X49884729Y-86761716D01*
X50517037Y-86129407D01*
X50534075Y-86192993D01*
X50599901Y-86307007D01*
X50692993Y-86400099D01*
X50807007Y-86465925D01*
X50870589Y-86482962D01*
X50238282Y-87115269D01*
X50238282Y-87115270D01*
X50292440Y-87154619D01*
X50292446Y-87154623D01*
X50481784Y-87251095D01*
X50683878Y-87316759D01*
X50893750Y-87350000D01*
X51106250Y-87350000D01*
X51316121Y-87316759D01*
X51518215Y-87251095D01*
X51707556Y-87154620D01*
X51761716Y-87115270D01*
X51129408Y-86482962D01*
X51192993Y-86465925D01*
X51307007Y-86400099D01*
X51400099Y-86307007D01*
X51465925Y-86192993D01*
X51482962Y-86129408D01*
X52115270Y-86761716D01*
X52154620Y-86707556D01*
X52251095Y-86518215D01*
X52316759Y-86316121D01*
X52350000Y-86106250D01*
X52350000Y-85893749D01*
X52316759Y-85683878D01*
X52251095Y-85481784D01*
X52154623Y-85292446D01*
X52154619Y-85292440D01*
X52115270Y-85238282D01*
X52115269Y-85238282D01*
X51482962Y-85870589D01*
X51465925Y-85807007D01*
X51400099Y-85692993D01*
X51307007Y-85599901D01*
X51192993Y-85534075D01*
X51129407Y-85517037D01*
X51761716Y-84884729D01*
X51761716Y-84884728D01*
X51707559Y-84845380D01*
X51707553Y-84845376D01*
X51518215Y-84748904D01*
X51316121Y-84683240D01*
X51106250Y-84650000D01*
X50893750Y-84650000D01*
X50683878Y-84683240D01*
X50481784Y-84748904D01*
X50292446Y-84845376D01*
X50292442Y-84845378D01*
X50238282Y-84884728D01*
X50870591Y-85517037D01*
X50807007Y-85534075D01*
X50692993Y-85599901D01*
X50599901Y-85692993D01*
X50534075Y-85807007D01*
X50517037Y-85870591D01*
X49884728Y-85238282D01*
X49845378Y-85292442D01*
X49845376Y-85292446D01*
X49748904Y-85481784D01*
X49719272Y-85572984D01*
X49683308Y-85622484D01*
X49625117Y-85641391D01*
X49566926Y-85622484D01*
X49530962Y-85572984D01*
X49530962Y-85572983D01*
X49526211Y-85558362D01*
X49526211Y-85558361D01*
X49443996Y-85397006D01*
X49434458Y-85383878D01*
X49420513Y-85364684D01*
X49411603Y-85349847D01*
X49404826Y-85335935D01*
X49404825Y-85335933D01*
X49404822Y-85335927D01*
X49224670Y-85093002D01*
X49218576Y-85085059D01*
X49218099Y-85084458D01*
X49218077Y-85084431D01*
X49218061Y-85084411D01*
X49214448Y-85080009D01*
X49211755Y-85076728D01*
X49101410Y-84946676D01*
X49100566Y-84945668D01*
X49061041Y-84897794D01*
X48984793Y-84805439D01*
X48978973Y-84797636D01*
X48950475Y-84755235D01*
X48944701Y-84745481D01*
X48923871Y-84705195D01*
X48918662Y-84693255D01*
X48901749Y-84646255D01*
X48898274Y-84634272D01*
X48883358Y-84567281D01*
X48881627Y-84556957D01*
X48870578Y-84459820D01*
X48869998Y-84451844D01*
X48866811Y-84352352D01*
X48865712Y-84318038D01*
X48865629Y-84315705D01*
X48865628Y-84315694D01*
X48862972Y-84304033D01*
X48860500Y-84282048D01*
X48860500Y-84147644D01*
X58699500Y-84147644D01*
X58699500Y-84352355D01*
X58731521Y-84554529D01*
X58794780Y-84749219D01*
X58887712Y-84931609D01*
X58887714Y-84931613D01*
X59008029Y-85097213D01*
X59008031Y-85097215D01*
X59008034Y-85097219D01*
X59152781Y-85241966D01*
X59152784Y-85241968D01*
X59152786Y-85241970D01*
X59318386Y-85362285D01*
X59318390Y-85362287D01*
X59500781Y-85455220D01*
X59695466Y-85518477D01*
X59695467Y-85518477D01*
X59695470Y-85518478D01*
X59897645Y-85550500D01*
X59897648Y-85550500D01*
X60102355Y-85550500D01*
X60304529Y-85518478D01*
X60304530Y-85518477D01*
X60304534Y-85518477D01*
X60499219Y-85455220D01*
X60681610Y-85362287D01*
X60698733Y-85349847D01*
X60736813Y-85322180D01*
X60847219Y-85241966D01*
X60991966Y-85097219D01*
X61101332Y-84946689D01*
X61112285Y-84931613D01*
X61112287Y-84931610D01*
X61205220Y-84749219D01*
X61268477Y-84554534D01*
X61283475Y-84459841D01*
X61300500Y-84352355D01*
X61300500Y-84147644D01*
X61268478Y-83945470D01*
X61268477Y-83945466D01*
X61205220Y-83750781D01*
X61112287Y-83568390D01*
X61112285Y-83568386D01*
X60991970Y-83402786D01*
X60991968Y-83402784D01*
X60991966Y-83402781D01*
X60847219Y-83258034D01*
X60847215Y-83258031D01*
X60847213Y-83258029D01*
X60681613Y-83137714D01*
X60681609Y-83137712D01*
X60499219Y-83044780D01*
X60304529Y-82981521D01*
X60102355Y-82949500D01*
X60102352Y-82949500D01*
X59897648Y-82949500D01*
X59897645Y-82949500D01*
X59695470Y-82981521D01*
X59500780Y-83044780D01*
X59318390Y-83137712D01*
X59318386Y-83137714D01*
X59152786Y-83258029D01*
X59008029Y-83402786D01*
X58887714Y-83568386D01*
X58887712Y-83568390D01*
X58794780Y-83750780D01*
X58731521Y-83945470D01*
X58699500Y-84147644D01*
X48860500Y-84147644D01*
X48860500Y-81102499D01*
X48860805Y-81094733D01*
X48871560Y-80958050D01*
X48873987Y-80942727D01*
X48905085Y-80813188D01*
X48909880Y-80798434D01*
X48960855Y-80675367D01*
X48967898Y-80661544D01*
X49037505Y-80547954D01*
X49046630Y-80535397D01*
X49046821Y-80535174D01*
X49116934Y-80453080D01*
X49137548Y-80435369D01*
X49137505Y-80435313D01*
X49138426Y-80434615D01*
X49139989Y-80433272D01*
X49141154Y-80432549D01*
X49157220Y-80417860D01*
X49191022Y-80397589D01*
X49196289Y-80395727D01*
X49213115Y-80391396D01*
X49223068Y-80389748D01*
X49226857Y-80389121D01*
X49233667Y-80387913D01*
X49233683Y-80387909D01*
X49233694Y-80387908D01*
X49234191Y-80387814D01*
X49240308Y-80386593D01*
X49345567Y-80364450D01*
X49371194Y-80357888D01*
X49373133Y-80357301D01*
X49398156Y-80348523D01*
X49458536Y-80324351D01*
X49478621Y-80315460D01*
X49480128Y-80314727D01*
X49499390Y-80304492D01*
X49558785Y-80270159D01*
X49566669Y-80265442D01*
X49567283Y-80265062D01*
X49581244Y-80255885D01*
X49581254Y-80255874D01*
X49585303Y-80252550D01*
X49585515Y-80252809D01*
X49601386Y-80240524D01*
X49618716Y-80230520D01*
X49730520Y-80118716D01*
X49809577Y-79981784D01*
X49850500Y-79829057D01*
X49850500Y-79670943D01*
X49809577Y-79518216D01*
X49730520Y-79381284D01*
X49618716Y-79269480D01*
X49481784Y-79190423D01*
X49329057Y-79149500D01*
X49170943Y-79149500D01*
X49085692Y-79172343D01*
X49018216Y-79190423D01*
X48881284Y-79269480D01*
X48769478Y-79381286D01*
X48750912Y-79413443D01*
X48739876Y-79428911D01*
X48730884Y-79439248D01*
X48730883Y-79439250D01*
X48697498Y-79496084D01*
X48688049Y-79513434D01*
X48687385Y-79514752D01*
X48679146Y-79532509D01*
X48654458Y-79590520D01*
X48645163Y-79615284D01*
X48644541Y-79617188D01*
X48637506Y-79642315D01*
X48612373Y-79749544D01*
X48611853Y-79751656D01*
X48597971Y-79805525D01*
X48578178Y-79844173D01*
X48555291Y-79871655D01*
X48555286Y-79871663D01*
X48553155Y-79875415D01*
X48537081Y-79896516D01*
X48490731Y-79942866D01*
X48351157Y-80124764D01*
X48236507Y-80323347D01*
X48148766Y-80535174D01*
X48089426Y-80756641D01*
X48089424Y-80756651D01*
X48059499Y-80983972D01*
X48059499Y-80983976D01*
X48059500Y-81045887D01*
X48059500Y-84283670D01*
X48059340Y-84289302D01*
X48058891Y-84297181D01*
X48054295Y-84318124D01*
X48050160Y-84450408D01*
X48050086Y-84451712D01*
X48050003Y-84451924D01*
X48049647Y-84456955D01*
X48038903Y-84554173D01*
X48037402Y-84563580D01*
X48024907Y-84623277D01*
X48022165Y-84633579D01*
X48011262Y-84667146D01*
X48004805Y-84682492D01*
X47961122Y-84765902D01*
X47951451Y-84780901D01*
X47856294Y-84902767D01*
X47853201Y-84906533D01*
X47822072Y-84942589D01*
X47819370Y-84945760D01*
X47680627Y-85110828D01*
X47674412Y-85118469D01*
X47673962Y-85119040D01*
X47667448Y-85127625D01*
X47513845Y-85337599D01*
X47510103Y-85342830D01*
X47509824Y-85343229D01*
X47502460Y-85354259D01*
X47502451Y-85354276D01*
X47501327Y-85357075D01*
X47489569Y-85378333D01*
X47476002Y-85397007D01*
X47476000Y-85397011D01*
X47393791Y-85558353D01*
X47393789Y-85558359D01*
X47337828Y-85730593D01*
X47309500Y-85909450D01*
X47070499Y-85909450D01*
X47070499Y-85105136D01*
X47067585Y-85080009D01*
X47022206Y-84977235D01*
X46942765Y-84897794D01*
X46839991Y-84852415D01*
X46839990Y-84852414D01*
X46839988Y-84852414D01*
X46814868Y-84849500D01*
X45025139Y-84849500D01*
X45025136Y-84849501D01*
X45000009Y-84852414D01*
X44897235Y-84897794D01*
X44817794Y-84977235D01*
X44772414Y-85080011D01*
X44769500Y-85105130D01*
X38612038Y-85105130D01*
X38554623Y-84992446D01*
X38554619Y-84992440D01*
X38515270Y-84938282D01*
X38515269Y-84938282D01*
X37753553Y-85699999D01*
X37750000Y-85699999D01*
X37750000Y-85653922D01*
X37726148Y-85564905D01*
X37680070Y-85485095D01*
X37614905Y-85419930D01*
X37535095Y-85373852D01*
X37446078Y-85350000D01*
X37353922Y-85350000D01*
X37264905Y-85373852D01*
X37185095Y-85419930D01*
X37119930Y-85485095D01*
X37073852Y-85564905D01*
X37050000Y-85653922D01*
X37000367Y-85653922D01*
X36284728Y-84938282D01*
X36245378Y-84992442D01*
X36245376Y-84992446D01*
X36148904Y-85181784D01*
X36083240Y-85383878D01*
X36050000Y-85593749D01*
X35300500Y-85593749D01*
X35300500Y-84584728D01*
X36638282Y-84584728D01*
X37400000Y-85346445D01*
X38161716Y-84584729D01*
X38161716Y-84584728D01*
X38107559Y-84545380D01*
X38107553Y-84545376D01*
X37918215Y-84448904D01*
X37716121Y-84383240D01*
X37506250Y-84350000D01*
X37293750Y-84350000D01*
X37083878Y-84383240D01*
X36881784Y-84448904D01*
X36692446Y-84545376D01*
X36692442Y-84545378D01*
X36638282Y-84584728D01*
X35300500Y-84584728D01*
X35300500Y-81909450D01*
X36249500Y-81909450D01*
X36249500Y-82090549D01*
X36277828Y-82269406D01*
X36333788Y-82441637D01*
X36387838Y-82547717D01*
X36416004Y-82602994D01*
X36522447Y-82749501D01*
X36650499Y-82877553D01*
X36797006Y-82983996D01*
X36958361Y-83066211D01*
X37130591Y-83122171D01*
X37202136Y-83133502D01*
X37309451Y-83150500D01*
X37309454Y-83150500D01*
X37490549Y-83150500D01*
X37579977Y-83136335D01*
X37669409Y-83122171D01*
X37841639Y-83066211D01*
X38002994Y-82983996D01*
X38149501Y-82877553D01*
X38277553Y-82749501D01*
X38383996Y-82602994D01*
X38466211Y-82441639D01*
X38522171Y-82269409D01*
X38541034Y-82150312D01*
X38550500Y-82090549D01*
X38550500Y-81909450D01*
X38522171Y-81730593D01*
X38522171Y-81730591D01*
X38466211Y-81558361D01*
X38383996Y-81397006D01*
X38277553Y-81250499D01*
X38149501Y-81122447D01*
X38002994Y-81016004D01*
X38002993Y-81016003D01*
X38002991Y-81016002D01*
X37841637Y-80933788D01*
X37669406Y-80877828D01*
X37490549Y-80849500D01*
X37490546Y-80849500D01*
X37309454Y-80849500D01*
X37309451Y-80849500D01*
X37130593Y-80877828D01*
X36958362Y-80933788D01*
X36797008Y-81016002D01*
X36755875Y-81045887D01*
X36650499Y-81122447D01*
X36522447Y-81250499D01*
X36469225Y-81323752D01*
X36416002Y-81397008D01*
X36333788Y-81558362D01*
X36277828Y-81730593D01*
X36249500Y-81909450D01*
X35300500Y-81909450D01*
X35300500Y-79865845D01*
X42750206Y-79865845D01*
X42879145Y-79919255D01*
X42879151Y-79919257D01*
X43033704Y-79949999D01*
X43033708Y-79950000D01*
X43191292Y-79950000D01*
X43191295Y-79949999D01*
X43345848Y-79919257D01*
X43345854Y-79919255D01*
X43474792Y-79865846D01*
X43112499Y-79503553D01*
X42750206Y-79865845D01*
X35300500Y-79865845D01*
X35300500Y-77656893D01*
X36249500Y-77656893D01*
X36249500Y-78943106D01*
X36260123Y-79031565D01*
X36315637Y-79172339D01*
X36315638Y-79172341D01*
X36315639Y-79172342D01*
X36407078Y-79292922D01*
X36527658Y-79384361D01*
X36527659Y-79384361D01*
X36527660Y-79384362D01*
X36598047Y-79412119D01*
X36668436Y-79439877D01*
X36756898Y-79450500D01*
X36756900Y-79450500D01*
X38043100Y-79450500D01*
X38043102Y-79450500D01*
X38131564Y-79439877D01*
X38272342Y-79384361D01*
X38392922Y-79292922D01*
X38484361Y-79172342D01*
X38524245Y-79071204D01*
X42312500Y-79071204D01*
X42312500Y-79228795D01*
X42343242Y-79383349D01*
X42396652Y-79512292D01*
X42758946Y-79149999D01*
X42729110Y-79120163D01*
X42962500Y-79120163D01*
X42962500Y-79179837D01*
X42985336Y-79234968D01*
X43027532Y-79277164D01*
X43082663Y-79300000D01*
X43142337Y-79300000D01*
X43197468Y-79277164D01*
X43239664Y-79234968D01*
X43262500Y-79179837D01*
X43262500Y-79149999D01*
X43466053Y-79149999D01*
X43828346Y-79512292D01*
X43881755Y-79383354D01*
X43881757Y-79383348D01*
X43912499Y-79228795D01*
X43912500Y-79228792D01*
X43912500Y-79071207D01*
X43912499Y-79071204D01*
X43881757Y-78916651D01*
X43881755Y-78916645D01*
X43828345Y-78787706D01*
X43466053Y-79149999D01*
X43262500Y-79149999D01*
X43262500Y-79120163D01*
X43239664Y-79065032D01*
X43197468Y-79022836D01*
X43142337Y-79000000D01*
X43082663Y-79000000D01*
X43027532Y-79022836D01*
X42985336Y-79065032D01*
X42962500Y-79120163D01*
X42729110Y-79120163D01*
X42396653Y-78787706D01*
X42396652Y-78787706D01*
X42343243Y-78916647D01*
X42343243Y-78916649D01*
X42312500Y-79071204D01*
X38524245Y-79071204D01*
X38539877Y-79031564D01*
X38550500Y-78943102D01*
X38550500Y-78650000D01*
X42966053Y-78650000D01*
X43112499Y-78796445D01*
X43258946Y-78649999D01*
X43112500Y-78503553D01*
X42966053Y-78650000D01*
X38550500Y-78650000D01*
X38550500Y-78071204D01*
X42312500Y-78071204D01*
X42312500Y-78228795D01*
X42343242Y-78383349D01*
X42396652Y-78512292D01*
X42758946Y-78149999D01*
X42729110Y-78120163D01*
X42962500Y-78120163D01*
X42962500Y-78179837D01*
X42985336Y-78234968D01*
X43027532Y-78277164D01*
X43082663Y-78300000D01*
X43142337Y-78300000D01*
X43197468Y-78277164D01*
X43239664Y-78234968D01*
X43262500Y-78179837D01*
X43262500Y-78149999D01*
X43466053Y-78149999D01*
X43828346Y-78512292D01*
X43881755Y-78383354D01*
X43881757Y-78383348D01*
X43912499Y-78228795D01*
X43912500Y-78228792D01*
X43912500Y-78071207D01*
X43912499Y-78071204D01*
X43881757Y-77916651D01*
X43881755Y-77916645D01*
X43828345Y-77787706D01*
X43466053Y-78149999D01*
X43262500Y-78149999D01*
X43262500Y-78120163D01*
X43239664Y-78065032D01*
X43197468Y-78022836D01*
X43142337Y-78000000D01*
X43082663Y-78000000D01*
X43027532Y-78022836D01*
X42985336Y-78065032D01*
X42962500Y-78120163D01*
X42729110Y-78120163D01*
X42396653Y-77787706D01*
X42396652Y-77787706D01*
X42343243Y-77916647D01*
X42343243Y-77916649D01*
X42312500Y-78071204D01*
X38550500Y-78071204D01*
X38550500Y-77656898D01*
X38539877Y-77568436D01*
X38486922Y-77434152D01*
X42750206Y-77434152D01*
X42750206Y-77434153D01*
X43112499Y-77796445D01*
X43474792Y-77434152D01*
X43345849Y-77380742D01*
X43191295Y-77350000D01*
X43033704Y-77350000D01*
X42879149Y-77380743D01*
X42879147Y-77380743D01*
X42750206Y-77434152D01*
X38486922Y-77434152D01*
X38484361Y-77427658D01*
X38392922Y-77307078D01*
X38272342Y-77215639D01*
X38272341Y-77215638D01*
X38272339Y-77215637D01*
X38131565Y-77160123D01*
X38043106Y-77149500D01*
X38043102Y-77149500D01*
X36756898Y-77149500D01*
X36756893Y-77149500D01*
X36668434Y-77160123D01*
X36527660Y-77215637D01*
X36527656Y-77215640D01*
X36407081Y-77307075D01*
X36407075Y-77307081D01*
X36315640Y-77427656D01*
X36315637Y-77427660D01*
X36260123Y-77568434D01*
X36249500Y-77656893D01*
X35300500Y-77656893D01*
X35300500Y-77004861D01*
X35300977Y-76995157D01*
X35312985Y-76873237D01*
X35316771Y-76854203D01*
X35350915Y-76741645D01*
X35358342Y-76723715D01*
X35368276Y-76705130D01*
X58699500Y-76705130D01*
X58699500Y-78794860D01*
X58699501Y-78794863D01*
X58702414Y-78819990D01*
X58727756Y-78877385D01*
X58747794Y-78922765D01*
X58827235Y-79002206D01*
X58930009Y-79047585D01*
X58955135Y-79050500D01*
X61044864Y-79050499D01*
X61069991Y-79047585D01*
X61172765Y-79002206D01*
X61252206Y-78922765D01*
X61297585Y-78819991D01*
X61300500Y-78794865D01*
X61300499Y-76705136D01*
X61297585Y-76680009D01*
X61252206Y-76577235D01*
X61172765Y-76497794D01*
X61069991Y-76452415D01*
X61069990Y-76452414D01*
X61069988Y-76452414D01*
X61044868Y-76449500D01*
X58955139Y-76449500D01*
X58955136Y-76449501D01*
X58930009Y-76452414D01*
X58827235Y-76497794D01*
X58747794Y-76577235D01*
X58702414Y-76680011D01*
X58699500Y-76705130D01*
X35368276Y-76705130D01*
X35394746Y-76655608D01*
X35394746Y-76655607D01*
X35413791Y-76619977D01*
X35424573Y-76603841D01*
X35446408Y-76577235D01*
X35499196Y-76512912D01*
X35512912Y-76499196D01*
X35603842Y-76424571D01*
X35619977Y-76413791D01*
X35723716Y-76358340D01*
X35741643Y-76350915D01*
X35854207Y-76316770D01*
X35873233Y-76312985D01*
X35995157Y-76300976D01*
X36004861Y-76300500D01*
X47102355Y-76300500D01*
X47304529Y-76268478D01*
X47304530Y-76268477D01*
X47304534Y-76268477D01*
X47499219Y-76205220D01*
X47681610Y-76112287D01*
X47847219Y-75991966D01*
X47991966Y-75847219D01*
X48112287Y-75681610D01*
X48205220Y-75499219D01*
X48268477Y-75304534D01*
X48300500Y-75102352D01*
X48300500Y-75000000D01*
X48300500Y-74952405D01*
X48300500Y-70853385D01*
X49899500Y-70853385D01*
X49899500Y-71026614D01*
X49926597Y-71197702D01*
X49926598Y-71197706D01*
X49980123Y-71362438D01*
X49980125Y-71362441D01*
X50040499Y-71480934D01*
X50058768Y-71516788D01*
X50160586Y-71656928D01*
X50283072Y-71779414D01*
X50423212Y-71881232D01*
X50577555Y-71959873D01*
X50577557Y-71959873D01*
X50577558Y-71959874D01*
X50577561Y-71959876D01*
X50742293Y-72013401D01*
X50742297Y-72013402D01*
X50913386Y-72040500D01*
X50913389Y-72040500D01*
X51086614Y-72040500D01*
X51257702Y-72013402D01*
X51257706Y-72013401D01*
X51422438Y-71959876D01*
X51422440Y-71959874D01*
X51422445Y-71959873D01*
X51576788Y-71881232D01*
X51716928Y-71779414D01*
X51839414Y-71656928D01*
X51941232Y-71516788D01*
X52019873Y-71362445D01*
X52019874Y-71362440D01*
X52019876Y-71362438D01*
X52073401Y-71197706D01*
X52073402Y-71197702D01*
X52100500Y-71026614D01*
X52100500Y-70853385D01*
X52073402Y-70682297D01*
X52073401Y-70682293D01*
X52019876Y-70517561D01*
X52019874Y-70517558D01*
X52019873Y-70517557D01*
X52019873Y-70517555D01*
X51941232Y-70363212D01*
X51839414Y-70223072D01*
X51716928Y-70100586D01*
X51576788Y-69998768D01*
X51576787Y-69998767D01*
X51576785Y-69998766D01*
X51422441Y-69920125D01*
X51422438Y-69920123D01*
X51257706Y-69866598D01*
X51257702Y-69866597D01*
X51086614Y-69839500D01*
X51086611Y-69839500D01*
X50913389Y-69839500D01*
X50913386Y-69839500D01*
X50742297Y-69866597D01*
X50742293Y-69866598D01*
X50577561Y-69920123D01*
X50577558Y-69920125D01*
X50423214Y-69998766D01*
X50283073Y-70100585D01*
X50160585Y-70223073D01*
X50058766Y-70363214D01*
X49980125Y-70517558D01*
X49980123Y-70517561D01*
X49926598Y-70682293D01*
X49926597Y-70682297D01*
X49899500Y-70853385D01*
X48300500Y-70853385D01*
X48300500Y-68313385D01*
X49899500Y-68313385D01*
X49899500Y-68486614D01*
X49926597Y-68657702D01*
X49926598Y-68657706D01*
X49980123Y-68822438D01*
X49980125Y-68822441D01*
X50040499Y-68940934D01*
X50058768Y-68976788D01*
X50160586Y-69116928D01*
X50283072Y-69239414D01*
X50423212Y-69341232D01*
X50577555Y-69419873D01*
X50577557Y-69419873D01*
X50577558Y-69419874D01*
X50577561Y-69419876D01*
X50742293Y-69473401D01*
X50742297Y-69473402D01*
X50913386Y-69500500D01*
X50913389Y-69500500D01*
X51086614Y-69500500D01*
X51257702Y-69473402D01*
X51257706Y-69473401D01*
X51422438Y-69419876D01*
X51422440Y-69419874D01*
X51422445Y-69419873D01*
X51576788Y-69341232D01*
X51716928Y-69239414D01*
X51839414Y-69116928D01*
X51941232Y-68976788D01*
X52019873Y-68822445D01*
X52019874Y-68822440D01*
X52019876Y-68822438D01*
X52073401Y-68657706D01*
X52073402Y-68657702D01*
X52100500Y-68486614D01*
X52100500Y-68313385D01*
X52073402Y-68142297D01*
X52073401Y-68142293D01*
X52019876Y-67977561D01*
X52019874Y-67977558D01*
X52019873Y-67977557D01*
X52019873Y-67977555D01*
X51941232Y-67823212D01*
X51839414Y-67683072D01*
X51716928Y-67560586D01*
X51576788Y-67458768D01*
X51576787Y-67458767D01*
X51576785Y-67458766D01*
X51422441Y-67380125D01*
X51422438Y-67380123D01*
X51257706Y-67326598D01*
X51257702Y-67326597D01*
X51086614Y-67299500D01*
X51086611Y-67299500D01*
X50913389Y-67299500D01*
X50913386Y-67299500D01*
X50742297Y-67326597D01*
X50742293Y-67326598D01*
X50577561Y-67380123D01*
X50577558Y-67380125D01*
X50423214Y-67458766D01*
X50283073Y-67560585D01*
X50160585Y-67683073D01*
X50058766Y-67823214D01*
X49980125Y-67977558D01*
X49980123Y-67977561D01*
X49926598Y-68142293D01*
X49926597Y-68142297D01*
X49899500Y-68313385D01*
X48300500Y-68313385D01*
X48300500Y-65773385D01*
X49899500Y-65773385D01*
X49899500Y-65946614D01*
X49926597Y-66117702D01*
X49926598Y-66117706D01*
X49980123Y-66282438D01*
X49980125Y-66282441D01*
X50040499Y-66400934D01*
X50058768Y-66436788D01*
X50160586Y-66576928D01*
X50283072Y-66699414D01*
X50423212Y-66801232D01*
X50577555Y-66879873D01*
X50577557Y-66879873D01*
X50577558Y-66879874D01*
X50577561Y-66879876D01*
X50742293Y-66933401D01*
X50742297Y-66933402D01*
X50913386Y-66960500D01*
X50913389Y-66960500D01*
X51086614Y-66960500D01*
X51257702Y-66933402D01*
X51257706Y-66933401D01*
X51422438Y-66879876D01*
X51422440Y-66879874D01*
X51422445Y-66879873D01*
X51576788Y-66801232D01*
X51716928Y-66699414D01*
X51839414Y-66576928D01*
X51941232Y-66436788D01*
X52019873Y-66282445D01*
X52019874Y-66282440D01*
X52019876Y-66282438D01*
X52073401Y-66117706D01*
X52073402Y-66117702D01*
X52100500Y-65946614D01*
X52100500Y-65773385D01*
X52073402Y-65602297D01*
X52073401Y-65602293D01*
X52019876Y-65437561D01*
X52019874Y-65437558D01*
X52019873Y-65437557D01*
X52019873Y-65437555D01*
X51941232Y-65283212D01*
X51839414Y-65143072D01*
X51716928Y-65020586D01*
X51576788Y-64918768D01*
X51576787Y-64918767D01*
X51576785Y-64918766D01*
X51422441Y-64840125D01*
X51422438Y-64840123D01*
X51257706Y-64786598D01*
X51257702Y-64786597D01*
X51086614Y-64759500D01*
X51086611Y-64759500D01*
X50913389Y-64759500D01*
X50913386Y-64759500D01*
X50742297Y-64786597D01*
X50742293Y-64786598D01*
X50577561Y-64840123D01*
X50577558Y-64840125D01*
X50423214Y-64918766D01*
X50283073Y-65020585D01*
X50160585Y-65143073D01*
X50058766Y-65283214D01*
X49980125Y-65437558D01*
X49980123Y-65437561D01*
X49926598Y-65602293D01*
X49926597Y-65602297D01*
X49899500Y-65773385D01*
X48300500Y-65773385D01*
X48300500Y-63233385D01*
X49899500Y-63233385D01*
X49899500Y-63406614D01*
X49926597Y-63577702D01*
X49926598Y-63577706D01*
X49980123Y-63742438D01*
X49980125Y-63742441D01*
X50040499Y-63860934D01*
X50058768Y-63896788D01*
X50160586Y-64036928D01*
X50283072Y-64159414D01*
X50423212Y-64261232D01*
X50577555Y-64339873D01*
X50577557Y-64339873D01*
X50577558Y-64339874D01*
X50577561Y-64339876D01*
X50742293Y-64393401D01*
X50742297Y-64393402D01*
X50913386Y-64420500D01*
X50913389Y-64420500D01*
X51086614Y-64420500D01*
X51257702Y-64393402D01*
X51257706Y-64393401D01*
X51422438Y-64339876D01*
X51422440Y-64339874D01*
X51422445Y-64339873D01*
X51576788Y-64261232D01*
X51716928Y-64159414D01*
X51839414Y-64036928D01*
X51851028Y-64020943D01*
X58699500Y-64020943D01*
X58699500Y-64179057D01*
X58740423Y-64331784D01*
X58819480Y-64468716D01*
X58931284Y-64580520D01*
X59068216Y-64659577D01*
X59220943Y-64700500D01*
X59220945Y-64700500D01*
X59379055Y-64700500D01*
X59379057Y-64700500D01*
X59531784Y-64659577D01*
X59668716Y-64580520D01*
X59780520Y-64468716D01*
X59798616Y-64437369D01*
X59809865Y-64421657D01*
X59818632Y-64411646D01*
X59854513Y-64351008D01*
X59863354Y-64334990D01*
X59863999Y-64333734D01*
X59871986Y-64316944D01*
X59898885Y-64255650D01*
X59907749Y-64233053D01*
X59908355Y-64231307D01*
X59915334Y-64208317D01*
X59945291Y-64093587D01*
X59946532Y-64088666D01*
X59946634Y-64088247D01*
X59948032Y-64082240D01*
X59956084Y-64045989D01*
X59959449Y-64034301D01*
X59959975Y-64032824D01*
X59968004Y-64015672D01*
X59969108Y-64013803D01*
X59979518Y-63999342D01*
X60014623Y-63958840D01*
X60018592Y-63952150D01*
X60033727Y-63932664D01*
X61135380Y-62831011D01*
X61143292Y-62823909D01*
X61148453Y-62819753D01*
X61162244Y-62811411D01*
X61193658Y-62783359D01*
X61195616Y-62781784D01*
X61199694Y-62780231D01*
X61222504Y-62766367D01*
X61248906Y-62756327D01*
X61263474Y-62752035D01*
X61276522Y-62749259D01*
X61279556Y-62748614D01*
X61281167Y-62748252D01*
X61286172Y-62747129D01*
X61286642Y-62747018D01*
X61292298Y-62745625D01*
X61401770Y-62717557D01*
X61424380Y-62710820D01*
X61426089Y-62710238D01*
X61448113Y-62701775D01*
X61511649Y-62674501D01*
X61529087Y-62666355D01*
X61530405Y-62665688D01*
X61547383Y-62656410D01*
X61610952Y-62619007D01*
X61618160Y-62614630D01*
X61618695Y-62614295D01*
X61631273Y-62605981D01*
X61631280Y-62605973D01*
X61635283Y-62602679D01*
X61635466Y-62602902D01*
X61651666Y-62590363D01*
X61668716Y-62580520D01*
X61780520Y-62468716D01*
X61859577Y-62331784D01*
X61900500Y-62179057D01*
X61900500Y-62020943D01*
X61859577Y-61868216D01*
X61780520Y-61731284D01*
X61668716Y-61619480D01*
X61531784Y-61540423D01*
X61379057Y-61499500D01*
X61220943Y-61499500D01*
X61115927Y-61527639D01*
X61068216Y-61540423D01*
X60931284Y-61619480D01*
X60819478Y-61731286D01*
X60801384Y-61762626D01*
X60790136Y-61778337D01*
X60781366Y-61788354D01*
X60745486Y-61848991D01*
X60736730Y-61864841D01*
X60736097Y-61866070D01*
X60728023Y-61883032D01*
X60701104Y-61944371D01*
X60692243Y-61966961D01*
X60691634Y-61968716D01*
X60684672Y-61991654D01*
X60654697Y-62106454D01*
X60653489Y-62111234D01*
X60653409Y-62111564D01*
X60651972Y-62117733D01*
X60643922Y-62153973D01*
X60640529Y-62165749D01*
X60640006Y-62167216D01*
X60631995Y-62184321D01*
X60630904Y-62186168D01*
X60620479Y-62200654D01*
X60585372Y-62241163D01*
X60585371Y-62241165D01*
X60581396Y-62247864D01*
X60566265Y-62267340D01*
X59464628Y-63368977D01*
X59456707Y-63376088D01*
X59451542Y-63380245D01*
X59437752Y-63388590D01*
X59406356Y-63416623D01*
X59404385Y-63418211D01*
X59400309Y-63419762D01*
X59377489Y-63433632D01*
X59351109Y-63443663D01*
X59336540Y-63447956D01*
X59320473Y-63451377D01*
X59320456Y-63451380D01*
X59320441Y-63451384D01*
X59316407Y-63452288D01*
X59313855Y-63452861D01*
X59313444Y-63452958D01*
X59307714Y-63454369D01*
X59198242Y-63482436D01*
X59175621Y-63489178D01*
X59175616Y-63489179D01*
X59175615Y-63489180D01*
X59173909Y-63489761D01*
X59173903Y-63489763D01*
X59173895Y-63489766D01*
X59151887Y-63498222D01*
X59088335Y-63525504D01*
X59070880Y-63533659D01*
X59069584Y-63534314D01*
X59052616Y-63543589D01*
X58989053Y-63580988D01*
X58984417Y-63583805D01*
X58981601Y-63585517D01*
X58981319Y-63585693D01*
X58981068Y-63585851D01*
X58968729Y-63594014D01*
X58964732Y-63597308D01*
X58964550Y-63597087D01*
X58948331Y-63609637D01*
X58931283Y-63619480D01*
X58931279Y-63619483D01*
X58819482Y-63731281D01*
X58819480Y-63731283D01*
X58819480Y-63731284D01*
X58740423Y-63868216D01*
X58699500Y-64020943D01*
X51851028Y-64020943D01*
X51941232Y-63896788D01*
X52019873Y-63742445D01*
X52019874Y-63742440D01*
X52019876Y-63742438D01*
X52073401Y-63577706D01*
X52073402Y-63577702D01*
X52100500Y-63406614D01*
X52100500Y-63233385D01*
X52073402Y-63062297D01*
X52073401Y-63062293D01*
X52019876Y-62897561D01*
X52019874Y-62897558D01*
X52019873Y-62897557D01*
X52019873Y-62897555D01*
X51941232Y-62743212D01*
X51839414Y-62603072D01*
X51716928Y-62480586D01*
X51576788Y-62378768D01*
X51576787Y-62378767D01*
X51576785Y-62378766D01*
X51422441Y-62300125D01*
X51422438Y-62300123D01*
X51257706Y-62246598D01*
X51257702Y-62246597D01*
X51086614Y-62219500D01*
X51086611Y-62219500D01*
X50913389Y-62219500D01*
X50913386Y-62219500D01*
X50742297Y-62246597D01*
X50742293Y-62246598D01*
X50577561Y-62300123D01*
X50577558Y-62300125D01*
X50423214Y-62378766D01*
X50283073Y-62480585D01*
X50160585Y-62603073D01*
X50058766Y-62743214D01*
X49980125Y-62897558D01*
X49980123Y-62897561D01*
X49926598Y-63062293D01*
X49926597Y-63062297D01*
X49899500Y-63233385D01*
X48300500Y-63233385D01*
X48300500Y-60693385D01*
X49899500Y-60693385D01*
X49899500Y-60866614D01*
X49926597Y-61037702D01*
X49926598Y-61037706D01*
X49980123Y-61202438D01*
X49980125Y-61202441D01*
X50040499Y-61320934D01*
X50058768Y-61356788D01*
X50160586Y-61496928D01*
X50283072Y-61619414D01*
X50423212Y-61721232D01*
X50577555Y-61799873D01*
X50577557Y-61799873D01*
X50577558Y-61799874D01*
X50577561Y-61799876D01*
X50742293Y-61853401D01*
X50742297Y-61853402D01*
X50913386Y-61880500D01*
X50913389Y-61880500D01*
X51086614Y-61880500D01*
X51257702Y-61853402D01*
X51257706Y-61853401D01*
X51422438Y-61799876D01*
X51422440Y-61799874D01*
X51422445Y-61799873D01*
X51576788Y-61721232D01*
X51716928Y-61619414D01*
X51839414Y-61496928D01*
X51941232Y-61356788D01*
X52019873Y-61202445D01*
X52019874Y-61202440D01*
X52019876Y-61202438D01*
X52073401Y-61037706D01*
X52073402Y-61037702D01*
X52100500Y-60866614D01*
X52100500Y-60693385D01*
X52073402Y-60522297D01*
X52073401Y-60522293D01*
X52019876Y-60357561D01*
X52019874Y-60357558D01*
X52019873Y-60357557D01*
X52019873Y-60357555D01*
X51941232Y-60203212D01*
X51839414Y-60063072D01*
X51716928Y-59940586D01*
X51576788Y-59838768D01*
X51576787Y-59838767D01*
X51576785Y-59838766D01*
X51422441Y-59760125D01*
X51422438Y-59760123D01*
X51257706Y-59706598D01*
X51257702Y-59706597D01*
X51086614Y-59679500D01*
X51086611Y-59679500D01*
X50913389Y-59679500D01*
X50913386Y-59679500D01*
X50742297Y-59706597D01*
X50742293Y-59706598D01*
X50577561Y-59760123D01*
X50577558Y-59760125D01*
X50423214Y-59838766D01*
X50283073Y-59940585D01*
X50160585Y-60063073D01*
X50058766Y-60203214D01*
X49980125Y-60357558D01*
X49980123Y-60357561D01*
X49926598Y-60522293D01*
X49926597Y-60522297D01*
X49899500Y-60693385D01*
X48300500Y-60693385D01*
X48300500Y-58153385D01*
X49899500Y-58153385D01*
X49899500Y-58326614D01*
X49926597Y-58497702D01*
X49926598Y-58497706D01*
X49980123Y-58662438D01*
X49980125Y-58662441D01*
X50034701Y-58769555D01*
X50058768Y-58816788D01*
X50160586Y-58956928D01*
X50283072Y-59079414D01*
X50423212Y-59181232D01*
X50577555Y-59259873D01*
X50577557Y-59259873D01*
X50577558Y-59259874D01*
X50577561Y-59259876D01*
X50742293Y-59313401D01*
X50742297Y-59313402D01*
X50913386Y-59340500D01*
X50913389Y-59340500D01*
X51086614Y-59340500D01*
X51257702Y-59313402D01*
X51257706Y-59313401D01*
X51422438Y-59259876D01*
X51422440Y-59259874D01*
X51422445Y-59259873D01*
X51576788Y-59181232D01*
X51716928Y-59079414D01*
X51839414Y-58956928D01*
X51941232Y-58816788D01*
X52019873Y-58662445D01*
X52019874Y-58662440D01*
X52019876Y-58662438D01*
X52073401Y-58497706D01*
X52073402Y-58497702D01*
X52100500Y-58326614D01*
X52100500Y-58153385D01*
X52073402Y-57982297D01*
X52073401Y-57982293D01*
X52019876Y-57817561D01*
X52019874Y-57817558D01*
X52019873Y-57817557D01*
X52019873Y-57817555D01*
X51941232Y-57663212D01*
X51839414Y-57523072D01*
X51716928Y-57400586D01*
X51576788Y-57298768D01*
X51576787Y-57298767D01*
X51576785Y-57298766D01*
X51422443Y-57220126D01*
X51407254Y-57215191D01*
X51407252Y-57215189D01*
X51257706Y-57166598D01*
X51257702Y-57166597D01*
X51086614Y-57139500D01*
X51086611Y-57139500D01*
X50913389Y-57139500D01*
X50913386Y-57139500D01*
X50742297Y-57166597D01*
X50742293Y-57166598D01*
X50577561Y-57220123D01*
X50577558Y-57220125D01*
X50423214Y-57298766D01*
X50283073Y-57400585D01*
X50160585Y-57523073D01*
X50058766Y-57663214D01*
X49980125Y-57817558D01*
X49980123Y-57817561D01*
X49926598Y-57982293D01*
X49926597Y-57982297D01*
X49899500Y-58153385D01*
X48300500Y-58153385D01*
X48300500Y-57127525D01*
X55549500Y-57127525D01*
X55549500Y-57272477D01*
X55562589Y-57321329D01*
X55565226Y-57334897D01*
X55565872Y-57340163D01*
X55567501Y-57353447D01*
X55600727Y-57458323D01*
X55606530Y-57476639D01*
X55606538Y-57476664D01*
X55616482Y-57503582D01*
X55616486Y-57503593D01*
X55617342Y-57505611D01*
X55617359Y-57505649D01*
X55629704Y-57531352D01*
X55629734Y-57531411D01*
X55661329Y-57589999D01*
X55663309Y-57593872D01*
X55682664Y-57633876D01*
X55692351Y-57670759D01*
X55694414Y-57703464D01*
X55694414Y-57703467D01*
X55696576Y-57712160D01*
X55699500Y-57736044D01*
X55699500Y-57922596D01*
X55699499Y-57922599D01*
X55699499Y-58090555D01*
X55732639Y-58342276D01*
X55732639Y-58342281D01*
X55798354Y-58587533D01*
X55895520Y-58822110D01*
X55973358Y-58956928D01*
X56022471Y-59041994D01*
X56177036Y-59243428D01*
X56177039Y-59243431D01*
X56226061Y-59292454D01*
X56226062Y-59292454D01*
X56229518Y-59295910D01*
X56229520Y-59295913D01*
X56398648Y-59465041D01*
X56404024Y-59470867D01*
X56408618Y-59476265D01*
X56419008Y-59492763D01*
X56464241Y-59541630D01*
X56464247Y-59541637D01*
X56464370Y-59541770D01*
X56464371Y-59541771D01*
X56478997Y-59557571D01*
X56486415Y-59566600D01*
X56511156Y-59600623D01*
X56516401Y-59608620D01*
X56540703Y-59649900D01*
X56541716Y-59651608D01*
X56541811Y-59651767D01*
X56543532Y-59654611D01*
X56625287Y-59788122D01*
X56626992Y-59790854D01*
X56628090Y-59792614D01*
X56628244Y-59792854D01*
X56628285Y-59792919D01*
X56635314Y-59803474D01*
X56635567Y-59803723D01*
X56636264Y-59804624D01*
X56638557Y-59807401D01*
X56638468Y-59807474D01*
X56651837Y-59824759D01*
X56659488Y-59838010D01*
X56659491Y-59838015D01*
X56761985Y-59940509D01*
X56761987Y-59940510D01*
X56761989Y-59940512D01*
X56887511Y-60012982D01*
X56887512Y-60012982D01*
X56887515Y-60012984D01*
X57027525Y-60050500D01*
X57027526Y-60050500D01*
X57172474Y-60050500D01*
X57172475Y-60050500D01*
X57312485Y-60012984D01*
X57312487Y-60012982D01*
X57312489Y-60012982D01*
X57438010Y-59940512D01*
X57438010Y-59940511D01*
X57438015Y-59940509D01*
X57540509Y-59838015D01*
X57540512Y-59838010D01*
X57612982Y-59712489D01*
X57612982Y-59712487D01*
X57612984Y-59712485D01*
X57650500Y-59572475D01*
X57650500Y-59427525D01*
X57612984Y-59287515D01*
X57612982Y-59287512D01*
X57612982Y-59287510D01*
X57540512Y-59161989D01*
X57540510Y-59161987D01*
X57540509Y-59161985D01*
X57438015Y-59059491D01*
X57438012Y-59059489D01*
X57438010Y-59059487D01*
X57312488Y-58987017D01*
X57312489Y-58987017D01*
X57172472Y-58949499D01*
X57171295Y-58949344D01*
X57162519Y-58948835D01*
X57162500Y-58948832D01*
X57162500Y-58948833D01*
X57162491Y-58948832D01*
X57162457Y-58948828D01*
X57161427Y-58948707D01*
X57157572Y-58948258D01*
X57040808Y-58934637D01*
X57037964Y-58934330D01*
X57037432Y-58934268D01*
X57026400Y-58929207D01*
X56989663Y-58913207D01*
X56988827Y-58914368D01*
X56985247Y-58911787D01*
X56985241Y-58911782D01*
X56978562Y-58907820D01*
X56959076Y-58892683D01*
X56835948Y-58769555D01*
X56830672Y-58763846D01*
X56722496Y-58637188D01*
X56713365Y-58624621D01*
X56635591Y-58497706D01*
X56628373Y-58485928D01*
X56621323Y-58472091D01*
X56611837Y-58449191D01*
X56559074Y-58321810D01*
X56554275Y-58307039D01*
X56516300Y-58148863D01*
X56513873Y-58133534D01*
X56507108Y-58047577D01*
X57895974Y-58047577D01*
X57895974Y-58047578D01*
X58001234Y-58091178D01*
X58146128Y-58119999D01*
X58146132Y-58120000D01*
X58293868Y-58120000D01*
X58293871Y-58119999D01*
X58438764Y-58091178D01*
X58438770Y-58091176D01*
X58579751Y-58032780D01*
X58580426Y-58034409D01*
X58633534Y-58024909D01*
X58659953Y-58033493D01*
X58660249Y-58032780D01*
X58801229Y-58091176D01*
X58801235Y-58091178D01*
X58946128Y-58119999D01*
X58946132Y-58120000D01*
X59093868Y-58120000D01*
X59093871Y-58119999D01*
X59238764Y-58091178D01*
X59238770Y-58091176D01*
X59344023Y-58047577D01*
X58843223Y-57546777D01*
X58843223Y-57546776D01*
X58843222Y-57546776D01*
X58636610Y-57340163D01*
X58870000Y-57340163D01*
X58870000Y-57399837D01*
X58892836Y-57454968D01*
X58935032Y-57497164D01*
X58990163Y-57520000D01*
X59049837Y-57520000D01*
X59104968Y-57497164D01*
X59147164Y-57454968D01*
X59170000Y-57399837D01*
X59170000Y-57340163D01*
X59147164Y-57285032D01*
X59104968Y-57242836D01*
X59049837Y-57220000D01*
X58990163Y-57220000D01*
X58935032Y-57242836D01*
X58892836Y-57285032D01*
X58870000Y-57340163D01*
X58636610Y-57340163D01*
X58620000Y-57323553D01*
X58396778Y-57546776D01*
X58396777Y-57546777D01*
X57895974Y-58047577D01*
X56507108Y-58047577D01*
X56502922Y-57994394D01*
X56500805Y-57967489D01*
X56500500Y-57959721D01*
X56500500Y-57734809D01*
X56503418Y-57710948D01*
X56505621Y-57702080D01*
X56507319Y-57673135D01*
X56516605Y-57636711D01*
X56538298Y-57590706D01*
X56540118Y-57587042D01*
X56578435Y-57513837D01*
X56582258Y-57505611D01*
X56590589Y-57487680D01*
X56590591Y-57487676D01*
X56591427Y-57485629D01*
X56601096Y-57458321D01*
X56633982Y-57349261D01*
X56637769Y-57335556D01*
X56638033Y-57334506D01*
X56642468Y-57313877D01*
X56642467Y-57313871D01*
X56642469Y-57313867D01*
X56643023Y-57308466D01*
X56643468Y-57308511D01*
X56645857Y-57289799D01*
X56649297Y-57276962D01*
X56650500Y-57272476D01*
X56650500Y-57127525D01*
X56627048Y-57040003D01*
X56612984Y-56987515D01*
X56612982Y-56987512D01*
X56612982Y-56987510D01*
X56540512Y-56861989D01*
X56540510Y-56861987D01*
X56540509Y-56861985D01*
X56438015Y-56759491D01*
X56438012Y-56759489D01*
X56438010Y-56759487D01*
X56312488Y-56687017D01*
X56312489Y-56687017D01*
X56282896Y-56679087D01*
X56172475Y-56649500D01*
X56027525Y-56649500D01*
X55965790Y-56666041D01*
X55887510Y-56687017D01*
X55761989Y-56759487D01*
X55659487Y-56861989D01*
X55587017Y-56987510D01*
X55549500Y-57127525D01*
X48300500Y-57127525D01*
X48300500Y-55613385D01*
X49899500Y-55613385D01*
X49899500Y-55786614D01*
X49926597Y-55957702D01*
X49926598Y-55957706D01*
X49980123Y-56122438D01*
X49980125Y-56122441D01*
X50043067Y-56245974D01*
X50058768Y-56276788D01*
X50160586Y-56416928D01*
X50283072Y-56539414D01*
X50423212Y-56641232D01*
X50577555Y-56719873D01*
X50577557Y-56719873D01*
X50577558Y-56719874D01*
X50577561Y-56719876D01*
X50742293Y-56773401D01*
X50742297Y-56773402D01*
X50913386Y-56800500D01*
X50913389Y-56800500D01*
X51086614Y-56800500D01*
X51257702Y-56773402D01*
X51257706Y-56773401D01*
X51422438Y-56719876D01*
X51422440Y-56719874D01*
X51422445Y-56719873D01*
X51576788Y-56641232D01*
X51716928Y-56539414D01*
X51760214Y-56496128D01*
X57470000Y-56496128D01*
X57470000Y-56643871D01*
X57498821Y-56788764D01*
X57498823Y-56788770D01*
X57557220Y-56929751D01*
X57555596Y-56930423D01*
X57565085Y-56983566D01*
X57556510Y-57009955D01*
X57557220Y-57010249D01*
X57498823Y-57151229D01*
X57498821Y-57151235D01*
X57470000Y-57296128D01*
X57470000Y-57443871D01*
X57498822Y-57588766D01*
X57498822Y-57588768D01*
X57542420Y-57694024D01*
X57896282Y-57340163D01*
X58070000Y-57340163D01*
X58070000Y-57399837D01*
X58092836Y-57454968D01*
X58135032Y-57497164D01*
X58190163Y-57520000D01*
X58249837Y-57520000D01*
X58304968Y-57497164D01*
X58347164Y-57454968D01*
X58370000Y-57399837D01*
X58370000Y-57340163D01*
X58347164Y-57285032D01*
X58304968Y-57242836D01*
X58249837Y-57220000D01*
X58190163Y-57220000D01*
X58135032Y-57242836D01*
X58092836Y-57285032D01*
X58070000Y-57340163D01*
X57896282Y-57340163D01*
X58043223Y-57193223D01*
X58266446Y-56970000D01*
X58266446Y-56969999D01*
X58973553Y-56969999D01*
X59697577Y-57694023D01*
X59741176Y-57588770D01*
X59741178Y-57588764D01*
X59769999Y-57443871D01*
X59770000Y-57443867D01*
X59770000Y-57296132D01*
X59769999Y-57296128D01*
X59741178Y-57151235D01*
X59741176Y-57151229D01*
X59682780Y-57010249D01*
X59684409Y-57009573D01*
X59674909Y-56956466D01*
X59683493Y-56930046D01*
X59682780Y-56929751D01*
X59741176Y-56788770D01*
X59741178Y-56788764D01*
X59769999Y-56643871D01*
X59770000Y-56643867D01*
X59770000Y-56496132D01*
X59769999Y-56496128D01*
X59741178Y-56351234D01*
X59697578Y-56245974D01*
X59697577Y-56245974D01*
X59196778Y-56746776D01*
X59196777Y-56746777D01*
X58973553Y-56969999D01*
X58266446Y-56969999D01*
X58043223Y-56746776D01*
X58043223Y-56746777D01*
X57836609Y-56540163D01*
X58070000Y-56540163D01*
X58070000Y-56599837D01*
X58092836Y-56654968D01*
X58135032Y-56697164D01*
X58190163Y-56720000D01*
X58249837Y-56720000D01*
X58304968Y-56697164D01*
X58347164Y-56654968D01*
X58370000Y-56599837D01*
X58370000Y-56540163D01*
X58347164Y-56485032D01*
X58304968Y-56442836D01*
X58249837Y-56420000D01*
X58190163Y-56420000D01*
X58135032Y-56442836D01*
X58092836Y-56485032D01*
X58070000Y-56540163D01*
X57836609Y-56540163D01*
X57542420Y-56245974D01*
X57498822Y-56351231D01*
X57498822Y-56351233D01*
X57470000Y-56496128D01*
X51760214Y-56496128D01*
X51839414Y-56416928D01*
X51941232Y-56276788D01*
X52019873Y-56122445D01*
X52019874Y-56122440D01*
X52019876Y-56122438D01*
X52073401Y-55957706D01*
X52073401Y-55957703D01*
X52073402Y-55957701D01*
X52080152Y-55915085D01*
X52081034Y-55909519D01*
X52081034Y-55909518D01*
X52083742Y-55892420D01*
X57895974Y-55892420D01*
X58396777Y-56393223D01*
X58396776Y-56393223D01*
X58620000Y-56616446D01*
X58696283Y-56540163D01*
X58870000Y-56540163D01*
X58870000Y-56599837D01*
X58892836Y-56654968D01*
X58935032Y-56697164D01*
X58990163Y-56720000D01*
X59049837Y-56720000D01*
X59104968Y-56697164D01*
X59147164Y-56654968D01*
X59170000Y-56599837D01*
X59170000Y-56540163D01*
X59147164Y-56485032D01*
X59104968Y-56442836D01*
X59049837Y-56420000D01*
X58990163Y-56420000D01*
X58935032Y-56442836D01*
X58892836Y-56485032D01*
X58870000Y-56540163D01*
X58696283Y-56540163D01*
X58843223Y-56393223D01*
X59344024Y-55892420D01*
X59238767Y-55848822D01*
X59093871Y-55820000D01*
X58946128Y-55820000D01*
X58801235Y-55848821D01*
X58801229Y-55848823D01*
X58660249Y-55907220D01*
X58659576Y-55905596D01*
X58606434Y-55915085D01*
X58580044Y-55906510D01*
X58579751Y-55907220D01*
X58438770Y-55848823D01*
X58438764Y-55848821D01*
X58293871Y-55820000D01*
X58146128Y-55820000D01*
X58001233Y-55848822D01*
X58001231Y-55848822D01*
X57895974Y-55892420D01*
X52083742Y-55892420D01*
X52100500Y-55786614D01*
X52100500Y-55613385D01*
X52073402Y-55442297D01*
X52073401Y-55442293D01*
X52019876Y-55277561D01*
X52019874Y-55277558D01*
X52019873Y-55277557D01*
X52019873Y-55277555D01*
X51941232Y-55123212D01*
X51839414Y-54983072D01*
X51716928Y-54860586D01*
X51576788Y-54758768D01*
X51576787Y-54758767D01*
X51576785Y-54758766D01*
X51422441Y-54680125D01*
X51422438Y-54680123D01*
X51257706Y-54626598D01*
X51257702Y-54626597D01*
X51086614Y-54599500D01*
X51086611Y-54599500D01*
X50913389Y-54599500D01*
X50913386Y-54599500D01*
X50742297Y-54626597D01*
X50742293Y-54626598D01*
X50577561Y-54680123D01*
X50577558Y-54680125D01*
X50423214Y-54758766D01*
X50283073Y-54860585D01*
X50160585Y-54983073D01*
X50058766Y-55123214D01*
X49980125Y-55277558D01*
X49980123Y-55277561D01*
X49926598Y-55442293D01*
X49926597Y-55442297D01*
X49899500Y-55613385D01*
X48300500Y-55613385D01*
X48300500Y-53073385D01*
X49899500Y-53073385D01*
X49899500Y-53246614D01*
X49926597Y-53417702D01*
X49926598Y-53417706D01*
X49980123Y-53582438D01*
X49980125Y-53582441D01*
X49980126Y-53582444D01*
X49980127Y-53582445D01*
X50058768Y-53736788D01*
X50160586Y-53876928D01*
X50283072Y-53999414D01*
X50423212Y-54101232D01*
X50577555Y-54179873D01*
X50577557Y-54179873D01*
X50577558Y-54179874D01*
X50577561Y-54179876D01*
X50742293Y-54233401D01*
X50742297Y-54233402D01*
X50913386Y-54260500D01*
X50913389Y-54260500D01*
X51086614Y-54260500D01*
X51257702Y-54233402D01*
X51257706Y-54233401D01*
X51422438Y-54179876D01*
X51422440Y-54179874D01*
X51422445Y-54179873D01*
X51576788Y-54101232D01*
X51716928Y-53999414D01*
X51839414Y-53876928D01*
X51941232Y-53736788D01*
X52019873Y-53582445D01*
X52019874Y-53582440D01*
X52019876Y-53582438D01*
X52073401Y-53417706D01*
X52073402Y-53417701D01*
X52081762Y-53364923D01*
X52100500Y-53246614D01*
X52100500Y-53073385D01*
X52073402Y-52902297D01*
X52073401Y-52902293D01*
X52019876Y-52737561D01*
X52019874Y-52737558D01*
X52019873Y-52737557D01*
X52019873Y-52737555D01*
X51941232Y-52583212D01*
X51839414Y-52443072D01*
X51716928Y-52320586D01*
X51576788Y-52218768D01*
X51576787Y-52218767D01*
X51576785Y-52218766D01*
X51422441Y-52140125D01*
X51422438Y-52140123D01*
X51257706Y-52086598D01*
X51257702Y-52086597D01*
X51086614Y-52059500D01*
X51086611Y-52059500D01*
X50913389Y-52059500D01*
X50913386Y-52059500D01*
X50742297Y-52086597D01*
X50742293Y-52086598D01*
X50577561Y-52140123D01*
X50577558Y-52140125D01*
X50423214Y-52218766D01*
X50283073Y-52320585D01*
X50160585Y-52443073D01*
X50058766Y-52583214D01*
X49980125Y-52737558D01*
X49980123Y-52737561D01*
X49926598Y-52902293D01*
X49926597Y-52902297D01*
X49899500Y-53073385D01*
X48300500Y-53073385D01*
X48300500Y-50533385D01*
X49899500Y-50533385D01*
X49899500Y-50706614D01*
X49926597Y-50877702D01*
X49926598Y-50877706D01*
X49980123Y-51042438D01*
X49980125Y-51042441D01*
X49980126Y-51042444D01*
X49980127Y-51042445D01*
X50058768Y-51196788D01*
X50160586Y-51336928D01*
X50283072Y-51459414D01*
X50423212Y-51561232D01*
X50577555Y-51639873D01*
X50577557Y-51639873D01*
X50577558Y-51639874D01*
X50577561Y-51639876D01*
X50742293Y-51693401D01*
X50742297Y-51693402D01*
X50913386Y-51720500D01*
X50913389Y-51720500D01*
X51086614Y-51720500D01*
X51257702Y-51693402D01*
X51257706Y-51693401D01*
X51422438Y-51639876D01*
X51422440Y-51639874D01*
X51422445Y-51639873D01*
X51576788Y-51561232D01*
X51716928Y-51459414D01*
X51839414Y-51336928D01*
X51941232Y-51196788D01*
X52019873Y-51042445D01*
X52019874Y-51042440D01*
X52019876Y-51042438D01*
X52073401Y-50877706D01*
X52073402Y-50877701D01*
X52081762Y-50824923D01*
X52100500Y-50706614D01*
X52100500Y-50533385D01*
X52073402Y-50362297D01*
X52073401Y-50362293D01*
X52019876Y-50197561D01*
X52019874Y-50197558D01*
X52019873Y-50197557D01*
X52019873Y-50197555D01*
X51941232Y-50043212D01*
X51839414Y-49903072D01*
X51716928Y-49780586D01*
X51576788Y-49678768D01*
X51576787Y-49678767D01*
X51576785Y-49678766D01*
X51422441Y-49600125D01*
X51422438Y-49600123D01*
X51257706Y-49546598D01*
X51257702Y-49546597D01*
X51086614Y-49519500D01*
X51086611Y-49519500D01*
X50913389Y-49519500D01*
X50913386Y-49519500D01*
X50742297Y-49546597D01*
X50742293Y-49546598D01*
X50577561Y-49600123D01*
X50577558Y-49600125D01*
X50423214Y-49678766D01*
X50283073Y-49780585D01*
X50160585Y-49903073D01*
X50058766Y-50043214D01*
X49980125Y-50197558D01*
X49980123Y-50197561D01*
X49926598Y-50362293D01*
X49926597Y-50362297D01*
X49899500Y-50533385D01*
X48300500Y-50533385D01*
X48300500Y-47993385D01*
X49899500Y-47993385D01*
X49899500Y-48166614D01*
X49926597Y-48337702D01*
X49926598Y-48337706D01*
X49980123Y-48502438D01*
X49980125Y-48502441D01*
X49980126Y-48502444D01*
X49980127Y-48502445D01*
X50058768Y-48656788D01*
X50160586Y-48796928D01*
X50283072Y-48919414D01*
X50423212Y-49021232D01*
X50577555Y-49099873D01*
X50577557Y-49099873D01*
X50577558Y-49099874D01*
X50577561Y-49099876D01*
X50742293Y-49153401D01*
X50742297Y-49153402D01*
X50913386Y-49180500D01*
X50913389Y-49180500D01*
X51086614Y-49180500D01*
X51257702Y-49153402D01*
X51257706Y-49153401D01*
X51422438Y-49099876D01*
X51422440Y-49099874D01*
X51422445Y-49099873D01*
X51576788Y-49021232D01*
X51716928Y-48919414D01*
X51839414Y-48796928D01*
X51941232Y-48656788D01*
X52019873Y-48502445D01*
X52019874Y-48502440D01*
X52019876Y-48502438D01*
X52073401Y-48337706D01*
X52073402Y-48337701D01*
X52081762Y-48284923D01*
X52100500Y-48166614D01*
X52100500Y-47993385D01*
X52073402Y-47822297D01*
X52073401Y-47822293D01*
X52019876Y-47657561D01*
X52019874Y-47657558D01*
X52019873Y-47657557D01*
X52019873Y-47657555D01*
X51941232Y-47503212D01*
X51839414Y-47363072D01*
X51716928Y-47240586D01*
X51576788Y-47138768D01*
X51576787Y-47138767D01*
X51576785Y-47138766D01*
X51422441Y-47060125D01*
X51422438Y-47060123D01*
X51257706Y-47006598D01*
X51257702Y-47006597D01*
X51086614Y-46979500D01*
X51086611Y-46979500D01*
X50913389Y-46979500D01*
X50913386Y-46979500D01*
X50742297Y-47006597D01*
X50742293Y-47006598D01*
X50577561Y-47060123D01*
X50577558Y-47060125D01*
X50423214Y-47138766D01*
X50283073Y-47240585D01*
X50160585Y-47363073D01*
X50058766Y-47503214D01*
X49980125Y-47657558D01*
X49980123Y-47657561D01*
X49926598Y-47822293D01*
X49926597Y-47822297D01*
X49899500Y-47993385D01*
X48300500Y-47993385D01*
X48300500Y-45453385D01*
X49899500Y-45453385D01*
X49899500Y-45626614D01*
X49926597Y-45797702D01*
X49926598Y-45797706D01*
X49980123Y-45962438D01*
X49980125Y-45962441D01*
X49980126Y-45962444D01*
X49980127Y-45962445D01*
X50058768Y-46116788D01*
X50160586Y-46256928D01*
X50283072Y-46379414D01*
X50423212Y-46481232D01*
X50577555Y-46559873D01*
X50577557Y-46559873D01*
X50577558Y-46559874D01*
X50577561Y-46559876D01*
X50742293Y-46613401D01*
X50742297Y-46613402D01*
X50913386Y-46640500D01*
X50913389Y-46640500D01*
X51086614Y-46640500D01*
X51257702Y-46613402D01*
X51257706Y-46613401D01*
X51422438Y-46559876D01*
X51422440Y-46559874D01*
X51422445Y-46559873D01*
X51576788Y-46481232D01*
X51716928Y-46379414D01*
X51839414Y-46256928D01*
X51941232Y-46116788D01*
X52019873Y-45962445D01*
X52019874Y-45962440D01*
X52019876Y-45962438D01*
X52073401Y-45797706D01*
X52073402Y-45797701D01*
X52081762Y-45744923D01*
X52100500Y-45626614D01*
X52100500Y-45453385D01*
X52073402Y-45282297D01*
X52073401Y-45282293D01*
X52019876Y-45117561D01*
X52019874Y-45117558D01*
X52019873Y-45117557D01*
X52019873Y-45117555D01*
X51941232Y-44963212D01*
X51839414Y-44823072D01*
X51716928Y-44700586D01*
X51576788Y-44598768D01*
X51576787Y-44598767D01*
X51576785Y-44598766D01*
X51422441Y-44520125D01*
X51422438Y-44520123D01*
X51257706Y-44466598D01*
X51257702Y-44466597D01*
X51086614Y-44439500D01*
X51086611Y-44439500D01*
X50913389Y-44439500D01*
X50913386Y-44439500D01*
X50742297Y-44466597D01*
X50742293Y-44466598D01*
X50577561Y-44520123D01*
X50577558Y-44520125D01*
X50423214Y-44598766D01*
X50283073Y-44700585D01*
X50160585Y-44823073D01*
X50058766Y-44963214D01*
X49980125Y-45117558D01*
X49980123Y-45117561D01*
X49926598Y-45282293D01*
X49926597Y-45282297D01*
X49899500Y-45453385D01*
X48300500Y-45453385D01*
X48300500Y-42155130D01*
X49899500Y-42155130D01*
X49899500Y-43844860D01*
X49899501Y-43844863D01*
X49902414Y-43869990D01*
X49927756Y-43927385D01*
X49947794Y-43972765D01*
X50027235Y-44052206D01*
X50130009Y-44097585D01*
X50155135Y-44100500D01*
X51844864Y-44100499D01*
X51869991Y-44097585D01*
X51972765Y-44052206D01*
X52052206Y-43972765D01*
X52097585Y-43869991D01*
X52100500Y-43844865D01*
X52100499Y-42155136D01*
X52097585Y-42130009D01*
X52052206Y-42027235D01*
X51972765Y-41947794D01*
X51869991Y-41902415D01*
X51869990Y-41902414D01*
X51869988Y-41902414D01*
X51844868Y-41899500D01*
X50155139Y-41899500D01*
X50155136Y-41899501D01*
X50130009Y-41902414D01*
X50027235Y-41947794D01*
X49947794Y-42027235D01*
X49902414Y-42130011D01*
X49899500Y-42155130D01*
X48300500Y-42155130D01*
X48300500Y-39004861D01*
X48300977Y-38995157D01*
X48312985Y-38873237D01*
X48316771Y-38854203D01*
X48350915Y-38741645D01*
X48358342Y-38723714D01*
X48413791Y-38619977D01*
X48424573Y-38603841D01*
X48499196Y-38512912D01*
X48512912Y-38499196D01*
X48603842Y-38424571D01*
X48619977Y-38413791D01*
X48723716Y-38358340D01*
X48741643Y-38350915D01*
X48854207Y-38316770D01*
X48873233Y-38312985D01*
X48995157Y-38300976D01*
X49004861Y-38300500D01*
X49047595Y-38300500D01*
X66452405Y-38300500D01*
X66495139Y-38300500D01*
X66504842Y-38300976D01*
G37*
%TD.AperFunction*%
%TA.AperFunction,Conductor*%
G36*
X66490000Y-57924314D02*
G01*
X66485606Y-57919920D01*
X66394394Y-57867259D01*
X66292661Y-57840000D01*
X66187339Y-57840000D01*
X66085606Y-57867259D01*
X65994394Y-57919920D01*
X65990000Y-57924314D01*
X65990000Y-56015686D01*
X65994394Y-56020080D01*
X66085606Y-56072741D01*
X66187339Y-56100000D01*
X66292661Y-56100000D01*
X66394394Y-56072741D01*
X66485606Y-56020080D01*
X66490000Y-56015686D01*
X66490000Y-57924314D01*
G37*
%TD.AperFunction*%
%TA.AperFunction,Conductor*%
G36*
X66490000Y-55384314D02*
G01*
X66485606Y-55379920D01*
X66394394Y-55327259D01*
X66292661Y-55300000D01*
X66187339Y-55300000D01*
X66085606Y-55327259D01*
X65994394Y-55379920D01*
X65990000Y-55384314D01*
X65990000Y-53475686D01*
X65994394Y-53480080D01*
X66085606Y-53532741D01*
X66187339Y-53560000D01*
X66292661Y-53560000D01*
X66394394Y-53532741D01*
X66485606Y-53480080D01*
X66490000Y-53475686D01*
X66490000Y-55384314D01*
G37*
%TD.AperFunction*%
%TA.AperFunction,Conductor*%
G36*
X66490000Y-52844314D02*
G01*
X66485606Y-52839920D01*
X66394394Y-52787259D01*
X66292661Y-52760000D01*
X66187339Y-52760000D01*
X66085606Y-52787259D01*
X65994394Y-52839920D01*
X65990000Y-52844314D01*
X65990000Y-50935686D01*
X65994394Y-50940080D01*
X66085606Y-50992741D01*
X66187339Y-51020000D01*
X66292661Y-51020000D01*
X66394394Y-50992741D01*
X66485606Y-50940080D01*
X66490000Y-50935686D01*
X66490000Y-52844314D01*
G37*
%TD.AperFunction*%
%TA.AperFunction,Conductor*%
G36*
X66490000Y-50304314D02*
G01*
X66485606Y-50299920D01*
X66394394Y-50247259D01*
X66292661Y-50220000D01*
X66187339Y-50220000D01*
X66085606Y-50247259D01*
X65994394Y-50299920D01*
X65990000Y-50304314D01*
X65990000Y-48395686D01*
X65994394Y-48400080D01*
X66085606Y-48452741D01*
X66187339Y-48480000D01*
X66292661Y-48480000D01*
X66394394Y-48452741D01*
X66485606Y-48400080D01*
X66490000Y-48395686D01*
X66490000Y-50304314D01*
G37*
%TD.AperFunction*%
%TA.AperFunction,Conductor*%
G36*
X66490000Y-47764314D02*
G01*
X66485606Y-47759920D01*
X66394394Y-47707259D01*
X66292661Y-47680000D01*
X66187339Y-47680000D01*
X66085606Y-47707259D01*
X65994394Y-47759920D01*
X65990000Y-47764314D01*
X65990000Y-45855686D01*
X65994394Y-45860080D01*
X66085606Y-45912741D01*
X66187339Y-45940000D01*
X66292661Y-45940000D01*
X66394394Y-45912741D01*
X66485606Y-45860080D01*
X66490000Y-45855686D01*
X66490000Y-47764314D01*
G37*
%TD.AperFunction*%
%TA.AperFunction,Conductor*%
G36*
X66490000Y-45224314D02*
G01*
X66485606Y-45219920D01*
X66394394Y-45167259D01*
X66292661Y-45140000D01*
X66187339Y-45140000D01*
X66085606Y-45167259D01*
X65994394Y-45219920D01*
X65990000Y-45224314D01*
X65990000Y-43315686D01*
X65994394Y-43320080D01*
X66085606Y-43372741D01*
X66187339Y-43400000D01*
X66292661Y-43400000D01*
X66394394Y-43372741D01*
X66485606Y-43320080D01*
X66490000Y-43315686D01*
X66490000Y-45224314D01*
G37*
%TD.AperFunction*%
%TD*%
%TA.AperFunction,Conductor*%
%TO.N,/SWIO*%
G36*
X48556942Y-84319760D02*
G01*
X48560363Y-84327658D01*
X48565182Y-84478051D01*
X48565182Y-84478052D01*
X48580506Y-84612771D01*
X48605634Y-84725626D01*
X48605637Y-84725636D01*
X48640242Y-84821801D01*
X48683985Y-84906403D01*
X48683988Y-84906407D01*
X48736534Y-84984585D01*
X48736535Y-84984587D01*
X48866701Y-85142251D01*
X48978807Y-85274378D01*
X48979284Y-85274979D01*
X49159436Y-85517904D01*
X49161611Y-85526590D01*
X49157007Y-85534271D01*
X49156548Y-85534595D01*
X48466510Y-85996640D01*
X48457729Y-85998395D01*
X48453490Y-85996640D01*
X47763385Y-85534550D01*
X47758418Y-85527099D01*
X47760173Y-85518318D01*
X47760429Y-85517952D01*
X47914028Y-85307983D01*
X47914486Y-85307401D01*
X48053288Y-85142263D01*
X48090958Y-85098631D01*
X48214771Y-84940066D01*
X48291276Y-84793987D01*
X48319459Y-84707216D01*
X48340415Y-84607095D01*
X48355052Y-84474654D01*
X48359646Y-84327668D01*
X48363329Y-84319505D01*
X48371340Y-84316333D01*
X48548669Y-84316333D01*
X48556942Y-84319760D01*
G37*
%TD.AperFunction*%
%TD*%
%TA.AperFunction,Conductor*%
%TO.N,/SWIO*%
G36*
X49010314Y-79589821D02*
G01*
X49010841Y-79590151D01*
X49191704Y-79710144D01*
X49248721Y-79747972D01*
X49252001Y-79751251D01*
X49409791Y-79989072D01*
X49411510Y-79997859D01*
X49406511Y-80005288D01*
X49405897Y-80005668D01*
X49346502Y-80040001D01*
X49344995Y-80040734D01*
X49284615Y-80064906D01*
X49282676Y-80065493D01*
X49177417Y-80087636D01*
X49176920Y-80087730D01*
X49128056Y-80095823D01*
X49034132Y-80129023D01*
X49034122Y-80129028D01*
X48983200Y-80163030D01*
X48983183Y-80163043D01*
X48935022Y-80207072D01*
X48926604Y-80210125D01*
X48918997Y-80206850D01*
X48790906Y-80083056D01*
X48787339Y-80074843D01*
X48790046Y-80067157D01*
X48843517Y-80002951D01*
X48878951Y-79939409D01*
X48908802Y-79823573D01*
X48934943Y-79712045D01*
X48935562Y-79710150D01*
X48960254Y-79652131D01*
X48960918Y-79650812D01*
X48994301Y-79593981D01*
X49001445Y-79588585D01*
X49010314Y-79589821D01*
G37*
%TD.AperFunction*%
%TD*%
%TA.AperFunction,Conductor*%
%TO.N,/DAV*%
G36*
X56785212Y-59142690D02*
G01*
X56840855Y-59190892D01*
X56895234Y-59220551D01*
X56895236Y-59220552D01*
X56941496Y-59231859D01*
X56947550Y-59233339D01*
X57005088Y-59238047D01*
X57005410Y-59238079D01*
X57136223Y-59253339D01*
X57144042Y-59257701D01*
X57146487Y-59266316D01*
X57146349Y-59267205D01*
X57101646Y-59495902D01*
X57096695Y-59503364D01*
X57096625Y-59503411D01*
X56902240Y-59632196D01*
X56893450Y-59633908D01*
X56886024Y-59628904D01*
X56885821Y-59628585D01*
X56804066Y-59495074D01*
X56803971Y-59494915D01*
X56769746Y-59436778D01*
X56719436Y-59367594D01*
X56719433Y-59367590D01*
X56719431Y-59367588D01*
X56688437Y-59334106D01*
X56643204Y-59285239D01*
X56640100Y-59276842D01*
X56643517Y-59269021D01*
X56769279Y-59143259D01*
X56777551Y-59139833D01*
X56785212Y-59142690D01*
G37*
%TD.AperFunction*%
%TD*%
%TA.AperFunction,Conductor*%
%TO.N,/DAV*%
G36*
X56332616Y-57246219D02*
G01*
X56340042Y-57251223D01*
X56341754Y-57260013D01*
X56341490Y-57261063D01*
X56308604Y-57370123D01*
X56307768Y-57372170D01*
X56265557Y-57452818D01*
X56217343Y-57555066D01*
X56217340Y-57555074D01*
X56204669Y-57615654D01*
X56204667Y-57615667D01*
X56200646Y-57684182D01*
X56196740Y-57692240D01*
X56188966Y-57695196D01*
X56010985Y-57695196D01*
X56002712Y-57691769D01*
X55999308Y-57684233D01*
X55994983Y-57615664D01*
X55994681Y-57610872D01*
X55982022Y-57555066D01*
X55980354Y-57547711D01*
X55934441Y-57452818D01*
X55934439Y-57452813D01*
X55898617Y-57386385D01*
X55897762Y-57384368D01*
X55858735Y-57261181D01*
X55859504Y-57252261D01*
X55866355Y-57246495D01*
X55867553Y-57246184D01*
X56097675Y-57199472D01*
X56102325Y-57199472D01*
X56332616Y-57246219D01*
G37*
%TD.AperFunction*%
%TD*%
%TA.AperFunction,Conductor*%
%TO.N,/BUZZ*%
G36*
X59657295Y-63616920D02*
G01*
X59783194Y-63742819D01*
X59786621Y-63751092D01*
X59783763Y-63758755D01*
X59724703Y-63826899D01*
X59685200Y-63893748D01*
X59663265Y-63955390D01*
X59649803Y-64015987D01*
X59649701Y-64016406D01*
X59619744Y-64131136D01*
X59619138Y-64132882D01*
X59592239Y-64194176D01*
X59591594Y-64195432D01*
X59555713Y-64256070D01*
X59548551Y-64261445D01*
X59539686Y-64260181D01*
X59539188Y-64259868D01*
X59347789Y-64132882D01*
X59301265Y-64102015D01*
X59297984Y-64098734D01*
X59202885Y-63955397D01*
X59140154Y-63860847D01*
X59138436Y-63852060D01*
X59143436Y-63844631D01*
X59143935Y-63844318D01*
X59207549Y-63806888D01*
X59208849Y-63806230D01*
X59272396Y-63778950D01*
X59274102Y-63778369D01*
X59383590Y-63750297D01*
X59384031Y-63750193D01*
X59430579Y-63740287D01*
X59531806Y-63701795D01*
X59587299Y-63664622D01*
X59641230Y-63616465D01*
X59649683Y-63613512D01*
X59657295Y-63616920D01*
G37*
%TD.AperFunction*%
%TD*%
%TA.AperFunction,Conductor*%
%TO.N,/BUZZ*%
G36*
X61060313Y-61939818D02*
G01*
X61060801Y-61940124D01*
X61252210Y-62067117D01*
X61298734Y-62097984D01*
X61302015Y-62101265D01*
X61459844Y-62339151D01*
X61461563Y-62347939D01*
X61456563Y-62355368D01*
X61456028Y-62355703D01*
X61392459Y-62393106D01*
X61391141Y-62393773D01*
X61327605Y-62421047D01*
X61325896Y-62421629D01*
X61216424Y-62449697D01*
X61215954Y-62449808D01*
X61185703Y-62456246D01*
X61169420Y-62459712D01*
X61169417Y-62459712D01*
X61169417Y-62459713D01*
X61068193Y-62498205D01*
X61012705Y-62535374D01*
X60958770Y-62583533D01*
X60950316Y-62586487D01*
X60942704Y-62583079D01*
X60816805Y-62457180D01*
X60813378Y-62448907D01*
X60816235Y-62441246D01*
X60875294Y-62373102D01*
X60914797Y-62306254D01*
X60936736Y-62244603D01*
X60950204Y-62183974D01*
X60950286Y-62183638D01*
X60980257Y-62068854D01*
X60980857Y-62067125D01*
X61007761Y-62005819D01*
X61008405Y-62004567D01*
X61044287Y-61943928D01*
X61051448Y-61938554D01*
X61060313Y-61939818D01*
G37*
%TD.AperFunction*%
%TD*%
M02*
