%TF.GenerationSoftware,KiCad,Pcbnew,9.0.2*%
%TF.CreationDate,2025-08-14T17:11:00+06:00*%
%TF.ProjectId,hp3478a-ch32-ext,68703334-3738-4612-9d63-6833322d6578,rev?*%
%TF.SameCoordinates,Original*%
%TF.FileFunction,Soldermask,Top*%
%TF.FilePolarity,Negative*%
%FSLAX46Y46*%
G04 Gerber Fmt 4.6, Leading zero omitted, Abs format (unit mm)*
G04 Created by KiCad (PCBNEW 9.0.2) date 2025-08-14 17:11:00*
%MOMM*%
%LPD*%
G01*
G04 APERTURE LIST*
G04 Aperture macros list*
%AMRoundRect*
0 Rectangle with rounded corners*
0 $1 Rounding radius*
0 $2 $3 $4 $5 $6 $7 $8 $9 X,Y pos of 4 corners*
0 Add a 4 corners polygon primitive as box body*
4,1,4,$2,$3,$4,$5,$6,$7,$8,$9,$2,$3,0*
0 Add four circle primitives for the rounded corners*
1,1,$1+$1,$2,$3*
1,1,$1+$1,$4,$5*
1,1,$1+$1,$6,$7*
1,1,$1+$1,$8,$9*
0 Add four rect primitives between the rounded corners*
20,1,$1+$1,$2,$3,$4,$5,0*
20,1,$1+$1,$4,$5,$6,$7,0*
20,1,$1+$1,$6,$7,$8,$9,0*
20,1,$1+$1,$8,$9,$2,$3,0*%
G04 Aperture macros list end*
%ADD10R,1.650000X1.650000*%
%ADD11RoundRect,0.050000X0.375000X-0.050000X0.375000X0.050000X-0.375000X0.050000X-0.375000X-0.050000X0*%
%ADD12RoundRect,0.050000X0.050000X-0.375000X0.050000X0.375000X-0.050000X0.375000X-0.050000X-0.375000X0*%
%ADD13R,1.000000X1.600000*%
%ADD14RoundRect,0.093750X0.093750X0.106250X-0.093750X0.106250X-0.093750X-0.106250X0.093750X-0.106250X0*%
%ADD15RoundRect,0.135000X-0.226274X-0.035355X-0.035355X-0.226274X0.226274X0.035355X0.035355X0.226274X0*%
%ADD16RoundRect,0.250000X-0.600000X0.600000X-0.600000X-0.600000X0.600000X-0.600000X0.600000X0.600000X0*%
%ADD17C,1.700000*%
%ADD18RoundRect,0.250000X-0.650000X0.325000X-0.650000X-0.325000X0.650000X-0.325000X0.650000X0.325000X0*%
%ADD19RoundRect,0.135000X-0.035355X0.226274X-0.226274X0.035355X0.035355X-0.226274X0.226274X-0.035355X0*%
%ADD20RoundRect,0.135000X0.226274X0.035355X0.035355X0.226274X-0.226274X-0.035355X-0.035355X-0.226274X0*%
%ADD21RoundRect,0.112500X0.053033X0.212132X-0.212132X-0.053033X-0.053033X-0.212132X0.212132X0.053033X0*%
%ADD22RoundRect,0.112500X-0.187500X-0.112500X0.187500X-0.112500X0.187500X0.112500X-0.187500X0.112500X0*%
%ADD23RoundRect,0.112500X-0.212132X0.053033X0.053033X-0.212132X0.212132X-0.053033X-0.053033X0.212132X0*%
%ADD24RoundRect,0.200000X-0.250000X-0.200000X0.250000X-0.200000X0.250000X0.200000X-0.250000X0.200000X0*%
%ADD25RoundRect,0.200000X0.275000X-0.200000X0.275000X0.200000X-0.275000X0.200000X-0.275000X-0.200000X0*%
%ADD26RoundRect,0.112500X-0.053033X-0.212132X0.212132X0.053033X0.053033X0.212132X-0.212132X-0.053033X0*%
%ADD27R,1.700000X1.700000*%
%ADD28RoundRect,0.200000X0.200000X0.275000X-0.200000X0.275000X-0.200000X-0.275000X0.200000X-0.275000X0*%
%ADD29RoundRect,0.112500X-0.112500X0.187500X-0.112500X-0.187500X0.112500X-0.187500X0.112500X0.187500X0*%
%ADD30RoundRect,0.135000X0.135000X0.185000X-0.135000X0.185000X-0.135000X-0.185000X0.135000X-0.185000X0*%
%ADD31RoundRect,0.140000X-0.140000X-0.170000X0.140000X-0.170000X0.140000X0.170000X-0.140000X0.170000X0*%
%ADD32R,1.600000X1.600000*%
%ADD33O,1.600000X1.600000*%
%ADD34R,2.000000X2.000000*%
%ADD35C,2.000000*%
%ADD36RoundRect,0.200000X-0.200000X-0.275000X0.200000X-0.275000X0.200000X0.275000X-0.200000X0.275000X0*%
%ADD37RoundRect,0.250000X0.475000X-0.250000X0.475000X0.250000X-0.475000X0.250000X-0.475000X-0.250000X0*%
%ADD38RoundRect,0.112500X0.112500X-0.187500X0.112500X0.187500X-0.112500X0.187500X-0.112500X-0.187500X0*%
G04 APERTURE END LIST*
D10*
%TO.C,U1*%
X58620000Y-56970000D03*
D11*
X57170000Y-57770000D03*
X57170000Y-57370000D03*
X57170000Y-56970000D03*
X57170000Y-56570000D03*
X57170000Y-56170000D03*
D12*
X57820000Y-55520000D03*
X58220000Y-55520000D03*
X58620000Y-55520000D03*
X59020000Y-55520000D03*
X59420000Y-55520000D03*
D11*
X60070000Y-56170000D03*
X60070000Y-56570000D03*
X60070000Y-56970000D03*
X60070000Y-57370000D03*
X60070000Y-57770000D03*
D12*
X59420000Y-58420000D03*
X59020000Y-58420000D03*
X58620000Y-58420000D03*
X58220000Y-58420000D03*
X57820000Y-58420000D03*
%TD*%
D13*
%TO.C,U2*%
X43112500Y-78650000D03*
D14*
X42225000Y-79300000D03*
X42225000Y-78650000D03*
X42225000Y-78000000D03*
X44000000Y-78000000D03*
X44000000Y-78650000D03*
X44000000Y-79300000D03*
%TD*%
D15*
%TO.C,R18*%
X64139376Y-63639376D03*
X64860624Y-64360624D03*
%TD*%
D16*
%TO.C,J2*%
X37400000Y-78300000D03*
D17*
X37400000Y-82000000D03*
X37400000Y-85700000D03*
%TD*%
D18*
%TO.C,C1*%
X40000000Y-78300000D03*
X40000000Y-81250000D03*
%TD*%
D19*
%TO.C,R6*%
X53360624Y-66639376D03*
X52639376Y-67360624D03*
%TD*%
D20*
%TO.C,R13*%
X53160624Y-52260624D03*
X52439376Y-51539376D03*
%TD*%
D21*
%TO.C,D14*%
X63242462Y-67757538D03*
X61757538Y-69242462D03*
%TD*%
D15*
%TO.C,R20*%
X64139376Y-58639376D03*
X64860624Y-59360624D03*
%TD*%
D22*
%TO.C,D17*%
X59250000Y-53600000D03*
X61350000Y-53600000D03*
%TD*%
D20*
%TO.C,R12*%
X53360624Y-54360624D03*
X52639376Y-53639376D03*
%TD*%
D23*
%TO.C,D4*%
X57257538Y-65257538D03*
X58742462Y-66742462D03*
%TD*%
D24*
%TO.C,Q1*%
X50750000Y-80550000D03*
X50750000Y-82450000D03*
X52750000Y-81500000D03*
%TD*%
D25*
%TO.C,R1*%
X47750000Y-80575000D03*
X47750000Y-78925000D03*
%TD*%
D23*
%TO.C,D7*%
X57357538Y-60257538D03*
X58842462Y-61742462D03*
%TD*%
D26*
%TO.C,D11*%
X55257538Y-49542462D03*
X56742462Y-48057538D03*
%TD*%
D23*
%TO.C,D2*%
X54257538Y-68257538D03*
X55742462Y-69742462D03*
%TD*%
D27*
%TO.C,J3*%
X45920000Y-86000000D03*
D17*
X48460000Y-86000000D03*
X51000000Y-86000000D03*
%TD*%
D28*
%TO.C,R3*%
X53825000Y-75250000D03*
X52175000Y-75250000D03*
%TD*%
D26*
%TO.C,D10*%
X54257538Y-53342462D03*
X55742462Y-51857538D03*
%TD*%
D22*
%TO.C,D12*%
X55450000Y-45500000D03*
X57550000Y-45500000D03*
%TD*%
D20*
%TO.C,R14*%
X53360624Y-49360624D03*
X52639376Y-48639376D03*
%TD*%
D23*
%TO.C,D6*%
X55857538Y-61757538D03*
X57342462Y-63242462D03*
%TD*%
D19*
%TO.C,R5*%
X53360624Y-69139376D03*
X52639376Y-69860624D03*
%TD*%
D26*
%TO.C,D9*%
X55557538Y-55042462D03*
X57042462Y-53557538D03*
%TD*%
D29*
%TO.C,D8*%
X55300000Y-56850000D03*
X55300000Y-58950000D03*
%TD*%
D23*
%TO.C,D3*%
X55757538Y-66757538D03*
X57242462Y-68242462D03*
%TD*%
D28*
%TO.C,R4*%
X53825000Y-77000000D03*
X52175000Y-77000000D03*
%TD*%
D19*
%TO.C,R8*%
X53360624Y-61639376D03*
X52639376Y-62360624D03*
%TD*%
D20*
%TO.C,R15*%
X53360624Y-46860624D03*
X52639376Y-46139376D03*
%TD*%
D19*
%TO.C,R9*%
X53360624Y-59139376D03*
X52639376Y-59860624D03*
%TD*%
D30*
%TO.C,R11*%
X53510000Y-55700000D03*
X52490000Y-55700000D03*
%TD*%
D23*
%TO.C,D13*%
X61757538Y-71757538D03*
X63242462Y-73242462D03*
%TD*%
D15*
%TO.C,R19*%
X64139376Y-61139376D03*
X64860624Y-61860624D03*
%TD*%
D31*
%TO.C,C3*%
X60270000Y-59250000D03*
X61230000Y-59250000D03*
%TD*%
D15*
%TO.C,R17*%
X64139376Y-66639376D03*
X64860624Y-67360624D03*
%TD*%
D30*
%TO.C,R10*%
X53510000Y-57500000D03*
X52490000Y-57500000D03*
%TD*%
D19*
%TO.C,R7*%
X53260624Y-64239376D03*
X52539376Y-64960624D03*
%TD*%
D29*
%TO.C,D1*%
X66500000Y-75450000D03*
X66500000Y-77550000D03*
%TD*%
D32*
%TO.C,J1*%
X51000000Y-43000000D03*
D33*
X51000000Y-45540000D03*
X51000000Y-48080000D03*
X51000000Y-50620000D03*
X51000000Y-53160000D03*
X51000000Y-55700000D03*
X51000000Y-58240000D03*
X51000000Y-60780000D03*
X51000000Y-63320000D03*
X51000000Y-65860000D03*
X51000000Y-68400000D03*
X51000000Y-70940000D03*
X66240000Y-70940000D03*
X66240000Y-68400000D03*
X66240000Y-65860000D03*
X66240000Y-63320000D03*
X66240000Y-60780000D03*
X66240000Y-58240000D03*
X66240000Y-55700000D03*
X66240000Y-53160000D03*
X66240000Y-50620000D03*
X66240000Y-48080000D03*
X66240000Y-45540000D03*
X66240000Y-43000000D03*
%TD*%
D34*
%TO.C,BZ1*%
X60000000Y-77750000D03*
D35*
X60000000Y-84250000D03*
%TD*%
D36*
%TO.C,R2*%
X47675000Y-77250000D03*
X49325000Y-77250000D03*
%TD*%
D37*
%TO.C,C2*%
X45750000Y-79600000D03*
X45750000Y-77700000D03*
%TD*%
D38*
%TO.C,D16*%
X63000000Y-55350000D03*
X63000000Y-53250000D03*
%TD*%
D15*
%TO.C,R16*%
X64139376Y-69039376D03*
X64860624Y-69760624D03*
%TD*%
D21*
%TO.C,D15*%
X63242462Y-64757538D03*
X61757538Y-66242462D03*
%TD*%
D23*
%TO.C,D5*%
X54357538Y-63257538D03*
X55842462Y-64742462D03*
%TD*%
M02*
