%TF.GenerationSoftware,KiCad,Pcbnew,9.0.2*%
%TF.CreationDate,2025-08-14T17:11:00+06:00*%
%TF.ProjectId,hp3478a-ch32-ext,68703334-3738-4612-9d63-6833322d6578,rev?*%
%TF.SameCoordinates,Original*%
%TF.FileFunction,Legend,Top*%
%TF.FilePolarity,Positive*%
%FSLAX46Y46*%
G04 Gerber Fmt 4.6, Leading zero omitted, Abs format (unit mm)*
G04 Created by KiCad (PCBNEW 9.0.2) date 2025-08-14 17:11:00*
%MOMM*%
%LPD*%
G01*
G04 APERTURE LIST*
G04 Aperture macros list*
%AMRoundRect*
0 Rectangle with rounded corners*
0 $1 Rounding radius*
0 $2 $3 $4 $5 $6 $7 $8 $9 X,Y pos of 4 corners*
0 Add a 4 corners polygon primitive as box body*
4,1,4,$2,$3,$4,$5,$6,$7,$8,$9,$2,$3,0*
0 Add four circle primitives for the rounded corners*
1,1,$1+$1,$2,$3*
1,1,$1+$1,$4,$5*
1,1,$1+$1,$6,$7*
1,1,$1+$1,$8,$9*
0 Add four rect primitives between the rounded corners*
20,1,$1+$1,$2,$3,$4,$5,0*
20,1,$1+$1,$4,$5,$6,$7,0*
20,1,$1+$1,$6,$7,$8,$9,0*
20,1,$1+$1,$8,$9,$2,$3,0*%
G04 Aperture macros list end*
%ADD10C,0.300000*%
%ADD11C,0.100000*%
%ADD12C,0.150000*%
%ADD13C,0.120000*%
%ADD14R,1.650000X1.650000*%
%ADD15RoundRect,0.050000X0.375000X-0.050000X0.375000X0.050000X-0.375000X0.050000X-0.375000X-0.050000X0*%
%ADD16RoundRect,0.050000X0.050000X-0.375000X0.050000X0.375000X-0.050000X0.375000X-0.050000X-0.375000X0*%
%ADD17R,1.000000X1.600000*%
%ADD18RoundRect,0.093750X0.093750X0.106250X-0.093750X0.106250X-0.093750X-0.106250X0.093750X-0.106250X0*%
%ADD19RoundRect,0.135000X-0.226274X-0.035355X-0.035355X-0.226274X0.226274X0.035355X0.035355X0.226274X0*%
%ADD20RoundRect,0.250000X-0.600000X0.600000X-0.600000X-0.600000X0.600000X-0.600000X0.600000X0.600000X0*%
%ADD21C,1.700000*%
%ADD22RoundRect,0.250000X-0.650000X0.325000X-0.650000X-0.325000X0.650000X-0.325000X0.650000X0.325000X0*%
%ADD23RoundRect,0.135000X-0.035355X0.226274X-0.226274X0.035355X0.035355X-0.226274X0.226274X-0.035355X0*%
%ADD24RoundRect,0.135000X0.226274X0.035355X0.035355X0.226274X-0.226274X-0.035355X-0.035355X-0.226274X0*%
%ADD25RoundRect,0.112500X0.053033X0.212132X-0.212132X-0.053033X-0.053033X-0.212132X0.212132X0.053033X0*%
%ADD26RoundRect,0.112500X-0.187500X-0.112500X0.187500X-0.112500X0.187500X0.112500X-0.187500X0.112500X0*%
%ADD27RoundRect,0.112500X-0.212132X0.053033X0.053033X-0.212132X0.212132X-0.053033X-0.053033X0.212132X0*%
%ADD28RoundRect,0.200000X-0.250000X-0.200000X0.250000X-0.200000X0.250000X0.200000X-0.250000X0.200000X0*%
%ADD29RoundRect,0.200000X0.275000X-0.200000X0.275000X0.200000X-0.275000X0.200000X-0.275000X-0.200000X0*%
%ADD30RoundRect,0.112500X-0.053033X-0.212132X0.212132X0.053033X0.053033X0.212132X-0.212132X-0.053033X0*%
%ADD31R,1.700000X1.700000*%
%ADD32RoundRect,0.200000X0.200000X0.275000X-0.200000X0.275000X-0.200000X-0.275000X0.200000X-0.275000X0*%
%ADD33RoundRect,0.112500X-0.112500X0.187500X-0.112500X-0.187500X0.112500X-0.187500X0.112500X0.187500X0*%
%ADD34RoundRect,0.135000X0.135000X0.185000X-0.135000X0.185000X-0.135000X-0.185000X0.135000X-0.185000X0*%
%ADD35RoundRect,0.140000X-0.140000X-0.170000X0.140000X-0.170000X0.140000X0.170000X-0.140000X0.170000X0*%
%ADD36R,1.600000X1.600000*%
%ADD37O,1.600000X1.600000*%
%ADD38R,2.000000X2.000000*%
%ADD39C,2.000000*%
%ADD40RoundRect,0.200000X-0.200000X-0.275000X0.200000X-0.275000X0.200000X0.275000X-0.200000X0.275000X0*%
%ADD41RoundRect,0.250000X0.475000X-0.250000X0.475000X0.250000X-0.475000X0.250000X-0.475000X-0.250000X0*%
%ADD42RoundRect,0.112500X0.112500X-0.187500X0.112500X0.187500X-0.112500X0.187500X-0.112500X-0.187500X0*%
G04 APERTURE END LIST*
D10*
G36*
X60515205Y-44647965D02*
G01*
X60521403Y-44765854D01*
X60536210Y-44835544D01*
X60567007Y-44888078D01*
X60617421Y-44922372D01*
X60685456Y-44940265D01*
X60798039Y-44947651D01*
X62548039Y-44947651D01*
X62548039Y-45359200D01*
X60786803Y-45359200D01*
X60598228Y-45346694D01*
X60466113Y-45314382D01*
X60391223Y-45276669D01*
X60331204Y-45224857D01*
X60284152Y-45157578D01*
X60252783Y-45080381D01*
X60231766Y-44978805D01*
X60223946Y-44846779D01*
X60223946Y-44647965D01*
X60515205Y-44647965D01*
G37*
G36*
X60246416Y-46229682D02*
G01*
X60259417Y-46067617D01*
X60294496Y-45944483D01*
X60347818Y-45851717D01*
X60418607Y-45783084D01*
X60506031Y-45732646D01*
X60616804Y-45693631D01*
X60756001Y-45667921D01*
X60929563Y-45658520D01*
X60929563Y-46036486D01*
X60748824Y-46048709D01*
X60638304Y-46078496D01*
X60584495Y-46114892D01*
X60552155Y-46167989D01*
X60540362Y-46243726D01*
X60547671Y-46302294D01*
X60567891Y-46346862D01*
X60600568Y-46380868D01*
X60667969Y-46416438D01*
X60762990Y-46438265D01*
X60875268Y-46447242D01*
X61047166Y-46450844D01*
X61197980Y-46444997D01*
X61304766Y-46429934D01*
X61377627Y-46408834D01*
X61436129Y-46371531D01*
X61471180Y-46315873D01*
X61483995Y-46235300D01*
X61470588Y-46162614D01*
X61430750Y-46102309D01*
X61369913Y-46056221D01*
X61285181Y-46022442D01*
X61285181Y-45689295D01*
X62548039Y-45711643D01*
X62548039Y-46730868D01*
X62200847Y-46730868D01*
X62200847Y-46036486D01*
X61654842Y-46014138D01*
X61701142Y-46069628D01*
X61740205Y-46151280D01*
X61764165Y-46243772D01*
X61772445Y-46347285D01*
X61760107Y-46463817D01*
X61725284Y-46559452D01*
X61668962Y-46638712D01*
X61589019Y-46704246D01*
X61496600Y-46751625D01*
X61382615Y-46788068D01*
X61242847Y-46811877D01*
X61072445Y-46820505D01*
X60898459Y-46814372D01*
X60753208Y-46797382D01*
X60632808Y-46771413D01*
X60519396Y-46728724D01*
X60426124Y-46669541D01*
X60349975Y-46593604D01*
X60295107Y-46502172D01*
X60259493Y-46383395D01*
X60246416Y-46229682D01*
G37*
G36*
X62065885Y-47079144D02*
G01*
X62196459Y-47108139D01*
X62305580Y-47153518D01*
X62396730Y-47214347D01*
X62471202Y-47293005D01*
X62525840Y-47390466D01*
X62560658Y-47510787D01*
X62573196Y-47659602D01*
X62560719Y-47805114D01*
X62525878Y-47924135D01*
X62470846Y-48021840D01*
X62395387Y-48101926D01*
X62303309Y-48164236D01*
X62193978Y-48210501D01*
X62064096Y-48239937D01*
X61909588Y-48250425D01*
X60904406Y-48250425D01*
X60754750Y-48239899D01*
X60627376Y-48210169D01*
X60518624Y-48163071D01*
X60425568Y-48099117D01*
X60349121Y-48017599D01*
X60293696Y-47919649D01*
X60258831Y-47801900D01*
X60246416Y-47659602D01*
X60579563Y-47659602D01*
X60591006Y-47726709D01*
X60623884Y-47778557D01*
X60681223Y-47818983D01*
X60772101Y-47847277D01*
X60910024Y-47858415D01*
X61903970Y-47858415D01*
X62044600Y-47847228D01*
X62146137Y-47817749D01*
X62197775Y-47782720D01*
X62228766Y-47731870D01*
X62240048Y-47659602D01*
X62228638Y-47585524D01*
X62197555Y-47534354D01*
X62146137Y-47499989D01*
X62044700Y-47471589D01*
X61903970Y-47460788D01*
X60910024Y-47460788D01*
X60779045Y-47472360D01*
X60676161Y-47504141D01*
X60622380Y-47540856D01*
X60590808Y-47591162D01*
X60579563Y-47659602D01*
X60246416Y-47659602D01*
X60258833Y-47517237D01*
X60293701Y-47399449D01*
X60349127Y-47301481D01*
X60425568Y-47219965D01*
X60518617Y-47156066D01*
X60627366Y-47109006D01*
X60754742Y-47079297D01*
X60904406Y-47068778D01*
X61909588Y-47068778D01*
X62065885Y-47079144D01*
G37*
G36*
X62548039Y-49087201D02*
G01*
X62548039Y-49537951D01*
X61145230Y-49537951D01*
X61145230Y-49770348D01*
X60837240Y-49770348D01*
X60837240Y-49537951D01*
X60280000Y-49537951D01*
X60280000Y-49176716D01*
X60837240Y-49176716D01*
X61145230Y-49176716D01*
X62130750Y-49176716D01*
X61145230Y-48818290D01*
X61145230Y-49176716D01*
X60837240Y-49176716D01*
X60837240Y-48496378D01*
X61167578Y-48496378D01*
X62548039Y-49087201D01*
G37*
D11*
X51300000Y-80900000D02*
X52200000Y-81200000D01*
G36*
X47784494Y-84494062D02*
G01*
X47728073Y-84489169D01*
X47681397Y-84475430D01*
X47642585Y-84453603D01*
X47610300Y-84423525D01*
X47584819Y-84386973D01*
X47564955Y-84343371D01*
X47550999Y-84291469D01*
X47543670Y-84229743D01*
X47655680Y-84199505D01*
X47662559Y-84257334D01*
X47674221Y-84303747D01*
X47689825Y-84340678D01*
X47706503Y-84364234D01*
X47727239Y-84380668D01*
X47752766Y-84390805D01*
X47784494Y-84394411D01*
X47816201Y-84391010D01*
X47840427Y-84381683D01*
X47858939Y-84366958D01*
X47872362Y-84347187D01*
X47880987Y-84321453D01*
X47884145Y-84288019D01*
X47881288Y-84251304D01*
X47873270Y-84220685D01*
X47860600Y-84195060D01*
X47832282Y-84158520D01*
X47785617Y-84113288D01*
X47633258Y-83978856D01*
X47592879Y-83936019D01*
X47566629Y-83892101D01*
X47555550Y-83860429D01*
X47548452Y-83822874D01*
X47545917Y-83778382D01*
X47549892Y-83728918D01*
X47561067Y-83687610D01*
X47578781Y-83652966D01*
X47603021Y-83623874D01*
X47633078Y-83600533D01*
X47668321Y-83583483D01*
X47709757Y-83572763D01*
X47758702Y-83568968D01*
X47812489Y-83573060D01*
X47856315Y-83584422D01*
X47892035Y-83602161D01*
X47921074Y-83626072D01*
X47944133Y-83655840D01*
X47963200Y-83694022D01*
X47977849Y-83742378D01*
X47987215Y-83803050D01*
X47879699Y-83832164D01*
X47873075Y-83779415D01*
X47862486Y-83739387D01*
X47848876Y-83709554D01*
X47828610Y-83686317D01*
X47799610Y-83671794D01*
X47758702Y-83666421D01*
X47727559Y-83669547D01*
X47703457Y-83678133D01*
X47684794Y-83691627D01*
X47671060Y-83710000D01*
X47662273Y-83734218D01*
X47659050Y-83766072D01*
X47662653Y-83804404D01*
X47672484Y-83833874D01*
X47689668Y-83860193D01*
X47718401Y-83889268D01*
X47871835Y-84023699D01*
X47925810Y-84079336D01*
X47966454Y-84137907D01*
X47985857Y-84180218D01*
X47997699Y-84226593D01*
X48001772Y-84277907D01*
X47997655Y-84327112D01*
X47985967Y-84369005D01*
X47967229Y-84404920D01*
X47941297Y-84435835D01*
X47909416Y-84460933D01*
X47873250Y-84478984D01*
X47831976Y-84490158D01*
X47784494Y-84494062D01*
G37*
G36*
X48069427Y-83576784D02*
G01*
X48174745Y-83576784D01*
X48272149Y-84228619D01*
X48394270Y-83580154D01*
X48483859Y-83580154D01*
X48607055Y-84231990D01*
X48702260Y-83576784D01*
X48805282Y-83576784D01*
X48659665Y-84484000D01*
X48567829Y-84484000D01*
X48441311Y-83811990D01*
X48313621Y-84484000D01*
X48217292Y-84484000D01*
X48069427Y-83576784D01*
G37*
G36*
X49187473Y-83581940D02*
G01*
X49244707Y-83595835D01*
X49288112Y-83616760D01*
X49320537Y-83644000D01*
X49345393Y-83678885D01*
X49364452Y-83723776D01*
X49376995Y-83781012D01*
X49381598Y-83853462D01*
X49381598Y-84187196D01*
X49377073Y-84263866D01*
X49364726Y-84324842D01*
X49345985Y-84372971D01*
X49321660Y-84410629D01*
X49289279Y-84440955D01*
X49247067Y-84463714D01*
X49192651Y-84478555D01*
X49122847Y-84484000D01*
X48915631Y-84484000D01*
X48915631Y-84393288D01*
X49042198Y-84393288D01*
X49113907Y-84393288D01*
X49157364Y-84389843D01*
X49188216Y-84380825D01*
X49209651Y-84367545D01*
X49226698Y-84348678D01*
X49239023Y-84325642D01*
X49246629Y-84297545D01*
X49251763Y-84247595D01*
X49253907Y-84163699D01*
X49253907Y-83869143D01*
X49251139Y-83796369D01*
X49244382Y-83750978D01*
X49235379Y-83725372D01*
X49222152Y-83705560D01*
X49204619Y-83690503D01*
X49183405Y-83680472D01*
X49153006Y-83673530D01*
X49110537Y-83670866D01*
X49042198Y-83670866D01*
X49042198Y-84393288D01*
X48915631Y-84393288D01*
X48915631Y-83576784D01*
X49112784Y-83576784D01*
X49187473Y-83581940D01*
G37*
G36*
X36243215Y-77525743D02*
G01*
X36243215Y-77644494D01*
X35574576Y-77787815D01*
X36243215Y-77924494D01*
X36243215Y-78039825D01*
X35336000Y-77839351D01*
X35336000Y-77728464D01*
X36243215Y-77525743D01*
G37*
G36*
X35325937Y-78354410D02*
G01*
X35329741Y-78299587D01*
X35340283Y-78254856D01*
X35356646Y-78218417D01*
X35378473Y-78188832D01*
X35406000Y-78165122D01*
X35446663Y-78142519D01*
X35495945Y-78125356D01*
X35555481Y-78114258D01*
X35627186Y-78110265D01*
X35947535Y-78110265D01*
X36023836Y-78114306D01*
X36085367Y-78125381D01*
X36134624Y-78142216D01*
X36173752Y-78163998D01*
X36200061Y-78187130D01*
X36221090Y-78216419D01*
X36236982Y-78252960D01*
X36247292Y-78298313D01*
X36251031Y-78354410D01*
X36246159Y-78415621D01*
X36232846Y-78463524D01*
X36212356Y-78500867D01*
X36184939Y-78529678D01*
X36151027Y-78551442D01*
X36108539Y-78568065D01*
X36055628Y-78578924D01*
X35990082Y-78582875D01*
X35918421Y-78582875D01*
X35918421Y-78463049D01*
X35982217Y-78463049D01*
X36041288Y-78461422D01*
X36078547Y-78457431D01*
X36109166Y-78447318D01*
X36132329Y-78428904D01*
X36142769Y-78412321D01*
X36149820Y-78388654D01*
X36152503Y-78355533D01*
X36149658Y-78321792D01*
X36142068Y-78296914D01*
X36130619Y-78278792D01*
X36105226Y-78258276D01*
X36070145Y-78245722D01*
X36028228Y-78240119D01*
X35966537Y-78237906D01*
X35607060Y-78237906D01*
X35541400Y-78241107D01*
X35498372Y-78249092D01*
X35463715Y-78264530D01*
X35442392Y-78285533D01*
X35430231Y-78313853D01*
X35425588Y-78355533D01*
X35428343Y-78386991D01*
X35435713Y-78410224D01*
X35446886Y-78427194D01*
X35471482Y-78446078D01*
X35505113Y-78456894D01*
X35545451Y-78461297D01*
X35605937Y-78463049D01*
X35673103Y-78463049D01*
X35673103Y-78582875D01*
X35605937Y-78582875D01*
X35536729Y-78579088D01*
X35480399Y-78568660D01*
X35434811Y-78552709D01*
X35398135Y-78531926D01*
X35368125Y-78503724D01*
X35345800Y-78466380D01*
X35331277Y-78417660D01*
X35325937Y-78354410D01*
G37*
G36*
X35325937Y-78931214D02*
G01*
X35329741Y-78876390D01*
X35340283Y-78831660D01*
X35356646Y-78795221D01*
X35378473Y-78765636D01*
X35406000Y-78741926D01*
X35446663Y-78719323D01*
X35495945Y-78702160D01*
X35555481Y-78691062D01*
X35627186Y-78687069D01*
X35947535Y-78687069D01*
X36023836Y-78691110D01*
X36085367Y-78702184D01*
X36134624Y-78719020D01*
X36173752Y-78740802D01*
X36200061Y-78763934D01*
X36221090Y-78793223D01*
X36236982Y-78829764D01*
X36247292Y-78875117D01*
X36251031Y-78931214D01*
X36246159Y-78992425D01*
X36232846Y-79040328D01*
X36212356Y-79077671D01*
X36184939Y-79106482D01*
X36151027Y-79128246D01*
X36108539Y-79144869D01*
X36055628Y-79155728D01*
X35990082Y-79159678D01*
X35918421Y-79159678D01*
X35918421Y-79039853D01*
X35982217Y-79039853D01*
X36041288Y-79038226D01*
X36078547Y-79034235D01*
X36109166Y-79024122D01*
X36132329Y-79005708D01*
X36142769Y-78989125D01*
X36149820Y-78965458D01*
X36152503Y-78932337D01*
X36149658Y-78898596D01*
X36142068Y-78873718D01*
X36130619Y-78855596D01*
X36105226Y-78835080D01*
X36070145Y-78822526D01*
X36028228Y-78816923D01*
X35966537Y-78814710D01*
X35607060Y-78814710D01*
X35541400Y-78817911D01*
X35498372Y-78825896D01*
X35463715Y-78841334D01*
X35442392Y-78862337D01*
X35430231Y-78890657D01*
X35425588Y-78932337D01*
X35428343Y-78963795D01*
X35435713Y-78987028D01*
X35446886Y-79003998D01*
X35471482Y-79022882D01*
X35505113Y-79033698D01*
X35545451Y-79038100D01*
X35605937Y-79039853D01*
X35673103Y-79039853D01*
X35673103Y-79159678D01*
X35605937Y-79159678D01*
X35536729Y-79155891D01*
X35480399Y-79145464D01*
X35434811Y-79129513D01*
X35398135Y-79108729D01*
X35368125Y-79080528D01*
X35345800Y-79043184D01*
X35331277Y-78994463D01*
X35325937Y-78931214D01*
G37*
G36*
X45184794Y-84044000D02*
G01*
X45027990Y-84044000D01*
X45027990Y-83953288D01*
X45184794Y-83953288D01*
X45184794Y-83770741D01*
X45274382Y-83770741D01*
X45274382Y-83953288D01*
X45436803Y-83953288D01*
X45436803Y-84044000D01*
X45274382Y-84044000D01*
X45274382Y-84226547D01*
X45184794Y-84226547D01*
X45184794Y-84044000D01*
G37*
G36*
X45736441Y-84472939D02*
G01*
X45677695Y-84468066D01*
X45631662Y-84454723D01*
X45595689Y-84434096D01*
X45567864Y-84406309D01*
X45547108Y-84372281D01*
X45531170Y-84329492D01*
X45520723Y-84276057D01*
X45516915Y-84209743D01*
X45636741Y-84209743D01*
X45639397Y-84260418D01*
X45646608Y-84300490D01*
X45657452Y-84331864D01*
X45670045Y-84351672D01*
X45687058Y-84365699D01*
X45709371Y-84374555D01*
X45738639Y-84377782D01*
X45768042Y-84374456D01*
X45790237Y-84365349D01*
X45806978Y-84350915D01*
X45824887Y-84320771D01*
X45835554Y-84279792D01*
X45839970Y-84231808D01*
X45841709Y-84161578D01*
X45839651Y-84096702D01*
X45834431Y-84052401D01*
X45822939Y-84015089D01*
X45805268Y-83989680D01*
X45789346Y-83978090D01*
X45768064Y-83970607D01*
X45739762Y-83967845D01*
X45707076Y-83973201D01*
X45678750Y-83989143D01*
X45655738Y-84013074D01*
X45638988Y-84042876D01*
X45537041Y-84042876D01*
X45537041Y-83556784D01*
X45927927Y-83556784D01*
X45927927Y-83676658D01*
X45645680Y-83676658D01*
X45637864Y-83927496D01*
X45663455Y-83905903D01*
X45693224Y-83890299D01*
X45727992Y-83880564D01*
X45768876Y-83877133D01*
X45819944Y-83882140D01*
X45860283Y-83895995D01*
X45892236Y-83917877D01*
X45917278Y-83948256D01*
X45935366Y-83984079D01*
X45949238Y-84027909D01*
X45958271Y-84081266D01*
X45961535Y-84145898D01*
X45957785Y-84225146D01*
X45947436Y-84290296D01*
X45931618Y-84343517D01*
X45911123Y-84386721D01*
X45888662Y-84417076D01*
X45860938Y-84440626D01*
X45827226Y-84457961D01*
X45786279Y-84468987D01*
X45736441Y-84472939D01*
G37*
G36*
X46023035Y-83556784D02*
G01*
X46141786Y-83556784D01*
X46285108Y-84225423D01*
X46421786Y-83556784D01*
X46537117Y-83556784D01*
X46336643Y-84464000D01*
X46225757Y-84464000D01*
X46023035Y-83556784D01*
G37*
G36*
X50486741Y-84475186D02*
G01*
X50425862Y-84469650D01*
X50377498Y-84454347D01*
X50339017Y-84430329D01*
X50308639Y-84397370D01*
X50286477Y-84357939D01*
X50269287Y-84307856D01*
X50257937Y-84244800D01*
X50253782Y-84166072D01*
X50253782Y-83862576D01*
X50256560Y-83792217D01*
X50264159Y-83735218D01*
X50275617Y-83689505D01*
X50294106Y-83647032D01*
X50319031Y-83612710D01*
X50350648Y-83585360D01*
X50387882Y-83566130D01*
X50435695Y-83553574D01*
X50496803Y-83548968D01*
X50560021Y-83553717D01*
X50609494Y-83566667D01*
X50648009Y-83586498D01*
X50677690Y-83612813D01*
X50700114Y-83645755D01*
X50717440Y-83688510D01*
X50728909Y-83743413D01*
X50733133Y-83813288D01*
X50733133Y-83846896D01*
X50614382Y-83846896D01*
X50614382Y-83818856D01*
X50612110Y-83757635D01*
X50606517Y-83718668D01*
X50594020Y-83687164D01*
X50573496Y-83665423D01*
X50544589Y-83652550D01*
X50499050Y-83647496D01*
X50464728Y-83650595D01*
X50439284Y-83658907D01*
X50420600Y-83671578D01*
X50399790Y-83699112D01*
X50387578Y-83736009D01*
X50382357Y-83779662D01*
X50380300Y-83843525D01*
X50380300Y-84179505D01*
X50383851Y-84249436D01*
X50392899Y-84297438D01*
X50405505Y-84329080D01*
X50420136Y-84348088D01*
X50440171Y-84362031D01*
X50466920Y-84371072D01*
X50502421Y-84374411D01*
X50536920Y-84370901D01*
X50563469Y-84361275D01*
X50583895Y-84346153D01*
X50599288Y-84325123D01*
X50612525Y-84290900D01*
X50621946Y-84240054D01*
X50625617Y-84167196D01*
X50625617Y-84104474D01*
X50510237Y-84104474D01*
X50510237Y-84014886D01*
X50739825Y-84014886D01*
X50739825Y-84464000D01*
X50660300Y-84464000D01*
X50647990Y-84359854D01*
X50626997Y-84402841D01*
X50600936Y-84434448D01*
X50569663Y-84456657D01*
X50532173Y-84470347D01*
X50486741Y-84475186D01*
G37*
G36*
X50869225Y-83556784D02*
G01*
X50955491Y-83556784D01*
X51213070Y-84159380D01*
X51213070Y-83556784D01*
X51318387Y-83556784D01*
X51318387Y-84464000D01*
X51237739Y-84464000D01*
X50976789Y-83844648D01*
X50976789Y-84464000D01*
X50869225Y-84464000D01*
X50869225Y-83556784D01*
G37*
G36*
X51731939Y-83561940D02*
G01*
X51789173Y-83575835D01*
X51832578Y-83596760D01*
X51865003Y-83624000D01*
X51889859Y-83658885D01*
X51908918Y-83703776D01*
X51921461Y-83761012D01*
X51926064Y-83833462D01*
X51926064Y-84167196D01*
X51921539Y-84243866D01*
X51909192Y-84304842D01*
X51890451Y-84352971D01*
X51866127Y-84390629D01*
X51833745Y-84420955D01*
X51791533Y-84443714D01*
X51737117Y-84458555D01*
X51667313Y-84464000D01*
X51460097Y-84464000D01*
X51460097Y-84373288D01*
X51586664Y-84373288D01*
X51658374Y-84373288D01*
X51701830Y-84369843D01*
X51732682Y-84360825D01*
X51754117Y-84347545D01*
X51771164Y-84328678D01*
X51783489Y-84305642D01*
X51791095Y-84277545D01*
X51796229Y-84227595D01*
X51798374Y-84143699D01*
X51798374Y-83849143D01*
X51795605Y-83776369D01*
X51788848Y-83730978D01*
X51779846Y-83705372D01*
X51766618Y-83685560D01*
X51749085Y-83670503D01*
X51727871Y-83660472D01*
X51697473Y-83653530D01*
X51655003Y-83650866D01*
X51586664Y-83650866D01*
X51586664Y-84373288D01*
X51460097Y-84373288D01*
X51460097Y-83556784D01*
X51657250Y-83556784D01*
X51731939Y-83561940D01*
G37*
G36*
X35756000Y-81384794D02*
G01*
X35756000Y-81227990D01*
X35846711Y-81227990D01*
X35846711Y-81384794D01*
X36029258Y-81384794D01*
X36029258Y-81474382D01*
X35846711Y-81474382D01*
X35846711Y-81636803D01*
X35756000Y-81636803D01*
X35756000Y-81474382D01*
X35573452Y-81474382D01*
X35573452Y-81384794D01*
X35756000Y-81384794D01*
G37*
G36*
X35327060Y-81936441D02*
G01*
X35331933Y-81877695D01*
X35345276Y-81831662D01*
X35365903Y-81795689D01*
X35393690Y-81767864D01*
X35427718Y-81747108D01*
X35470507Y-81731170D01*
X35523942Y-81720723D01*
X35590256Y-81716915D01*
X35590256Y-81836741D01*
X35539581Y-81839397D01*
X35499509Y-81846608D01*
X35468135Y-81857452D01*
X35448327Y-81870045D01*
X35434300Y-81887058D01*
X35425444Y-81909371D01*
X35422217Y-81938639D01*
X35425543Y-81968042D01*
X35434650Y-81990237D01*
X35449084Y-82006978D01*
X35479228Y-82024887D01*
X35520207Y-82035554D01*
X35568191Y-82039970D01*
X35638421Y-82041709D01*
X35703297Y-82039651D01*
X35747598Y-82034431D01*
X35784910Y-82022939D01*
X35810319Y-82005268D01*
X35821909Y-81989346D01*
X35829392Y-81968064D01*
X35832154Y-81939762D01*
X35826798Y-81907076D01*
X35810856Y-81878750D01*
X35786925Y-81855738D01*
X35757123Y-81838988D01*
X35757123Y-81737041D01*
X36243215Y-81737041D01*
X36243215Y-82127927D01*
X36123341Y-82127927D01*
X36123341Y-81845680D01*
X35872503Y-81837864D01*
X35894096Y-81863455D01*
X35909700Y-81893224D01*
X35919435Y-81927992D01*
X35922866Y-81968876D01*
X35917859Y-82019944D01*
X35904004Y-82060283D01*
X35882122Y-82092236D01*
X35851743Y-82117278D01*
X35815920Y-82135366D01*
X35772090Y-82149238D01*
X35718733Y-82158271D01*
X35654101Y-82161535D01*
X35574853Y-82157785D01*
X35509703Y-82147436D01*
X35456482Y-82131618D01*
X35413278Y-82111123D01*
X35382923Y-82088662D01*
X35359373Y-82060938D01*
X35342038Y-82027226D01*
X35331012Y-81986279D01*
X35327060Y-81936441D01*
G37*
G36*
X36243215Y-82223035D02*
G01*
X36243215Y-82341786D01*
X35574576Y-82485108D01*
X36243215Y-82621786D01*
X36243215Y-82737117D01*
X35336000Y-82536643D01*
X35336000Y-82425757D01*
X36243215Y-82223035D01*
G37*
G36*
X35324813Y-85086741D02*
G01*
X35330349Y-85025862D01*
X35345652Y-84977498D01*
X35369670Y-84939017D01*
X35402629Y-84908639D01*
X35442060Y-84886477D01*
X35492143Y-84869287D01*
X35555199Y-84857937D01*
X35633927Y-84853782D01*
X35937423Y-84853782D01*
X36007782Y-84856560D01*
X36064781Y-84864159D01*
X36110494Y-84875617D01*
X36152967Y-84894106D01*
X36187289Y-84919031D01*
X36214639Y-84950648D01*
X36233869Y-84987882D01*
X36246425Y-85035695D01*
X36251031Y-85096803D01*
X36246282Y-85160021D01*
X36233332Y-85209494D01*
X36213501Y-85248009D01*
X36187186Y-85277690D01*
X36154244Y-85300114D01*
X36111489Y-85317440D01*
X36056586Y-85328909D01*
X35986711Y-85333133D01*
X35953103Y-85333133D01*
X35953103Y-85214382D01*
X35981143Y-85214382D01*
X36042364Y-85212110D01*
X36081331Y-85206517D01*
X36112835Y-85194020D01*
X36134576Y-85173496D01*
X36147449Y-85144589D01*
X36152503Y-85099050D01*
X36149404Y-85064728D01*
X36141092Y-85039284D01*
X36128421Y-85020600D01*
X36100887Y-84999790D01*
X36063990Y-84987578D01*
X36020337Y-84982357D01*
X35956474Y-84980300D01*
X35620494Y-84980300D01*
X35550563Y-84983851D01*
X35502561Y-84992899D01*
X35470919Y-85005505D01*
X35451911Y-85020136D01*
X35437968Y-85040171D01*
X35428927Y-85066920D01*
X35425588Y-85102421D01*
X35429098Y-85136920D01*
X35438724Y-85163469D01*
X35453846Y-85183895D01*
X35474876Y-85199288D01*
X35509099Y-85212525D01*
X35559945Y-85221946D01*
X35632803Y-85225617D01*
X35695525Y-85225617D01*
X35695525Y-85110237D01*
X35785113Y-85110237D01*
X35785113Y-85339825D01*
X35336000Y-85339825D01*
X35336000Y-85260300D01*
X35440145Y-85247990D01*
X35397158Y-85226997D01*
X35365551Y-85200936D01*
X35343342Y-85169663D01*
X35329652Y-85132173D01*
X35324813Y-85086741D01*
G37*
G36*
X36243215Y-85469225D02*
G01*
X36243215Y-85555491D01*
X35640619Y-85813070D01*
X36243215Y-85813070D01*
X36243215Y-85918387D01*
X35336000Y-85918387D01*
X35336000Y-85837739D01*
X35955351Y-85576789D01*
X35336000Y-85576789D01*
X35336000Y-85469225D01*
X36243215Y-85469225D01*
G37*
G36*
X36243215Y-86257250D02*
G01*
X36238059Y-86331939D01*
X36224164Y-86389173D01*
X36203239Y-86432578D01*
X36176000Y-86465003D01*
X36141114Y-86489859D01*
X36096223Y-86508918D01*
X36038987Y-86521461D01*
X35966537Y-86526064D01*
X35632803Y-86526064D01*
X35556133Y-86521539D01*
X35495157Y-86509192D01*
X35447028Y-86490451D01*
X35409370Y-86466127D01*
X35379044Y-86433745D01*
X35356285Y-86391533D01*
X35341444Y-86337117D01*
X35336000Y-86267313D01*
X35336000Y-86258374D01*
X35426711Y-86258374D01*
X35430156Y-86301830D01*
X35439174Y-86332682D01*
X35452454Y-86354117D01*
X35471321Y-86371164D01*
X35494357Y-86383489D01*
X35522454Y-86391095D01*
X35572404Y-86396229D01*
X35656300Y-86398374D01*
X35950856Y-86398374D01*
X36023630Y-86395605D01*
X36069021Y-86388848D01*
X36094627Y-86379846D01*
X36114439Y-86366618D01*
X36129496Y-86349085D01*
X36139527Y-86327871D01*
X36146469Y-86297473D01*
X36149133Y-86255003D01*
X36149133Y-86186664D01*
X35426711Y-86186664D01*
X35426711Y-86258374D01*
X35336000Y-86258374D01*
X35336000Y-86060097D01*
X36243215Y-86060097D01*
X36243215Y-86257250D01*
G37*
G36*
X49988171Y-72595980D02*
G01*
X50146379Y-72595980D01*
X50146379Y-73085992D01*
X50437578Y-73085992D01*
X50437578Y-72595980D01*
X50595786Y-72595980D01*
X50595786Y-73730000D01*
X50437578Y-73730000D01*
X50437578Y-73199382D01*
X50146379Y-73199382D01*
X50146379Y-73730000D01*
X49988171Y-73730000D01*
X49988171Y-72595980D01*
G37*
G36*
X51127724Y-72601818D02*
G01*
X51185894Y-72617835D01*
X51231738Y-72642584D01*
X51267576Y-72675786D01*
X51294943Y-72716937D01*
X51315722Y-72768124D01*
X51329232Y-72831479D01*
X51334132Y-72909588D01*
X51329087Y-72978910D01*
X51314954Y-73036680D01*
X51292733Y-73084914D01*
X51262691Y-73125193D01*
X51224700Y-73157729D01*
X51178705Y-73181612D01*
X51123049Y-73196769D01*
X51055512Y-73202191D01*
X50930887Y-73202191D01*
X50930887Y-73730000D01*
X50772679Y-73730000D01*
X50772679Y-73088801D01*
X50930887Y-73088801D01*
X51003733Y-73088801D01*
X51069567Y-73084400D01*
X51112177Y-73073414D01*
X51145283Y-73052413D01*
X51167498Y-73020230D01*
X51179462Y-72977901D01*
X51184289Y-72910992D01*
X51180540Y-72830007D01*
X51171711Y-72783620D01*
X51160402Y-72758889D01*
X51144018Y-72740052D01*
X51122008Y-72726222D01*
X51079333Y-72714364D01*
X51005137Y-72709370D01*
X50930887Y-72709370D01*
X50930887Y-73088801D01*
X50772679Y-73088801D01*
X50772679Y-72595980D01*
X51054108Y-72595980D01*
X51127724Y-72601818D01*
G37*
G36*
X52009342Y-73742578D02*
G01*
X51941738Y-73737188D01*
X51886197Y-73722144D01*
X51840460Y-73698484D01*
X51802834Y-73666313D01*
X51773152Y-73626403D01*
X51751155Y-73578427D01*
X51737138Y-73520770D01*
X51732126Y-73451379D01*
X51732126Y-73413583D01*
X51880504Y-73413583D01*
X51880504Y-73438801D01*
X51885758Y-73496420D01*
X51896202Y-73539781D01*
X51910607Y-73571852D01*
X51932573Y-73596632D01*
X51964289Y-73612220D01*
X52009342Y-73618014D01*
X52056622Y-73611493D01*
X52089633Y-73593884D01*
X52112229Y-73565502D01*
X52126187Y-73529260D01*
X52135843Y-73478580D01*
X52139523Y-73409370D01*
X52135056Y-73346615D01*
X52122939Y-73297887D01*
X52104535Y-73260321D01*
X52077293Y-73230443D01*
X52040457Y-73210546D01*
X51991146Y-73200786D01*
X51970141Y-73199382D01*
X51970141Y-73049600D01*
X51989741Y-73049600D01*
X52041428Y-73042853D01*
X52078473Y-73028434D01*
X52104535Y-73007590D01*
X52122497Y-72979146D01*
X52134791Y-72937327D01*
X52139523Y-72877409D01*
X52135813Y-72821744D01*
X52125990Y-72780601D01*
X52111496Y-72750708D01*
X52089434Y-72728056D01*
X52057130Y-72713501D01*
X52010746Y-72708026D01*
X51964743Y-72713867D01*
X51932620Y-72729509D01*
X51910607Y-72754249D01*
X51896279Y-72786314D01*
X51885804Y-72830455D01*
X51880504Y-72889987D01*
X51880504Y-72913801D01*
X51732126Y-72913801D01*
X51732126Y-72876004D01*
X51737149Y-72806592D01*
X51751181Y-72749077D01*
X51773178Y-72701363D01*
X51802834Y-72661803D01*
X51840406Y-72630004D01*
X51886317Y-72606543D01*
X51942321Y-72591582D01*
X52010746Y-72586210D01*
X52079120Y-72591626D01*
X52135096Y-72606715D01*
X52181005Y-72630398D01*
X52218597Y-72662536D01*
X52248277Y-72702417D01*
X52270274Y-72750371D01*
X52284292Y-72808016D01*
X52289305Y-72877409D01*
X52284005Y-72942431D01*
X52269206Y-72995835D01*
X52245891Y-73039830D01*
X52213442Y-73077262D01*
X52174166Y-73105522D01*
X52126945Y-73125193D01*
X52174345Y-73146437D01*
X52213892Y-73178226D01*
X52246624Y-73221791D01*
X52269371Y-73272089D01*
X52284020Y-73333779D01*
X52289305Y-73409370D01*
X52284384Y-73489427D01*
X52270708Y-73555598D01*
X52249504Y-73610177D01*
X52221406Y-73655078D01*
X52184382Y-73692068D01*
X52138170Y-73719127D01*
X52080770Y-73736363D01*
X52009342Y-73742578D01*
G37*
G36*
X52871214Y-73293171D02*
G01*
X52998586Y-73293171D01*
X52998586Y-73426222D01*
X52871214Y-73426222D01*
X52871214Y-73730000D01*
X52728393Y-73730000D01*
X52728393Y-73426222D01*
X52399398Y-73426222D01*
X52399398Y-73293171D01*
X52543623Y-73293171D01*
X52728393Y-73293171D01*
X52728393Y-72778002D01*
X52543623Y-73293171D01*
X52399398Y-73293171D01*
X52399398Y-73269419D01*
X52694809Y-72595980D01*
X52871214Y-72595980D01*
X52871214Y-73293171D01*
G37*
G36*
X53354082Y-72713583D02*
G01*
X53050244Y-72713583D01*
X53050244Y-72595980D01*
X53503864Y-72595980D01*
X53503864Y-72668825D01*
X53293876Y-73730000D01*
X53149651Y-73730000D01*
X53354082Y-72713583D01*
G37*
G36*
X53975862Y-72591691D02*
G01*
X54029383Y-72606907D01*
X54072767Y-72630761D01*
X54107815Y-72663208D01*
X54134963Y-72703074D01*
X54155252Y-72751152D01*
X54168248Y-72809064D01*
X54172906Y-72878813D01*
X54168965Y-72938810D01*
X54157950Y-72988900D01*
X54140727Y-73030732D01*
X54116258Y-73068738D01*
X54085211Y-73102462D01*
X54046938Y-73132215D01*
X54089747Y-73164078D01*
X54124472Y-73199934D01*
X54151901Y-73240048D01*
X54171158Y-73284477D01*
X54183753Y-73340497D01*
X54188354Y-73410774D01*
X54183529Y-73491815D01*
X54170181Y-73558211D01*
X54149610Y-73612415D01*
X54122531Y-73656482D01*
X54086571Y-73692612D01*
X54040759Y-73719248D01*
X53982860Y-73736362D01*
X53909734Y-73742578D01*
X53835772Y-73736381D01*
X53777415Y-73719357D01*
X53731440Y-73692935D01*
X53695533Y-73657215D01*
X53668524Y-73613489D01*
X53647949Y-73559346D01*
X53634561Y-73492630D01*
X53629876Y-73413583D01*
X53772531Y-73413583D01*
X53776454Y-73479607D01*
X53786973Y-73530139D01*
X53802634Y-73568311D01*
X53827127Y-73598371D01*
X53861641Y-73616821D01*
X53909734Y-73623571D01*
X53956846Y-73616847D01*
X53990676Y-73598434D01*
X54014698Y-73568311D01*
X54029995Y-73530186D01*
X54040288Y-73479655D01*
X54044129Y-73413583D01*
X54040200Y-73353517D01*
X54029354Y-73304727D01*
X54012622Y-73265205D01*
X53987337Y-73233293D01*
X53953915Y-73213921D01*
X53909734Y-73206404D01*
X53864580Y-73213953D01*
X53830471Y-73233364D01*
X53804710Y-73265205D01*
X53787606Y-73304773D01*
X53776537Y-73353561D01*
X53772531Y-73413583D01*
X53629876Y-73413583D01*
X53629710Y-73410774D01*
X53634246Y-73339475D01*
X53646617Y-73283033D01*
X53665430Y-73238644D01*
X53692520Y-73198645D01*
X53727011Y-73163269D01*
X53769722Y-73132215D01*
X53724531Y-73095351D01*
X53689901Y-73052582D01*
X53664856Y-73003167D01*
X53649245Y-72945820D01*
X53643754Y-72878813D01*
X53644322Y-72870387D01*
X53790727Y-72870387D01*
X53794044Y-72926011D01*
X53803202Y-72971410D01*
X53817288Y-73008323D01*
X53839255Y-73038272D01*
X53869205Y-73056454D01*
X53909734Y-73063583D01*
X53949001Y-73056450D01*
X53979348Y-73036933D01*
X54002969Y-73003283D01*
X54019458Y-72950328D01*
X54025933Y-72870387D01*
X54022511Y-72820543D01*
X54013105Y-72780574D01*
X53998639Y-72748632D01*
X53977006Y-72723254D01*
X53948181Y-72707917D01*
X53909734Y-72702409D01*
X53871223Y-72707884D01*
X53841884Y-72723210D01*
X53819426Y-72748632D01*
X53804179Y-72780673D01*
X53794310Y-72820641D01*
X53790727Y-72870387D01*
X53644322Y-72870387D01*
X53648453Y-72809109D01*
X53661571Y-72751212D01*
X53682065Y-72703118D01*
X53709516Y-72663208D01*
X53744901Y-72630798D01*
X53788736Y-72606937D01*
X53842849Y-72591701D01*
X53909734Y-72586210D01*
X53975862Y-72591691D01*
G37*
G36*
X54920472Y-73730000D02*
G01*
X54770690Y-73730000D01*
X54718850Y-73444419D01*
X54487857Y-73444419D01*
X54433269Y-73730000D01*
X54284891Y-73730000D01*
X54369596Y-73331029D01*
X54508862Y-73331029D01*
X54697845Y-73331029D01*
X54602651Y-72820012D01*
X54508862Y-73331029D01*
X54369596Y-73331029D01*
X54525654Y-72595980D01*
X54678244Y-72595980D01*
X54920472Y-73730000D01*
G37*
G36*
X55355652Y-72595980D02*
G01*
X55795289Y-72595980D01*
X55795289Y-72713583D01*
X55513860Y-72713583D01*
X55513860Y-73088801D01*
X55742105Y-73088801D01*
X55742105Y-73200786D01*
X55513860Y-73200786D01*
X55513860Y-73616610D01*
X55798098Y-73616610D01*
X55798098Y-73730000D01*
X55355652Y-73730000D01*
X55355652Y-72595980D01*
G37*
G36*
X56031655Y-73304406D02*
G01*
X55853846Y-72920823D01*
X55996667Y-72920823D01*
X56115675Y-73176973D01*
X56220638Y-72920823D01*
X56367672Y-72920823D01*
X56182841Y-73322602D01*
X56370481Y-73730000D01*
X56227660Y-73730000D01*
X56100226Y-73455593D01*
X55991050Y-73730000D01*
X55849633Y-73730000D01*
X56031655Y-73304406D01*
G37*
G36*
X56672426Y-73741174D02*
G01*
X56616950Y-73735354D01*
X56574726Y-73719442D01*
X56542608Y-73694430D01*
X56518815Y-73659448D01*
X56503228Y-73611927D01*
X56497426Y-73547978D01*
X56497426Y-73020230D01*
X56412002Y-73020230D01*
X56412002Y-72920823D01*
X56497426Y-72920823D01*
X56497426Y-72684213D01*
X56647208Y-72684213D01*
X56647208Y-72920823D01*
X56777451Y-72920823D01*
X56777451Y-73020230D01*
X56647208Y-73020230D01*
X56647208Y-73538208D01*
X56651786Y-73582893D01*
X56662595Y-73606779D01*
X56682842Y-73620707D01*
X56721458Y-73626379D01*
X56776046Y-73622227D01*
X56776046Y-73732808D01*
X56720966Y-73739176D01*
X56672426Y-73741174D01*
G37*
G36*
X57175952Y-72914843D02*
G01*
X57223916Y-72928920D01*
X57259342Y-72950193D01*
X57288159Y-72980138D01*
X57310116Y-73017665D01*
X57325165Y-73064316D01*
X57336711Y-73144144D01*
X57341285Y-73262397D01*
X57341285Y-73328220D01*
X57022060Y-73328220D01*
X57022060Y-73490580D01*
X57025060Y-73540067D01*
X57032776Y-73574499D01*
X57043736Y-73597681D01*
X57060609Y-73615604D01*
X57083102Y-73626611D01*
X57113101Y-73630593D01*
X57142847Y-73626492D01*
X57163473Y-73615449D01*
X57177459Y-73597681D01*
X57189358Y-73560135D01*
X57194251Y-73497602D01*
X57194251Y-73448571D01*
X57339881Y-73448571D01*
X57339881Y-73479406D01*
X57335872Y-73543991D01*
X57324797Y-73596641D01*
X57307732Y-73639412D01*
X57285232Y-73674007D01*
X57255691Y-73702109D01*
X57218229Y-73722918D01*
X57171050Y-73736310D01*
X57111697Y-73741174D01*
X57049910Y-73736606D01*
X57002367Y-73724254D01*
X56966067Y-73705514D01*
X56935552Y-73678556D01*
X56911325Y-73643814D01*
X56893283Y-73599818D01*
X56878139Y-73524402D01*
X56872278Y-73417796D01*
X56872278Y-73233026D01*
X56873674Y-73203595D01*
X57022060Y-73203595D01*
X57022060Y-73247009D01*
X57194251Y-73247009D01*
X57194251Y-73174225D01*
X57189390Y-73097649D01*
X57178131Y-73055950D01*
X57164186Y-73036738D01*
X57142576Y-73024739D01*
X57110293Y-73020230D01*
X57076952Y-73024839D01*
X57054972Y-73037021D01*
X57039780Y-73057666D01*
X57029021Y-73092342D01*
X57024082Y-73135107D01*
X57022060Y-73203595D01*
X56873674Y-73203595D01*
X56876413Y-73145832D01*
X56887535Y-73078131D01*
X56904032Y-73026330D01*
X56924790Y-72987318D01*
X56954088Y-72954998D01*
X56993216Y-72930983D01*
X57044597Y-72915348D01*
X57111697Y-72909588D01*
X57175952Y-72914843D01*
G37*
G36*
X57476779Y-72920823D02*
G01*
X57626561Y-72920823D01*
X57626561Y-73000629D01*
X57678193Y-72958676D01*
X57727766Y-72930740D01*
X57776043Y-72914784D01*
X57823970Y-72909588D01*
X57865150Y-72915340D01*
X57895488Y-72931212D01*
X57917759Y-72957215D01*
X57932857Y-72990046D01*
X57942398Y-73028834D01*
X57945786Y-73074818D01*
X57945786Y-73730000D01*
X57796004Y-73730000D01*
X57796004Y-73118171D01*
X57791952Y-73075432D01*
X57781960Y-73049600D01*
X57763477Y-73033299D01*
X57731585Y-73027191D01*
X57703153Y-73031778D01*
X57668823Y-73047316D01*
X57626561Y-73077627D01*
X57626561Y-73730000D01*
X57476779Y-73730000D01*
X57476779Y-72920823D01*
G37*
G36*
X58278872Y-73741174D02*
G01*
X58216149Y-73733960D01*
X58163982Y-73713398D01*
X58119993Y-73679624D01*
X58086008Y-73635219D01*
X58062759Y-73580934D01*
X58050689Y-73514394D01*
X58175314Y-73476598D01*
X58191894Y-73548895D01*
X58213782Y-73592796D01*
X58234422Y-73613703D01*
X58259818Y-73626202D01*
X58291512Y-73630593D01*
X58327182Y-73624494D01*
X58352390Y-73607512D01*
X58368394Y-73581213D01*
X58374127Y-73545230D01*
X58370176Y-73511591D01*
X58358679Y-73482215D01*
X58339563Y-73455199D01*
X58308304Y-73424818D01*
X58169696Y-73305811D01*
X58126715Y-73263022D01*
X58096179Y-73219715D01*
X58077144Y-73170758D01*
X58070289Y-73108401D01*
X58077034Y-73048269D01*
X58095890Y-73000437D01*
X58126282Y-72962100D01*
X58166535Y-72933735D01*
X58216496Y-72915961D01*
X58278872Y-72909588D01*
X58337822Y-72916654D01*
X58385228Y-72936576D01*
X58423770Y-72969122D01*
X58453241Y-73011395D01*
X58473683Y-73061881D01*
X58484708Y-73122384D01*
X58383897Y-73160181D01*
X58369890Y-73096428D01*
X58351718Y-73055950D01*
X58334311Y-73036123D01*
X58312399Y-73024366D01*
X58284490Y-73020230D01*
X58251303Y-73026373D01*
X58226360Y-73044043D01*
X58210221Y-73070288D01*
X58204684Y-73102784D01*
X58208950Y-73130954D01*
X58221998Y-73157724D01*
X58245289Y-73183995D01*
X58388110Y-73315580D01*
X58437988Y-73367330D01*
X58472801Y-73415048D01*
X58489118Y-73448904D01*
X58499315Y-73488172D01*
X58502904Y-73533995D01*
X58498706Y-73583913D01*
X58486936Y-73625199D01*
X58468287Y-73659495D01*
X58442698Y-73687990D01*
X58399670Y-73716606D01*
X58346027Y-73734672D01*
X58278872Y-73741174D01*
G37*
G36*
X58623804Y-72643607D02*
G01*
X58773586Y-72643607D01*
X58773586Y-72800411D01*
X58623804Y-72800411D01*
X58623804Y-72643607D01*
G37*
G36*
X58623804Y-72920823D02*
G01*
X58773586Y-72920823D01*
X58773586Y-73730000D01*
X58623804Y-73730000D01*
X58623804Y-72920823D01*
G37*
G36*
X59220340Y-72915126D02*
G01*
X59269842Y-72930311D01*
X59308494Y-72953892D01*
X59338337Y-72985914D01*
X59360259Y-73024605D01*
X59377144Y-73073063D01*
X59388220Y-73133334D01*
X59392254Y-73207808D01*
X59392254Y-73443014D01*
X59388222Y-73517451D01*
X59377148Y-73577714D01*
X59360263Y-73626187D01*
X59338337Y-73664909D01*
X59308498Y-73696902D01*
X59269848Y-73720464D01*
X59220345Y-73735639D01*
X59157048Y-73741174D01*
X59092938Y-73735614D01*
X59042975Y-73720401D01*
X59004130Y-73696834D01*
X58974293Y-73664909D01*
X58952393Y-73626191D01*
X58935527Y-73577720D01*
X58924465Y-73517456D01*
X58920437Y-73443014D01*
X58920437Y-73207808D01*
X58920893Y-73199382D01*
X59070219Y-73199382D01*
X59070219Y-73452784D01*
X59074433Y-73548039D01*
X59082525Y-73580778D01*
X59097513Y-73606840D01*
X59120710Y-73624183D01*
X59157048Y-73630593D01*
X59193252Y-73624155D01*
X59215849Y-73606840D01*
X59230306Y-73580828D01*
X59238197Y-73548039D01*
X59242411Y-73452784D01*
X59242411Y-73199382D01*
X59238197Y-73103517D01*
X59230274Y-73070101D01*
X59215849Y-73044043D01*
X59193246Y-73026681D01*
X59157048Y-73020230D01*
X59120716Y-73026654D01*
X59097513Y-73044043D01*
X59082558Y-73070152D01*
X59074433Y-73103517D01*
X59070219Y-73199382D01*
X58920893Y-73199382D01*
X58924467Y-73133330D01*
X58935531Y-73073057D01*
X58952397Y-73024601D01*
X58974293Y-72985914D01*
X59004135Y-72953960D01*
X59042981Y-72930374D01*
X59092943Y-72915151D01*
X59157048Y-72909588D01*
X59220340Y-72915126D01*
G37*
G36*
X59529396Y-72920823D02*
G01*
X59679178Y-72920823D01*
X59679178Y-73000629D01*
X59730810Y-72958676D01*
X59780382Y-72930740D01*
X59828660Y-72914784D01*
X59876587Y-72909588D01*
X59917767Y-72915340D01*
X59948105Y-72931212D01*
X59970376Y-72957215D01*
X59985474Y-72990046D01*
X59995015Y-73028834D01*
X59998403Y-73074818D01*
X59998403Y-73730000D01*
X59848621Y-73730000D01*
X59848621Y-73118171D01*
X59844569Y-73075432D01*
X59834577Y-73049600D01*
X59816094Y-73033299D01*
X59784202Y-73027191D01*
X59755770Y-73031778D01*
X59721440Y-73047316D01*
X59679178Y-73077627D01*
X59679178Y-73730000D01*
X59529396Y-73730000D01*
X59529396Y-72920823D01*
G37*
D12*
G36*
X60572421Y-57823761D02*
G01*
X60578461Y-57745642D01*
X60594880Y-57685031D01*
X60619987Y-57638259D01*
X60655524Y-57598873D01*
X60699378Y-57568419D01*
X60752978Y-57546545D01*
X60810483Y-57533300D01*
X60881136Y-57524565D01*
X60967178Y-57521388D01*
X61719019Y-57521388D01*
X61719019Y-57672575D01*
X60960218Y-57672575D01*
X60873964Y-57676628D01*
X60810192Y-57687286D01*
X60764152Y-57702678D01*
X60735330Y-57721030D01*
X60714804Y-57746190D01*
X60701761Y-57779568D01*
X60696985Y-57823761D01*
X60701762Y-57867988D01*
X60714807Y-57901385D01*
X60735334Y-57926553D01*
X60764152Y-57944906D01*
X60810192Y-57960297D01*
X60873964Y-57970956D01*
X60960218Y-57975008D01*
X61719019Y-57975008D01*
X61719019Y-58124790D01*
X60967178Y-58124790D01*
X60881138Y-58121607D01*
X60810485Y-58112851D01*
X60752978Y-58099572D01*
X60699328Y-58077783D01*
X60655478Y-58047561D01*
X60619987Y-58008592D01*
X60594911Y-57962276D01*
X60578478Y-57901924D01*
X60572421Y-57823761D01*
G37*
G36*
X61523014Y-58442489D02*
G01*
X61518811Y-58431258D01*
X61503414Y-58357737D01*
X61482409Y-58245080D01*
X61595799Y-58245080D01*
X61621635Y-58331743D01*
X61651279Y-58396991D01*
X61683847Y-58444923D01*
X61719019Y-58478881D01*
X61719019Y-58592271D01*
X60585000Y-58592271D01*
X60585000Y-58442489D01*
X61523014Y-58442489D01*
G37*
G36*
X42778620Y-81127578D02*
G01*
X42700501Y-81121538D01*
X42639890Y-81105119D01*
X42593118Y-81080012D01*
X42553732Y-81044475D01*
X42523278Y-81000621D01*
X42501404Y-80947021D01*
X42488159Y-80889516D01*
X42479424Y-80818863D01*
X42476247Y-80732821D01*
X42476247Y-79980980D01*
X42627434Y-79980980D01*
X42627434Y-80739781D01*
X42631487Y-80826035D01*
X42642145Y-80889807D01*
X42657537Y-80935847D01*
X42675889Y-80964669D01*
X42701049Y-80985195D01*
X42734427Y-80998238D01*
X42778620Y-81003014D01*
X42822847Y-80998237D01*
X42856244Y-80985192D01*
X42881412Y-80964665D01*
X42899765Y-80935847D01*
X42915156Y-80889807D01*
X42925815Y-80826035D01*
X42929867Y-80739781D01*
X42929867Y-79980980D01*
X43079649Y-79980980D01*
X43079649Y-80732821D01*
X43076466Y-80818861D01*
X43067710Y-80889514D01*
X43054431Y-80947021D01*
X43032642Y-81000671D01*
X43002420Y-81044521D01*
X42963451Y-81080012D01*
X42917135Y-81105088D01*
X42856783Y-81121521D01*
X42778620Y-81127578D01*
G37*
G36*
X43215326Y-81008571D02*
G01*
X43503716Y-80559225D01*
X43531743Y-80517215D01*
X43576269Y-80441442D01*
X43603123Y-80387034D01*
X43619560Y-80331978D01*
X43625532Y-80262409D01*
X43622048Y-80208596D01*
X43612744Y-80167995D01*
X43598910Y-80137784D01*
X43577975Y-80114060D01*
X43549865Y-80099594D01*
X43512142Y-80094370D01*
X43472845Y-80099632D01*
X43441578Y-80114529D01*
X43416350Y-80139302D01*
X43396524Y-80176192D01*
X43382938Y-80229067D01*
X43377748Y-80303014D01*
X43377748Y-80340811D01*
X43227905Y-80340811D01*
X43227905Y-80301610D01*
X43232741Y-80220537D01*
X43246104Y-80154283D01*
X43266676Y-80100348D01*
X43293728Y-80056634D01*
X43329646Y-80020758D01*
X43375248Y-79994328D01*
X43432718Y-79977365D01*
X43505120Y-79971210D01*
X43571996Y-79976617D01*
X43626667Y-79991681D01*
X43671457Y-80015349D01*
X43708086Y-80047536D01*
X43736764Y-80087268D01*
X43758135Y-80135361D01*
X43771813Y-80193503D01*
X43776718Y-80263813D01*
X43772482Y-80330266D01*
X43760598Y-80386301D01*
X43742398Y-80437874D01*
X43722130Y-80479419D01*
X43652155Y-80591404D01*
X43391731Y-80988970D01*
X43750157Y-80988970D01*
X43750157Y-81115000D01*
X43215326Y-81115000D01*
X43215326Y-81008571D01*
G37*
G36*
X63226165Y-62012687D02*
G01*
X63272900Y-62065505D01*
X63303768Y-62112903D01*
X63321770Y-62155898D01*
X63329097Y-62195617D01*
X63326482Y-62235758D01*
X63312895Y-62277655D01*
X63286507Y-62322541D01*
X63244368Y-62371466D01*
X63198368Y-62411820D01*
X63156802Y-62438026D01*
X63118769Y-62452749D01*
X63083252Y-62457858D01*
X63049174Y-62454283D01*
X63015498Y-62441930D01*
X62785039Y-62854558D01*
X62698687Y-62768205D01*
X62915709Y-62383313D01*
X62846005Y-62313609D01*
X62545047Y-62614566D01*
X62455551Y-62525070D01*
X62731155Y-62249466D01*
X62910147Y-62249466D01*
X62944205Y-62283524D01*
X62985306Y-62318439D01*
X63019954Y-62336979D01*
X63049936Y-62343315D01*
X63079896Y-62338867D01*
X63115157Y-62321139D01*
X63158015Y-62285113D01*
X63192917Y-62245269D01*
X63211485Y-62214234D01*
X63219003Y-62182644D01*
X63213868Y-62150091D01*
X63196845Y-62117733D01*
X63162022Y-62076830D01*
X63122403Y-62037211D01*
X62910147Y-62249466D01*
X62731155Y-62249466D01*
X63097050Y-61883572D01*
X63226165Y-62012687D01*
G37*
G36*
X63482356Y-62490633D02*
G01*
X63473625Y-62486657D01*
X63423325Y-62453777D01*
X63347715Y-62401931D01*
X63411858Y-62337788D01*
X63475497Y-62372197D01*
X63529176Y-62392337D01*
X63574714Y-62401029D01*
X63613820Y-62400342D01*
X63677963Y-62464485D01*
X63036464Y-63105983D01*
X62951735Y-63021254D01*
X63482356Y-62490633D01*
G37*
G36*
X63856205Y-62682119D02*
G01*
X63894499Y-62693418D01*
X63933729Y-62715410D01*
X63974671Y-62750140D01*
X64008978Y-62790648D01*
X64030647Y-62829532D01*
X64041695Y-62867567D01*
X64043166Y-62905748D01*
X64035972Y-62943657D01*
X64020252Y-62982331D01*
X63994844Y-63022443D01*
X63958023Y-63064534D01*
X63921854Y-63096244D01*
X63887288Y-63118348D01*
X63853881Y-63132269D01*
X63818540Y-63139926D01*
X63781900Y-63141441D01*
X63743418Y-63136621D01*
X63749611Y-63178862D01*
X63748971Y-63218789D01*
X63741795Y-63256997D01*
X63727555Y-63293023D01*
X63702991Y-63331838D01*
X63665839Y-63374195D01*
X63617265Y-63417310D01*
X63572155Y-63447318D01*
X63529856Y-63466343D01*
X63489610Y-63475954D01*
X63448830Y-63476049D01*
X63407847Y-63465202D01*
X63365414Y-63442130D01*
X63320531Y-63404281D01*
X63282197Y-63358936D01*
X63258816Y-63316294D01*
X63247927Y-63275975D01*
X63355377Y-63275975D01*
X63364464Y-63305936D01*
X63387852Y-63336960D01*
X63418306Y-63359807D01*
X63447859Y-63368528D01*
X63478488Y-63365077D01*
X63508708Y-63352164D01*
X63543115Y-63329401D01*
X63582664Y-63294198D01*
X63614420Y-63257997D01*
X63635884Y-63224262D01*
X63648776Y-63192440D01*
X63652525Y-63160084D01*
X63644577Y-63130220D01*
X63623837Y-63100975D01*
X63594023Y-63079702D01*
X63563748Y-63071387D01*
X63531163Y-63074827D01*
X63499105Y-63087534D01*
X63465244Y-63108872D01*
X63429025Y-63140559D01*
X63393895Y-63180127D01*
X63371260Y-63214662D01*
X63358526Y-63245115D01*
X63355377Y-63275975D01*
X63247927Y-63275975D01*
X63247755Y-63275340D01*
X63247649Y-63234822D01*
X63257106Y-63194808D01*
X63276095Y-63152541D01*
X63306261Y-63107228D01*
X63349822Y-63058178D01*
X63392721Y-63020412D01*
X63431647Y-62995481D01*
X63467400Y-62981013D01*
X63505351Y-62973711D01*
X63544874Y-62973210D01*
X63586601Y-62979805D01*
X63585200Y-62965996D01*
X63679077Y-62965996D01*
X63685735Y-62993223D01*
X63704629Y-63020183D01*
X63730876Y-63038361D01*
X63759083Y-63044487D01*
X63791481Y-63038814D01*
X63830764Y-63018185D01*
X63879649Y-62976627D01*
X63905909Y-62946495D01*
X63923198Y-62918565D01*
X63933084Y-62892312D01*
X63935203Y-62865719D01*
X63927573Y-62840737D01*
X63908940Y-62815872D01*
X63884057Y-62797184D01*
X63858791Y-62789258D01*
X63831705Y-62790934D01*
X63804955Y-62800434D01*
X63776763Y-62817461D01*
X63746596Y-62843574D01*
X63717007Y-62876917D01*
X63696506Y-62907778D01*
X63683593Y-62936628D01*
X63679077Y-62965996D01*
X63585200Y-62965996D01*
X63581891Y-62933387D01*
X63586495Y-62889603D01*
X63600281Y-62847482D01*
X63623890Y-62806211D01*
X63658689Y-62765200D01*
X63700778Y-62728428D01*
X63740950Y-62703097D01*
X63779749Y-62687484D01*
X63817854Y-62680436D01*
X63856205Y-62682119D01*
G37*
G36*
X39372421Y-82534936D02*
G01*
X39377176Y-82466407D01*
X39390354Y-82410494D01*
X39410808Y-82364945D01*
X39438091Y-82327964D01*
X39472500Y-82298326D01*
X39523329Y-82270072D01*
X39584931Y-82248618D01*
X39659351Y-82234746D01*
X39748982Y-82229754D01*
X40149419Y-82229754D01*
X40244796Y-82234806D01*
X40321709Y-82248649D01*
X40383281Y-82269694D01*
X40432191Y-82296921D01*
X40465077Y-82325836D01*
X40491363Y-82362448D01*
X40511227Y-82408123D01*
X40524115Y-82464815D01*
X40528789Y-82534936D01*
X40522698Y-82611449D01*
X40506057Y-82671329D01*
X40480446Y-82718007D01*
X40446174Y-82754022D01*
X40403784Y-82781226D01*
X40350673Y-82802005D01*
X40284535Y-82815578D01*
X40202602Y-82820517D01*
X40113026Y-82820517D01*
X40113026Y-82670735D01*
X40192772Y-82670735D01*
X40266610Y-82668702D01*
X40313183Y-82663713D01*
X40351458Y-82651071D01*
X40380411Y-82628053D01*
X40393462Y-82607325D01*
X40402275Y-82577741D01*
X40405629Y-82536340D01*
X40402073Y-82494163D01*
X40392585Y-82463066D01*
X40378274Y-82440414D01*
X40346532Y-82414769D01*
X40302681Y-82399076D01*
X40250286Y-82392073D01*
X40173171Y-82389306D01*
X39723825Y-82389306D01*
X39641751Y-82393307D01*
X39587965Y-82403289D01*
X39544644Y-82422586D01*
X39517990Y-82448840D01*
X39502789Y-82484240D01*
X39496985Y-82536340D01*
X39500429Y-82575663D01*
X39509641Y-82604703D01*
X39523607Y-82625916D01*
X39554352Y-82649521D01*
X39596392Y-82663041D01*
X39646814Y-82668544D01*
X39722421Y-82670735D01*
X39806379Y-82670735D01*
X39806379Y-82820517D01*
X39722421Y-82820517D01*
X39635911Y-82815783D01*
X39565499Y-82802749D01*
X39508513Y-82782810D01*
X39462669Y-82756830D01*
X39425157Y-82721579D01*
X39397250Y-82674898D01*
X39379096Y-82613998D01*
X39372421Y-82534936D01*
G37*
G36*
X40323014Y-83122950D02*
G01*
X40318811Y-83111719D01*
X40303414Y-83038198D01*
X40282409Y-82925541D01*
X40395799Y-82925541D01*
X40421635Y-83012204D01*
X40451279Y-83077452D01*
X40483847Y-83125384D01*
X40519019Y-83159343D01*
X40519019Y-83272732D01*
X39385000Y-83272732D01*
X39385000Y-83122950D01*
X40323014Y-83122950D01*
G37*
G36*
X52191055Y-65918220D02*
G01*
X52232952Y-65931808D01*
X52277838Y-65958195D01*
X52326763Y-66000334D01*
X52367117Y-66046334D01*
X52393323Y-66087900D01*
X52408046Y-66125933D01*
X52413154Y-66161450D01*
X52409579Y-66195528D01*
X52397227Y-66229204D01*
X52809855Y-66459663D01*
X52723502Y-66546016D01*
X52338610Y-66328993D01*
X52268906Y-66398698D01*
X52569863Y-66699655D01*
X52480367Y-66789151D01*
X51838869Y-66147652D01*
X51864222Y-66122299D01*
X51992508Y-66122299D01*
X52204763Y-66334555D01*
X52238821Y-66300497D01*
X52273736Y-66259396D01*
X52292276Y-66224748D01*
X52298612Y-66194767D01*
X52294164Y-66164806D01*
X52276436Y-66129545D01*
X52240410Y-66086687D01*
X52200566Y-66051785D01*
X52169531Y-66033218D01*
X52137941Y-66025699D01*
X52105388Y-66030834D01*
X52073030Y-66047858D01*
X52032127Y-66082680D01*
X51992508Y-66122299D01*
X51864222Y-66122299D01*
X51967984Y-66018538D01*
X52020802Y-65971802D01*
X52068200Y-65940934D01*
X52111195Y-65922932D01*
X52150914Y-65915605D01*
X52191055Y-65918220D01*
G37*
G36*
X52591194Y-65507595D02*
G01*
X52629762Y-65520501D01*
X52669308Y-65543102D01*
X52710446Y-65577067D01*
X52720739Y-65585771D01*
X52635215Y-65671295D01*
X52600468Y-65640826D01*
X52571453Y-65622994D01*
X52546893Y-65614682D01*
X52522098Y-65614673D01*
X52496072Y-65624736D01*
X52467276Y-65647531D01*
X52450100Y-65670918D01*
X52442514Y-65696490D01*
X52444157Y-65725825D01*
X52456829Y-65760958D01*
X52484210Y-65804073D01*
X52531454Y-65857403D01*
X52628860Y-65954809D01*
X52625965Y-65921318D01*
X52633212Y-65885520D01*
X52650029Y-65851161D01*
X52677977Y-65816990D01*
X52718562Y-65783270D01*
X52757152Y-65763569D01*
X52794790Y-65755473D01*
X52832791Y-65757994D01*
X52869851Y-65769308D01*
X52909905Y-65789508D01*
X52953687Y-65820274D01*
X53001870Y-65863724D01*
X53046709Y-65914070D01*
X53079428Y-65962271D01*
X53101686Y-66008794D01*
X53114715Y-66054219D01*
X53117815Y-66100601D01*
X53108967Y-66144793D01*
X53087630Y-66188233D01*
X53051747Y-66232002D01*
X53009358Y-66266526D01*
X52966578Y-66287113D01*
X52922332Y-66295560D01*
X52875173Y-66292173D01*
X52829137Y-66278925D01*
X52782208Y-66256494D01*
X52733825Y-66223700D01*
X52683538Y-66178947D01*
X52493162Y-65988570D01*
X52688361Y-65988570D01*
X52692208Y-66018158D01*
X52788060Y-66114009D01*
X52826449Y-66148064D01*
X52861069Y-66170871D01*
X52892616Y-66184508D01*
X52924729Y-66188982D01*
X52953611Y-66181608D01*
X52981283Y-66161538D01*
X53001941Y-66133285D01*
X53009643Y-66104240D01*
X53005462Y-66072422D01*
X52992129Y-66041124D01*
X52969931Y-66007140D01*
X52936932Y-65969835D01*
X52890003Y-65925157D01*
X52856175Y-65897022D01*
X52822567Y-65877692D01*
X52789649Y-65870080D01*
X52768148Y-65872201D01*
X52745754Y-65882122D01*
X52721499Y-65901754D01*
X52701459Y-65928268D01*
X52691034Y-65957572D01*
X52688361Y-65988570D01*
X52493162Y-65988570D01*
X52467311Y-65962719D01*
X52417138Y-65907269D01*
X52380107Y-65855512D01*
X52354313Y-65806904D01*
X52338230Y-65760826D01*
X52332511Y-65722585D01*
X52335244Y-65686014D01*
X52346377Y-65650197D01*
X52366664Y-65614344D01*
X52397607Y-65577862D01*
X52437588Y-65543571D01*
X52476355Y-65520734D01*
X52514510Y-65507663D01*
X52552835Y-65503391D01*
X52591194Y-65507595D01*
G37*
G36*
X53435007Y-50421529D02*
G01*
X53481742Y-50474348D01*
X53512610Y-50521745D01*
X53530612Y-50564740D01*
X53537940Y-50604459D01*
X53535325Y-50644600D01*
X53521737Y-50686497D01*
X53495349Y-50731384D01*
X53453210Y-50780308D01*
X53407210Y-50820662D01*
X53365645Y-50846868D01*
X53327611Y-50861591D01*
X53292094Y-50866700D01*
X53258016Y-50863125D01*
X53224340Y-50850772D01*
X52993882Y-51263401D01*
X52907529Y-51177048D01*
X53124551Y-50792156D01*
X53054847Y-50722452D01*
X52753890Y-51023409D01*
X52664394Y-50933913D01*
X52939998Y-50658309D01*
X53118990Y-50658309D01*
X53153047Y-50692366D01*
X53194148Y-50727281D01*
X53228796Y-50745822D01*
X53258778Y-50752157D01*
X53288738Y-50747710D01*
X53324000Y-50729981D01*
X53366857Y-50693955D01*
X53401760Y-50654111D01*
X53420327Y-50623077D01*
X53427845Y-50591487D01*
X53422710Y-50558934D01*
X53405687Y-50526576D01*
X53370864Y-50485672D01*
X53331245Y-50446053D01*
X53118990Y-50658309D01*
X52939998Y-50658309D01*
X53305892Y-50292414D01*
X53435007Y-50421529D01*
G37*
G36*
X53691199Y-50899475D02*
G01*
X53682467Y-50895499D01*
X53632168Y-50862620D01*
X53556557Y-50810773D01*
X53620700Y-50746630D01*
X53684339Y-50781039D01*
X53738018Y-50801179D01*
X53783556Y-50809871D01*
X53822662Y-50809185D01*
X53886805Y-50873327D01*
X53245307Y-51514826D01*
X53160577Y-51430096D01*
X53691199Y-50899475D01*
G37*
G36*
X53519875Y-51803624D02*
G01*
X53484681Y-51762333D01*
X53461772Y-51722404D01*
X53449283Y-51683147D01*
X53446198Y-51643664D01*
X53451984Y-51604297D01*
X53466679Y-51564714D01*
X53491366Y-51524169D01*
X53527784Y-51482081D01*
X53549165Y-51460700D01*
X53633100Y-51544635D01*
X53618835Y-51558900D01*
X53589213Y-51594467D01*
X53570592Y-51624903D01*
X53560599Y-51651194D01*
X53559007Y-51677637D01*
X53568131Y-51704397D01*
X53590338Y-51733160D01*
X53620773Y-51756217D01*
X53649408Y-51764930D01*
X53678246Y-51761657D01*
X53706643Y-51749051D01*
X53740774Y-51725844D01*
X53782007Y-51688775D01*
X53814979Y-51650748D01*
X53835690Y-51616330D01*
X53846530Y-51584668D01*
X53848021Y-51552356D01*
X53838439Y-51520263D01*
X53816065Y-51486847D01*
X53804977Y-51474171D01*
X53889707Y-51389441D01*
X53900794Y-51400529D01*
X53933850Y-51425951D01*
X53962962Y-51438750D01*
X53989496Y-51441702D01*
X54015747Y-51435772D01*
X54046358Y-51419070D01*
X54082930Y-51387852D01*
X54112320Y-51354265D01*
X54130037Y-51325434D01*
X54138748Y-51300325D01*
X54139082Y-51275031D01*
X54129042Y-51248524D01*
X54105900Y-51219188D01*
X54076573Y-51196468D01*
X54049552Y-51187146D01*
X54023105Y-51188688D01*
X53996861Y-51198722D01*
X53965966Y-51217766D01*
X53929291Y-51248444D01*
X53915820Y-51261915D01*
X53831885Y-51177980D01*
X53853266Y-51156599D01*
X53895373Y-51120176D01*
X53935846Y-51095578D01*
X53975280Y-51081030D01*
X54014435Y-51075428D01*
X54053677Y-51078693D01*
X54092920Y-51091393D01*
X54133064Y-51114610D01*
X54174809Y-51150278D01*
X54210423Y-51192020D01*
X54233552Y-51232221D01*
X54246126Y-51271588D01*
X54249211Y-51311033D01*
X54243441Y-51350382D01*
X54228757Y-51389953D01*
X54204078Y-51430492D01*
X54167659Y-51472582D01*
X54127879Y-51506366D01*
X54089298Y-51528204D01*
X54051221Y-51539903D01*
X54011690Y-51542721D01*
X53973487Y-51536490D01*
X53935646Y-51520905D01*
X53950442Y-51559736D01*
X53954831Y-51600089D01*
X53948703Y-51643250D01*
X53933118Y-51684571D01*
X53906508Y-51727754D01*
X53866737Y-51773504D01*
X53818666Y-51816008D01*
X53773498Y-51845704D01*
X53730628Y-51864583D01*
X53689333Y-51874088D01*
X53647465Y-51874069D01*
X53606017Y-51863234D01*
X53563797Y-51840514D01*
X53519875Y-51803624D01*
G37*
G36*
X61962696Y-68368219D02*
G01*
X62007914Y-68386485D01*
X62057256Y-68418088D01*
X62111740Y-68466063D01*
X62347725Y-68702048D01*
X62398740Y-68759462D01*
X62433126Y-68811309D01*
X62453906Y-68858593D01*
X62463335Y-68902422D01*
X62461881Y-68946762D01*
X62448126Y-68992704D01*
X62420142Y-69041676D01*
X62374633Y-69094885D01*
X62228109Y-69241409D01*
X61586611Y-68599910D01*
X61609581Y-68576940D01*
X61742633Y-68576940D01*
X62253463Y-69087769D01*
X62304169Y-69037063D01*
X62332462Y-69003898D01*
X62347901Y-68975706D01*
X62353666Y-68951159D01*
X62352380Y-68925764D01*
X62344806Y-68900760D01*
X62330317Y-68875514D01*
X62298627Y-68836564D01*
X62240821Y-68775725D01*
X62032537Y-68567441D01*
X61979121Y-68517941D01*
X61942247Y-68490622D01*
X61917775Y-68478882D01*
X61894413Y-68474226D01*
X61871368Y-68475977D01*
X61849274Y-68483884D01*
X61822871Y-68500470D01*
X61790957Y-68528617D01*
X61742633Y-68576940D01*
X61609581Y-68576940D01*
X61726019Y-68460502D01*
X61782478Y-68411335D01*
X61832774Y-68380690D01*
X61878262Y-68364794D01*
X61920451Y-68361127D01*
X61962696Y-68368219D01*
G37*
G36*
X62200304Y-68207972D02*
G01*
X62196328Y-68216703D01*
X62163448Y-68267003D01*
X62111602Y-68342613D01*
X62047459Y-68278470D01*
X62081868Y-68214831D01*
X62102008Y-68161152D01*
X62110700Y-68115614D01*
X62110013Y-68076508D01*
X62174156Y-68012365D01*
X62815654Y-68653863D01*
X62730925Y-68738593D01*
X62200304Y-68207972D01*
G37*
G36*
X62960313Y-68014990D02*
G01*
X63032366Y-67942937D01*
X63107631Y-68018203D01*
X63035578Y-68090255D01*
X63207420Y-68262098D01*
X63126628Y-68342889D01*
X62954786Y-68171047D01*
X62768678Y-68357155D01*
X62679977Y-68268453D01*
X62498895Y-67804358D01*
X62588097Y-67804358D01*
X62775000Y-68200304D01*
X62879521Y-68095782D01*
X62588097Y-67804358D01*
X62498895Y-67804358D01*
X62466132Y-67720389D01*
X62565922Y-67620599D01*
X62960313Y-68014990D01*
G37*
G36*
X63086649Y-56873172D02*
G01*
X63133384Y-56925990D01*
X63164253Y-56973387D01*
X63182255Y-57016383D01*
X63189582Y-57056101D01*
X63186967Y-57096242D01*
X63173379Y-57138140D01*
X63146992Y-57183026D01*
X63104852Y-57231950D01*
X63058853Y-57272305D01*
X63017287Y-57298511D01*
X62979253Y-57313234D01*
X62943737Y-57318342D01*
X62909659Y-57314767D01*
X62875983Y-57302414D01*
X62645524Y-57715043D01*
X62559171Y-57628690D01*
X62776193Y-57243798D01*
X62706489Y-57174094D01*
X62405532Y-57475051D01*
X62316036Y-57385555D01*
X62591640Y-57109951D01*
X62770632Y-57109951D01*
X62804690Y-57144009D01*
X62845791Y-57178924D01*
X62880439Y-57197464D01*
X62910420Y-57203799D01*
X62940380Y-57199352D01*
X62975642Y-57181624D01*
X63018500Y-57145598D01*
X63053402Y-57105754D01*
X63071969Y-57074719D01*
X63079488Y-57043129D01*
X63074353Y-57010576D01*
X63057329Y-56978218D01*
X63022506Y-56937314D01*
X62982888Y-56897696D01*
X62770632Y-57109951D01*
X62591640Y-57109951D01*
X62957534Y-56744057D01*
X63086649Y-56873172D01*
G37*
G36*
X62769458Y-57718566D02*
G01*
X63186784Y-57627516D01*
X63226403Y-57619606D01*
X63294454Y-57601930D01*
X63340423Y-57586343D01*
X63380866Y-57564496D01*
X63423598Y-57528521D01*
X63452068Y-57496109D01*
X63469773Y-57467878D01*
X63479037Y-57442962D01*
X63480615Y-57417700D01*
X63472896Y-57393615D01*
X63454513Y-57369321D01*
X63429306Y-57350067D01*
X63403191Y-57340807D01*
X63374907Y-57340550D01*
X63342823Y-57350202D01*
X63305228Y-57372428D01*
X63260460Y-57411323D01*
X63239079Y-57432704D01*
X63154315Y-57347940D01*
X63176491Y-57325764D01*
X63225088Y-57282638D01*
X63270126Y-57252719D01*
X63312274Y-57233845D01*
X63352305Y-57224421D01*
X63392918Y-57224444D01*
X63433666Y-57235289D01*
X63475771Y-57258204D01*
X63520210Y-57295679D01*
X63554982Y-57336568D01*
X63577387Y-57376016D01*
X63589336Y-57414741D01*
X63591848Y-57453670D01*
X63585595Y-57492368D01*
X63570479Y-57531663D01*
X63545326Y-57572291D01*
X63508328Y-57614839D01*
X63468340Y-57650034D01*
X63429919Y-57675010D01*
X63390449Y-57693888D01*
X63355483Y-57705924D01*
X63252550Y-57729689D01*
X62880335Y-57807268D01*
X63083092Y-58010025D01*
X63011799Y-58081317D01*
X62709253Y-57778772D01*
X62769458Y-57718566D01*
G37*
G36*
X63779966Y-57613288D02*
G01*
X63821848Y-57624079D01*
X63864054Y-57646592D01*
X63907485Y-57682954D01*
X63943445Y-57725957D01*
X63965736Y-57767901D01*
X63976425Y-57809676D01*
X63976395Y-57852448D01*
X63966872Y-57894636D01*
X63948138Y-57937837D01*
X63918918Y-57982727D01*
X63877400Y-58029851D01*
X63601002Y-58306249D01*
X63554367Y-58347269D01*
X63509549Y-58376330D01*
X63466036Y-58395126D01*
X63423184Y-58404830D01*
X63379768Y-58405044D01*
X63337722Y-58394536D01*
X63295875Y-58372537D01*
X63253345Y-58337095D01*
X63217973Y-58294603D01*
X63195972Y-58252634D01*
X63187293Y-58217763D01*
X63295907Y-58217763D01*
X63304622Y-58243165D01*
X63323014Y-58267425D01*
X63346983Y-58285559D01*
X63372151Y-58294116D01*
X63399808Y-58293909D01*
X63431619Y-58283847D01*
X63469345Y-58261112D01*
X63514718Y-58221485D01*
X63792670Y-57943533D01*
X63827020Y-57905200D01*
X63850039Y-57871413D01*
X63863929Y-57841395D01*
X63868545Y-57810880D01*
X63860696Y-57781746D01*
X63838576Y-57751864D01*
X63808706Y-57729734D01*
X63779431Y-57721740D01*
X63748665Y-57726131D01*
X63718416Y-57739841D01*
X63684501Y-57762731D01*
X63646147Y-57797009D01*
X63368194Y-58074962D01*
X63328667Y-58120270D01*
X63306007Y-58158022D01*
X63296018Y-58189935D01*
X63295907Y-58217763D01*
X63187293Y-58217763D01*
X63185438Y-58210311D01*
X63185644Y-58166461D01*
X63195355Y-58123178D01*
X63214072Y-58079516D01*
X63242894Y-58034846D01*
X63283430Y-57988678D01*
X63559829Y-57712280D01*
X63606953Y-57670761D01*
X63651843Y-57641541D01*
X63695044Y-57622808D01*
X63737232Y-57613285D01*
X63779966Y-57613288D01*
G37*
G36*
X59909651Y-53029940D02*
G01*
X59966884Y-53043835D01*
X60010290Y-53064760D01*
X60042715Y-53092000D01*
X60067571Y-53126885D01*
X60086630Y-53171776D01*
X60099173Y-53229012D01*
X60103775Y-53301462D01*
X60103775Y-53635196D01*
X60099251Y-53711866D01*
X60086903Y-53772842D01*
X60068163Y-53820971D01*
X60043838Y-53858629D01*
X60011457Y-53888955D01*
X59969245Y-53911714D01*
X59914828Y-53926555D01*
X59845024Y-53932000D01*
X59637809Y-53932000D01*
X59637809Y-53841288D01*
X59764375Y-53841288D01*
X59836085Y-53841288D01*
X59879542Y-53837843D01*
X59910394Y-53828825D01*
X59931828Y-53815545D01*
X59948876Y-53796678D01*
X59961201Y-53773642D01*
X59968807Y-53745545D01*
X59973941Y-53695595D01*
X59976085Y-53611699D01*
X59976085Y-53317143D01*
X59973316Y-53244369D01*
X59966560Y-53198978D01*
X59957557Y-53173372D01*
X59944330Y-53153560D01*
X59926797Y-53138503D01*
X59905582Y-53128472D01*
X59875184Y-53121530D01*
X59832715Y-53118866D01*
X59764375Y-53118866D01*
X59764375Y-53841288D01*
X59637809Y-53841288D01*
X59637809Y-53024784D01*
X59834962Y-53024784D01*
X59909651Y-53029940D01*
G37*
G36*
X60348897Y-53181588D02*
G01*
X60339912Y-53184951D01*
X60281096Y-53197268D01*
X60190970Y-53214072D01*
X60190970Y-53123360D01*
X60260300Y-53102691D01*
X60312498Y-53078976D01*
X60350844Y-53052922D01*
X60378011Y-53024784D01*
X60468723Y-53024784D01*
X60468723Y-53932000D01*
X60348897Y-53932000D01*
X60348897Y-53181588D01*
G37*
G36*
X60868207Y-53118866D02*
G01*
X60625136Y-53118866D01*
X60625136Y-53024784D01*
X60988032Y-53024784D01*
X60988032Y-53083060D01*
X60820042Y-53932000D01*
X60704662Y-53932000D01*
X60868207Y-53118866D01*
G37*
G36*
X52134454Y-53720975D02*
G01*
X52181189Y-53773794D01*
X52212057Y-53821191D01*
X52230060Y-53864186D01*
X52237387Y-53903905D01*
X52234772Y-53944046D01*
X52221184Y-53985943D01*
X52194796Y-54030830D01*
X52152657Y-54079754D01*
X52106657Y-54120108D01*
X52065092Y-54146314D01*
X52027058Y-54161037D01*
X51991541Y-54166146D01*
X51957463Y-54162571D01*
X51923787Y-54150218D01*
X51693329Y-54562847D01*
X51606976Y-54476494D01*
X51823998Y-54091602D01*
X51754294Y-54021898D01*
X51453337Y-54322855D01*
X51363841Y-54233359D01*
X51639445Y-53957755D01*
X51818437Y-53957755D01*
X51852494Y-53991812D01*
X51893595Y-54026727D01*
X51928244Y-54045268D01*
X51958225Y-54051603D01*
X51988185Y-54047156D01*
X52023447Y-54029427D01*
X52066304Y-53993401D01*
X52101207Y-53953557D01*
X52119774Y-53922523D01*
X52127292Y-53890933D01*
X52122157Y-53858380D01*
X52105134Y-53826022D01*
X52070311Y-53785118D01*
X52030692Y-53745499D01*
X51818437Y-53957755D01*
X51639445Y-53957755D01*
X52005339Y-53591860D01*
X52134454Y-53720975D01*
G37*
G36*
X52390646Y-54198921D02*
G01*
X52381914Y-54194945D01*
X52331615Y-54162066D01*
X52256004Y-54110219D01*
X52320147Y-54046077D01*
X52383786Y-54080485D01*
X52437465Y-54100625D01*
X52483003Y-54109317D01*
X52522109Y-54108631D01*
X52586252Y-54172773D01*
X51944754Y-54814272D01*
X51860024Y-54729542D01*
X52390646Y-54198921D01*
G37*
G36*
X52130620Y-54879727D02*
G01*
X52547946Y-54788677D01*
X52587565Y-54780767D01*
X52655616Y-54763091D01*
X52701585Y-54747504D01*
X52742028Y-54725657D01*
X52784760Y-54689682D01*
X52813230Y-54657270D01*
X52830935Y-54629039D01*
X52840199Y-54604123D01*
X52841777Y-54578861D01*
X52834058Y-54554776D01*
X52815675Y-54530482D01*
X52790468Y-54511228D01*
X52764353Y-54501968D01*
X52736069Y-54501711D01*
X52703985Y-54511363D01*
X52666390Y-54533589D01*
X52621622Y-54572484D01*
X52600241Y-54593865D01*
X52515477Y-54509101D01*
X52537653Y-54486925D01*
X52586250Y-54443799D01*
X52631288Y-54413880D01*
X52673436Y-54395006D01*
X52713467Y-54385582D01*
X52754080Y-54385605D01*
X52794828Y-54396450D01*
X52836933Y-54419365D01*
X52881372Y-54456840D01*
X52916144Y-54497729D01*
X52938549Y-54537177D01*
X52950498Y-54575902D01*
X52953010Y-54614831D01*
X52946757Y-54653529D01*
X52931641Y-54692824D01*
X52906488Y-54733452D01*
X52869490Y-54776000D01*
X52829502Y-54811195D01*
X52791081Y-54836171D01*
X52751611Y-54855049D01*
X52716645Y-54867085D01*
X52613712Y-54890850D01*
X52241497Y-54968429D01*
X52444254Y-55171186D01*
X52372961Y-55242479D01*
X52070415Y-54939933D01*
X52130620Y-54879727D01*
G37*
G36*
X58196176Y-65382698D02*
G01*
X58245343Y-65439157D01*
X58275988Y-65489452D01*
X58291884Y-65534941D01*
X58295550Y-65577130D01*
X58288459Y-65619374D01*
X58270192Y-65664593D01*
X58238590Y-65713935D01*
X58190614Y-65768419D01*
X57954629Y-66004404D01*
X57897216Y-66055419D01*
X57845368Y-66089804D01*
X57798084Y-66110585D01*
X57754256Y-66120013D01*
X57709915Y-66118560D01*
X57663974Y-66104805D01*
X57615001Y-66076821D01*
X57561793Y-66031312D01*
X57440622Y-65910141D01*
X57568908Y-65910141D01*
X57619615Y-65960848D01*
X57652779Y-65989140D01*
X57680971Y-66004580D01*
X57705518Y-66010345D01*
X57730913Y-66009058D01*
X57755918Y-66001485D01*
X57781164Y-65986995D01*
X57820114Y-65955306D01*
X57880953Y-65897499D01*
X58089236Y-65689216D01*
X58138737Y-65635799D01*
X58166056Y-65598925D01*
X58177796Y-65574454D01*
X58182452Y-65551091D01*
X58180701Y-65528047D01*
X58172793Y-65505953D01*
X58156207Y-65479549D01*
X58128060Y-65447635D01*
X58079737Y-65399312D01*
X57568908Y-65910141D01*
X57440622Y-65910141D01*
X57415269Y-65884788D01*
X58056767Y-65243290D01*
X58196176Y-65382698D01*
G37*
G36*
X58722721Y-65909243D02*
G01*
X58328330Y-66303634D01*
X58400383Y-66375687D01*
X58325118Y-66450952D01*
X58253065Y-66378899D01*
X58081223Y-66550741D01*
X58000431Y-66469950D01*
X58172273Y-66298107D01*
X57992486Y-66118321D01*
X58143017Y-66118321D01*
X58247538Y-66222842D01*
X58538962Y-65931419D01*
X58143017Y-66118321D01*
X57992486Y-66118321D01*
X57986165Y-66112000D01*
X58074867Y-66023298D01*
X58622931Y-65809454D01*
X58722721Y-65909243D01*
G37*
G36*
X51555092Y-78077924D02*
G01*
X51620024Y-78096316D01*
X51670917Y-78124731D01*
X51710433Y-78162923D01*
X51740325Y-78209960D01*
X51763085Y-78268405D01*
X51777903Y-78340652D01*
X51783278Y-78429576D01*
X51783278Y-78860786D01*
X51777390Y-78955299D01*
X51761264Y-79030760D01*
X51736658Y-79090619D01*
X51704499Y-79137719D01*
X51664797Y-79174137D01*
X51616644Y-79201017D01*
X51685473Y-79282346D01*
X51728629Y-79320024D01*
X51703472Y-79444588D01*
X51665883Y-79420842D01*
X51620455Y-79380241D01*
X51565441Y-79317438D01*
X51499041Y-79226174D01*
X51472479Y-79227578D01*
X51389263Y-79220669D01*
X51324066Y-79201754D01*
X51273126Y-79172512D01*
X51233732Y-79133117D01*
X51204226Y-79084799D01*
X51181697Y-79024772D01*
X51167010Y-78950598D01*
X51161680Y-78859382D01*
X51161680Y-78429576D01*
X51163616Y-78397397D01*
X51321232Y-78397397D01*
X51321232Y-78894370D01*
X51325380Y-78964318D01*
X51336249Y-79015146D01*
X51352007Y-79051235D01*
X51369657Y-79072632D01*
X51394261Y-79088600D01*
X51427642Y-79099102D01*
X51472479Y-79103014D01*
X51517283Y-79099101D01*
X51550633Y-79088600D01*
X51575207Y-79072633D01*
X51592830Y-79051235D01*
X51608621Y-79015141D01*
X51619510Y-78964313D01*
X51623666Y-78894370D01*
X51623666Y-78397397D01*
X51619485Y-78328395D01*
X51608578Y-78278814D01*
X51592830Y-78244073D01*
X51568045Y-78217996D01*
X51529752Y-78200916D01*
X51472479Y-78194370D01*
X51415163Y-78200916D01*
X51376829Y-78217996D01*
X51352007Y-78244073D01*
X51336291Y-78278809D01*
X51325406Y-78328390D01*
X51321232Y-78397397D01*
X51163616Y-78397397D01*
X51167078Y-78339831D01*
X51181925Y-78267266D01*
X51204670Y-78208885D01*
X51234465Y-78162191D01*
X51273930Y-78124343D01*
X51324806Y-78096149D01*
X51389773Y-78077882D01*
X51472479Y-78071210D01*
X51555092Y-78077924D01*
G37*
G36*
X52091024Y-78276985D02*
G01*
X52079793Y-78281188D01*
X52006272Y-78296585D01*
X51893615Y-78317590D01*
X51893615Y-78204200D01*
X51980278Y-78178364D01*
X52045526Y-78148720D01*
X52093458Y-78116152D01*
X52127417Y-78080980D01*
X52240806Y-78080980D01*
X52240806Y-79215000D01*
X52091024Y-79215000D01*
X52091024Y-78276985D01*
G37*
G36*
X48319019Y-81576500D02*
G01*
X48313642Y-81664494D01*
X48299032Y-81733672D01*
X48276941Y-81787586D01*
X48248311Y-81829169D01*
X48210520Y-81862338D01*
X48161477Y-81887360D01*
X48098479Y-81903711D01*
X48017990Y-81909708D01*
X47941663Y-81904719D01*
X47881761Y-81891142D01*
X47835130Y-81870538D01*
X47799222Y-81843661D01*
X47772261Y-81810380D01*
X47753414Y-81769696D01*
X47185000Y-81930713D01*
X47185000Y-81778062D01*
X47717021Y-81629684D01*
X47717021Y-81566669D01*
X47830411Y-81566669D01*
X47835879Y-81633858D01*
X47850116Y-81680871D01*
X47871017Y-81712971D01*
X47901429Y-81735521D01*
X47948266Y-81751018D01*
X48017990Y-81757057D01*
X48084057Y-81752689D01*
X48127899Y-81741669D01*
X48162466Y-81720393D01*
X48186700Y-81687081D01*
X48200255Y-81643434D01*
X48205629Y-81576500D01*
X48205629Y-81506463D01*
X47830411Y-81506463D01*
X47830411Y-81566669D01*
X47717021Y-81566669D01*
X47717021Y-81506463D01*
X47185000Y-81506463D01*
X47185000Y-81348255D01*
X48319019Y-81348255D01*
X48319019Y-81576500D01*
G37*
G36*
X48123014Y-82225392D02*
G01*
X48118811Y-82214161D01*
X48103414Y-82140640D01*
X48082409Y-82027983D01*
X48195799Y-82027983D01*
X48221635Y-82114646D01*
X48251279Y-82179894D01*
X48283847Y-82227826D01*
X48319019Y-82261784D01*
X48319019Y-82375174D01*
X47185000Y-82375174D01*
X47185000Y-82225392D01*
X48123014Y-82225392D01*
G37*
G36*
X58334586Y-60421108D02*
G01*
X58383753Y-60477567D01*
X58414398Y-60527863D01*
X58430294Y-60573351D01*
X58433960Y-60615540D01*
X58426869Y-60657784D01*
X58408602Y-60703003D01*
X58377000Y-60752345D01*
X58329024Y-60806829D01*
X58093039Y-61042814D01*
X58035626Y-61093829D01*
X57983778Y-61128214D01*
X57936494Y-61148995D01*
X57892666Y-61158423D01*
X57848325Y-61156970D01*
X57802384Y-61143215D01*
X57753411Y-61115231D01*
X57700203Y-61069722D01*
X57579032Y-60948551D01*
X57707318Y-60948551D01*
X57758025Y-60999258D01*
X57791189Y-61027550D01*
X57819381Y-61042990D01*
X57843928Y-61048755D01*
X57869324Y-61047468D01*
X57894328Y-61039895D01*
X57919574Y-61025405D01*
X57958524Y-60993716D01*
X58019363Y-60935909D01*
X58227646Y-60727626D01*
X58277147Y-60674210D01*
X58304466Y-60637335D01*
X58316206Y-60612864D01*
X58320862Y-60589501D01*
X58319111Y-60566457D01*
X58311203Y-60544363D01*
X58294617Y-60517959D01*
X58266470Y-60486045D01*
X58218147Y-60437722D01*
X57707318Y-60948551D01*
X57579032Y-60948551D01*
X57553679Y-60923198D01*
X58195177Y-60281700D01*
X58334586Y-60421108D01*
G37*
G36*
X58685316Y-60904891D02*
G01*
X58513440Y-60733014D01*
X58579966Y-60666488D01*
X58836572Y-60923094D01*
X58795365Y-60964302D01*
X58076287Y-61445806D01*
X57994701Y-61364220D01*
X58685316Y-60904891D01*
G37*
G36*
X55497237Y-48633678D02*
G01*
X55542456Y-48651944D01*
X55591798Y-48683546D01*
X55646282Y-48731522D01*
X55882267Y-48967507D01*
X55933281Y-49024920D01*
X55967667Y-49076768D01*
X55988448Y-49124052D01*
X55997876Y-49167880D01*
X55996423Y-49212221D01*
X55982668Y-49258162D01*
X55954683Y-49307135D01*
X55909174Y-49360343D01*
X55762651Y-49506867D01*
X55121153Y-48865369D01*
X55144123Y-48842399D01*
X55277175Y-48842399D01*
X55788004Y-49353228D01*
X55838710Y-49302522D01*
X55867003Y-49269357D01*
X55882443Y-49241165D01*
X55888208Y-49216618D01*
X55886921Y-49191223D01*
X55879348Y-49166219D01*
X55864858Y-49140973D01*
X55833169Y-49102022D01*
X55775362Y-49041183D01*
X55567079Y-48832900D01*
X55513662Y-48783399D01*
X55476788Y-48756081D01*
X55452317Y-48744340D01*
X55428954Y-48739684D01*
X55405910Y-48741435D01*
X55383816Y-48749343D01*
X55357412Y-48765929D01*
X55325498Y-48794076D01*
X55277175Y-48842399D01*
X55144123Y-48842399D01*
X55260561Y-48725961D01*
X55317020Y-48676794D01*
X55367315Y-48646148D01*
X55412804Y-48630252D01*
X55454993Y-48626586D01*
X55497237Y-48633678D01*
G37*
G36*
X55734845Y-48473430D02*
G01*
X55730869Y-48482162D01*
X55697990Y-48532461D01*
X55646144Y-48608072D01*
X55582001Y-48543929D01*
X55616409Y-48480290D01*
X55636550Y-48426611D01*
X55645241Y-48381073D01*
X55644555Y-48341967D01*
X55708698Y-48277824D01*
X56350196Y-48919322D01*
X56265466Y-49004051D01*
X55734845Y-48473430D01*
G37*
G36*
X56048203Y-48160073D02*
G01*
X56044227Y-48168804D01*
X56011347Y-48219104D01*
X55959501Y-48294714D01*
X55895358Y-48230571D01*
X55929767Y-48166932D01*
X55949907Y-48113253D01*
X55958599Y-48067716D01*
X55957912Y-48028609D01*
X56022055Y-47964466D01*
X56663553Y-48605965D01*
X56578824Y-48690694D01*
X56048203Y-48160073D01*
G37*
G36*
X55198110Y-68384632D02*
G01*
X55247277Y-68441091D01*
X55277922Y-68491387D01*
X55293819Y-68536875D01*
X55297485Y-68579065D01*
X55290393Y-68621309D01*
X55272127Y-68666528D01*
X55240524Y-68715869D01*
X55192549Y-68770353D01*
X54956564Y-69006339D01*
X54899151Y-69057353D01*
X54847303Y-69091739D01*
X54800019Y-69112520D01*
X54756191Y-69121948D01*
X54711850Y-69120494D01*
X54665908Y-69106740D01*
X54616936Y-69078755D01*
X54563727Y-69033246D01*
X54442557Y-68912076D01*
X54570843Y-68912076D01*
X54621549Y-68962782D01*
X54654714Y-68991075D01*
X54682906Y-69006514D01*
X54707453Y-69012280D01*
X54732848Y-69010993D01*
X54757852Y-69003419D01*
X54783098Y-68988930D01*
X54822049Y-68957241D01*
X54882888Y-68899434D01*
X55091171Y-68691151D01*
X55140672Y-68637734D01*
X55167990Y-68600860D01*
X55179730Y-68576388D01*
X55184387Y-68553026D01*
X55182636Y-68529982D01*
X55174728Y-68507888D01*
X55158142Y-68481484D01*
X55129995Y-68449570D01*
X55081672Y-68401247D01*
X54570843Y-68912076D01*
X54442557Y-68912076D01*
X54417204Y-68886723D01*
X55058702Y-68245224D01*
X55198110Y-68384632D01*
G37*
G36*
X54877257Y-69226366D02*
G01*
X55294584Y-69135315D01*
X55334202Y-69127405D01*
X55402254Y-69109730D01*
X55448223Y-69094142D01*
X55488665Y-69072296D01*
X55531398Y-69036320D01*
X55559868Y-69003908D01*
X55577573Y-68975678D01*
X55586836Y-68950762D01*
X55588414Y-68925499D01*
X55580696Y-68901415D01*
X55562312Y-68877120D01*
X55537105Y-68857867D01*
X55510991Y-68848607D01*
X55482706Y-68848349D01*
X55450623Y-68858002D01*
X55413027Y-68880227D01*
X55368260Y-68919122D01*
X55346879Y-68940503D01*
X55262115Y-68855739D01*
X55284290Y-68833564D01*
X55332888Y-68790438D01*
X55377926Y-68760519D01*
X55420073Y-68741645D01*
X55460105Y-68732220D01*
X55500717Y-68732244D01*
X55541465Y-68743089D01*
X55583570Y-68766003D01*
X55628009Y-68803478D01*
X55662781Y-68844367D01*
X55685187Y-68883815D01*
X55697135Y-68922541D01*
X55699648Y-68961470D01*
X55693395Y-69000168D01*
X55678278Y-69039462D01*
X55653125Y-69080090D01*
X55616127Y-69122639D01*
X55576139Y-69157834D01*
X55537719Y-69182809D01*
X55498249Y-69201688D01*
X55463283Y-69213724D01*
X55360350Y-69237488D01*
X54988134Y-69315068D01*
X55190891Y-69517824D01*
X55119598Y-69589117D01*
X54817052Y-69286571D01*
X54877257Y-69226366D01*
G37*
G36*
X43071828Y-85465596D02*
G01*
X43075745Y-85532291D01*
X43085078Y-85571292D01*
X43103890Y-85600091D01*
X43134049Y-85618187D01*
X43174643Y-85627087D01*
X43244019Y-85630827D01*
X44119019Y-85630827D01*
X44119019Y-85787630D01*
X43241210Y-85787630D01*
X43144363Y-85781717D01*
X43078056Y-85766626D01*
X43040526Y-85748686D01*
X43010783Y-85723906D01*
X42987747Y-85691704D01*
X42972461Y-85654540D01*
X42962201Y-85605399D01*
X42958377Y-85541250D01*
X42958377Y-85465596D01*
X43071828Y-85465596D01*
G37*
G36*
X42972421Y-86210109D02*
G01*
X42977811Y-86142506D01*
X42992855Y-86086965D01*
X43016515Y-86041227D01*
X43048686Y-86003602D01*
X43088596Y-85973920D01*
X43136572Y-85951922D01*
X43194229Y-85937906D01*
X43263620Y-85932894D01*
X43301416Y-85932894D01*
X43301416Y-86081271D01*
X43276198Y-86081271D01*
X43218579Y-86086526D01*
X43175218Y-86096969D01*
X43143147Y-86111374D01*
X43118367Y-86133340D01*
X43102779Y-86165057D01*
X43096985Y-86210109D01*
X43103506Y-86257390D01*
X43121115Y-86290401D01*
X43149497Y-86312997D01*
X43185739Y-86326955D01*
X43236419Y-86336610D01*
X43305629Y-86340291D01*
X43368384Y-86335823D01*
X43417112Y-86323707D01*
X43454678Y-86305303D01*
X43484556Y-86278061D01*
X43504453Y-86241224D01*
X43514213Y-86191913D01*
X43515617Y-86170908D01*
X43665399Y-86170908D01*
X43665399Y-86190509D01*
X43672146Y-86242196D01*
X43686565Y-86279240D01*
X43707409Y-86305303D01*
X43735853Y-86323264D01*
X43777672Y-86335558D01*
X43837590Y-86340291D01*
X43893255Y-86336581D01*
X43934398Y-86326757D01*
X43964291Y-86312264D01*
X43986943Y-86290201D01*
X44001498Y-86257898D01*
X44006973Y-86211514D01*
X44001132Y-86165511D01*
X43985490Y-86133388D01*
X43960750Y-86111374D01*
X43928685Y-86097047D01*
X43884544Y-86086572D01*
X43825012Y-86081271D01*
X43801198Y-86081271D01*
X43801198Y-85932894D01*
X43838995Y-85932894D01*
X43908407Y-85937917D01*
X43965922Y-85951949D01*
X44013636Y-85973946D01*
X44053196Y-86003602D01*
X44084995Y-86041174D01*
X44108456Y-86087085D01*
X44123417Y-86143089D01*
X44128789Y-86211514D01*
X44123373Y-86279887D01*
X44108284Y-86335863D01*
X44084601Y-86381773D01*
X44052463Y-86419365D01*
X44012582Y-86449044D01*
X43964628Y-86471042D01*
X43906983Y-86485060D01*
X43837590Y-86490073D01*
X43772568Y-86484773D01*
X43719164Y-86469974D01*
X43675169Y-86446659D01*
X43637737Y-86414209D01*
X43609477Y-86374934D01*
X43589806Y-86327712D01*
X43568562Y-86375112D01*
X43536773Y-86414659D01*
X43493208Y-86447391D01*
X43442910Y-86470139D01*
X43381220Y-86484787D01*
X43305629Y-86490073D01*
X43225572Y-86485152D01*
X43159401Y-86471476D01*
X43104822Y-86450272D01*
X43059921Y-86422173D01*
X43022931Y-86385149D01*
X42995872Y-86338937D01*
X42978636Y-86281538D01*
X42972421Y-86210109D01*
G37*
G36*
X50507830Y-74686357D02*
G01*
X50577008Y-74700967D01*
X50630922Y-74723058D01*
X50672505Y-74751688D01*
X50705674Y-74789479D01*
X50730696Y-74838522D01*
X50747047Y-74901520D01*
X50753044Y-74982009D01*
X50748055Y-75058336D01*
X50734478Y-75118238D01*
X50713874Y-75164869D01*
X50686997Y-75200777D01*
X50653716Y-75227738D01*
X50613032Y-75246585D01*
X50774049Y-75815000D01*
X50621398Y-75815000D01*
X50473020Y-75282978D01*
X50349799Y-75282978D01*
X50349799Y-75815000D01*
X50191591Y-75815000D01*
X50191591Y-75169588D01*
X50349799Y-75169588D01*
X50410005Y-75169588D01*
X50477194Y-75164120D01*
X50524207Y-75149883D01*
X50556307Y-75128982D01*
X50578857Y-75098570D01*
X50594354Y-75051733D01*
X50600393Y-74982009D01*
X50596025Y-74915942D01*
X50585005Y-74872100D01*
X50563729Y-74837533D01*
X50530417Y-74813299D01*
X50486770Y-74799744D01*
X50419836Y-74794370D01*
X50349799Y-74794370D01*
X50349799Y-75169588D01*
X50191591Y-75169588D01*
X50191591Y-74680980D01*
X50419836Y-74680980D01*
X50507830Y-74686357D01*
G37*
G36*
X51162518Y-75827578D02*
G01*
X51094914Y-75822188D01*
X51039373Y-75807144D01*
X50993635Y-75783484D01*
X50956010Y-75751313D01*
X50926328Y-75711403D01*
X50904330Y-75663427D01*
X50890314Y-75605770D01*
X50885302Y-75536379D01*
X50885302Y-75498583D01*
X51033679Y-75498583D01*
X51033679Y-75523801D01*
X51038934Y-75581420D01*
X51049378Y-75624781D01*
X51063782Y-75656852D01*
X51085749Y-75681632D01*
X51117465Y-75697220D01*
X51162518Y-75703014D01*
X51209798Y-75696493D01*
X51242809Y-75678884D01*
X51265405Y-75650502D01*
X51279363Y-75614260D01*
X51289018Y-75563580D01*
X51292699Y-75494370D01*
X51288231Y-75431615D01*
X51276115Y-75382887D01*
X51257711Y-75345321D01*
X51230469Y-75315443D01*
X51193633Y-75295546D01*
X51144321Y-75285786D01*
X51123317Y-75284382D01*
X51123317Y-75134600D01*
X51142917Y-75134600D01*
X51194604Y-75127853D01*
X51231648Y-75113434D01*
X51257711Y-75092590D01*
X51275672Y-75064146D01*
X51287966Y-75022327D01*
X51292699Y-74962409D01*
X51288989Y-74906744D01*
X51279165Y-74865601D01*
X51264672Y-74835708D01*
X51242610Y-74813056D01*
X51210306Y-74798501D01*
X51163922Y-74793026D01*
X51117919Y-74798867D01*
X51085796Y-74814509D01*
X51063782Y-74839249D01*
X51049455Y-74871314D01*
X51038980Y-74915455D01*
X51033679Y-74974987D01*
X51033679Y-74998801D01*
X50885302Y-74998801D01*
X50885302Y-74961004D01*
X50890325Y-74891592D01*
X50904357Y-74834077D01*
X50926354Y-74786363D01*
X50956010Y-74746803D01*
X50993582Y-74715004D01*
X51039493Y-74691543D01*
X51095497Y-74676582D01*
X51163922Y-74671210D01*
X51232295Y-74676626D01*
X51288271Y-74691715D01*
X51334181Y-74715398D01*
X51371773Y-74747536D01*
X51401453Y-74787417D01*
X51423450Y-74835371D01*
X51437468Y-74893016D01*
X51442481Y-74962409D01*
X51437181Y-75027431D01*
X51422382Y-75080835D01*
X51399067Y-75124830D01*
X51366618Y-75162262D01*
X51327342Y-75190522D01*
X51280120Y-75210193D01*
X51327521Y-75231437D01*
X51367067Y-75263226D01*
X51399799Y-75306791D01*
X51422547Y-75357089D01*
X51437195Y-75418779D01*
X51442481Y-75494370D01*
X51437560Y-75574427D01*
X51423884Y-75640598D01*
X51402680Y-75695177D01*
X51374581Y-75740078D01*
X51337558Y-75777068D01*
X51291345Y-75804127D01*
X51233946Y-75821363D01*
X51162518Y-75827578D01*
G37*
G36*
X54449432Y-52481483D02*
G01*
X54494651Y-52499749D01*
X54543992Y-52531352D01*
X54598476Y-52579327D01*
X54834462Y-52815312D01*
X54885476Y-52872725D01*
X54919862Y-52924573D01*
X54940643Y-52971857D01*
X54950071Y-53015686D01*
X54948617Y-53060026D01*
X54934862Y-53105968D01*
X54906878Y-53154940D01*
X54861369Y-53208149D01*
X54714845Y-53354672D01*
X54073347Y-52713174D01*
X54096317Y-52690204D01*
X54229370Y-52690204D01*
X54740199Y-53201033D01*
X54790905Y-53150327D01*
X54819198Y-53117162D01*
X54834637Y-53088970D01*
X54840403Y-53064423D01*
X54839116Y-53039028D01*
X54831542Y-53014024D01*
X54817053Y-52988778D01*
X54785363Y-52949828D01*
X54727557Y-52888989D01*
X54519273Y-52680705D01*
X54465857Y-52631205D01*
X54428983Y-52603886D01*
X54404511Y-52592146D01*
X54381149Y-52587490D01*
X54358104Y-52589240D01*
X54336010Y-52597148D01*
X54309607Y-52613734D01*
X54277693Y-52641881D01*
X54229370Y-52690204D01*
X54096317Y-52690204D01*
X54212755Y-52573766D01*
X54269214Y-52524599D01*
X54319510Y-52493954D01*
X54364998Y-52478058D01*
X54407187Y-52474391D01*
X54449432Y-52481483D01*
G37*
G36*
X54687040Y-52321236D02*
G01*
X54683064Y-52329967D01*
X54650184Y-52380266D01*
X54598338Y-52455877D01*
X54534195Y-52391734D01*
X54568604Y-52328095D01*
X54588744Y-52274416D01*
X54597436Y-52228878D01*
X54596749Y-52189772D01*
X54660892Y-52125629D01*
X55302391Y-52767127D01*
X55217661Y-52851857D01*
X54687040Y-52321236D01*
G37*
G36*
X55123156Y-51752895D02*
G01*
X55165345Y-51762419D01*
X55208546Y-51781152D01*
X55253435Y-51810372D01*
X55300560Y-51851890D01*
X55576958Y-52128289D01*
X55617977Y-52174923D01*
X55647039Y-52219741D01*
X55665834Y-52263254D01*
X55675539Y-52306107D01*
X55675753Y-52349522D01*
X55665245Y-52391568D01*
X55643245Y-52433415D01*
X55607803Y-52475945D01*
X55565312Y-52511318D01*
X55523343Y-52533319D01*
X55481019Y-52543853D01*
X55437170Y-52543646D01*
X55393887Y-52533936D01*
X55350224Y-52515218D01*
X55305554Y-52486396D01*
X55259387Y-52445860D01*
X54982988Y-52169462D01*
X54941470Y-52122337D01*
X54912250Y-52077448D01*
X54893517Y-52034247D01*
X54883994Y-51992058D01*
X54883997Y-51949859D01*
X54992449Y-51949859D01*
X54996839Y-51980625D01*
X55010549Y-52010875D01*
X55033440Y-52044789D01*
X55067718Y-52083143D01*
X55345671Y-52361096D01*
X55390979Y-52400623D01*
X55428731Y-52423283D01*
X55460644Y-52433273D01*
X55488472Y-52433384D01*
X55513873Y-52424668D01*
X55538134Y-52406276D01*
X55556268Y-52382307D01*
X55564825Y-52357139D01*
X55564617Y-52329482D01*
X55554556Y-52297671D01*
X55531821Y-52259945D01*
X55492194Y-52214573D01*
X55214242Y-51936620D01*
X55175908Y-51902271D01*
X55142122Y-51879251D01*
X55112103Y-51865361D01*
X55081589Y-51860746D01*
X55052455Y-51868594D01*
X55022573Y-51890715D01*
X55000443Y-51920585D01*
X54992449Y-51949859D01*
X54883997Y-51949859D01*
X54883997Y-51949325D01*
X54894788Y-51907442D01*
X54917300Y-51865236D01*
X54953663Y-51821805D01*
X54996665Y-51785846D01*
X55038609Y-51763554D01*
X55080384Y-51752865D01*
X55123156Y-51752895D01*
G37*
G36*
X56058067Y-44929940D02*
G01*
X56115300Y-44943835D01*
X56158706Y-44964760D01*
X56191131Y-44992000D01*
X56215987Y-45026885D01*
X56235046Y-45071776D01*
X56247589Y-45129012D01*
X56252191Y-45201462D01*
X56252191Y-45535196D01*
X56247667Y-45611866D01*
X56235319Y-45672842D01*
X56216579Y-45720971D01*
X56192254Y-45758629D01*
X56159873Y-45788955D01*
X56117661Y-45811714D01*
X56063244Y-45826555D01*
X55993440Y-45832000D01*
X55786225Y-45832000D01*
X55786225Y-45741288D01*
X55912791Y-45741288D01*
X55984501Y-45741288D01*
X56027958Y-45737843D01*
X56058810Y-45728825D01*
X56080244Y-45715545D01*
X56097292Y-45696678D01*
X56109617Y-45673642D01*
X56117223Y-45645545D01*
X56122357Y-45595595D01*
X56124501Y-45511699D01*
X56124501Y-45217143D01*
X56121732Y-45144369D01*
X56114976Y-45098978D01*
X56105973Y-45073372D01*
X56092746Y-45053560D01*
X56075213Y-45038503D01*
X56053998Y-45028472D01*
X56023600Y-45021530D01*
X55981131Y-45018866D01*
X55912791Y-45018866D01*
X55912791Y-45741288D01*
X55786225Y-45741288D01*
X55786225Y-44924784D01*
X55983378Y-44924784D01*
X56058067Y-44929940D01*
G37*
G36*
X56497313Y-45081588D02*
G01*
X56488328Y-45084951D01*
X56429512Y-45097268D01*
X56339386Y-45114072D01*
X56339386Y-45023360D01*
X56408716Y-45002691D01*
X56460914Y-44978976D01*
X56499260Y-44952922D01*
X56526427Y-44924784D01*
X56617139Y-44924784D01*
X56617139Y-45832000D01*
X56497313Y-45832000D01*
X56497313Y-45081588D01*
G37*
G36*
X56794850Y-45746856D02*
G01*
X57025562Y-45387380D01*
X57047983Y-45353772D01*
X57083605Y-45293154D01*
X57105087Y-45249627D01*
X57118237Y-45205582D01*
X57123015Y-45149927D01*
X57120227Y-45106877D01*
X57112784Y-45074396D01*
X57101717Y-45050227D01*
X57084969Y-45031248D01*
X57062481Y-45019675D01*
X57032303Y-45015496D01*
X57000865Y-45019706D01*
X56975851Y-45031623D01*
X56955669Y-45051442D01*
X56939808Y-45080953D01*
X56928940Y-45123253D01*
X56924787Y-45182411D01*
X56924787Y-45212648D01*
X56804913Y-45212648D01*
X56804913Y-45181288D01*
X56808782Y-45116430D01*
X56819472Y-45063427D01*
X56835930Y-45020278D01*
X56857572Y-44985307D01*
X56886306Y-44956607D01*
X56922787Y-44935462D01*
X56968763Y-44921892D01*
X57026685Y-44916968D01*
X57080185Y-44921293D01*
X57123923Y-44933345D01*
X57159755Y-44952279D01*
X57189058Y-44978029D01*
X57212000Y-45009814D01*
X57229097Y-45048288D01*
X57240039Y-45094803D01*
X57243964Y-45151050D01*
X57240575Y-45204213D01*
X57231068Y-45249041D01*
X57216507Y-45290299D01*
X57200293Y-45323535D01*
X57144313Y-45413123D01*
X56935974Y-45731176D01*
X57222715Y-45731176D01*
X57222715Y-45832000D01*
X56794850Y-45832000D01*
X56794850Y-45746856D01*
G37*
G36*
X53632520Y-47619042D02*
G01*
X53679255Y-47671861D01*
X53710123Y-47719258D01*
X53728126Y-47762254D01*
X53735453Y-47801972D01*
X53732838Y-47842113D01*
X53719250Y-47884010D01*
X53692863Y-47928897D01*
X53650723Y-47977821D01*
X53604723Y-48018176D01*
X53563158Y-48044381D01*
X53525124Y-48059104D01*
X53489607Y-48064213D01*
X53455529Y-48060638D01*
X53421853Y-48048285D01*
X53191395Y-48460914D01*
X53105042Y-48374561D01*
X53322064Y-47989669D01*
X53252360Y-47919965D01*
X52951403Y-48220922D01*
X52861907Y-48131426D01*
X53137511Y-47855822D01*
X53316503Y-47855822D01*
X53350561Y-47889879D01*
X53391661Y-47924794D01*
X53426310Y-47943335D01*
X53456291Y-47949670D01*
X53486251Y-47945223D01*
X53521513Y-47927494D01*
X53564370Y-47891468D01*
X53599273Y-47851624D01*
X53617840Y-47820590D01*
X53625358Y-47789000D01*
X53620223Y-47756447D01*
X53603200Y-47724089D01*
X53568377Y-47683185D01*
X53528758Y-47643566D01*
X53316503Y-47855822D01*
X53137511Y-47855822D01*
X53503405Y-47489927D01*
X53632520Y-47619042D01*
G37*
G36*
X53888712Y-48096988D02*
G01*
X53879980Y-48093012D01*
X53829681Y-48060133D01*
X53754070Y-48008287D01*
X53818213Y-47944144D01*
X53881852Y-47978552D01*
X53935531Y-47998692D01*
X53981069Y-48007384D01*
X54020175Y-48006698D01*
X54084318Y-48070841D01*
X53442820Y-48712339D01*
X53358091Y-48627609D01*
X53888712Y-48096988D01*
G37*
G36*
X54476084Y-48462606D02*
G01*
X54081693Y-48856997D01*
X54153746Y-48929050D01*
X54078481Y-49004315D01*
X54006428Y-48932262D01*
X53834586Y-49104105D01*
X53753794Y-49023313D01*
X53925636Y-48851471D01*
X53745849Y-48671684D01*
X53896380Y-48671684D01*
X54000901Y-48776205D01*
X54292325Y-48484782D01*
X53896380Y-48671684D01*
X53745849Y-48671684D01*
X53739528Y-48665363D01*
X53828230Y-48576661D01*
X54376295Y-48362817D01*
X54476084Y-48462606D01*
G37*
G36*
X56788438Y-61874961D02*
G01*
X56837605Y-61931420D01*
X56868251Y-61981715D01*
X56884147Y-62027204D01*
X56887813Y-62069393D01*
X56880721Y-62111637D01*
X56862455Y-62156856D01*
X56830853Y-62206198D01*
X56782877Y-62260682D01*
X56546892Y-62496667D01*
X56489479Y-62547681D01*
X56437631Y-62582067D01*
X56390347Y-62602848D01*
X56346519Y-62612276D01*
X56302178Y-62610823D01*
X56256237Y-62597068D01*
X56207264Y-62569083D01*
X56154056Y-62523574D01*
X56032885Y-62402404D01*
X56161171Y-62402404D01*
X56211877Y-62453110D01*
X56245042Y-62481403D01*
X56273234Y-62496842D01*
X56297781Y-62502608D01*
X56323176Y-62501321D01*
X56348180Y-62493748D01*
X56373426Y-62479258D01*
X56412377Y-62447569D01*
X56473216Y-62389762D01*
X56681499Y-62181479D01*
X56731000Y-62128062D01*
X56758318Y-62091188D01*
X56770059Y-62066717D01*
X56774715Y-62043354D01*
X56772964Y-62020310D01*
X56765056Y-61998216D01*
X56748470Y-61971812D01*
X56720323Y-61939898D01*
X56672000Y-61891575D01*
X56161171Y-62402404D01*
X56032885Y-62402404D01*
X56007532Y-62377051D01*
X56649030Y-61735553D01*
X56788438Y-61874961D01*
G37*
G36*
X57117300Y-62238560D02*
G01*
X57153117Y-62249693D01*
X57188971Y-62269979D01*
X57225453Y-62300922D01*
X57259743Y-62340903D01*
X57282581Y-62379671D01*
X57295652Y-62417826D01*
X57299924Y-62456150D01*
X57295720Y-62494510D01*
X57282814Y-62533078D01*
X57260213Y-62572624D01*
X57226247Y-62613761D01*
X57217543Y-62624055D01*
X57132019Y-62538531D01*
X57162488Y-62503783D01*
X57180320Y-62474768D01*
X57188632Y-62450209D01*
X57188642Y-62425413D01*
X57178579Y-62399387D01*
X57155784Y-62370592D01*
X57132397Y-62353415D01*
X57106825Y-62345830D01*
X57077489Y-62347472D01*
X57042356Y-62360145D01*
X56999241Y-62387525D01*
X56945911Y-62434769D01*
X56848505Y-62532175D01*
X56881997Y-62529280D01*
X56917795Y-62536527D01*
X56952154Y-62553345D01*
X56986325Y-62581293D01*
X57020045Y-62621878D01*
X57039746Y-62660467D01*
X57047841Y-62698106D01*
X57045321Y-62736106D01*
X57034007Y-62773167D01*
X57013807Y-62813221D01*
X56983041Y-62857002D01*
X56939590Y-62905185D01*
X56889244Y-62950024D01*
X56841044Y-62982744D01*
X56794520Y-63005002D01*
X56749096Y-63018031D01*
X56702713Y-63021131D01*
X56658522Y-63012283D01*
X56615082Y-62990945D01*
X56571313Y-62955063D01*
X56536789Y-62912674D01*
X56516201Y-62869893D01*
X56508212Y-62828044D01*
X56614333Y-62828044D01*
X56621706Y-62856927D01*
X56641777Y-62884599D01*
X56670030Y-62905257D01*
X56699074Y-62912958D01*
X56730893Y-62908777D01*
X56762191Y-62895445D01*
X56796174Y-62873246D01*
X56833480Y-62840248D01*
X56878158Y-62793318D01*
X56906293Y-62759491D01*
X56925622Y-62725883D01*
X56933235Y-62692964D01*
X56931114Y-62671464D01*
X56921192Y-62649070D01*
X56901561Y-62624815D01*
X56875047Y-62604775D01*
X56845742Y-62594349D01*
X56814745Y-62591676D01*
X56785157Y-62595524D01*
X56689305Y-62691375D01*
X56655251Y-62729765D01*
X56632444Y-62764385D01*
X56618807Y-62795931D01*
X56614333Y-62828044D01*
X56508212Y-62828044D01*
X56507755Y-62825648D01*
X56511142Y-62778488D01*
X56524389Y-62732452D01*
X56546821Y-62685523D01*
X56579614Y-62637140D01*
X56624368Y-62586854D01*
X56840596Y-62370626D01*
X56896046Y-62320454D01*
X56947803Y-62283422D01*
X56996411Y-62257629D01*
X57042489Y-62241546D01*
X57080730Y-62235827D01*
X57117300Y-62238560D01*
G37*
G36*
X52241797Y-68407719D02*
G01*
X52283694Y-68421307D01*
X52328581Y-68447694D01*
X52377505Y-68489834D01*
X52417859Y-68535834D01*
X52444065Y-68577399D01*
X52458788Y-68615433D01*
X52463897Y-68650950D01*
X52460322Y-68685028D01*
X52447969Y-68718704D01*
X52860598Y-68949162D01*
X52774245Y-69035515D01*
X52389353Y-68818493D01*
X52319649Y-68888197D01*
X52620606Y-69189154D01*
X52531110Y-69278650D01*
X51889611Y-68637152D01*
X51914964Y-68611799D01*
X52043250Y-68611799D01*
X52255506Y-68824054D01*
X52289563Y-68789996D01*
X52324478Y-68748896D01*
X52343019Y-68714247D01*
X52349354Y-68684266D01*
X52344907Y-68654306D01*
X52327178Y-68619044D01*
X52291152Y-68576187D01*
X52251308Y-68541284D01*
X52220274Y-68522717D01*
X52188684Y-68515199D01*
X52156131Y-68520334D01*
X52123773Y-68537357D01*
X52082869Y-68572180D01*
X52043250Y-68611799D01*
X51914964Y-68611799D01*
X52018726Y-68508037D01*
X52071545Y-68461302D01*
X52118942Y-68430434D01*
X52161937Y-68412431D01*
X52201656Y-68405104D01*
X52241797Y-68407719D01*
G37*
G36*
X53090642Y-68731760D02*
G01*
X53045657Y-68769854D01*
X53003671Y-68792969D01*
X52963650Y-68803820D01*
X52924326Y-68803847D01*
X52885588Y-68794462D01*
X52844062Y-68775476D01*
X52798890Y-68745079D01*
X52749306Y-68700880D01*
X52834036Y-68616151D01*
X52871747Y-68650105D01*
X52905181Y-68673342D01*
X52935034Y-68687858D01*
X52957945Y-68692961D01*
X52979893Y-68690849D01*
X53001933Y-68681334D01*
X53024910Y-68662920D01*
X53043349Y-68639777D01*
X53052605Y-68617643D01*
X53054235Y-68595599D01*
X53045585Y-68561620D01*
X53024150Y-68525100D01*
X52993344Y-68488049D01*
X52944913Y-68437159D01*
X52897584Y-68392740D01*
X52862567Y-68365106D01*
X52828057Y-68346847D01*
X52797595Y-68341376D01*
X52778141Y-68344440D01*
X52757801Y-68354196D01*
X52735835Y-68372256D01*
X52716510Y-68399156D01*
X52707753Y-68430458D01*
X52708404Y-68463652D01*
X52717632Y-68496569D01*
X52645545Y-68568657D01*
X52301826Y-68224938D01*
X52578224Y-67948539D01*
X52662988Y-68033303D01*
X52463409Y-68232882D01*
X52635251Y-68415778D01*
X52638078Y-68382414D01*
X52648095Y-68350330D01*
X52665795Y-68318862D01*
X52692279Y-68287526D01*
X52731930Y-68254956D01*
X52770251Y-68236229D01*
X52808318Y-68229108D01*
X52847507Y-68232882D01*
X52885628Y-68245423D01*
X52926428Y-68266606D01*
X52970545Y-68297948D01*
X53018554Y-68341341D01*
X53071940Y-68400031D01*
X53110690Y-68453416D01*
X53137138Y-68502234D01*
X53153196Y-68547276D01*
X53158777Y-68584622D01*
X53155827Y-68620878D01*
X53144246Y-68656974D01*
X53123089Y-68693725D01*
X53090642Y-68731760D01*
G37*
G36*
X55911914Y-54019001D02*
G01*
X55957132Y-54037267D01*
X56006474Y-54068870D01*
X56060958Y-54116845D01*
X56296943Y-54352830D01*
X56347958Y-54410244D01*
X56382344Y-54462091D01*
X56403124Y-54509375D01*
X56412553Y-54553204D01*
X56411099Y-54597545D01*
X56397344Y-54643486D01*
X56369360Y-54692458D01*
X56323851Y-54745667D01*
X56177327Y-54892191D01*
X55535829Y-54250692D01*
X55558799Y-54227722D01*
X55691851Y-54227722D01*
X56202681Y-54738552D01*
X56253387Y-54687845D01*
X56281679Y-54654680D01*
X56297119Y-54626488D01*
X56302884Y-54601941D01*
X56301598Y-54576546D01*
X56294024Y-54551542D01*
X56279535Y-54526296D01*
X56247845Y-54487346D01*
X56190038Y-54426507D01*
X55981755Y-54218224D01*
X55928339Y-54168723D01*
X55891465Y-54141404D01*
X55866993Y-54129664D01*
X55843631Y-54125008D01*
X55820586Y-54126759D01*
X55798492Y-54134666D01*
X55772089Y-54151252D01*
X55740174Y-54179399D01*
X55691851Y-54227722D01*
X55558799Y-54227722D01*
X55675237Y-54111284D01*
X55731696Y-54062117D01*
X55781992Y-54031472D01*
X55827480Y-54015576D01*
X55869669Y-54011909D01*
X55911914Y-54019001D01*
G37*
G36*
X56268309Y-53623563D02*
G01*
X56314380Y-53636797D01*
X56361203Y-53659126D01*
X56409325Y-53691687D01*
X56459183Y-53736029D01*
X56674582Y-53951428D01*
X56724741Y-54006850D01*
X56761939Y-54058757D01*
X56788018Y-54107670D01*
X56804457Y-54154184D01*
X56810461Y-54192764D01*
X56807917Y-54229565D01*
X56796916Y-54265520D01*
X56776723Y-54301434D01*
X56745840Y-54337909D01*
X56705438Y-54372504D01*
X56666288Y-54395410D01*
X56627765Y-54408363D01*
X56589058Y-54412345D01*
X56550368Y-54407739D01*
X56511299Y-54394344D01*
X56471082Y-54371110D01*
X56429098Y-54336320D01*
X56421948Y-54329170D01*
X56506677Y-54244440D01*
X56541437Y-54274830D01*
X56570594Y-54292551D01*
X56595413Y-54300708D01*
X56620427Y-54300416D01*
X56646833Y-54289977D01*
X56676171Y-54266650D01*
X56692840Y-54243846D01*
X56700117Y-54218755D01*
X56698283Y-54189781D01*
X56685460Y-54154870D01*
X56657911Y-54111811D01*
X56610439Y-54058333D01*
X56513033Y-53960927D01*
X56516107Y-53994344D01*
X56509441Y-54029456D01*
X56493083Y-54063231D01*
X56463915Y-54098746D01*
X56423319Y-54132464D01*
X56384800Y-54152080D01*
X56347297Y-54160045D01*
X56309482Y-54157362D01*
X56272628Y-54145895D01*
X56232712Y-54125577D01*
X56189000Y-54094723D01*
X56140817Y-54051217D01*
X56095963Y-54000849D01*
X56063322Y-53952723D01*
X56041204Y-53906360D01*
X56028351Y-53861172D01*
X56025425Y-53814980D01*
X56026270Y-53810824D01*
X56133229Y-53810824D01*
X56137640Y-53842934D01*
X56151195Y-53874528D01*
X56173315Y-53908398D01*
X56205755Y-53945107D01*
X56252678Y-53989798D01*
X56286512Y-54017989D01*
X56320114Y-54037282D01*
X56353038Y-54044931D01*
X56374515Y-54042792D01*
X56396898Y-54032860D01*
X56421153Y-54013222D01*
X56440412Y-53988420D01*
X56451282Y-53961459D01*
X56454322Y-53931360D01*
X56448890Y-53896784D01*
X56353867Y-53801761D01*
X56307736Y-53761371D01*
X56269566Y-53738154D01*
X56237569Y-53727790D01*
X56209941Y-53727356D01*
X56184981Y-53735661D01*
X56161369Y-53753438D01*
X56140805Y-53781666D01*
X56133229Y-53810824D01*
X56026270Y-53810824D01*
X56034382Y-53770906D01*
X56055787Y-53727525D01*
X56091700Y-53683768D01*
X56134108Y-53649226D01*
X56176901Y-53628629D01*
X56221151Y-53620178D01*
X56268309Y-53623563D01*
G37*
G36*
X55411866Y-57942479D02*
G01*
X55472842Y-57954827D01*
X55520971Y-57973567D01*
X55558629Y-57997892D01*
X55588955Y-58030273D01*
X55611714Y-58072485D01*
X55626555Y-58126902D01*
X55632000Y-58196706D01*
X55632000Y-58403921D01*
X54724784Y-58403921D01*
X54724784Y-58209015D01*
X54818866Y-58209015D01*
X54818866Y-58277355D01*
X55541288Y-58277355D01*
X55541288Y-58205645D01*
X55537843Y-58162188D01*
X55528825Y-58131336D01*
X55515545Y-58109902D01*
X55496678Y-58092854D01*
X55473642Y-58080529D01*
X55445545Y-58072923D01*
X55395595Y-58067789D01*
X55311699Y-58065645D01*
X55017143Y-58065645D01*
X54944369Y-58068414D01*
X54898978Y-58075170D01*
X54873372Y-58084173D01*
X54853560Y-58097400D01*
X54838503Y-58114933D01*
X54828472Y-58136148D01*
X54821530Y-58166546D01*
X54818866Y-58209015D01*
X54724784Y-58209015D01*
X54724784Y-58206768D01*
X54729940Y-58132079D01*
X54743835Y-58074846D01*
X54764760Y-58031440D01*
X54792000Y-57999015D01*
X54826885Y-57974159D01*
X54871776Y-57955100D01*
X54929012Y-57942557D01*
X55001462Y-57937955D01*
X55335196Y-57937955D01*
X55411866Y-57942479D01*
G37*
G36*
X55441452Y-57385332D02*
G01*
X55494569Y-57396010D01*
X55537932Y-57412468D01*
X55573186Y-57434131D01*
X55602089Y-57462899D01*
X55623399Y-57499548D01*
X55637089Y-57545867D01*
X55642062Y-57604368D01*
X55637105Y-57663538D01*
X55623486Y-57710223D01*
X55602348Y-57747003D01*
X55573772Y-57775729D01*
X55538791Y-57797336D01*
X55495477Y-57813796D01*
X55442104Y-57824506D01*
X55376619Y-57828387D01*
X55319580Y-57824758D01*
X55274426Y-57814862D01*
X55238915Y-57799811D01*
X55206916Y-57778139D01*
X55178615Y-57750546D01*
X55153772Y-57716378D01*
X55124281Y-57752530D01*
X55090065Y-57780235D01*
X55050533Y-57800271D01*
X55004656Y-57812759D01*
X54951050Y-57817152D01*
X54895287Y-57813392D01*
X54848969Y-57802899D01*
X54810494Y-57786504D01*
X54778566Y-57764542D01*
X54752638Y-57736235D01*
X54733550Y-57701167D01*
X54721360Y-57657876D01*
X54716968Y-57604368D01*
X54809927Y-57604368D01*
X54814307Y-57635177D01*
X54826568Y-57658648D01*
X54846905Y-57676615D01*
X54872539Y-57688812D01*
X54904513Y-57696707D01*
X54944309Y-57699574D01*
X54988809Y-57696920D01*
X55025128Y-57689594D01*
X55054658Y-57678325D01*
X55078618Y-57660751D01*
X55093163Y-57636791D01*
X55098866Y-57604368D01*
X55213123Y-57604368D01*
X55219162Y-57640492D01*
X55234691Y-57667779D01*
X55260164Y-57688387D01*
X55291818Y-57702071D01*
X55330849Y-57710926D01*
X55378866Y-57714131D01*
X55431685Y-57710992D01*
X55472111Y-57702577D01*
X55502648Y-57690048D01*
X55526697Y-57670453D01*
X55541456Y-57642843D01*
X55546856Y-57604368D01*
X55541478Y-57566678D01*
X55526747Y-57539615D01*
X55502648Y-57520397D01*
X55472149Y-57508159D01*
X55431724Y-57499925D01*
X55378866Y-57496852D01*
X55330813Y-57499995D01*
X55291782Y-57508672D01*
X55260164Y-57522058D01*
X55234634Y-57542285D01*
X55219137Y-57569023D01*
X55213123Y-57604368D01*
X55098866Y-57604368D01*
X55093160Y-57572955D01*
X55077547Y-57548677D01*
X55050626Y-57529780D01*
X55008262Y-57516589D01*
X54944309Y-57511409D01*
X54904434Y-57514147D01*
X54872459Y-57521671D01*
X54846905Y-57533244D01*
X54826603Y-57550550D01*
X54814334Y-57573610D01*
X54809927Y-57604368D01*
X54716968Y-57604368D01*
X54721352Y-57551466D01*
X54733526Y-57508649D01*
X54752609Y-57473941D01*
X54778566Y-57445903D01*
X54810459Y-57424185D01*
X54848921Y-57407954D01*
X54895251Y-57397557D01*
X54951050Y-57393830D01*
X54999048Y-57396983D01*
X55039120Y-57405795D01*
X55072586Y-57419574D01*
X55102990Y-57439149D01*
X55129969Y-57463986D01*
X55153772Y-57494605D01*
X55179262Y-57460358D01*
X55207947Y-57432578D01*
X55240039Y-57410634D01*
X55275582Y-57395229D01*
X55320398Y-57385153D01*
X55376619Y-57381472D01*
X55441452Y-57385332D01*
G37*
G36*
X56698663Y-66885185D02*
G01*
X56747830Y-66941644D01*
X56778475Y-66991940D01*
X56794372Y-67037428D01*
X56798038Y-67079618D01*
X56790946Y-67121862D01*
X56772680Y-67167081D01*
X56741077Y-67216422D01*
X56693102Y-67270906D01*
X56457117Y-67506892D01*
X56399704Y-67557906D01*
X56347856Y-67592292D01*
X56300572Y-67613073D01*
X56256744Y-67622501D01*
X56212403Y-67621047D01*
X56166461Y-67607293D01*
X56117489Y-67579308D01*
X56064280Y-67533799D01*
X55943110Y-67412629D01*
X56071396Y-67412629D01*
X56122102Y-67463335D01*
X56155267Y-67491628D01*
X56183459Y-67507067D01*
X56208006Y-67512833D01*
X56233401Y-67511546D01*
X56258405Y-67503972D01*
X56283651Y-67489483D01*
X56322601Y-67457794D01*
X56383441Y-67399987D01*
X56591724Y-67191704D01*
X56641225Y-67138287D01*
X56668543Y-67101413D01*
X56680283Y-67076941D01*
X56684939Y-67053579D01*
X56683189Y-67030535D01*
X56675281Y-67008441D01*
X56658695Y-66982037D01*
X56630548Y-66950123D01*
X56582225Y-66901800D01*
X56071396Y-67412629D01*
X55943110Y-67412629D01*
X55917757Y-67387276D01*
X56559255Y-66745777D01*
X56698663Y-66885185D01*
G37*
G36*
X56466512Y-67950262D02*
G01*
X56431319Y-67908970D01*
X56408410Y-67869042D01*
X56395921Y-67829785D01*
X56392836Y-67790302D01*
X56398622Y-67750935D01*
X56413317Y-67711352D01*
X56438004Y-67670807D01*
X56474422Y-67628718D01*
X56495803Y-67607337D01*
X56579738Y-67691272D01*
X56565472Y-67705538D01*
X56535851Y-67741104D01*
X56517230Y-67771541D01*
X56507236Y-67797832D01*
X56505645Y-67824275D01*
X56514768Y-67851034D01*
X56536976Y-67879798D01*
X56567411Y-67902855D01*
X56596046Y-67911567D01*
X56624883Y-67908294D01*
X56653280Y-67895689D01*
X56687411Y-67872482D01*
X56728645Y-67835413D01*
X56761617Y-67797386D01*
X56782328Y-67762967D01*
X56793168Y-67731306D01*
X56794659Y-67698994D01*
X56785076Y-67666900D01*
X56762702Y-67633485D01*
X56751615Y-67620808D01*
X56836344Y-67536079D01*
X56847432Y-67547167D01*
X56880487Y-67572588D01*
X56909599Y-67585387D01*
X56936134Y-67588340D01*
X56962384Y-67582410D01*
X56992995Y-67565708D01*
X57029567Y-67534490D01*
X57058958Y-67500902D01*
X57076675Y-67472071D01*
X57085386Y-67446963D01*
X57085719Y-67421668D01*
X57075679Y-67395161D01*
X57052537Y-67365826D01*
X57023210Y-67343106D01*
X56996190Y-67333783D01*
X56969742Y-67335326D01*
X56943499Y-67345359D01*
X56912603Y-67364404D01*
X56875928Y-67395082D01*
X56862457Y-67408553D01*
X56778522Y-67324618D01*
X56799903Y-67303237D01*
X56842010Y-67266813D01*
X56882484Y-67242215D01*
X56921918Y-67227667D01*
X56961072Y-67222065D01*
X57000314Y-67225331D01*
X57039557Y-67238030D01*
X57079701Y-67261248D01*
X57121447Y-67296916D01*
X57157061Y-67338657D01*
X57180190Y-67378858D01*
X57192763Y-67418225D01*
X57195849Y-67457670D01*
X57190078Y-67497020D01*
X57175395Y-67536590D01*
X57150715Y-67577129D01*
X57114297Y-67619219D01*
X57074517Y-67653004D01*
X57035935Y-67674842D01*
X56997859Y-67686540D01*
X56958328Y-67689359D01*
X56920124Y-67683127D01*
X56882284Y-67667543D01*
X56897080Y-67706374D01*
X56901469Y-67746727D01*
X56895340Y-67789887D01*
X56879756Y-67831208D01*
X56853145Y-67874391D01*
X56813374Y-67920142D01*
X56765303Y-67962646D01*
X56720135Y-67992341D01*
X56677266Y-68011221D01*
X56635971Y-68020726D01*
X56594102Y-68020707D01*
X56552654Y-68009872D01*
X56510434Y-67987152D01*
X56466512Y-67950262D01*
G37*
G36*
X50503434Y-76386357D02*
G01*
X50572612Y-76400967D01*
X50626526Y-76423058D01*
X50668109Y-76451688D01*
X50701278Y-76489479D01*
X50726300Y-76538522D01*
X50742651Y-76601520D01*
X50748648Y-76682009D01*
X50743659Y-76758336D01*
X50730082Y-76818238D01*
X50709478Y-76864869D01*
X50682601Y-76900777D01*
X50649320Y-76927738D01*
X50608636Y-76946585D01*
X50769653Y-77515000D01*
X50617002Y-77515000D01*
X50468624Y-76982978D01*
X50345403Y-76982978D01*
X50345403Y-77515000D01*
X50187195Y-77515000D01*
X50187195Y-76869588D01*
X50345403Y-76869588D01*
X50405609Y-76869588D01*
X50472798Y-76864120D01*
X50519811Y-76849883D01*
X50551911Y-76828982D01*
X50574461Y-76798570D01*
X50589958Y-76751733D01*
X50595997Y-76682009D01*
X50591629Y-76615942D01*
X50580609Y-76572100D01*
X50559333Y-76537533D01*
X50526021Y-76513299D01*
X50482374Y-76499744D01*
X50415440Y-76494370D01*
X50345403Y-76494370D01*
X50345403Y-76869588D01*
X50187195Y-76869588D01*
X50187195Y-76380980D01*
X50415440Y-76380980D01*
X50503434Y-76386357D01*
G37*
G36*
X51352722Y-77078171D02*
G01*
X51480095Y-77078171D01*
X51480095Y-77211222D01*
X51352722Y-77211222D01*
X51352722Y-77515000D01*
X51209901Y-77515000D01*
X51209901Y-77211222D01*
X50880906Y-77211222D01*
X50880906Y-77078171D01*
X51025131Y-77078171D01*
X51209901Y-77078171D01*
X51209901Y-76563002D01*
X51025131Y-77078171D01*
X50880906Y-77078171D01*
X50880906Y-77054419D01*
X51176318Y-76380980D01*
X51352722Y-76380980D01*
X51352722Y-77078171D01*
G37*
G36*
X52192436Y-60916838D02*
G01*
X52234333Y-60930426D01*
X52279220Y-60956813D01*
X52328144Y-60998953D01*
X52368499Y-61044952D01*
X52394704Y-61086518D01*
X52409428Y-61124552D01*
X52414536Y-61160068D01*
X52410961Y-61194146D01*
X52398608Y-61227822D01*
X52811237Y-61458281D01*
X52724884Y-61544634D01*
X52339992Y-61327612D01*
X52270288Y-61397316D01*
X52571245Y-61698273D01*
X52481749Y-61787769D01*
X51840251Y-61146271D01*
X51865604Y-61120918D01*
X51993890Y-61120918D01*
X52206145Y-61333173D01*
X52240203Y-61299115D01*
X52275117Y-61258015D01*
X52293658Y-61223366D01*
X52299993Y-61193385D01*
X52295546Y-61163425D01*
X52277817Y-61128163D01*
X52241791Y-61085306D01*
X52201947Y-61050403D01*
X52170913Y-61031836D01*
X52139323Y-61024317D01*
X52106770Y-61029453D01*
X52074412Y-61046476D01*
X52033508Y-61081299D01*
X51993890Y-61120918D01*
X51865604Y-61120918D01*
X51969365Y-61017156D01*
X52022184Y-60970421D01*
X52069581Y-60939553D01*
X52112577Y-60921550D01*
X52152295Y-60914223D01*
X52192436Y-60916838D01*
G37*
G36*
X52586979Y-60520706D02*
G01*
X52625652Y-60536426D01*
X52665764Y-60561834D01*
X52707855Y-60598655D01*
X52739565Y-60634824D01*
X52761670Y-60669390D01*
X52775590Y-60702797D01*
X52783248Y-60738138D01*
X52784762Y-60774778D01*
X52779943Y-60813259D01*
X52822183Y-60807067D01*
X52862110Y-60807707D01*
X52900319Y-60814883D01*
X52936344Y-60829122D01*
X52975159Y-60853687D01*
X53017517Y-60890839D01*
X53060631Y-60939412D01*
X53090640Y-60984522D01*
X53109665Y-61026821D01*
X53119275Y-61067068D01*
X53119370Y-61107848D01*
X53108523Y-61148831D01*
X53085452Y-61191264D01*
X53047602Y-61236147D01*
X53002257Y-61274481D01*
X52959615Y-61297862D01*
X52918662Y-61308923D01*
X52878143Y-61309029D01*
X52838129Y-61299572D01*
X52795862Y-61280583D01*
X52750549Y-61250416D01*
X52701500Y-61206856D01*
X52663733Y-61163957D01*
X52638802Y-61125031D01*
X52624335Y-61089278D01*
X52617032Y-61051327D01*
X52616531Y-61011804D01*
X52619514Y-60992930D01*
X52714709Y-60992930D01*
X52718149Y-61025515D01*
X52730856Y-61057573D01*
X52752193Y-61091434D01*
X52783880Y-61127653D01*
X52823448Y-61162783D01*
X52857984Y-61185417D01*
X52888436Y-61198152D01*
X52919297Y-61201301D01*
X52949257Y-61192213D01*
X52980281Y-61168826D01*
X53003129Y-61138372D01*
X53011849Y-61108819D01*
X53008398Y-61078190D01*
X52995485Y-61047970D01*
X52972722Y-61013563D01*
X52937519Y-60974014D01*
X52901318Y-60942258D01*
X52867584Y-60920794D01*
X52835761Y-60907902D01*
X52803406Y-60904153D01*
X52773541Y-60912101D01*
X52744296Y-60932841D01*
X52723023Y-60962655D01*
X52714709Y-60992930D01*
X52619514Y-60992930D01*
X52623126Y-60970076D01*
X52576708Y-60974787D01*
X52532925Y-60970183D01*
X52490804Y-60956397D01*
X52449532Y-60932787D01*
X52408522Y-60897989D01*
X52371750Y-60855900D01*
X52346418Y-60815728D01*
X52330805Y-60776929D01*
X52323758Y-60738823D01*
X52325441Y-60700473D01*
X52326204Y-60697887D01*
X52432579Y-60697887D01*
X52434255Y-60724972D01*
X52443756Y-60751722D01*
X52460782Y-60779914D01*
X52486895Y-60810082D01*
X52520238Y-60839671D01*
X52551100Y-60860172D01*
X52579949Y-60873085D01*
X52609317Y-60877601D01*
X52636545Y-60870943D01*
X52663504Y-60852049D01*
X52681682Y-60825802D01*
X52687809Y-60797594D01*
X52682135Y-60765197D01*
X52661506Y-60725913D01*
X52619948Y-60677029D01*
X52589816Y-60650769D01*
X52561886Y-60633480D01*
X52535633Y-60623594D01*
X52509040Y-60621475D01*
X52484058Y-60629105D01*
X52459193Y-60647738D01*
X52440506Y-60672621D01*
X52432579Y-60697887D01*
X52326204Y-60697887D01*
X52336739Y-60662178D01*
X52358731Y-60622948D01*
X52393462Y-60582006D01*
X52433969Y-60547699D01*
X52472853Y-60526031D01*
X52510889Y-60514983D01*
X52549070Y-60513511D01*
X52586979Y-60520706D01*
G37*
G36*
X53635283Y-45121806D02*
G01*
X53682019Y-45174624D01*
X53712887Y-45222021D01*
X53730889Y-45265017D01*
X53738216Y-45304736D01*
X53735601Y-45344877D01*
X53722013Y-45386774D01*
X53695626Y-45431660D01*
X53653487Y-45480585D01*
X53607487Y-45520939D01*
X53565921Y-45547145D01*
X53527888Y-45561868D01*
X53492371Y-45566976D01*
X53458293Y-45563401D01*
X53424617Y-45551049D01*
X53194158Y-45963677D01*
X53107805Y-45877324D01*
X53324827Y-45492432D01*
X53255123Y-45422728D01*
X52954166Y-45723685D01*
X52864670Y-45634189D01*
X53140274Y-45358585D01*
X53319266Y-45358585D01*
X53353324Y-45392643D01*
X53394425Y-45427558D01*
X53429073Y-45446098D01*
X53459054Y-45452434D01*
X53489015Y-45447986D01*
X53524276Y-45430258D01*
X53567134Y-45394232D01*
X53602036Y-45354388D01*
X53620603Y-45323353D01*
X53628122Y-45291763D01*
X53622987Y-45259210D01*
X53605963Y-45226852D01*
X53571140Y-45185949D01*
X53531522Y-45146330D01*
X53319266Y-45358585D01*
X53140274Y-45358585D01*
X53506169Y-44992691D01*
X53635283Y-45121806D01*
G37*
G36*
X53891475Y-45599752D02*
G01*
X53882744Y-45595776D01*
X53832444Y-45562896D01*
X53756834Y-45511050D01*
X53820977Y-45446907D01*
X53884616Y-45481316D01*
X53938295Y-45501456D01*
X53983832Y-45510148D01*
X54022939Y-45509461D01*
X54087082Y-45573604D01*
X53445583Y-46215102D01*
X53360854Y-46130373D01*
X53891475Y-45599752D01*
G37*
G36*
X53724918Y-46507079D02*
G01*
X53686824Y-46462093D01*
X53663709Y-46420108D01*
X53652858Y-46380086D01*
X53652830Y-46340763D01*
X53662215Y-46302025D01*
X53681202Y-46260499D01*
X53711599Y-46215327D01*
X53755797Y-46165743D01*
X53840527Y-46250472D01*
X53806573Y-46288183D01*
X53783336Y-46321618D01*
X53768819Y-46351471D01*
X53763717Y-46374382D01*
X53765829Y-46396330D01*
X53775344Y-46418369D01*
X53793758Y-46441347D01*
X53816901Y-46459786D01*
X53839035Y-46469041D01*
X53861079Y-46470672D01*
X53895058Y-46462021D01*
X53931577Y-46440587D01*
X53968629Y-46409780D01*
X54019519Y-46361349D01*
X54063938Y-46314020D01*
X54091572Y-46279003D01*
X54109831Y-46244494D01*
X54115302Y-46214031D01*
X54112238Y-46194577D01*
X54102481Y-46174237D01*
X54084422Y-46152272D01*
X54057522Y-46132947D01*
X54026220Y-46124190D01*
X53993026Y-46124840D01*
X53960108Y-46134069D01*
X53888021Y-46061981D01*
X54231740Y-45718262D01*
X54508138Y-45994661D01*
X54423374Y-46079425D01*
X54223796Y-45879846D01*
X54040900Y-46051688D01*
X54074264Y-46054515D01*
X54106348Y-46064531D01*
X54137816Y-46082232D01*
X54169151Y-46108715D01*
X54201721Y-46148366D01*
X54220448Y-46186688D01*
X54227570Y-46224755D01*
X54223796Y-46263943D01*
X54211255Y-46302065D01*
X54190072Y-46342865D01*
X54158730Y-46386982D01*
X54115336Y-46434991D01*
X54056647Y-46488377D01*
X54003262Y-46527127D01*
X53954444Y-46553574D01*
X53909402Y-46569633D01*
X53872055Y-46575214D01*
X53835800Y-46572263D01*
X53799704Y-46560683D01*
X53762953Y-46539526D01*
X53724918Y-46507079D01*
G37*
G36*
X52191331Y-58417943D02*
G01*
X52233228Y-58431531D01*
X52278115Y-58457919D01*
X52327039Y-58500058D01*
X52367393Y-58546058D01*
X52393599Y-58587623D01*
X52408322Y-58625657D01*
X52413431Y-58661174D01*
X52409856Y-58695252D01*
X52397503Y-58728928D01*
X52810132Y-58959386D01*
X52723779Y-59045739D01*
X52338887Y-58828717D01*
X52269183Y-58898421D01*
X52570140Y-59199378D01*
X52480644Y-59288874D01*
X51839145Y-58647376D01*
X51864498Y-58622023D01*
X51992784Y-58622023D01*
X52205040Y-58834278D01*
X52239097Y-58800221D01*
X52274012Y-58759120D01*
X52292553Y-58724471D01*
X52298888Y-58694490D01*
X52294441Y-58664530D01*
X52276712Y-58629268D01*
X52240686Y-58586411D01*
X52200842Y-58551508D01*
X52169808Y-58532941D01*
X52138218Y-58525423D01*
X52105665Y-58530558D01*
X52073307Y-58547581D01*
X52032403Y-58582404D01*
X51992784Y-58622023D01*
X51864498Y-58622023D01*
X51968260Y-58518261D01*
X52021079Y-58471526D01*
X52068476Y-58440658D01*
X52111471Y-58422656D01*
X52151190Y-58415328D01*
X52191331Y-58417943D01*
G37*
G36*
X52564993Y-58026879D02*
G01*
X52611065Y-58040113D01*
X52657887Y-58062442D01*
X52706010Y-58095002D01*
X52755868Y-58139345D01*
X52971266Y-58354743D01*
X53021425Y-58410165D01*
X53058623Y-58462073D01*
X53084702Y-58510986D01*
X53101141Y-58557500D01*
X53107145Y-58596079D01*
X53104602Y-58632880D01*
X53093601Y-58668836D01*
X53073407Y-58704750D01*
X53042525Y-58741224D01*
X53002122Y-58775819D01*
X52962972Y-58798726D01*
X52924450Y-58811679D01*
X52885742Y-58815660D01*
X52847052Y-58811055D01*
X52807983Y-58797659D01*
X52767766Y-58774425D01*
X52725782Y-58739635D01*
X52718632Y-58732485D01*
X52803362Y-58647756D01*
X52838122Y-58678146D01*
X52867279Y-58695866D01*
X52892098Y-58704023D01*
X52917112Y-58703731D01*
X52943518Y-58693293D01*
X52972855Y-58669966D01*
X52989525Y-58647162D01*
X52996801Y-58622071D01*
X52994967Y-58593097D01*
X52982145Y-58558185D01*
X52954595Y-58515127D01*
X52907123Y-58461648D01*
X52809717Y-58364242D01*
X52812792Y-58397659D01*
X52806125Y-58432772D01*
X52789768Y-58466546D01*
X52760600Y-58502061D01*
X52720004Y-58535780D01*
X52681485Y-58555395D01*
X52643981Y-58563360D01*
X52606166Y-58560678D01*
X52569312Y-58549211D01*
X52529396Y-58528893D01*
X52485684Y-58498039D01*
X52437502Y-58454533D01*
X52392647Y-58404164D01*
X52360006Y-58356039D01*
X52337888Y-58309676D01*
X52325036Y-58264487D01*
X52322110Y-58218296D01*
X52322955Y-58214140D01*
X52429913Y-58214140D01*
X52434324Y-58246250D01*
X52447879Y-58277843D01*
X52469999Y-58311714D01*
X52502439Y-58348422D01*
X52549362Y-58393114D01*
X52583196Y-58421304D01*
X52616799Y-58440597D01*
X52649723Y-58448246D01*
X52671200Y-58446108D01*
X52693583Y-58436176D01*
X52717838Y-58416537D01*
X52737096Y-58391735D01*
X52747966Y-58364774D01*
X52751006Y-58334675D01*
X52745574Y-58300099D01*
X52650552Y-58205076D01*
X52604421Y-58164686D01*
X52566250Y-58141469D01*
X52534253Y-58131106D01*
X52506626Y-58130671D01*
X52481665Y-58138976D01*
X52458054Y-58156753D01*
X52437489Y-58184982D01*
X52429913Y-58214140D01*
X52322955Y-58214140D01*
X52331067Y-58174221D01*
X52352471Y-58130841D01*
X52388384Y-58087084D01*
X52430792Y-58052542D01*
X52473585Y-58031945D01*
X52517835Y-58023493D01*
X52564993Y-58026879D01*
G37*
G36*
X54190018Y-55229086D02*
G01*
X54245360Y-55240773D01*
X54288492Y-55258446D01*
X54321758Y-55281351D01*
X54348293Y-55311583D01*
X54368311Y-55350817D01*
X54381392Y-55401216D01*
X54386189Y-55465607D01*
X54382198Y-55526669D01*
X54371336Y-55574590D01*
X54354853Y-55611895D01*
X54333352Y-55640622D01*
X54306727Y-55662190D01*
X54274180Y-55677268D01*
X54402993Y-56132000D01*
X54280872Y-56132000D01*
X54162170Y-55706382D01*
X54063593Y-55706382D01*
X54063593Y-56132000D01*
X53937027Y-56132000D01*
X53937027Y-55615670D01*
X54063593Y-55615670D01*
X54111758Y-55615670D01*
X54165509Y-55611296D01*
X54203120Y-55599906D01*
X54228799Y-55583186D01*
X54246840Y-55558856D01*
X54259237Y-55521386D01*
X54264068Y-55465607D01*
X54260574Y-55412754D01*
X54251758Y-55377680D01*
X54234737Y-55350026D01*
X54208088Y-55330639D01*
X54173170Y-55319795D01*
X54119623Y-55315496D01*
X54063593Y-55315496D01*
X54063593Y-55615670D01*
X53937027Y-55615670D01*
X53937027Y-55224784D01*
X54119623Y-55224784D01*
X54190018Y-55229086D01*
G37*
G36*
X54638737Y-55381588D02*
G01*
X54629751Y-55384951D01*
X54570935Y-55397268D01*
X54480809Y-55414072D01*
X54480809Y-55323360D01*
X54550139Y-55302691D01*
X54602338Y-55278976D01*
X54640683Y-55252922D01*
X54667850Y-55224784D01*
X54758562Y-55224784D01*
X54758562Y-56132000D01*
X54638737Y-56132000D01*
X54638737Y-55381588D01*
G37*
G36*
X55081891Y-55381588D02*
G01*
X55072905Y-55384951D01*
X55014089Y-55397268D01*
X54923963Y-55414072D01*
X54923963Y-55323360D01*
X54993294Y-55302691D01*
X55045492Y-55278976D01*
X55083838Y-55252922D01*
X55111005Y-55224784D01*
X55201716Y-55224784D01*
X55201716Y-56132000D01*
X55081891Y-56132000D01*
X55081891Y-55381588D01*
G37*
G36*
X62541984Y-71728506D02*
G01*
X62591151Y-71784965D01*
X62621796Y-71835261D01*
X62637692Y-71880749D01*
X62641359Y-71922938D01*
X62634267Y-71965183D01*
X62616001Y-72010401D01*
X62584398Y-72059743D01*
X62536423Y-72114227D01*
X62300438Y-72350212D01*
X62243024Y-72401227D01*
X62191177Y-72435613D01*
X62143893Y-72456393D01*
X62100064Y-72465822D01*
X62055723Y-72464368D01*
X62009782Y-72450613D01*
X61960810Y-72422629D01*
X61907601Y-72377120D01*
X61786431Y-72255950D01*
X61914716Y-72255950D01*
X61965423Y-72306656D01*
X61998588Y-72334948D01*
X62026780Y-72350388D01*
X62051327Y-72356153D01*
X62076722Y-72354867D01*
X62101726Y-72347293D01*
X62126972Y-72332804D01*
X62165922Y-72301114D01*
X62226761Y-72243307D01*
X62435044Y-72035024D01*
X62484545Y-71981608D01*
X62511864Y-71944734D01*
X62523604Y-71920262D01*
X62528260Y-71896899D01*
X62526509Y-71873855D01*
X62518601Y-71851761D01*
X62502016Y-71825357D01*
X62473869Y-71793443D01*
X62425546Y-71745120D01*
X61914716Y-72255950D01*
X61786431Y-72255950D01*
X61761077Y-72230596D01*
X62402576Y-71589098D01*
X62541984Y-71728506D01*
G37*
G36*
X62794514Y-72202791D02*
G01*
X62785783Y-72198815D01*
X62735483Y-72165935D01*
X62659873Y-72114089D01*
X62724016Y-72049946D01*
X62787655Y-72084355D01*
X62841334Y-72104495D01*
X62886872Y-72113187D01*
X62925978Y-72112500D01*
X62990121Y-72176643D01*
X62348622Y-72818141D01*
X62263893Y-72733412D01*
X62794514Y-72202791D01*
G37*
G36*
X62623190Y-73106940D02*
G01*
X62587997Y-73065648D01*
X62565088Y-73025720D01*
X62552599Y-72986463D01*
X62549514Y-72946980D01*
X62555300Y-72907613D01*
X62569995Y-72868030D01*
X62594682Y-72827485D01*
X62631100Y-72785396D01*
X62652481Y-72764015D01*
X62736416Y-72847950D01*
X62722150Y-72862216D01*
X62692529Y-72897782D01*
X62673908Y-72928219D01*
X62663914Y-72954510D01*
X62662323Y-72980953D01*
X62671446Y-73007712D01*
X62693654Y-73036476D01*
X62724089Y-73059533D01*
X62752724Y-73068246D01*
X62781561Y-73064972D01*
X62809958Y-73052367D01*
X62844089Y-73029160D01*
X62885323Y-72992091D01*
X62918295Y-72954064D01*
X62939006Y-72919645D01*
X62949846Y-72887984D01*
X62951337Y-72855672D01*
X62941754Y-72823578D01*
X62919380Y-72790163D01*
X62908293Y-72777486D01*
X62993022Y-72692757D01*
X63004110Y-72703845D01*
X63037165Y-72729266D01*
X63066277Y-72742065D01*
X63092812Y-72745018D01*
X63119062Y-72739088D01*
X63149673Y-72722386D01*
X63186245Y-72691168D01*
X63215636Y-72657580D01*
X63233353Y-72628749D01*
X63242064Y-72603641D01*
X63242397Y-72578346D01*
X63232358Y-72551839D01*
X63209215Y-72522504D01*
X63179888Y-72499784D01*
X63152868Y-72490462D01*
X63126420Y-72492004D01*
X63100177Y-72502037D01*
X63069281Y-72521082D01*
X63032606Y-72551760D01*
X63019135Y-72565231D01*
X62935200Y-72481296D01*
X62956581Y-72459915D01*
X62998688Y-72423491D01*
X63039162Y-72398893D01*
X63078596Y-72384345D01*
X63117750Y-72378743D01*
X63156992Y-72382009D01*
X63196235Y-72394708D01*
X63236379Y-72417926D01*
X63278125Y-72453594D01*
X63313739Y-72495335D01*
X63336868Y-72535536D01*
X63349441Y-72574903D01*
X63352527Y-72614349D01*
X63346756Y-72653698D01*
X63332073Y-72693269D01*
X63307393Y-72733807D01*
X63270975Y-72775898D01*
X63231195Y-72809682D01*
X63192613Y-72831520D01*
X63154537Y-72843218D01*
X63115006Y-72846037D01*
X63076802Y-72839805D01*
X63038962Y-72824221D01*
X63053758Y-72863052D01*
X63058147Y-72903405D01*
X63052019Y-72946565D01*
X63036434Y-72987886D01*
X63009823Y-73031069D01*
X62970052Y-73076820D01*
X62921981Y-73119324D01*
X62876813Y-73149019D01*
X62833944Y-73167899D01*
X62792649Y-73177404D01*
X62750780Y-73177385D01*
X62709332Y-73166550D01*
X62667112Y-73143830D01*
X62623190Y-73106940D01*
G37*
G36*
X63225059Y-59411582D02*
G01*
X63271795Y-59464400D01*
X63302663Y-59511797D01*
X63320665Y-59554793D01*
X63327992Y-59594512D01*
X63325377Y-59634653D01*
X63311789Y-59676550D01*
X63285402Y-59721436D01*
X63243262Y-59770361D01*
X63197263Y-59810715D01*
X63155697Y-59836921D01*
X63117664Y-59851644D01*
X63082147Y-59856752D01*
X63048069Y-59853177D01*
X63014393Y-59840824D01*
X62783934Y-60253453D01*
X62697581Y-60167100D01*
X62914603Y-59782208D01*
X62844899Y-59712504D01*
X62543942Y-60013461D01*
X62454446Y-59923965D01*
X62730050Y-59648361D01*
X62909042Y-59648361D01*
X62943100Y-59682419D01*
X62984201Y-59717334D01*
X63018849Y-59735874D01*
X63048830Y-59742209D01*
X63078790Y-59737762D01*
X63114052Y-59720034D01*
X63156910Y-59684008D01*
X63191812Y-59644164D01*
X63210379Y-59613129D01*
X63217898Y-59581539D01*
X63212763Y-59548986D01*
X63195739Y-59516628D01*
X63160916Y-59475724D01*
X63121298Y-59436106D01*
X62909042Y-59648361D01*
X62730050Y-59648361D01*
X63095944Y-59282467D01*
X63225059Y-59411582D01*
G37*
G36*
X63481251Y-59889528D02*
G01*
X63472520Y-59885552D01*
X63422220Y-59852672D01*
X63346610Y-59800826D01*
X63410753Y-59736683D01*
X63474392Y-59771092D01*
X63528071Y-59791232D01*
X63573608Y-59799924D01*
X63612715Y-59799237D01*
X63676858Y-59863380D01*
X63035359Y-60504878D01*
X62950630Y-60420149D01*
X63481251Y-59889528D01*
G37*
G36*
X63882456Y-60087745D02*
G01*
X63925837Y-60109150D01*
X63969594Y-60145063D01*
X64004136Y-60187471D01*
X64024733Y-60230264D01*
X64033184Y-60274514D01*
X64029799Y-60321672D01*
X64016565Y-60367744D01*
X63994236Y-60414566D01*
X63961675Y-60462688D01*
X63917333Y-60512546D01*
X63701934Y-60727945D01*
X63646512Y-60778104D01*
X63594605Y-60815302D01*
X63545692Y-60841381D01*
X63499178Y-60857820D01*
X63460599Y-60863824D01*
X63423798Y-60861281D01*
X63387842Y-60850280D01*
X63351928Y-60830086D01*
X63315454Y-60799203D01*
X63280859Y-60758801D01*
X63257952Y-60719651D01*
X63244999Y-60681129D01*
X63241017Y-60642421D01*
X63245623Y-60603731D01*
X63259019Y-60564662D01*
X63282253Y-60524445D01*
X63317042Y-60482461D01*
X63324192Y-60475311D01*
X63408922Y-60560040D01*
X63378532Y-60594800D01*
X63360811Y-60623957D01*
X63352654Y-60648777D01*
X63352947Y-60673790D01*
X63363385Y-60700196D01*
X63386712Y-60729534D01*
X63409516Y-60746204D01*
X63434607Y-60753480D01*
X63463581Y-60751646D01*
X63498492Y-60738823D01*
X63541551Y-60711274D01*
X63595030Y-60663802D01*
X63692436Y-60566396D01*
X63659018Y-60569471D01*
X63623906Y-60562804D01*
X63590131Y-60546447D01*
X63554616Y-60517278D01*
X63520898Y-60476682D01*
X63501282Y-60438163D01*
X63494536Y-60406401D01*
X63608432Y-60406401D01*
X63610570Y-60427879D01*
X63620502Y-60450262D01*
X63640140Y-60474517D01*
X63664942Y-60493775D01*
X63691903Y-60504645D01*
X63722003Y-60507685D01*
X63756579Y-60502253D01*
X63851601Y-60407230D01*
X63891991Y-60361099D01*
X63915209Y-60322929D01*
X63925572Y-60290932D01*
X63926006Y-60263305D01*
X63917702Y-60238344D01*
X63899924Y-60214732D01*
X63871696Y-60194168D01*
X63842538Y-60186592D01*
X63810428Y-60191003D01*
X63778835Y-60204558D01*
X63744964Y-60226678D01*
X63708256Y-60259118D01*
X63663564Y-60306041D01*
X63635374Y-60339875D01*
X63616081Y-60373477D01*
X63608432Y-60406401D01*
X63494536Y-60406401D01*
X63493317Y-60400660D01*
X63496000Y-60362845D01*
X63507467Y-60325991D01*
X63527785Y-60286075D01*
X63558639Y-60242363D01*
X63602145Y-60194181D01*
X63652513Y-60149326D01*
X63700639Y-60116685D01*
X63747002Y-60094567D01*
X63792191Y-60081715D01*
X63838382Y-60078788D01*
X63882456Y-60087745D01*
G37*
G36*
X60428271Y-61027578D02*
G01*
X60359742Y-61022823D01*
X60303829Y-61009645D01*
X60258280Y-60989191D01*
X60221299Y-60961908D01*
X60191661Y-60927500D01*
X60163407Y-60876670D01*
X60141953Y-60815068D01*
X60128081Y-60740648D01*
X60123089Y-60651017D01*
X60123089Y-60250580D01*
X60128141Y-60155203D01*
X60141984Y-60078290D01*
X60163029Y-60016718D01*
X60190256Y-59967808D01*
X60219171Y-59934922D01*
X60255783Y-59908636D01*
X60301458Y-59888772D01*
X60358150Y-59875884D01*
X60428271Y-59871210D01*
X60504784Y-59877301D01*
X60564664Y-59893942D01*
X60611342Y-59919553D01*
X60647357Y-59953825D01*
X60674561Y-59996215D01*
X60695340Y-60049326D01*
X60708913Y-60115464D01*
X60713852Y-60197397D01*
X60713852Y-60286973D01*
X60564070Y-60286973D01*
X60564070Y-60207227D01*
X60562037Y-60133389D01*
X60557048Y-60086816D01*
X60544406Y-60048541D01*
X60521388Y-60019588D01*
X60500660Y-60006537D01*
X60471076Y-59997724D01*
X60429675Y-59994370D01*
X60387498Y-59997926D01*
X60356401Y-60007414D01*
X60333749Y-60021725D01*
X60308104Y-60053467D01*
X60292411Y-60097318D01*
X60285408Y-60149713D01*
X60282641Y-60226828D01*
X60282641Y-60676174D01*
X60286642Y-60758248D01*
X60296624Y-60812034D01*
X60315921Y-60855355D01*
X60342175Y-60882009D01*
X60377575Y-60897210D01*
X60429675Y-60903014D01*
X60468998Y-60899570D01*
X60498038Y-60890358D01*
X60519251Y-60876392D01*
X60542856Y-60845647D01*
X60556376Y-60803607D01*
X60561879Y-60753185D01*
X60564070Y-60677578D01*
X60564070Y-60593620D01*
X60713852Y-60593620D01*
X60713852Y-60677578D01*
X60709118Y-60764088D01*
X60696084Y-60834500D01*
X60676145Y-60891486D01*
X60650165Y-60937330D01*
X60614914Y-60974842D01*
X60568233Y-61002749D01*
X60507333Y-61020903D01*
X60428271Y-61027578D01*
G37*
G36*
X61110075Y-61027578D02*
G01*
X61042471Y-61022188D01*
X60986930Y-61007144D01*
X60941192Y-60983484D01*
X60903567Y-60951313D01*
X60873885Y-60911403D01*
X60851888Y-60863427D01*
X60837871Y-60805770D01*
X60832859Y-60736379D01*
X60832859Y-60698583D01*
X60981237Y-60698583D01*
X60981237Y-60723801D01*
X60986491Y-60781420D01*
X60996935Y-60824781D01*
X61011340Y-60856852D01*
X61033306Y-60881632D01*
X61065022Y-60897220D01*
X61110075Y-60903014D01*
X61157355Y-60896493D01*
X61190366Y-60878884D01*
X61212962Y-60850502D01*
X61226920Y-60814260D01*
X61236576Y-60763580D01*
X61240256Y-60694370D01*
X61235788Y-60631615D01*
X61223672Y-60582887D01*
X61205268Y-60545321D01*
X61178026Y-60515443D01*
X61141190Y-60495546D01*
X61091879Y-60485786D01*
X61070874Y-60484382D01*
X61070874Y-60334600D01*
X61090474Y-60334600D01*
X61142161Y-60327853D01*
X61179205Y-60313434D01*
X61205268Y-60292590D01*
X61223230Y-60264146D01*
X61235524Y-60222327D01*
X61240256Y-60162409D01*
X61236546Y-60106744D01*
X61226723Y-60065601D01*
X61212229Y-60035708D01*
X61190167Y-60013056D01*
X61157863Y-59998501D01*
X61111479Y-59993026D01*
X61065476Y-59998867D01*
X61033353Y-60014509D01*
X61011340Y-60039249D01*
X60997012Y-60071314D01*
X60986537Y-60115455D01*
X60981237Y-60174987D01*
X60981237Y-60198801D01*
X60832859Y-60198801D01*
X60832859Y-60161004D01*
X60837882Y-60091592D01*
X60851914Y-60034077D01*
X60873911Y-59986363D01*
X60903567Y-59946803D01*
X60941139Y-59915004D01*
X60987050Y-59891543D01*
X61043054Y-59876582D01*
X61111479Y-59871210D01*
X61179852Y-59876626D01*
X61235828Y-59891715D01*
X61281738Y-59915398D01*
X61319330Y-59947536D01*
X61349010Y-59987417D01*
X61371007Y-60035371D01*
X61385025Y-60093016D01*
X61390038Y-60162409D01*
X61384738Y-60227431D01*
X61369939Y-60280835D01*
X61346624Y-60324830D01*
X61314175Y-60362262D01*
X61274899Y-60390522D01*
X61227678Y-60410193D01*
X61275078Y-60431437D01*
X61314624Y-60463226D01*
X61347357Y-60506791D01*
X61370104Y-60557089D01*
X61384752Y-60618779D01*
X61390038Y-60694370D01*
X61385117Y-60774427D01*
X61371441Y-60840598D01*
X61350237Y-60895177D01*
X61322139Y-60940078D01*
X61285115Y-60977068D01*
X61238903Y-61004127D01*
X61181503Y-61021363D01*
X61110075Y-61027578D01*
G37*
G36*
X64570929Y-65157453D02*
G01*
X64617665Y-65210271D01*
X64648533Y-65257668D01*
X64666535Y-65300664D01*
X64673862Y-65340383D01*
X64671247Y-65380524D01*
X64657659Y-65422421D01*
X64631272Y-65467307D01*
X64589133Y-65516232D01*
X64543133Y-65556586D01*
X64501567Y-65582792D01*
X64463534Y-65597515D01*
X64428017Y-65602623D01*
X64393939Y-65599048D01*
X64360263Y-65586696D01*
X64129804Y-65999324D01*
X64043451Y-65912971D01*
X64260473Y-65528079D01*
X64190769Y-65458375D01*
X63889812Y-65759332D01*
X63800316Y-65669836D01*
X64075920Y-65394232D01*
X64254912Y-65394232D01*
X64288970Y-65428290D01*
X64330071Y-65463205D01*
X64364719Y-65481745D01*
X64394700Y-65488081D01*
X64424660Y-65483633D01*
X64459922Y-65465905D01*
X64502780Y-65429879D01*
X64537682Y-65390035D01*
X64556249Y-65359000D01*
X64563768Y-65327410D01*
X64558633Y-65294857D01*
X64541609Y-65262499D01*
X64506786Y-65221596D01*
X64467168Y-65181977D01*
X64254912Y-65394232D01*
X64075920Y-65394232D01*
X64441814Y-65028338D01*
X64570929Y-65157453D01*
G37*
G36*
X64827121Y-65635399D02*
G01*
X64818390Y-65631423D01*
X64768090Y-65598543D01*
X64692480Y-65546697D01*
X64756623Y-65482554D01*
X64820262Y-65516963D01*
X64873941Y-65537103D01*
X64919478Y-65545795D01*
X64958585Y-65545108D01*
X65022728Y-65609251D01*
X64381229Y-66250749D01*
X64296500Y-66166020D01*
X64827121Y-65635399D01*
G37*
G36*
X65238679Y-65958255D02*
G01*
X65066802Y-65786378D01*
X65133328Y-65719852D01*
X65389935Y-65976458D01*
X65348727Y-66017665D01*
X64629649Y-66499169D01*
X64548063Y-66417583D01*
X65238679Y-65958255D01*
G37*
G36*
X52497412Y-56254086D02*
G01*
X52552754Y-56265773D01*
X52595886Y-56283446D01*
X52629152Y-56306351D01*
X52655687Y-56336583D01*
X52675705Y-56375817D01*
X52688786Y-56426216D01*
X52693583Y-56490607D01*
X52689592Y-56551669D01*
X52678730Y-56599590D01*
X52662247Y-56636895D01*
X52640746Y-56665622D01*
X52614121Y-56687190D01*
X52581574Y-56702268D01*
X52710387Y-57157000D01*
X52588266Y-57157000D01*
X52469564Y-56731382D01*
X52370987Y-56731382D01*
X52370987Y-57157000D01*
X52244421Y-57157000D01*
X52244421Y-56640670D01*
X52370987Y-56640670D01*
X52419152Y-56640670D01*
X52472903Y-56636296D01*
X52510514Y-56624906D01*
X52536193Y-56608186D01*
X52554234Y-56583856D01*
X52566631Y-56546386D01*
X52571462Y-56490607D01*
X52567968Y-56437754D01*
X52559152Y-56402680D01*
X52542131Y-56375026D01*
X52515482Y-56355639D01*
X52480564Y-56344795D01*
X52427017Y-56340496D01*
X52370987Y-56340496D01*
X52370987Y-56640670D01*
X52244421Y-56640670D01*
X52244421Y-56249784D01*
X52427017Y-56249784D01*
X52497412Y-56254086D01*
G37*
G36*
X52946131Y-56406588D02*
G01*
X52937145Y-56409951D01*
X52878329Y-56422268D01*
X52788203Y-56439072D01*
X52788203Y-56348360D01*
X52857533Y-56327691D01*
X52909732Y-56303976D01*
X52948077Y-56277922D01*
X52975244Y-56249784D01*
X53065956Y-56249784D01*
X53065956Y-57157000D01*
X52946131Y-57157000D01*
X52946131Y-56406588D01*
G37*
G36*
X53543647Y-56246948D02*
G01*
X53589068Y-56260845D01*
X53626166Y-56282825D01*
X53656389Y-56313092D01*
X53679486Y-56349657D01*
X53696788Y-56393451D01*
X53707868Y-56445855D01*
X53711832Y-56508535D01*
X53711832Y-56899421D01*
X53707861Y-56961401D01*
X53696719Y-57013642D01*
X53679242Y-57057701D01*
X53655803Y-57094864D01*
X53625255Y-57125715D01*
X53588093Y-57148016D01*
X53542947Y-57162050D01*
X53487812Y-57167062D01*
X53432754Y-57162028D01*
X53387521Y-57147909D01*
X53350145Y-57125430D01*
X53319285Y-57094278D01*
X53295545Y-57056806D01*
X53277906Y-57012697D01*
X53266700Y-56960729D01*
X53262718Y-56899421D01*
X53262718Y-56508535D01*
X53262789Y-56507411D01*
X53383667Y-56507411D01*
X53383667Y-56900496D01*
X53387755Y-56960484D01*
X53398427Y-57003201D01*
X53413929Y-57032831D01*
X53433528Y-57052586D01*
X53457652Y-57064385D01*
X53487812Y-57068535D01*
X53517583Y-57064409D01*
X53541430Y-57052663D01*
X53560840Y-57032960D01*
X53576219Y-57003352D01*
X53586820Y-56960599D01*
X53590883Y-56900496D01*
X53590883Y-56507411D01*
X53588066Y-56456017D01*
X53580452Y-56415849D01*
X53569047Y-56384801D01*
X53550734Y-56359961D01*
X53524584Y-56344909D01*
X53487812Y-56339421D01*
X53451043Y-56344894D01*
X53424690Y-56359942D01*
X53406040Y-56384801D01*
X53394344Y-56415885D01*
X53386549Y-56456052D01*
X53383667Y-56507411D01*
X53262789Y-56507411D01*
X53266682Y-56445855D01*
X53277762Y-56393451D01*
X53295064Y-56349657D01*
X53318161Y-56313092D01*
X53348381Y-56282877D01*
X53385627Y-56260892D01*
X53431389Y-56246966D01*
X53487812Y-56241968D01*
X53543647Y-56246948D01*
G37*
G36*
X52137202Y-63472073D02*
G01*
X52179099Y-63485660D01*
X52223985Y-63512048D01*
X52272910Y-63554187D01*
X52313264Y-63600187D01*
X52339470Y-63641753D01*
X52354193Y-63679786D01*
X52359302Y-63715303D01*
X52355727Y-63749381D01*
X52343374Y-63783057D01*
X52756002Y-64013515D01*
X52669650Y-64099868D01*
X52284757Y-63882846D01*
X52215053Y-63952550D01*
X52516011Y-64253507D01*
X52426514Y-64343004D01*
X51785016Y-63701505D01*
X51810369Y-63676152D01*
X51938655Y-63676152D01*
X52150910Y-63888407D01*
X52184968Y-63854350D01*
X52219883Y-63813249D01*
X52238424Y-63778601D01*
X52244759Y-63748619D01*
X52240311Y-63718659D01*
X52222583Y-63683398D01*
X52186557Y-63640540D01*
X52146713Y-63605638D01*
X52115679Y-63587070D01*
X52084088Y-63579552D01*
X52051536Y-63584687D01*
X52019177Y-63601710D01*
X51978274Y-63636533D01*
X51938655Y-63676152D01*
X51810369Y-63676152D01*
X51914131Y-63572390D01*
X51966950Y-63525655D01*
X52014347Y-63494787D01*
X52057342Y-63476785D01*
X52097061Y-63469458D01*
X52137202Y-63472073D01*
G37*
G36*
X52401576Y-63217998D02*
G01*
X52229699Y-63389875D01*
X52163173Y-63323349D01*
X52419779Y-63066742D01*
X52460986Y-63107950D01*
X52942490Y-63827028D01*
X52860904Y-63908614D01*
X52401576Y-63217998D01*
G37*
G36*
X65211866Y-76284642D02*
G01*
X65272842Y-76296990D01*
X65320971Y-76315730D01*
X65358629Y-76340055D01*
X65388955Y-76372436D01*
X65411714Y-76414648D01*
X65426555Y-76469065D01*
X65432000Y-76538869D01*
X65432000Y-76746084D01*
X64524784Y-76746084D01*
X64524784Y-76551178D01*
X64618866Y-76551178D01*
X64618866Y-76619518D01*
X65341288Y-76619518D01*
X65341288Y-76547808D01*
X65337843Y-76504351D01*
X65328825Y-76473499D01*
X65315545Y-76452065D01*
X65296678Y-76435017D01*
X65273642Y-76422692D01*
X65245545Y-76415086D01*
X65195595Y-76409952D01*
X65111699Y-76407808D01*
X64817143Y-76407808D01*
X64744369Y-76410577D01*
X64698978Y-76417333D01*
X64673372Y-76426336D01*
X64653560Y-76439563D01*
X64638503Y-76457096D01*
X64628472Y-76478311D01*
X64621530Y-76508709D01*
X64618866Y-76551178D01*
X64524784Y-76551178D01*
X64524784Y-76548931D01*
X64529940Y-76474242D01*
X64543835Y-76417009D01*
X64564760Y-76373603D01*
X64592000Y-76341178D01*
X64626885Y-76316322D01*
X64671776Y-76297263D01*
X64729012Y-76284720D01*
X64801462Y-76280118D01*
X65135196Y-76280118D01*
X65211866Y-76284642D01*
G37*
G36*
X64681588Y-76034996D02*
G01*
X64684951Y-76043981D01*
X64697268Y-76102797D01*
X64714072Y-76192923D01*
X64623360Y-76192923D01*
X64602691Y-76123593D01*
X64578976Y-76071395D01*
X64552922Y-76033049D01*
X64524784Y-76005882D01*
X64524784Y-75915170D01*
X65432000Y-75915170D01*
X65432000Y-76034996D01*
X64681588Y-76034996D01*
G37*
G36*
X58142261Y-39628171D02*
G01*
X58208956Y-39624254D01*
X58247957Y-39614921D01*
X58276756Y-39596109D01*
X58294852Y-39565950D01*
X58303752Y-39525356D01*
X58307492Y-39455980D01*
X58307492Y-38580980D01*
X58464295Y-38580980D01*
X58464295Y-39458789D01*
X58458382Y-39555636D01*
X58443291Y-39621943D01*
X58425351Y-39659473D01*
X58400571Y-39689216D01*
X58368369Y-39712252D01*
X58331205Y-39727538D01*
X58282064Y-39737798D01*
X58217915Y-39741622D01*
X58142261Y-39741622D01*
X58142261Y-39628171D01*
G37*
G36*
X58792985Y-38776985D02*
G01*
X58781754Y-38781188D01*
X58708233Y-38796585D01*
X58595576Y-38817590D01*
X58595576Y-38704200D01*
X58682239Y-38678364D01*
X58747486Y-38648720D01*
X58795419Y-38616152D01*
X58829377Y-38580980D01*
X58942767Y-38580980D01*
X58942767Y-39715000D01*
X58792985Y-39715000D01*
X58792985Y-38776985D01*
G37*
G36*
X59491759Y-80286144D02*
G01*
X59553937Y-80300279D01*
X59603153Y-80321888D01*
X59641818Y-80350284D01*
X59672602Y-80387052D01*
X59695679Y-80433552D01*
X59710630Y-80491986D01*
X59716068Y-80565218D01*
X59710375Y-80639651D01*
X59695038Y-80696186D01*
X59671835Y-80738700D01*
X59641282Y-80770095D01*
X59602561Y-80792006D01*
X59553646Y-80804576D01*
X59617015Y-80826742D01*
X59665046Y-80858268D01*
X59700619Y-80899098D01*
X59725041Y-80948407D01*
X59740996Y-81011438D01*
X59746842Y-81091622D01*
X59741696Y-81168355D01*
X59727320Y-81232226D01*
X59704845Y-81285401D01*
X59674730Y-81329637D01*
X59635895Y-81365628D01*
X59587878Y-81392071D01*
X59528700Y-81408930D01*
X59455644Y-81415000D01*
X59153210Y-81415000D01*
X59153210Y-81301610D01*
X59311418Y-81301610D01*
X59417847Y-81301610D01*
X59483222Y-81295510D01*
X59526291Y-81279933D01*
X59549271Y-81263013D01*
X59567126Y-81241122D01*
X59580208Y-81213438D01*
X59591281Y-81164458D01*
X59595656Y-81091622D01*
X59589814Y-81019961D01*
X59574243Y-80967070D01*
X59550838Y-80928529D01*
X59526680Y-80906163D01*
X59495553Y-80889438D01*
X59455816Y-80878580D01*
X59405269Y-80874612D01*
X59311418Y-80874612D01*
X59311418Y-81301610D01*
X59153210Y-81301610D01*
X59153210Y-80754200D01*
X59311418Y-80754200D01*
X59405269Y-80754200D01*
X59469246Y-80748413D01*
X59512565Y-80733474D01*
X59541007Y-80711519D01*
X59560289Y-80680458D01*
X59573664Y-80633626D01*
X59578864Y-80565218D01*
X59575722Y-80514923D01*
X59567538Y-80478963D01*
X59555722Y-80453904D01*
X59538015Y-80433195D01*
X59515275Y-80418106D01*
X59486418Y-80408414D01*
X59434649Y-80401465D01*
X59349215Y-80398583D01*
X59311418Y-80398583D01*
X59311418Y-80754200D01*
X59153210Y-80754200D01*
X59153210Y-80280980D01*
X59413634Y-80280980D01*
X59491759Y-80286144D01*
G37*
G36*
X59850951Y-81301610D02*
G01*
X60184159Y-80394370D01*
X59871956Y-80394370D01*
X59871956Y-80280980D01*
X60352137Y-80280980D01*
X60352137Y-80349612D01*
X60000794Y-81301610D01*
X60352137Y-81301610D01*
X60352137Y-81415000D01*
X59850951Y-81415000D01*
X59850951Y-81301610D01*
G37*
G36*
X60620438Y-80476985D02*
G01*
X60609206Y-80481188D01*
X60535686Y-80496585D01*
X60423029Y-80517590D01*
X60423029Y-80404200D01*
X60509692Y-80378364D01*
X60574939Y-80348720D01*
X60622872Y-80316152D01*
X60656830Y-80280980D01*
X60770220Y-80280980D01*
X60770220Y-81415000D01*
X60620438Y-81415000D01*
X60620438Y-80476985D01*
G37*
X62073866Y-78130951D02*
X62073866Y-77369047D01*
X62454819Y-77749999D02*
X61692914Y-77749999D01*
G36*
X48265482Y-75529086D02*
G01*
X48320824Y-75540773D01*
X48363956Y-75558446D01*
X48397222Y-75581351D01*
X48423757Y-75611583D01*
X48443775Y-75650817D01*
X48456856Y-75701216D01*
X48461653Y-75765607D01*
X48457662Y-75826669D01*
X48446800Y-75874590D01*
X48430317Y-75911895D01*
X48408816Y-75940622D01*
X48382191Y-75962190D01*
X48349644Y-75977268D01*
X48478457Y-76432000D01*
X48356336Y-76432000D01*
X48237634Y-76006382D01*
X48139057Y-76006382D01*
X48139057Y-76432000D01*
X48012491Y-76432000D01*
X48012491Y-75915670D01*
X48139057Y-75915670D01*
X48187222Y-75915670D01*
X48240973Y-75911296D01*
X48278584Y-75899906D01*
X48304263Y-75883186D01*
X48322304Y-75858856D01*
X48334701Y-75821386D01*
X48339532Y-75765607D01*
X48336038Y-75712754D01*
X48327222Y-75677680D01*
X48310201Y-75650026D01*
X48283552Y-75630639D01*
X48248634Y-75619795D01*
X48195087Y-75615496D01*
X48139057Y-75615496D01*
X48139057Y-75915670D01*
X48012491Y-75915670D01*
X48012491Y-75524784D01*
X48195087Y-75524784D01*
X48265482Y-75529086D01*
G37*
G36*
X48568583Y-76346856D02*
G01*
X48799295Y-75987380D01*
X48821716Y-75953772D01*
X48857337Y-75893154D01*
X48878820Y-75849627D01*
X48891970Y-75805582D01*
X48896748Y-75749927D01*
X48893960Y-75706877D01*
X48886517Y-75674396D01*
X48875450Y-75650227D01*
X48858702Y-75631248D01*
X48836214Y-75619675D01*
X48806036Y-75615496D01*
X48774598Y-75619706D01*
X48749584Y-75631623D01*
X48729402Y-75651442D01*
X48713541Y-75680953D01*
X48702672Y-75723253D01*
X48698520Y-75782411D01*
X48698520Y-75812648D01*
X48578646Y-75812648D01*
X48578646Y-75781288D01*
X48582515Y-75716430D01*
X48593205Y-75663427D01*
X48609662Y-75620278D01*
X48631305Y-75585307D01*
X48660039Y-75556607D01*
X48696520Y-75535462D01*
X48742496Y-75521892D01*
X48800418Y-75516968D01*
X48853918Y-75521293D01*
X48897656Y-75533345D01*
X48933487Y-75552279D01*
X48962791Y-75578029D01*
X48985733Y-75609814D01*
X49002830Y-75648288D01*
X49013772Y-75694803D01*
X49017697Y-75751050D01*
X49014308Y-75804213D01*
X49004801Y-75849041D01*
X48990240Y-75890299D01*
X48974026Y-75923535D01*
X48918046Y-76013123D01*
X48709706Y-76331176D01*
X48996448Y-76331176D01*
X48996448Y-76432000D01*
X48568583Y-76432000D01*
X48568583Y-76346856D01*
G37*
G36*
X45172421Y-80777294D02*
G01*
X45177176Y-80708765D01*
X45190354Y-80652852D01*
X45210808Y-80607303D01*
X45238091Y-80570322D01*
X45272500Y-80540684D01*
X45323329Y-80512430D01*
X45384931Y-80490976D01*
X45459351Y-80477104D01*
X45548982Y-80472112D01*
X45949419Y-80472112D01*
X46044796Y-80477164D01*
X46121709Y-80491007D01*
X46183281Y-80512052D01*
X46232191Y-80539279D01*
X46265077Y-80568194D01*
X46291363Y-80604806D01*
X46311227Y-80650481D01*
X46324115Y-80707173D01*
X46328789Y-80777294D01*
X46322698Y-80853807D01*
X46306057Y-80913687D01*
X46280446Y-80960365D01*
X46246174Y-80996380D01*
X46203784Y-81023584D01*
X46150673Y-81044363D01*
X46084535Y-81057936D01*
X46002602Y-81062875D01*
X45913026Y-81062875D01*
X45913026Y-80913093D01*
X45992772Y-80913093D01*
X46066610Y-80911060D01*
X46113183Y-80906071D01*
X46151458Y-80893429D01*
X46180411Y-80870411D01*
X46193462Y-80849683D01*
X46202275Y-80820099D01*
X46205629Y-80778698D01*
X46202073Y-80736521D01*
X46192585Y-80705424D01*
X46178274Y-80682772D01*
X46146532Y-80657127D01*
X46102681Y-80641434D01*
X46050286Y-80634431D01*
X45973171Y-80631664D01*
X45523825Y-80631664D01*
X45441751Y-80635665D01*
X45387965Y-80645647D01*
X45344644Y-80664944D01*
X45317990Y-80691198D01*
X45302789Y-80726598D01*
X45296985Y-80778698D01*
X45300429Y-80818021D01*
X45309641Y-80847061D01*
X45323607Y-80868274D01*
X45354352Y-80891879D01*
X45396392Y-80905399D01*
X45446814Y-80910902D01*
X45522421Y-80913093D01*
X45606379Y-80913093D01*
X45606379Y-81062875D01*
X45522421Y-81062875D01*
X45435911Y-81058141D01*
X45365499Y-81045107D01*
X45308513Y-81025168D01*
X45262669Y-80999188D01*
X45225157Y-80963937D01*
X45197250Y-80917256D01*
X45179096Y-80856356D01*
X45172421Y-80777294D01*
G37*
G36*
X45291428Y-81183286D02*
G01*
X45740774Y-81471676D01*
X45782784Y-81499703D01*
X45858557Y-81544230D01*
X45912965Y-81571083D01*
X45968021Y-81587520D01*
X46037590Y-81593492D01*
X46091403Y-81590008D01*
X46132004Y-81580704D01*
X46162215Y-81566870D01*
X46185939Y-81545935D01*
X46200405Y-81517825D01*
X46205629Y-81480103D01*
X46200367Y-81440805D01*
X46185470Y-81409538D01*
X46160697Y-81384310D01*
X46123807Y-81364484D01*
X46070932Y-81350898D01*
X45996985Y-81345708D01*
X45959188Y-81345708D01*
X45959188Y-81195865D01*
X45998389Y-81195865D01*
X46079462Y-81200701D01*
X46145716Y-81214064D01*
X46199651Y-81234636D01*
X46243365Y-81261688D01*
X46279241Y-81297606D01*
X46305671Y-81343208D01*
X46322634Y-81400678D01*
X46328789Y-81473081D01*
X46323382Y-81539956D01*
X46308318Y-81594627D01*
X46284650Y-81639417D01*
X46252463Y-81676046D01*
X46212731Y-81704724D01*
X46164638Y-81726095D01*
X46106496Y-81739773D01*
X46036186Y-81744679D01*
X45969733Y-81740442D01*
X45913698Y-81728559D01*
X45862125Y-81710358D01*
X45820580Y-81690090D01*
X45708595Y-81620115D01*
X45311029Y-81359691D01*
X45311029Y-81718117D01*
X45185000Y-81718117D01*
X45185000Y-81183286D01*
X45291428Y-81183286D01*
G37*
G36*
X63111866Y-54566010D02*
G01*
X63172842Y-54578358D01*
X63220971Y-54597098D01*
X63258629Y-54621423D01*
X63288955Y-54653804D01*
X63311714Y-54696016D01*
X63326555Y-54750433D01*
X63332000Y-54820237D01*
X63332000Y-55027452D01*
X62424784Y-55027452D01*
X62424784Y-54832546D01*
X62518866Y-54832546D01*
X62518866Y-54900886D01*
X63241288Y-54900886D01*
X63241288Y-54829176D01*
X63237843Y-54785719D01*
X63228825Y-54754867D01*
X63215545Y-54733433D01*
X63196678Y-54716385D01*
X63173642Y-54704060D01*
X63145545Y-54696454D01*
X63095595Y-54691320D01*
X63011699Y-54689176D01*
X62717143Y-54689176D01*
X62644369Y-54691945D01*
X62598978Y-54698701D01*
X62573372Y-54707704D01*
X62553560Y-54720931D01*
X62538503Y-54738464D01*
X62528472Y-54759679D01*
X62521530Y-54790077D01*
X62518866Y-54832546D01*
X62424784Y-54832546D01*
X62424784Y-54830299D01*
X62429940Y-54755610D01*
X62443835Y-54698377D01*
X62464760Y-54654971D01*
X62492000Y-54622546D01*
X62526885Y-54597690D01*
X62571776Y-54578631D01*
X62629012Y-54566088D01*
X62701462Y-54561486D01*
X63035196Y-54561486D01*
X63111866Y-54566010D01*
G37*
G36*
X62581588Y-54316364D02*
G01*
X62584951Y-54325349D01*
X62597268Y-54384165D01*
X62614072Y-54474291D01*
X62523360Y-54474291D01*
X62502691Y-54404961D01*
X62478976Y-54352763D01*
X62452922Y-54314417D01*
X62424784Y-54287250D01*
X62424784Y-54196538D01*
X63332000Y-54196538D01*
X63332000Y-54316364D01*
X62581588Y-54316364D01*
G37*
G36*
X63113688Y-53555680D02*
G01*
X63170907Y-53566627D01*
X63219543Y-53583785D01*
X63260876Y-53606692D01*
X63295865Y-53637297D01*
X63320857Y-53674802D01*
X63336486Y-53720606D01*
X63342062Y-53776929D01*
X63336501Y-53831314D01*
X63320808Y-53876122D01*
X63295494Y-53913381D01*
X63259752Y-53944333D01*
X63217833Y-53967518D01*
X63168788Y-53984840D01*
X63111387Y-53995864D01*
X63044184Y-53999776D01*
X62738392Y-53999776D01*
X62663705Y-53996044D01*
X62600922Y-53985632D01*
X62548313Y-53969499D01*
X62504358Y-53948290D01*
X62473274Y-53925293D01*
X62449347Y-53897501D01*
X62431892Y-53864303D01*
X62420885Y-53824606D01*
X62416968Y-53776929D01*
X62420992Y-53724411D01*
X62432256Y-53680849D01*
X62449994Y-53644628D01*
X62474072Y-53614507D01*
X62504169Y-53590356D01*
X62540567Y-53572210D01*
X62584511Y-53560228D01*
X62637617Y-53555156D01*
X62651050Y-53554033D01*
X62651050Y-53674982D01*
X62604935Y-53678007D01*
X62571810Y-53685915D01*
X62548566Y-53697403D01*
X62531026Y-53714930D01*
X62519739Y-53740448D01*
X62515496Y-53776929D01*
X62519887Y-53805611D01*
X62532605Y-53829057D01*
X62554510Y-53848639D01*
X62588314Y-53864521D01*
X62638162Y-53875647D01*
X62709278Y-53879950D01*
X62847031Y-53879950D01*
X62821302Y-53858316D01*
X62801113Y-53827878D01*
X62788710Y-53791690D01*
X62787231Y-53776929D01*
X62875021Y-53776929D01*
X62879599Y-53809847D01*
X62892949Y-53837941D01*
X62912977Y-53861749D01*
X62936619Y-53879950D01*
X63072174Y-53879950D01*
X63123400Y-53876885D01*
X63164007Y-53868532D01*
X63195956Y-53855868D01*
X63221827Y-53836324D01*
X63237036Y-53810688D01*
X63242411Y-53776929D01*
X63237041Y-53742343D01*
X63221949Y-53716360D01*
X63196494Y-53696817D01*
X63164935Y-53684114D01*
X63125208Y-53675780D01*
X63075496Y-53672735D01*
X63010720Y-53674327D01*
X62966905Y-53678352D01*
X62929473Y-53688448D01*
X62900813Y-53706343D01*
X62887110Y-53723046D01*
X62878290Y-53745896D01*
X62875021Y-53776929D01*
X62787231Y-53776929D01*
X62784309Y-53747766D01*
X62789163Y-53695225D01*
X62802520Y-53654007D01*
X62823410Y-53621668D01*
X62852062Y-53596580D01*
X62886268Y-53578375D01*
X62928874Y-53564335D01*
X62981588Y-53555132D01*
X63046382Y-53551786D01*
X63113688Y-53555680D01*
G37*
G36*
X63724783Y-69411305D02*
G01*
X63771518Y-69464124D01*
X63802386Y-69511521D01*
X63820388Y-69554516D01*
X63827715Y-69594235D01*
X63825101Y-69634376D01*
X63811513Y-69676273D01*
X63785125Y-69721160D01*
X63742986Y-69770084D01*
X63696986Y-69810438D01*
X63655421Y-69836644D01*
X63617387Y-69851367D01*
X63581870Y-69856476D01*
X63547792Y-69852901D01*
X63514116Y-69840548D01*
X63283658Y-70253177D01*
X63197305Y-70166824D01*
X63414327Y-69781932D01*
X63344623Y-69712228D01*
X63043666Y-70013185D01*
X62954170Y-69923689D01*
X63229774Y-69648085D01*
X63408766Y-69648085D01*
X63442823Y-69682142D01*
X63483924Y-69717057D01*
X63518572Y-69735598D01*
X63548554Y-69741933D01*
X63578514Y-69737486D01*
X63613776Y-69719757D01*
X63656633Y-69683731D01*
X63691535Y-69643887D01*
X63710103Y-69612853D01*
X63717621Y-69581263D01*
X63712486Y-69548710D01*
X63695463Y-69516352D01*
X63660640Y-69475448D01*
X63621021Y-69435829D01*
X63408766Y-69648085D01*
X63229774Y-69648085D01*
X63595668Y-69282190D01*
X63724783Y-69411305D01*
G37*
G36*
X63980975Y-69889251D02*
G01*
X63972243Y-69885275D01*
X63921944Y-69852396D01*
X63846333Y-69800549D01*
X63910476Y-69736406D01*
X63974115Y-69770815D01*
X64027794Y-69790955D01*
X64073332Y-69799647D01*
X64112438Y-69798960D01*
X64176581Y-69863103D01*
X63535083Y-70504602D01*
X63450353Y-70419872D01*
X63980975Y-69889251D01*
G37*
G36*
X64370663Y-70091923D02*
G01*
X64406481Y-70103056D01*
X64442334Y-70123343D01*
X64478816Y-70154285D01*
X64513107Y-70194267D01*
X64535944Y-70233034D01*
X64549015Y-70271189D01*
X64553287Y-70309513D01*
X64549083Y-70347873D01*
X64536177Y-70386441D01*
X64513576Y-70425987D01*
X64479611Y-70467125D01*
X64470906Y-70477418D01*
X64385382Y-70391894D01*
X64415851Y-70357146D01*
X64433683Y-70328132D01*
X64441995Y-70303572D01*
X64442005Y-70278776D01*
X64431942Y-70252751D01*
X64409147Y-70223955D01*
X64385760Y-70206778D01*
X64360188Y-70199193D01*
X64330853Y-70200836D01*
X64295719Y-70213508D01*
X64252604Y-70240889D01*
X64199275Y-70288132D01*
X64101869Y-70385538D01*
X64135360Y-70382643D01*
X64171158Y-70389891D01*
X64205517Y-70406708D01*
X64239688Y-70434656D01*
X64273408Y-70475241D01*
X64293109Y-70513830D01*
X64301204Y-70551469D01*
X64298684Y-70589469D01*
X64287370Y-70626530D01*
X64267170Y-70666584D01*
X64236404Y-70710366D01*
X64192954Y-70758548D01*
X64142607Y-70803387D01*
X64094407Y-70836107D01*
X64047883Y-70858365D01*
X64002459Y-70871394D01*
X63956077Y-70874494D01*
X63911885Y-70865646D01*
X63868445Y-70844308D01*
X63824676Y-70808426D01*
X63790152Y-70766037D01*
X63769565Y-70723256D01*
X63761575Y-70681407D01*
X63867696Y-70681407D01*
X63875069Y-70710290D01*
X63895140Y-70737962D01*
X63923393Y-70758620D01*
X63952437Y-70766321D01*
X63984256Y-70762141D01*
X64015554Y-70748808D01*
X64049538Y-70726609D01*
X64086843Y-70693611D01*
X64131521Y-70646682D01*
X64159656Y-70612854D01*
X64178986Y-70579246D01*
X64186598Y-70546327D01*
X64184477Y-70524827D01*
X64174556Y-70502433D01*
X64154924Y-70478178D01*
X64128410Y-70458138D01*
X64099105Y-70447712D01*
X64068108Y-70445040D01*
X64038520Y-70448887D01*
X63942668Y-70544739D01*
X63908614Y-70583128D01*
X63885807Y-70617748D01*
X63872170Y-70649295D01*
X63867696Y-70681407D01*
X63761575Y-70681407D01*
X63761118Y-70679011D01*
X63764505Y-70631851D01*
X63777752Y-70585815D01*
X63800184Y-70538886D01*
X63832978Y-70490503D01*
X63877731Y-70440217D01*
X64093959Y-70223989D01*
X64149409Y-70173817D01*
X64201166Y-70136785D01*
X64249774Y-70110992D01*
X64295852Y-70094909D01*
X64334093Y-70089190D01*
X64370663Y-70091923D01*
G37*
G36*
X61965459Y-65365456D02*
G01*
X62010678Y-65383722D01*
X62060020Y-65415324D01*
X62114504Y-65463300D01*
X62350489Y-65699285D01*
X62401503Y-65756698D01*
X62435889Y-65808546D01*
X62456670Y-65855830D01*
X62466098Y-65899658D01*
X62464645Y-65943999D01*
X62450890Y-65989940D01*
X62422905Y-66038913D01*
X62377396Y-66092122D01*
X62230873Y-66238645D01*
X61589374Y-65597147D01*
X61612344Y-65574177D01*
X61745397Y-65574177D01*
X62256226Y-66085006D01*
X62306932Y-66034300D01*
X62335225Y-66001135D01*
X62350664Y-65972943D01*
X62356430Y-65948396D01*
X62355143Y-65923001D01*
X62347569Y-65897997D01*
X62333080Y-65872751D01*
X62301391Y-65833800D01*
X62243584Y-65772961D01*
X62035301Y-65564678D01*
X61981884Y-65515177D01*
X61945010Y-65487859D01*
X61920539Y-65476119D01*
X61897176Y-65471462D01*
X61874132Y-65473213D01*
X61852038Y-65481121D01*
X61825634Y-65497707D01*
X61793720Y-65525854D01*
X61745397Y-65574177D01*
X61612344Y-65574177D01*
X61728783Y-65457739D01*
X61785242Y-65408572D01*
X61835537Y-65377926D01*
X61881026Y-65362030D01*
X61923215Y-65358364D01*
X61965459Y-65365456D01*
G37*
G36*
X62203067Y-65205208D02*
G01*
X62199091Y-65213940D01*
X62166212Y-65264239D01*
X62114365Y-65339850D01*
X62050223Y-65275707D01*
X62084631Y-65212068D01*
X62104771Y-65158389D01*
X62113463Y-65112851D01*
X62112777Y-65073745D01*
X62176919Y-65009602D01*
X62818418Y-65651100D01*
X62733688Y-65735830D01*
X62203067Y-65205208D01*
G37*
G36*
X63110394Y-65371766D02*
G01*
X63065409Y-65409859D01*
X63023424Y-65432975D01*
X62983402Y-65443826D01*
X62944079Y-65443853D01*
X62905340Y-65434468D01*
X62863814Y-65415481D01*
X62818643Y-65385085D01*
X62769059Y-65340886D01*
X62853788Y-65256157D01*
X62891499Y-65290111D01*
X62924934Y-65313347D01*
X62954786Y-65327864D01*
X62977697Y-65332966D01*
X62999646Y-65330854D01*
X63021685Y-65321339D01*
X63044662Y-65302925D01*
X63063102Y-65279783D01*
X63072357Y-65257649D01*
X63073988Y-65235605D01*
X63065337Y-65201626D01*
X63043902Y-65165106D01*
X63013096Y-65128054D01*
X62964665Y-65077164D01*
X62917336Y-65032745D01*
X62882319Y-65005111D01*
X62847809Y-64986853D01*
X62817347Y-64981382D01*
X62797893Y-64984446D01*
X62777553Y-64994202D01*
X62755587Y-65012261D01*
X62736263Y-65039162D01*
X62727505Y-65070463D01*
X62728156Y-65103658D01*
X62737384Y-65136575D01*
X62665297Y-65208662D01*
X62321578Y-64864943D01*
X62597976Y-64588545D01*
X62682740Y-64673309D01*
X62483161Y-64872888D01*
X62655004Y-65055783D01*
X62657830Y-65022419D01*
X62667847Y-64990336D01*
X62685547Y-64958868D01*
X62712031Y-64927532D01*
X62751682Y-64894962D01*
X62790004Y-64876235D01*
X62828070Y-64869113D01*
X62867259Y-64872888D01*
X62905380Y-64885428D01*
X62946181Y-64906612D01*
X62990297Y-64937954D01*
X63038307Y-64981347D01*
X63091692Y-65040036D01*
X63130442Y-65093421D01*
X63156890Y-65142239D01*
X63172948Y-65187281D01*
X63178530Y-65224628D01*
X63175579Y-65260884D01*
X63163998Y-65296980D01*
X63142842Y-65333730D01*
X63110394Y-65371766D01*
G37*
G36*
X55298939Y-63385461D02*
G01*
X55348106Y-63441920D01*
X55378751Y-63492216D01*
X55394647Y-63537704D01*
X55398314Y-63579893D01*
X55391222Y-63622138D01*
X55372956Y-63667356D01*
X55341353Y-63716698D01*
X55293378Y-63771182D01*
X55057393Y-64007167D01*
X54999979Y-64058182D01*
X54948132Y-64092568D01*
X54900848Y-64113348D01*
X54857019Y-64122777D01*
X54812678Y-64121323D01*
X54766737Y-64107568D01*
X54717765Y-64079584D01*
X54664556Y-64034075D01*
X54543386Y-63912905D01*
X54671672Y-63912905D01*
X54722378Y-63963611D01*
X54755543Y-63991903D01*
X54783735Y-64007343D01*
X54808282Y-64013108D01*
X54833677Y-64011822D01*
X54858681Y-64004248D01*
X54883927Y-63989759D01*
X54922877Y-63958069D01*
X54983716Y-63900263D01*
X55191999Y-63691979D01*
X55241500Y-63638563D01*
X55268819Y-63601689D01*
X55280559Y-63577217D01*
X55285215Y-63553855D01*
X55283464Y-63530810D01*
X55275557Y-63508716D01*
X55258971Y-63482313D01*
X55230824Y-63450399D01*
X55182501Y-63402075D01*
X54671672Y-63912905D01*
X54543386Y-63912905D01*
X54518032Y-63887551D01*
X55159531Y-63246053D01*
X55298939Y-63385461D01*
G37*
G36*
X55071554Y-64453715D02*
G01*
X55033461Y-64408730D01*
X55010346Y-64366745D01*
X54999494Y-64326723D01*
X54999467Y-64287400D01*
X55008852Y-64248662D01*
X55027839Y-64207135D01*
X55058235Y-64161964D01*
X55102434Y-64112380D01*
X55187164Y-64197109D01*
X55153210Y-64234820D01*
X55129973Y-64268255D01*
X55115456Y-64298108D01*
X55110354Y-64321018D01*
X55112466Y-64342967D01*
X55121981Y-64365006D01*
X55140395Y-64387984D01*
X55163538Y-64406423D01*
X55185671Y-64415678D01*
X55207716Y-64417309D01*
X55241694Y-64408658D01*
X55278214Y-64387224D01*
X55315266Y-64356417D01*
X55366156Y-64307986D01*
X55410575Y-64260657D01*
X55438209Y-64225640D01*
X55456467Y-64191130D01*
X55461939Y-64160668D01*
X55458875Y-64141214D01*
X55449118Y-64120874D01*
X55431059Y-64098909D01*
X55404159Y-64079584D01*
X55372857Y-64070827D01*
X55339663Y-64071477D01*
X55306745Y-64080706D01*
X55234658Y-64008618D01*
X55578377Y-63664899D01*
X55854775Y-63941297D01*
X55770011Y-64026061D01*
X55570432Y-63826483D01*
X55387537Y-63998325D01*
X55420901Y-64001152D01*
X55452985Y-64011168D01*
X55484453Y-64028869D01*
X55515788Y-64055352D01*
X55548358Y-64095003D01*
X55567085Y-64133325D01*
X55574207Y-64171392D01*
X55570432Y-64210580D01*
X55557892Y-64248701D01*
X55536709Y-64289502D01*
X55505367Y-64333619D01*
X55461973Y-64381628D01*
X55403284Y-64435014D01*
X55349899Y-64473763D01*
X55301081Y-64500211D01*
X55256039Y-64516269D01*
X55218692Y-64521851D01*
X55182437Y-64518900D01*
X55146341Y-64507319D01*
X55109590Y-64486163D01*
X55071554Y-64453715D01*
G37*
D13*
%TO.C,U1*%
X57010000Y-58580000D02*
X56680000Y-58820000D01*
X56680000Y-58340000D01*
X57010000Y-58580000D01*
G36*
X57010000Y-58580000D02*
G01*
X56680000Y-58820000D01*
X56680000Y-58340000D01*
X57010000Y-58580000D01*
G37*
X60230000Y-58580000D02*
X59780000Y-58580000D01*
X60230000Y-58130000D02*
X60230000Y-58580000D01*
X60230000Y-55810000D02*
X60230000Y-55360000D01*
X60230000Y-55360000D02*
X59780000Y-55360000D01*
X57460000Y-58580000D02*
X57250000Y-58580000D01*
X57010000Y-58130000D02*
X57010000Y-58280000D01*
X57010000Y-55810000D02*
X57010000Y-55360000D01*
X57010000Y-55360000D02*
X57460000Y-55360000D01*
%TO.C,U2*%
X44352500Y-79940000D02*
X44352500Y-79660000D01*
X44632500Y-79660000D01*
X44352500Y-79940000D01*
G36*
X44352500Y-79940000D02*
G01*
X44352500Y-79660000D01*
X44632500Y-79660000D01*
X44352500Y-79940000D01*
G37*
X44112500Y-79760000D02*
X42112500Y-79760000D01*
X44112500Y-77540000D02*
X42112500Y-77540000D01*
%TO.C,R18*%
X64122659Y-64160060D02*
X64339940Y-64377341D01*
X64660060Y-63622659D02*
X64877341Y-63839940D01*
%TO.C,C1*%
X39090000Y-79063748D02*
X39090000Y-80486252D01*
X40910000Y-79063748D02*
X40910000Y-80486252D01*
%TO.C,R6*%
X52839940Y-66622659D02*
X52622659Y-66839940D01*
X53377341Y-67160060D02*
X53160060Y-67377341D01*
%TO.C,R13*%
X52639940Y-52277341D02*
X52422659Y-52060060D01*
X53177341Y-51739940D02*
X52960060Y-51522659D01*
%TO.C,D14*%
X63037401Y-66760517D02*
X61156497Y-68641421D01*
X64239483Y-67962599D02*
X62358579Y-69843503D01*
X64239483Y-67962599D02*
X63037401Y-66760517D01*
%TO.C,R20*%
X64122659Y-59160060D02*
X64339940Y-59377341D01*
X64660060Y-58622659D02*
X64877341Y-58839940D01*
%TO.C,D17*%
X58690000Y-52750000D02*
X58690000Y-54450000D01*
X58690000Y-52750000D02*
X61350000Y-52750000D01*
X58690000Y-54450000D02*
X61350000Y-54450000D01*
%TO.C,R12*%
X52839940Y-54377341D02*
X52622659Y-54160060D01*
X53377341Y-53839940D02*
X53160060Y-53622659D01*
%TO.C,D4*%
X56260517Y-65462599D02*
X58141421Y-67343503D01*
X57462599Y-64260517D02*
X56260517Y-65462599D01*
X57462599Y-64260517D02*
X59343503Y-66141421D01*
%TO.C,Q1*%
X49950000Y-79700000D02*
X49950000Y-83300000D01*
X49950000Y-83300000D02*
X53550000Y-83300000D01*
X53550000Y-79700000D02*
X49950000Y-79700000D01*
X53550000Y-83300000D02*
X53550000Y-79700000D01*
%TO.C,R1*%
X47227500Y-79987258D02*
X47227500Y-79512742D01*
X48272500Y-79987258D02*
X48272500Y-79512742D01*
%TO.C,D7*%
X56360517Y-60462599D02*
X58241421Y-62343503D01*
X57562599Y-59260517D02*
X56360517Y-60462599D01*
X57562599Y-59260517D02*
X59443503Y-61141421D01*
%TO.C,D11*%
X54260517Y-49337401D02*
X55462599Y-50539483D01*
X54260517Y-49337401D02*
X56141421Y-47456497D01*
X55462599Y-50539483D02*
X57343503Y-48658579D01*
%TO.C,D2*%
X53260517Y-68462599D02*
X55141421Y-70343503D01*
X54462599Y-67260517D02*
X53260517Y-68462599D01*
X54462599Y-67260517D02*
X56343503Y-69141421D01*
%TO.C,J3*%
X44540000Y-87380000D02*
X44540000Y-86000000D01*
X45920000Y-87380000D02*
X44540000Y-87380000D01*
X47190000Y-84620000D02*
X52380000Y-84620000D01*
X47190000Y-87380000D02*
X47190000Y-84620000D01*
X47190000Y-87380000D02*
X52380000Y-87380000D01*
X52380000Y-87380000D02*
X52380000Y-84620000D01*
%TO.C,R3*%
X53237258Y-74727500D02*
X52762742Y-74727500D01*
X53237258Y-75772500D02*
X52762742Y-75772500D01*
%TO.C,D10*%
X53260517Y-53137401D02*
X54462599Y-54339483D01*
X53260517Y-53137401D02*
X55141421Y-51256497D01*
X54462599Y-54339483D02*
X56343503Y-52458579D01*
%TO.C,D12*%
X54890000Y-44650000D02*
X54890000Y-46350000D01*
X54890000Y-44650000D02*
X57550000Y-44650000D01*
X54890000Y-46350000D02*
X57550000Y-46350000D01*
%TO.C,R14*%
X52839940Y-49377341D02*
X52622659Y-49160060D01*
X53377341Y-48839940D02*
X53160060Y-48622659D01*
%TO.C,D6*%
X54860517Y-61962599D02*
X56741421Y-63843503D01*
X56062599Y-60760517D02*
X54860517Y-61962599D01*
X56062599Y-60760517D02*
X57943503Y-62641421D01*
%TO.C,R5*%
X52839940Y-69122659D02*
X52622659Y-69339940D01*
X53377341Y-69660060D02*
X53160060Y-69877341D01*
%TO.C,D9*%
X54560517Y-54837401D02*
X55762599Y-56039483D01*
X54560517Y-54837401D02*
X56441421Y-52956497D01*
X55762599Y-56039483D02*
X57643503Y-54158579D01*
%TO.C,D8*%
X54450000Y-56290000D02*
X54450000Y-58950000D01*
X56150000Y-56290000D02*
X54450000Y-56290000D01*
X56150000Y-56290000D02*
X56150000Y-58950000D01*
%TO.C,D3*%
X54760517Y-66962599D02*
X56641421Y-68843503D01*
X55962599Y-65760517D02*
X54760517Y-66962599D01*
X55962599Y-65760517D02*
X57843503Y-67641421D01*
%TO.C,R4*%
X53237258Y-76477500D02*
X52762742Y-76477500D01*
X53237258Y-77522500D02*
X52762742Y-77522500D01*
%TO.C,R8*%
X52839940Y-61622659D02*
X52622659Y-61839940D01*
X53377341Y-62160060D02*
X53160060Y-62377341D01*
%TO.C,R15*%
X52839940Y-46877341D02*
X52622659Y-46660060D01*
X53377341Y-46339940D02*
X53160060Y-46122659D01*
%TO.C,R9*%
X52839940Y-59122659D02*
X52622659Y-59339940D01*
X53377341Y-59660060D02*
X53160060Y-59877341D01*
%TO.C,R11*%
X53153641Y-55320000D02*
X52846359Y-55320000D01*
X53153641Y-56080000D02*
X52846359Y-56080000D01*
%TO.C,D13*%
X60760517Y-71962599D02*
X62641421Y-73843503D01*
X61962599Y-70760517D02*
X60760517Y-71962599D01*
X61962599Y-70760517D02*
X63843503Y-72641421D01*
%TO.C,R19*%
X64122659Y-61660060D02*
X64339940Y-61877341D01*
X64660060Y-61122659D02*
X64877341Y-61339940D01*
%TO.C,C3*%
X60642164Y-58890000D02*
X60857836Y-58890000D01*
X60642164Y-59610000D02*
X60857836Y-59610000D01*
%TO.C,R17*%
X64122659Y-67160060D02*
X64339940Y-67377341D01*
X64660060Y-66622659D02*
X64877341Y-66839940D01*
%TO.C,R10*%
X53153641Y-57120000D02*
X52846359Y-57120000D01*
X53153641Y-57880000D02*
X52846359Y-57880000D01*
%TO.C,R7*%
X52739940Y-64222659D02*
X52522659Y-64439940D01*
X53277341Y-64760060D02*
X53060060Y-64977341D01*
%TO.C,D1*%
X65650000Y-74890000D02*
X65650000Y-77550000D01*
X67350000Y-74890000D02*
X65650000Y-74890000D01*
X67350000Y-74890000D02*
X67350000Y-77550000D01*
%TO.C,J1*%
X49620000Y-39825000D02*
X49620000Y-74115000D01*
X49620000Y-74115000D02*
X67620000Y-74115000D01*
X57620000Y-39825000D02*
X49620000Y-39825000D01*
X67620000Y-39825000D02*
X59620000Y-39825000D01*
X67620000Y-74115000D02*
X67620000Y-39825000D01*
X59620000Y-39825000D02*
G75*
G02*
X57620000Y-39825000I-1000000J0D01*
G01*
%TO.C,BZ1*%
X66100000Y-81000000D02*
G75*
G02*
X53900000Y-81000000I-6100000J0D01*
G01*
X53900000Y-81000000D02*
G75*
G02*
X66100000Y-81000000I6100000J0D01*
G01*
%TO.C,R2*%
X48262742Y-76727500D02*
X48737258Y-76727500D01*
X48262742Y-77772500D02*
X48737258Y-77772500D01*
%TO.C,C2*%
X45015000Y-78911252D02*
X45015000Y-78388748D01*
X46485000Y-78911252D02*
X46485000Y-78388748D01*
%TO.C,D16*%
X62150000Y-55910000D02*
X62150000Y-53250000D01*
X62150000Y-55910000D02*
X63850000Y-55910000D01*
X63850000Y-55910000D02*
X63850000Y-53250000D01*
%TO.C,R16*%
X64122659Y-69560060D02*
X64339940Y-69777341D01*
X64660060Y-69022659D02*
X64877341Y-69239940D01*
%TO.C,D15*%
X63037401Y-63760517D02*
X61156497Y-65641421D01*
X64239483Y-64962599D02*
X62358579Y-66843503D01*
X64239483Y-64962599D02*
X63037401Y-63760517D01*
%TO.C,D5*%
X53360517Y-63462599D02*
X55241421Y-65343503D01*
X54562599Y-62260517D02*
X53360517Y-63462599D01*
X54562599Y-62260517D02*
X56443503Y-64141421D01*
%TD*%
%LPC*%
D14*
%TO.C,U1*%
X58620000Y-56970000D03*
D15*
X57170000Y-57770000D03*
X57170000Y-57370000D03*
X57170000Y-56970000D03*
X57170000Y-56570000D03*
X57170000Y-56170000D03*
D16*
X57820000Y-55520000D03*
X58220000Y-55520000D03*
X58620000Y-55520000D03*
X59020000Y-55520000D03*
X59420000Y-55520000D03*
D15*
X60070000Y-56170000D03*
X60070000Y-56570000D03*
X60070000Y-56970000D03*
X60070000Y-57370000D03*
X60070000Y-57770000D03*
D16*
X59420000Y-58420000D03*
X59020000Y-58420000D03*
X58620000Y-58420000D03*
X58220000Y-58420000D03*
X57820000Y-58420000D03*
%TD*%
D17*
%TO.C,U2*%
X43112500Y-78650000D03*
D18*
X42225000Y-79300000D03*
X42225000Y-78650000D03*
X42225000Y-78000000D03*
X44000000Y-78000000D03*
X44000000Y-78650000D03*
X44000000Y-79300000D03*
%TD*%
D19*
%TO.C,R18*%
X64139376Y-63639376D03*
X64860624Y-64360624D03*
%TD*%
D20*
%TO.C,J2*%
X37400000Y-78300000D03*
D21*
X37400000Y-82000000D03*
X37400000Y-85700000D03*
%TD*%
D22*
%TO.C,C1*%
X40000000Y-78300000D03*
X40000000Y-81250000D03*
%TD*%
D23*
%TO.C,R6*%
X53360624Y-66639376D03*
X52639376Y-67360624D03*
%TD*%
D24*
%TO.C,R13*%
X53160624Y-52260624D03*
X52439376Y-51539376D03*
%TD*%
D25*
%TO.C,D14*%
X63242462Y-67757538D03*
X61757538Y-69242462D03*
%TD*%
D19*
%TO.C,R20*%
X64139376Y-58639376D03*
X64860624Y-59360624D03*
%TD*%
D26*
%TO.C,D17*%
X59250000Y-53600000D03*
X61350000Y-53600000D03*
%TD*%
D24*
%TO.C,R12*%
X53360624Y-54360624D03*
X52639376Y-53639376D03*
%TD*%
D27*
%TO.C,D4*%
X57257538Y-65257538D03*
X58742462Y-66742462D03*
%TD*%
D28*
%TO.C,Q1*%
X50750000Y-80550000D03*
X50750000Y-82450000D03*
X52750000Y-81500000D03*
%TD*%
D29*
%TO.C,R1*%
X47750000Y-80575000D03*
X47750000Y-78925000D03*
%TD*%
D27*
%TO.C,D7*%
X57357538Y-60257538D03*
X58842462Y-61742462D03*
%TD*%
D30*
%TO.C,D11*%
X55257538Y-49542462D03*
X56742462Y-48057538D03*
%TD*%
D27*
%TO.C,D2*%
X54257538Y-68257538D03*
X55742462Y-69742462D03*
%TD*%
D31*
%TO.C,J3*%
X45920000Y-86000000D03*
D21*
X48460000Y-86000000D03*
X51000000Y-86000000D03*
%TD*%
D32*
%TO.C,R3*%
X53825000Y-75250000D03*
X52175000Y-75250000D03*
%TD*%
D30*
%TO.C,D10*%
X54257538Y-53342462D03*
X55742462Y-51857538D03*
%TD*%
D26*
%TO.C,D12*%
X55450000Y-45500000D03*
X57550000Y-45500000D03*
%TD*%
D24*
%TO.C,R14*%
X53360624Y-49360624D03*
X52639376Y-48639376D03*
%TD*%
D27*
%TO.C,D6*%
X55857538Y-61757538D03*
X57342462Y-63242462D03*
%TD*%
D23*
%TO.C,R5*%
X53360624Y-69139376D03*
X52639376Y-69860624D03*
%TD*%
D30*
%TO.C,D9*%
X55557538Y-55042462D03*
X57042462Y-53557538D03*
%TD*%
D33*
%TO.C,D8*%
X55300000Y-56850000D03*
X55300000Y-58950000D03*
%TD*%
D27*
%TO.C,D3*%
X55757538Y-66757538D03*
X57242462Y-68242462D03*
%TD*%
D32*
%TO.C,R4*%
X53825000Y-77000000D03*
X52175000Y-77000000D03*
%TD*%
D23*
%TO.C,R8*%
X53360624Y-61639376D03*
X52639376Y-62360624D03*
%TD*%
D24*
%TO.C,R15*%
X53360624Y-46860624D03*
X52639376Y-46139376D03*
%TD*%
D23*
%TO.C,R9*%
X53360624Y-59139376D03*
X52639376Y-59860624D03*
%TD*%
D34*
%TO.C,R11*%
X53510000Y-55700000D03*
X52490000Y-55700000D03*
%TD*%
D27*
%TO.C,D13*%
X61757538Y-71757538D03*
X63242462Y-73242462D03*
%TD*%
D19*
%TO.C,R19*%
X64139376Y-61139376D03*
X64860624Y-61860624D03*
%TD*%
D35*
%TO.C,C3*%
X60270000Y-59250000D03*
X61230000Y-59250000D03*
%TD*%
D19*
%TO.C,R17*%
X64139376Y-66639376D03*
X64860624Y-67360624D03*
%TD*%
D34*
%TO.C,R10*%
X53510000Y-57500000D03*
X52490000Y-57500000D03*
%TD*%
D23*
%TO.C,R7*%
X53260624Y-64239376D03*
X52539376Y-64960624D03*
%TD*%
D33*
%TO.C,D1*%
X66500000Y-75450000D03*
X66500000Y-77550000D03*
%TD*%
D36*
%TO.C,J1*%
X51000000Y-43000000D03*
D37*
X51000000Y-45540000D03*
X51000000Y-48080000D03*
X51000000Y-50620000D03*
X51000000Y-53160000D03*
X51000000Y-55700000D03*
X51000000Y-58240000D03*
X51000000Y-60780000D03*
X51000000Y-63320000D03*
X51000000Y-65860000D03*
X51000000Y-68400000D03*
X51000000Y-70940000D03*
X66240000Y-70940000D03*
X66240000Y-68400000D03*
X66240000Y-65860000D03*
X66240000Y-63320000D03*
X66240000Y-60780000D03*
X66240000Y-58240000D03*
X66240000Y-55700000D03*
X66240000Y-53160000D03*
X66240000Y-50620000D03*
X66240000Y-48080000D03*
X66240000Y-45540000D03*
X66240000Y-43000000D03*
%TD*%
D38*
%TO.C,BZ1*%
X60000000Y-77750000D03*
D39*
X60000000Y-84250000D03*
%TD*%
D40*
%TO.C,R2*%
X47675000Y-77250000D03*
X49325000Y-77250000D03*
%TD*%
D41*
%TO.C,C2*%
X45750000Y-79600000D03*
X45750000Y-77700000D03*
%TD*%
D42*
%TO.C,D16*%
X63000000Y-55350000D03*
X63000000Y-53250000D03*
%TD*%
D19*
%TO.C,R16*%
X64139376Y-69039376D03*
X64860624Y-69760624D03*
%TD*%
D25*
%TO.C,D15*%
X63242462Y-64757538D03*
X61757538Y-66242462D03*
%TD*%
D27*
%TO.C,D5*%
X54357538Y-63257538D03*
X55842462Y-64742462D03*
%TD*%
%LPD*%
M02*
